<svg width="302" height="109" viewBox="0 0 302 109" fill="none" xmlns="http://www.w3.org/2000/svg">
<path d="M0.0507812 104.826L18.1536 108.301H301.509V-0.00194021H223.031V4.84266L214.784 -0.00194021H0.0507812V104.826Z" fill="white"/>
<path d="M0 93.1172H301.458M300.606 12.4168L0 12.2611" stroke="#FF6D46" stroke-width="2"/>
<path d="M258.955 76.3308C269.695 76.3308 276.955 69.6108 276.955 60.1908C276.955 52.8108 272.395 48.4908 266.215 47.9508L274.315 38.4108V32.8308H251.815V39.6708H264.595L256.675 49.2708L257.875 55.7508C259.255 54.7908 260.875 54.2508 262.675 54.2508C266.635 54.2508 269.155 56.8308 269.155 60.8508C269.155 65.8908 265.315 69.2508 258.955 69.2508C256.255 69.2508 253.675 68.6508 251.455 67.5108V74.8908C253.735 75.8508 256.255 76.3308 258.955 76.3308Z" fill="#7B7B7B"/>
</svg>
