<svg width="302" height="109" viewBox="0 0 302 109" fill="none" xmlns="http://www.w3.org/2000/svg">
<path d="M0.0507812 104.83L18.1536 108.305H301.509V0.00196604H223.031V4.84657L214.784 0.00196604H0.0507812V104.83Z" fill="white"/>
<path d="M0 93.1211H301.458M300.606 12.4207L0 12.265" stroke="#FF6D46" stroke-width="2"/>
<path d="M277.401 75.5547V68.5947H262.101L271.221 57.7347C276.321 51.7347 278.181 47.8347 278.181 43.4547C278.181 36.4947 273.141 31.9947 265.281 31.9947C256.641 31.9947 250.941 37.4547 250.881 45.8547H258.381C258.441 41.4147 260.721 38.9547 264.681 38.9547C268.281 38.9547 270.561 41.0547 270.561 44.2347C270.561 46.3947 269.601 48.3747 267.201 51.2547L251.841 69.7947V75.5547H277.401Z" fill="#7B7B7B"/>
</svg>
