<svg width="350" height="349" viewBox="0 0 350 349" fill="none" xmlns="http://www.w3.org/2000/svg">
<path d="M202.967 31.4395C203.473 30.908 204.36 31.0839 204.624 31.7682L213.383 54.4204C213.612 55.0133 214.329 55.2447 214.861 54.8976L235.209 41.6382C235.824 41.2377 236.646 41.6134 236.746 42.3403L240.044 66.4017C240.13 67.0314 240.775 67.4219 241.373 67.207L264.23 58.9975C264.92 58.7495 265.634 59.3047 265.563 60.035L263.223 84.2085C263.162 84.8412 263.699 85.3697 264.331 85.2986L288.465 82.5815C289.194 82.4994 289.76 83.2042 289.523 83.8985L281.672 106.881C281.466 107.482 281.867 108.12 282.498 108.197L306.608 111.119C307.336 111.207 307.725 112.023 307.334 112.644L294.394 133.197C294.055 133.734 294.298 134.448 294.894 134.668L317.68 143.071C318.369 143.325 318.559 144.209 318.035 144.723L300.704 161.737C300.251 162.182 300.322 162.932 300.852 163.284L321.086 176.715C321.697 177.121 321.678 178.025 321.05 178.404L300.263 190.963C299.719 191.292 299.616 192.038 300.05 192.502L316.641 210.238C317.142 210.774 316.915 211.649 316.217 211.873L293.093 219.3C292.488 219.494 292.216 220.196 292.531 220.748L304.585 241.832C304.949 242.469 304.526 243.268 303.795 243.326L279.582 245.219C278.949 245.269 278.521 245.889 278.701 246.499L285.568 269.794C285.775 270.498 285.179 271.178 284.454 271.065L260.458 267.324C259.83 267.226 259.271 267.731 259.305 268.366L260.614 292.617C260.654 293.35 259.917 293.874 259.238 293.597L236.751 284.423C236.163 284.183 235.502 284.545 235.389 285.171L231.071 309.07C230.94 309.792 230.102 310.133 229.505 309.706L209.74 295.593C209.223 295.224 208.497 295.425 208.243 296.007L198.529 318.266C198.235 318.939 197.342 319.077 196.859 318.524L180.881 300.234C180.463 299.755 179.71 299.783 179.329 300.291L164.743 319.71C164.303 320.297 163.401 320.225 163.059 319.576L151.73 298.094C151.434 297.532 150.695 297.385 150.206 297.791L131.535 313.323C130.971 313.793 130.111 313.515 129.928 312.805L123.858 289.289C123.699 288.673 123.014 288.36 122.445 288.643L100.696 299.451C100.039 299.777 99.2655 299.308 99.2509 298.575L98.7683 274.293C98.7556 273.658 98.1611 273.195 97.542 273.339L73.8866 278.84C73.172 279.006 72.5277 278.371 72.6827 277.654L77.8128 253.916C77.947 253.295 77.4752 252.707 76.8396 252.705L52.5533 252.602C51.8197 252.598 51.339 251.833 51.6552 251.171L62.1214 229.255C62.3954 228.682 62.0717 228.001 61.4538 227.852L37.846 222.151C37.1328 221.979 36.8417 221.123 37.3021 220.552L52.5403 201.64C52.9391 201.146 52.781 200.409 52.2142 200.121L30.5575 189.13C29.9033 188.797 29.8174 187.897 30.3971 187.448L49.5857 172.561C50.0879 172.171 50.104 171.418 49.6188 171.007L31.0807 155.317C30.5207 154.843 30.6448 153.948 31.3125 153.644L53.4171 143.583C53.9957 143.32 54.1849 142.591 53.8075 142.079L39.3875 122.537C38.9519 121.947 39.2791 121.104 39.999 120.962L63.8279 116.27C64.4516 116.148 64.8039 115.482 64.5546 114.897L55.03 92.5562C54.7423 91.8813 55.2551 91.1366 55.9882 91.1647L80.2568 92.0947C80.892 92.1191 81.3884 91.5524 81.2807 90.926L77.1649 66.9908C77.0406 66.2678 77.7113 65.6614 78.4182 65.8578L101.818 72.3595C102.431 72.5297 103.044 72.0928 103.084 71.4584L104.599 47.2192C104.645 46.487 105.437 46.0517 106.08 46.4058L127.35 58.1286C127.906 58.4354 128.604 58.1519 128.789 57.5437L135.853 34.3073C136.067 33.6054 136.938 33.3646 137.482 33.8573L155.475 50.1693C155.946 50.5962 156.69 50.4812 157.01 49.9321L169.243 28.9512C169.612 28.3174 170.516 28.284 170.931 28.8888L184.677 48.9106C185.037 49.4346 185.788 49.4944 186.226 49.034L202.967 31.4395Z" fill="#6B53FF"/>
<path d="M119.128 150.397C121.048 150.41 122.855 149.281 123.646 147.606C124.254 146.41 130.887 131.752 131.314 130.615C131.619 129.897 131.804 129.178 131.808 128.578C131.82 126.598 130.149 125.207 127.749 125.192C125.709 125.179 123.962 126.248 123.292 127.864C122.073 130.856 120.976 133.549 120.367 134.865C119.698 136.301 117.508 140.967 116.169 143.958C115.682 145.095 115.436 146.054 115.43 146.894C115.417 148.994 116.908 150.383 119.128 150.397ZM137.471 150.455C142.331 150.486 144.317 149.598 145.595 146.786C145.838 146.308 147.906 141.881 149.243 139.249C150.276 137.156 151.555 134.164 152.346 132.429C152.771 131.772 152.956 130.933 152.962 129.973C152.978 127.513 151.189 125.822 148.608 125.865L143.447 126.012C140.687 126.115 138.757 127.542 138.745 129.522C138.732 131.562 140.704 132.835 143.764 132.854C142.607 135.427 140.479 139.854 138.837 143.323C137.877 143.257 136.197 143.186 134.518 143.056C131.099 142.854 128.51 144.397 128.495 146.617C128.485 148.297 129.976 149.627 132.374 150.002C133.572 150.31 135.191 150.44 137.471 150.455ZM168.514 150.653C171.034 150.669 172.128 148.516 173.341 146.423C174.069 145.228 177.231 138.708 179.968 132.905C180.455 131.828 180.761 130.87 180.766 130.09C180.783 127.33 178.994 125.639 175.935 125.56C174.915 125.493 173.055 125.481 171.135 125.469C167.595 125.446 166.695 125.441 165.915 125.496L167.497 122.026C167.862 121.248 168.047 120.529 168.05 119.929C168.063 118.009 166.332 116.498 163.992 116.483C162.372 116.473 161.048 117.184 160.5 118.381C156.55 126.156 156.124 127.233 156.11 129.393C156.095 131.673 157.407 132.941 159.867 133.017C160.766 133.083 164.067 133.044 170.847 132.967L165.074 144.511C164.646 145.648 164.462 146.307 164.457 147.027C164.443 149.307 165.934 150.636 168.514 150.653ZM184.71 151.416C187.171 151.312 194.372 151.238 200.014 150.914C202.235 150.808 203.563 149.496 203.576 147.396C203.583 146.376 203.349 145.415 202.932 144.872L200.732 141.858C203.694 138.397 207.263 133.86 207.809 132.843C208.474 132.067 208.78 131.169 208.787 130.029C208.8 128.049 207.19 126.539 205.15 126.526C203.77 126.517 202.445 127.169 201.478 128.363C199.845 130.332 198.03 132.781 196.277 134.81L191.758 128.241C190.747 126.854 189.492 126.066 188.172 126.058C186.012 126.044 184.262 127.593 184.25 129.453C184.242 130.833 184.951 132.577 186.317 134.746C188.278 137.759 191.196 141.137 193.218 143.97L183.856 144.21C181.336 144.254 179.527 145.683 179.514 147.723C179.499 150.003 181.709 151.577 184.71 151.416ZM210.993 150.984C212.673 150.995 214.721 149.748 215.511 148.133L220.13 138.922C221.791 141.813 225.472 148.076 225.887 148.799C226.419 150.062 228.153 151.033 229.833 151.044C232.053 151.058 233.621 149.748 233.633 147.948C233.641 146.628 233.109 145.365 230.914 141.511C233.514 138.347 236.115 135.064 238.233 132.257C238.717 131.66 238.961 131.002 238.966 130.222C238.978 128.302 237.009 126.549 234.849 126.536C233.709 126.528 232.626 127.001 231.84 127.896C230.571 129.388 228.876 131.658 226.882 133.925C225.755 131.938 224.392 129.169 222.843 127.539C222.187 126.815 221.349 126.449 220.329 126.443C218.83 126.433 217.144 127.323 216.416 128.518C215.75 129.534 213.682 133.841 212.588 135.994C211.616 137.908 208.759 143.709 208.214 144.546C207.728 145.383 207.36 146.641 207.354 147.601C207.341 149.7 208.713 150.969 210.993 150.984ZM74.6429 193.654C76.3229 193.665 77.7686 192.774 79.0405 190.922C79.6454 190.146 80.6184 188.112 82.9325 182.787C84.5762 179.077 85.4284 177.163 85.7949 176.145C87.8949 176.159 89.8752 176.111 91.2552 176.12L86.2025 187.488C85.8979 188.206 85.7122 189.105 85.7072 189.885C85.6927 192.165 87.0054 193.313 89.5253 193.329C91.6253 193.343 93.314 191.974 94.652 189.162C97.2687 183.419 99.8243 177.855 101.043 174.923C101.225 174.624 101.288 174.084 101.293 173.424C101.31 170.664 99.5217 168.853 96.583 168.654C94.6634 168.582 93.1634 168.572 89.8635 168.551C87.5835 168.536 83.444 168.45 78.2833 168.537C75.523 168.579 73.5327 170.187 73.5185 172.407C73.5063 174.327 75.0574 175.717 77.3959 175.972C76.059 178.603 74.053 182.67 72.8981 185.003L70.4516 182.887C69.6762 182.162 68.7185 181.796 67.7585 181.79C65.7786 181.778 63.9667 183.626 63.9541 185.606C63.9483 186.506 64.363 187.349 65.0795 187.893C67.4676 189.769 71.163 193.632 74.6429 193.654ZM104.645 193.306C106.565 193.318 108.372 192.19 109.163 190.515C109.77 189.319 116.404 174.661 116.831 173.523C117.136 172.805 117.321 172.086 117.324 171.486C117.337 169.506 115.666 168.116 113.266 168.1C111.226 168.087 109.479 169.156 108.809 170.772C107.59 173.764 106.492 176.457 105.884 177.773C105.215 179.209 103.025 183.875 101.686 186.867C101.199 188.004 100.952 188.962 100.947 189.802C100.934 191.902 102.425 193.292 104.645 193.306ZM133.114 193.428C135.634 193.444 136.727 191.291 137.941 189.198C138.668 188.003 141.83 181.483 144.567 175.68C145.054 174.603 145.36 173.645 145.365 172.865C145.383 170.105 143.594 168.414 140.534 168.334C139.514 168.268 137.654 168.256 135.734 168.244C132.195 168.221 131.295 168.215 130.514 168.27L132.096 164.801C132.461 164.023 132.646 163.304 132.65 162.704C132.662 160.784 130.932 159.273 128.592 159.258C126.972 159.248 125.647 159.959 125.1 161.156C121.15 168.931 120.723 170.008 120.709 172.168C120.695 174.448 122.007 175.716 124.466 175.792C125.366 175.858 128.666 175.819 135.447 175.742L129.673 187.285C129.246 188.423 129.061 189.082 129.057 189.802C129.042 192.082 130.534 193.411 133.114 193.428ZM148.413 193.585C150.333 193.597 152.141 192.469 152.931 190.794C153.539 189.598 160.173 174.94 160.6 173.803C160.905 173.085 161.089 172.366 161.093 171.766C161.106 169.786 159.434 168.395 157.035 168.38C154.995 168.367 153.248 169.436 152.577 171.051C151.358 174.044 150.261 176.737 149.653 178.053C148.983 179.489 146.794 184.155 145.455 187.146C144.967 188.283 144.721 189.242 144.716 190.082C144.702 192.182 146.194 193.571 148.413 193.585ZM180.742 192.772C183.322 192.788 184.477 190.575 185.69 188.543C186.175 187.706 190.374 178.433 191.593 175.5C191.776 174.962 191.963 173.943 191.966 173.463C191.984 170.643 190.134 169.011 186.955 168.931L184.615 168.916C179.035 168.88 169.194 169.057 168.834 169.055C166.134 169.038 164.143 170.765 164.127 173.225C164.115 175.145 165.786 176.476 168.306 176.552C169.205 176.618 173.466 176.585 181.986 176.519L177.241 186.749C176.816 187.526 176.57 188.485 176.564 189.385C176.552 191.305 178.342 192.756 180.742 192.772ZM165.157 199.872C166.837 199.883 168.284 198.812 169.075 197.077C170.17 194.744 171.938 190.375 174.498 183.972C174.741 183.553 174.866 182.774 174.871 181.994C174.886 179.714 173.395 178.264 171.115 178.25C169.555 178.24 168.05 179.07 167.382 180.326C167.139 180.744 162.444 192.415 161.894 193.971C161.591 194.569 161.466 195.289 161.461 196.129C161.447 198.289 163.057 199.859 165.157 199.872ZM210.29 193.98C212.87 193.997 213.964 191.784 215.177 189.811C215.844 188.676 218.581 182.933 222.048 175.515C222.231 175.036 222.295 174.376 222.299 173.776C222.316 171.076 220.527 169.445 217.467 169.365C216.628 169.3 216.568 169.3 211.108 169.265C205.228 169.227 202.348 169.209 200.608 169.258C198.087 169.302 195.975 171.148 195.962 173.308C195.949 175.288 197.621 176.619 200.14 176.695C202.18 176.708 208.661 176.629 212.441 176.594L206.788 188.018C206.484 188.616 206.298 189.515 206.293 190.355C206.279 192.635 207.71 193.964 210.29 193.98ZM195.709 194.067C197.389 194.078 198.836 193.067 199.626 191.392L202.85 184.633C203.154 183.914 203.4 183.016 203.404 182.356C203.416 180.496 202.043 179.347 199.643 179.332C197.783 179.32 196.276 180.39 195.183 182.424C194.272 184.278 193.116 186.73 192.445 188.406C192.079 189.304 192.017 189.663 192.013 190.263C192 192.363 193.669 194.054 195.709 194.067ZM246.725 194.153C249.245 194.169 250.338 192.016 251.552 189.923C252.279 188.728 255.441 182.208 258.178 176.405C258.665 175.329 258.971 174.37 258.976 173.591C258.994 170.831 257.205 169.139 254.145 169.06C253.125 168.993 251.265 168.981 249.345 168.969C245.806 168.946 244.906 168.941 244.125 168.996L245.707 165.526C246.072 164.748 246.257 164.029 246.261 163.429C246.273 161.509 244.543 159.998 242.203 159.983C240.583 159.973 239.258 160.684 238.71 161.881C234.761 169.656 234.334 170.733 234.32 172.893C234.306 175.173 235.617 176.441 238.077 176.517C238.977 176.583 242.277 176.544 249.058 176.467L243.284 188.011C242.857 189.148 242.672 189.807 242.668 190.527C242.653 192.807 244.145 194.136 246.725 194.153ZM275.042 194.753C278.341 194.955 280.93 193.471 282.028 190.718C283.674 186.648 285.572 180.6 286.681 176.107C286.869 174.909 286.807 175.148 286.808 175.028C286.828 171.848 284.742 169.675 281.503 169.474C281.144 169.412 281.144 169.412 279.584 169.402C277.064 169.386 271.842 169.653 266.86 169.981C264.278 170.204 262.408 171.872 262.394 173.972C262.382 175.952 264.233 177.284 267.053 177.302C270.293 177.323 275.574 177.177 277.856 176.951C276.934 180.365 275.349 184.315 273.89 187.246C270.77 187.226 264.596 186.227 262.437 186.033C260.038 185.838 257.928 187.504 257.914 189.664C257.901 191.704 259.931 193.217 263.109 193.597C265.627 193.973 271.623 194.552 275.042 194.753ZM120.413 236.167L137.032 236.273C139.072 236.286 140.821 234.858 142.279 232.047C143.494 229.775 144.954 226.664 146.354 223.433C147.695 220.261 148.492 217.566 148.501 216.126C148.519 213.366 146.848 211.916 143.548 211.835C140.249 211.753 130.349 211.63 123.81 211.589C121.05 211.571 118.818 213.357 118.804 215.577C118.794 217.137 119.926 218.344 121.784 218.776C120.445 221.767 118.13 227.153 116.73 230.324C116.304 231.281 116.119 232.06 116.114 232.78C116.102 234.64 118.013 236.152 120.413 236.167ZM125.919 228.882L130.182 219.069C131.742 219.079 134.802 219.159 138.641 219.243L134.379 228.936L125.919 228.882ZM154.526 227.685C156.206 227.696 157.833 226.626 158.804 224.832C161.233 220.288 162.874 217.058 163.117 216.58C163.421 215.981 163.605 215.323 163.609 214.723C163.622 212.623 161.712 211.11 159.072 211.094C157.152 211.081 155.706 211.972 155.036 213.588C153.94 216.101 152.234 220.11 151.322 222.084C151.017 222.802 150.832 223.521 150.829 224.121C150.816 226.101 152.426 227.672 154.526 227.685ZM165.541 236.695C167.461 236.708 169.268 235.579 170.059 233.904C170.667 232.708 177.3 218.05 177.728 216.913C178.032 216.195 178.217 215.476 178.221 214.876C178.233 212.896 176.562 211.505 174.162 211.49C172.122 211.477 170.375 212.546 169.705 214.162C168.486 217.154 167.389 219.847 166.78 221.163C166.111 222.599 163.921 227.265 162.582 230.256C162.095 231.393 161.849 232.352 161.843 233.192C161.83 235.292 163.321 236.681 165.541 236.695ZM180.658 236.792C182.578 236.804 184.385 235.676 185.176 234.001C185.783 232.805 192.417 218.147 192.844 217.009C193.149 216.291 193.334 215.572 193.337 214.972C193.35 212.992 191.679 211.602 189.279 211.586C187.239 211.573 185.492 212.642 184.822 214.258C183.603 217.25 182.505 219.943 181.897 221.26C181.228 222.695 179.038 227.361 177.699 230.353C177.212 231.49 176.966 232.448 176.96 233.288C176.947 235.388 178.438 236.778 180.658 236.792ZM209.1 227.313C211.08 227.326 212.887 226.317 213.798 224.643C216.225 220.279 217.082 217.704 217.101 214.704C217.117 212.244 215.628 210.435 213.528 210.421C210.768 210.404 208.897 212.132 208.82 214.771C208.749 216.511 207.587 219.983 206.374 222.016C205.889 222.853 205.643 223.691 205.639 224.411C205.628 226.091 207.06 227.3 209.1 227.313ZM208.736 237.331C217.976 237.39 225.58 230.539 227.203 220.709C227.387 219.99 227.453 219.15 227.46 218.01C227.482 214.53 226.055 212.601 223.415 212.584C220.235 212.564 218.842 214.535 218.813 219.035C218.79 222.695 215.336 228.013 212.147 229.433C211.184 229.847 209.683 230.077 208.123 230.067C204.643 230.045 202.792 228.533 202.81 225.713C202.82 224.213 203.491 222.477 204.947 219.967C206.099 218.114 206.709 216.618 206.715 215.538C206.728 213.618 205.177 212.228 203.017 212.214C201.217 212.203 199.47 213.212 198.38 214.765C196.2 217.871 194.61 222.661 194.588 226.081C194.558 230.701 196.877 234.015 201.366 235.844C203.76 236.819 206.216 237.315 208.736 237.331Z" fill="white"/>
</svg>
