<svg width="349" height="175" viewBox="0 0 349 175" fill="none" xmlns="http://www.w3.org/2000/svg">
<path d="M201.972 31.4395C202.478 30.908 203.365 31.0839 203.629 31.7682L212.388 54.4204C212.617 55.0133 213.334 55.2447 213.866 54.8976L234.214 41.6382C234.829 41.2377 235.651 41.6134 235.751 42.3403L239.049 66.4017C239.135 67.0314 239.779 67.4219 240.378 67.207L263.235 58.9975C263.925 58.7495 264.639 59.3047 264.568 60.035L262.228 84.2085C262.167 84.8412 262.704 85.3697 263.336 85.2986L287.47 82.5815C288.199 82.4994 288.765 83.2042 288.528 83.8985L280.677 106.881C280.471 107.482 280.872 108.12 281.503 108.197L305.613 111.119C306.341 111.207 306.729 112.023 306.338 112.644L293.399 133.197C293.06 133.734 293.303 134.448 293.899 134.668L316.685 143.071C317.374 143.325 317.563 144.209 317.04 144.723L299.709 161.737C299.256 162.182 299.327 162.932 299.857 163.284L320.091 176.715C320.702 177.121 320.683 178.025 320.055 178.404L299.268 190.963C298.724 191.292 298.62 192.038 299.055 192.502L315.646 210.238C316.147 210.774 315.92 211.649 315.221 211.873L292.098 219.3C291.493 219.494 291.22 220.196 291.536 220.748L303.59 241.832C303.954 242.469 303.531 243.268 302.8 243.326L278.587 245.219C277.953 245.269 277.526 245.889 277.706 246.499L284.572 269.794C284.78 270.498 284.184 271.178 283.459 271.065L259.463 267.324C258.835 267.226 258.276 267.731 258.31 268.366L259.619 292.617C259.659 293.35 258.922 293.874 258.243 293.597L235.756 284.423C235.167 284.183 234.507 284.545 234.394 285.171L230.075 309.07C229.945 309.792 229.107 310.133 228.51 309.706L208.745 295.593C208.228 295.224 207.502 295.425 207.247 296.007L197.534 318.266C197.24 318.939 196.347 319.077 195.864 318.524L179.886 300.234C179.468 299.755 178.715 299.783 178.333 300.291L163.748 319.71C163.307 320.297 162.406 320.225 162.064 319.576L150.735 298.094C150.439 297.532 149.7 297.385 149.211 297.791L130.54 313.323C129.976 313.793 129.116 313.515 128.933 312.805L122.863 289.289C122.704 288.673 122.019 288.36 121.45 288.643L99.7006 299.451C99.0436 299.777 98.2704 299.308 98.2558 298.575L97.7732 274.293C97.7605 273.658 97.166 273.195 96.5469 273.339L72.8915 278.84C72.1769 279.006 71.5326 278.371 71.6876 277.654L76.8176 253.916C76.9519 253.295 76.4801 252.707 75.8444 252.705L51.5582 252.602C50.8246 252.598 50.3439 251.833 50.6601 251.171L61.1263 229.255C61.4003 228.682 61.0766 228.001 60.4587 227.852L36.8509 222.151C36.1377 221.979 35.8466 221.123 36.307 220.552L51.5452 201.64C51.944 201.146 51.7859 200.409 51.2191 200.121L29.5624 189.13C28.9082 188.797 28.8223 187.897 29.402 187.448L48.5906 172.561C49.0928 172.171 49.1088 171.418 48.6237 171.007L30.0856 155.317C29.5256 154.843 29.6496 153.948 30.3174 153.644L52.422 143.583C53.0005 143.32 53.1898 142.591 52.8124 142.079L38.3924 122.537C37.9568 121.947 38.284 121.104 39.0038 120.962L62.8328 116.27C63.4564 116.148 63.8088 115.482 63.5595 114.897L54.0349 92.5562C53.7472 91.8813 54.2599 91.1366 54.9931 91.1647L79.2617 92.0947C79.8969 92.1191 80.3933 91.5524 80.2855 90.926L76.1698 66.9908C76.0455 66.2678 76.7162 65.6614 77.423 65.8578L100.823 72.3595C101.435 72.5297 102.049 72.0928 102.089 71.4584L103.604 47.2192C103.65 46.487 104.442 46.0517 105.085 46.4058L126.354 58.1286C126.911 58.4354 127.609 58.1519 127.794 57.5437L134.858 34.3073C135.071 33.6054 135.943 33.3646 136.486 33.8573L154.48 50.1693C154.95 50.5962 155.695 50.4812 156.015 49.9321L168.247 28.9512C168.617 28.3174 169.521 28.284 169.936 28.8888L183.682 48.9106C184.042 49.4346 184.793 49.4944 185.231 49.034L201.972 31.4395Z" fill="#EEEB73"/>
</svg>
