<svg width="349" height="174" viewBox="0 0 349 174" fill="none" xmlns="http://www.w3.org/2000/svg">
<path d="M201.972 -143.56C202.478 -144.092 203.365 -143.916 203.629 -143.232L212.388 -120.58C212.617 -119.987 213.334 -119.755 213.866 -120.102L234.214 -133.362C234.829 -133.762 235.651 -133.387 235.751 -132.66L239.049 -108.598C239.135 -107.969 239.779 -107.578 240.378 -107.793L263.235 -116.002C263.925 -116.25 264.639 -115.695 264.568 -114.965L262.228 -90.7915C262.167 -90.1588 262.704 -89.6303 263.336 -89.7014L287.47 -92.4185C288.199 -92.5006 288.765 -91.7958 288.528 -91.1015L280.677 -68.1191C280.471 -67.5176 280.872 -66.8796 281.503 -66.8031L305.613 -63.8813C306.341 -63.793 306.729 -62.9766 306.338 -62.3557L293.399 -41.8035C293.06 -41.2656 293.303 -40.5524 293.899 -40.3324L316.685 -31.9292C317.374 -31.6753 317.563 -30.7913 317.04 -30.2773L299.709 -13.2632C299.256 -12.8179 299.327 -12.068 299.857 -11.7164L320.091 1.71522C320.702 2.12096 320.683 3.0249 320.055 3.40428L299.268 15.9631C298.724 16.2918 298.62 17.038 299.055 17.5022L315.646 35.2381C316.147 35.7739 315.92 36.649 315.221 36.8733L292.098 44.2998C291.493 44.4942 291.22 45.1964 291.536 45.7482L303.59 66.8323C303.954 67.4692 303.531 68.2683 302.8 68.3255L278.587 70.2193C277.953 70.2688 277.526 70.8893 277.706 71.499L284.572 94.7945C284.78 95.4982 284.184 96.1783 283.459 96.0653L259.463 92.3241C258.835 92.2262 258.276 92.7314 258.31 93.3661L259.619 117.617C259.659 118.35 258.922 118.874 258.243 118.597L235.756 109.423C235.167 109.183 234.507 109.545 234.394 110.171L230.075 134.07C229.945 134.792 229.107 135.133 228.51 134.706L208.745 120.593C208.228 120.224 207.502 120.425 207.247 121.007L197.534 143.266C197.24 143.939 196.347 144.077 195.864 143.524L179.886 125.234C179.468 124.755 178.715 124.783 178.333 125.291L163.748 144.71C163.307 145.297 162.406 145.225 162.064 144.576L150.735 123.094C150.439 122.532 149.7 122.385 149.211 122.791L130.54 138.323C129.976 138.793 129.116 138.515 128.933 137.805L122.863 114.289C122.704 113.673 122.019 113.36 121.45 113.643L99.7006 124.451C99.0436 124.777 98.2704 124.308 98.2558 123.575L97.7732 99.2933C97.7605 98.6578 97.166 98.1952 96.5469 98.3391L72.8915 103.84C72.1769 104.006 71.5326 103.371 71.6876 102.654L76.8176 78.9159C76.9519 78.2946 76.4801 77.7074 75.8444 77.7047L51.5582 77.6016C50.8246 77.5985 50.3439 76.8327 50.6601 76.1707L61.1263 54.2551C61.4003 53.6816 61.0766 53.0013 60.4587 52.8521L36.8509 47.151C36.1377 46.9788 35.8466 46.1228 36.307 45.5515L51.5452 26.6404C51.944 26.1455 51.7859 25.409 51.2191 25.1213L29.5624 14.1295C28.9082 13.7975 28.8223 12.8974 29.402 12.4477L48.5906 -2.43948C49.0928 -2.82909 49.1088 -3.58225 48.6237 -3.99288L30.0856 -19.6827C29.5256 -20.1567 29.6496 -21.0523 30.3174 -21.3562L52.422 -31.4169C53.0005 -31.6802 53.1898 -32.4094 52.8124 -32.9208L38.3924 -52.4629C37.9568 -53.0533 38.284 -53.8961 39.0038 -54.0378L62.8328 -58.7296C63.4564 -58.8524 63.8088 -59.5183 63.5595 -60.103L54.0349 -82.4438C53.7472 -83.1187 54.2599 -83.8634 54.9931 -83.8353L79.2617 -82.9053C79.8969 -82.8809 80.3933 -83.4476 80.2855 -84.074L76.1698 -108.009C76.0455 -108.732 76.7162 -109.339 77.423 -109.142L100.823 -102.64C101.435 -102.47 102.049 -102.907 102.089 -103.542L103.604 -127.781C103.65 -128.513 104.442 -128.948 105.085 -128.594L126.354 -116.871C126.911 -116.565 127.609 -116.848 127.794 -117.456L134.858 -140.693C135.071 -141.395 135.943 -141.635 136.486 -141.143L154.48 -124.831C154.95 -124.404 155.695 -124.519 156.015 -125.068L168.247 -146.049C168.617 -146.683 169.521 -146.716 169.936 -146.111L183.682 -126.089C184.042 -125.565 184.793 -125.506 185.231 -125.966L201.972 -143.56Z" fill="#EEEB73"/>
</svg>
