<svg width="349" height="165" viewBox="0 0 349 165" fill="none" xmlns="http://www.w3.org/2000/svg">
<path d="M201.972 -152.56C202.478 -153.092 203.365 -152.916 203.629 -152.232L212.388 -129.58C212.617 -128.987 213.334 -128.755 213.866 -129.102L234.214 -142.362C234.829 -142.762 235.651 -142.387 235.751 -141.66L239.049 -117.598C239.135 -116.969 239.779 -116.578 240.378 -116.793L263.235 -125.002C263.925 -125.25 264.639 -124.695 264.568 -123.965L262.228 -99.7915C262.167 -99.1588 262.704 -98.6303 263.336 -98.7014L287.47 -101.419C288.199 -101.501 288.765 -100.796 288.528 -100.102L280.677 -77.1191C280.471 -76.5176 280.872 -75.8796 281.503 -75.8031L305.613 -72.8813C306.341 -72.793 306.729 -71.9766 306.338 -71.3557L293.399 -50.8035C293.06 -50.2656 293.303 -49.5524 293.899 -49.3324L316.685 -40.9292C317.374 -40.6753 317.563 -39.7913 317.04 -39.2773L299.709 -22.2632C299.256 -21.8179 299.327 -21.068 299.857 -20.7164L320.091 -7.28478C320.702 -6.87904 320.683 -5.9751 320.055 -5.59572L299.268 6.96311C298.724 7.2918 298.62 8.03799 299.055 8.50218L315.646 26.2381C316.147 26.7739 315.92 27.649 315.221 27.8733L292.098 35.2998C291.493 35.4942 291.22 36.1964 291.536 36.7482L303.59 57.8323C303.954 58.4692 303.531 59.2683 302.8 59.3255L278.587 61.2193C277.953 61.2688 277.526 61.8893 277.706 62.499L284.572 85.7945C284.78 86.4982 284.184 87.1783 283.459 87.0653L259.463 83.3241C258.835 83.2262 258.276 83.7314 258.31 84.3661L259.619 108.617C259.659 109.35 258.922 109.874 258.243 109.597L235.756 100.423C235.167 100.183 234.507 100.545 234.394 101.171L230.075 125.07C229.945 125.792 229.107 126.133 228.51 125.706L208.745 111.593C208.228 111.224 207.502 111.425 207.247 112.007L197.534 134.266C197.24 134.939 196.347 135.077 195.864 134.524L179.886 116.234C179.468 115.755 178.715 115.783 178.333 116.291L163.748 135.71C163.307 136.297 162.406 136.225 162.064 135.576L150.735 114.094C150.439 113.532 149.7 113.385 149.211 113.791L130.54 129.323C129.976 129.793 129.116 129.515 128.933 128.805L122.863 105.289C122.704 104.673 122.019 104.36 121.45 104.643L99.7006 115.451C99.0436 115.777 98.2704 115.308 98.2558 114.575L97.7732 90.2933C97.7605 89.6578 97.166 89.1952 96.5469 89.3391L72.8915 94.8396C72.1769 95.0058 71.5326 94.3715 71.6876 93.6544L76.8176 69.9159C76.9519 69.2946 76.4801 68.7074 75.8444 68.7047L51.5582 68.6016C50.8246 68.5985 50.3439 67.8327 50.6601 67.1707L61.1263 45.2551C61.4003 44.6816 61.0766 44.0013 60.4587 43.8521L36.8509 38.151C36.1377 37.9788 35.8466 37.1228 36.307 36.5515L51.5452 17.6404C51.944 17.1455 51.7859 16.409 51.2191 16.1213L29.5624 5.12951C28.9082 4.79747 28.8223 3.89741 29.402 3.4477L48.5906 -11.4395C49.0928 -11.8291 49.1088 -12.5822 48.6237 -12.9929L30.0856 -28.6827C29.5256 -29.1567 29.6496 -30.0523 30.3174 -30.3562L52.422 -40.4169C53.0005 -40.6802 53.1898 -41.4094 52.8124 -41.9208L38.3924 -61.4629C37.9568 -62.0533 38.284 -62.8961 39.0038 -63.0378L62.8328 -67.7296C63.4564 -67.8524 63.8088 -68.5183 63.5595 -69.103L54.0349 -91.4438C53.7472 -92.1187 54.2599 -92.8634 54.9931 -92.8353L79.2617 -91.9053C79.8969 -91.8809 80.3933 -92.4476 80.2855 -93.074L76.1698 -117.009C76.0455 -117.732 76.7162 -118.339 77.423 -118.142L100.823 -111.64C101.435 -111.47 102.049 -111.907 102.089 -112.542L103.604 -136.781C103.65 -137.513 104.442 -137.948 105.085 -137.594L126.354 -125.871C126.911 -125.565 127.609 -125.848 127.794 -126.456L134.858 -149.693C135.071 -150.395 135.943 -150.635 136.486 -150.143L154.48 -133.831C154.95 -133.404 155.695 -133.519 156.015 -134.068L168.247 -155.049C168.617 -155.683 169.521 -155.716 169.936 -155.111L183.682 -135.089C184.042 -134.565 184.793 -134.506 185.231 -134.966L201.972 -152.56Z" fill="#FFA289"/>
</svg>
