<svg width="390" height="844" viewBox="0 0 390 844" fill="none" xmlns="http://www.w3.org/2000/svg">
<rect width="390" height="844" fill="#C1C1C1"/>
<path d="M211.824 204V192.012C211.824 187.296 209.412 184.668 205.092 184.668H193.644V204H211.824ZM198.468 188.7H203.94C205.956 188.7 207 189.852 207 192.084V199.968H198.468V188.7ZM222.721 197.232V184.668H215.665V188.7H217.861V197.232H222.721ZM230.232 204.072C234.12 204.072 236.316 201.876 236.316 197.844V184.668H227.064V188.7H231.492V197.592C231.492 199.212 230.7 200.076 229.116 200.076H226.596V204.072H230.232ZM252.079 204.504C259.135 204.504 263.887 199.752 263.887 192.768V184.668H259.315V192.336C259.315 197.304 256.471 200.544 252.187 200.544C249.883 200.544 247.975 199.572 246.823 197.844C252.259 196.728 254.599 194.172 254.599 189.276V184.668H250.135V189.06C250.135 192.552 248.767 194.208 245.599 194.784C245.455 194.136 245.419 193.452 245.419 192.696V184.668H240.847V193.344C240.847 200.292 245.419 204.504 252.079 204.504ZM282.983 204C282.911 193.668 284.531 189.348 291.191 182.292V178.368H275.135V182.544H285.287C279.851 188.736 277.979 194.28 277.979 204H282.983ZM308.221 197.232V184.668H301.165V188.7H303.361V197.232H308.221ZM315.732 204.072C319.62 204.072 321.816 201.876 321.816 197.844V184.668H312.564V188.7H316.992V197.592C316.992 199.212 316.2 200.076 314.616 200.076H312.096V204.072H315.732ZM332.83 204C340.21 204 344.134 200.364 344.134 193.524C344.134 187.26 340.822 184.092 334.954 184.092C329.23 184.092 325.594 187.08 325.594 191.544C325.594 196.62 330.31 197.916 332.758 197.916V194.064C331.282 193.812 330.166 193.02 330.166 191.364C330.166 189.42 331.75 188.124 334.558 188.124C337.726 188.124 339.454 189.78 339.454 193.848C339.454 198.492 337.15 200.004 332.038 200.004H326.962V204H332.83ZM355.68 204L361.62 188.448V184.668H351.36V178.224H346.608V188.7H356.472L350.604 204H355.68ZM123.456 240V228.012C123.456 223.26 121.08 220.668 116.724 220.668H105.924V224.7H115.536C117.552 224.7 118.632 225.852 118.632 228.084V240H123.456ZM110.748 240V230.028H105.924V240H110.748ZM135.813 240L141.753 224.448V220.668H131.493V214.224H126.741V224.7H136.605L130.737 240H135.813ZM152.197 233.232V220.668H145.141V224.7H147.337V233.232H152.197ZM174.538 240V228.012C174.538 223.26 172.162 220.668 167.806 220.668H157.006V224.7H166.618C168.634 224.7 169.714 225.852 169.714 228.084V240H174.538ZM161.83 240V230.028H157.006V240H161.83ZM192.043 240L197.479 224.592V220.668H179.083V224.7H192.367L187.003 240H192.043ZM184.051 244.644V230.028H179.227V244.644H184.051ZM221.773 240V224.7H225.949V220.668H207.805V224.7H216.949V240H221.773ZM234.573 240V224.7H239.973C242.025 224.7 243.069 225.852 243.069 228.084V240H247.893V228.012C247.893 223.296 245.481 220.668 241.161 220.668H229.749V240H234.573ZM258.826 233.232V220.668H251.77V224.7H253.966V233.232H258.826ZM278.201 240V220.668H271.109V224.7H273.305V240H278.201ZM285.954 240.072C289.842 240.072 292.038 237.876 292.038 233.844V220.668H282.786V224.7H287.214V233.592C287.214 235.212 286.422 236.076 284.838 236.076H282.318V240.072H285.954ZM307.841 240.432C313.745 240.432 317.201 236.58 317.201 230.028C317.201 223.944 314.069 220.344 308.813 220.344C306.077 220.344 303.953 221.388 302.405 223.512L300.785 220.668H295.313L298.949 227.328C298.121 231.72 297.401 237.012 297.149 240.216H301.937L302.369 236.472C302.945 231.72 303.341 229.524 303.989 227.976C304.853 225.528 306.221 224.34 308.201 224.34C310.865 224.34 312.413 226.536 312.413 230.352C312.413 234.312 310.757 236.328 307.445 236.328C306.833 236.328 306.113 236.292 305.609 236.148V240.18C306.257 240.36 306.941 240.432 307.841 240.432ZM334.004 240L339.44 224.592V220.668H321.044V224.7H334.328L328.964 240H334.004ZM326.012 244.644V230.028H321.188V244.644H326.012ZM360.831 240V228.012C360.831 223.26 358.455 220.668 354.099 220.668H343.299V224.7H352.911C354.927 224.7 356.007 225.852 356.007 228.084V240H360.831ZM348.123 240V230.028H343.299V240H348.123Z" fill="white"/>
<path d="M199.688 306V285.66C199.688 277.56 195.487 273.06 187.928 273.06H168.488V281.16H185.288C188.228 281.16 189.788 282.78 189.788 285.84V306H199.688ZM178.388 306V289.26H168.488V306H178.388ZM211.748 306C218.828 306 222.788 301.98 222.788 294.66V273.06H205.688V281.16H212.888V294C212.888 296.58 211.628 297.9 209.168 297.9H205.088V306H211.748ZM242.093 306V273.06H228.473V281.16H232.073V306H242.093ZM269.148 306.84C281.688 306.84 290.088 298.74 290.088 286.86V273.06H280.728V285.84C280.728 293.7 276.168 298.86 269.388 298.86C266.088 298.86 263.268 297.6 261.408 295.32C270.348 293.46 274.248 289.2 274.248 281.04V273.06H265.128V280.68C265.128 285.72 263.208 288.42 258.888 289.32C258.708 288.42 258.648 287.46 258.648 286.44V273.06H249.288V287.82C249.288 299.7 257.388 306.84 269.148 306.84ZM305.405 306C305.705 303.72 306.005 301.8 306.425 299.52C306.905 296.82 307.145 294.42 308.945 292.86L318.725 306H330.305L318.845 290.58C324.425 289.08 326.945 285.9 328.505 278.46C328.925 276.48 329.225 274.56 329.465 273.06H319.325L318.665 277.86C318.125 281.46 317.765 283.92 315.005 285.36L305.885 273.06H294.305L304.865 287.34C300.485 289.26 298.265 291.66 296.465 298.8C295.805 301.32 295.445 303.66 295.025 306H305.405ZM360.021 306L360.081 285.66C360.081 277.56 355.881 273.06 348.321 273.06H333.921V281.16H345.681C348.621 281.16 350.121 282.78 350.121 285.84V306H360.021ZM59.2875 360V339.66C59.2875 331.56 55.0875 327.06 47.5275 327.06H26.8875V360H59.2875ZM36.7275 335.16H45.0075C47.8875 335.16 49.4475 336.78 49.4475 339.84V351.9H36.7275V335.16ZM81.0769 360L90.1969 334.68V327.06H73.8769V316.56H64.0969V335.16H79.6969L70.6969 360H81.0769ZM108.91 360V327.06H95.2898V335.16H98.8898V360H108.91ZM127.519 360C140.059 360 145.999 355.02 147.319 343.32C147.679 340.68 147.859 336.54 147.859 331.5C147.859 329.28 147.799 328.2 147.799 327.06H137.599V334.26C137.599 338.4 137.419 341.82 137.119 344.52C136.639 348.42 135.799 350.28 134.119 351.12L125.059 327.06H114.319L124.219 351.9H119.659H115.099V360H127.519ZM185.032 360V351.9H179.932V339.66C179.932 331.56 175.732 327.06 168.172 327.06H153.832V335.16H165.592C168.532 335.16 170.032 336.78 170.032 339.84V351.9H153.532V360H185.032ZM233.906 360V339.66C233.906 331.56 229.706 327.06 222.146 327.06H202.706V335.16H219.506C222.446 335.16 224.006 336.78 224.006 339.84V360H233.906ZM212.606 360V343.26H202.706V360H212.606ZM250.226 355.26H250.346C250.706 356.76 251.246 358.44 251.786 360H261.026L259.526 354.6C258.446 350.58 258.506 347.46 258.506 342.96V327.06H240.926V335.1H248.726V342.48C248.726 343.98 248.726 345.24 248.786 346.38L239.306 351.66V361.44L250.226 355.26ZM278.656 360V327.06H265.036V335.16H268.636V360H278.656ZM302.291 360.84C312.551 360.84 319.451 353.82 319.451 343.32C319.451 333.36 313.091 327.06 303.131 327.06H285.851V344.16C285.851 354.3 292.331 360.84 302.291 360.84ZM302.591 352.56C298.391 352.56 295.751 349.2 295.751 343.8V335.16H302.471C306.851 335.16 309.611 338.46 309.611 343.74C309.611 349.08 306.851 352.56 302.591 352.56ZM344.388 360.6C354.828 360.6 360.888 354.18 360.888 343.08C360.888 332.76 355.488 326.64 346.368 326.64C341.928 326.64 338.628 328.14 336.048 331.38L333.468 327.06H322.188L328.368 338.34C326.748 348.06 325.788 354.66 325.308 360.24H335.148L335.928 353.94C337.188 343.68 337.848 340.62 339.348 338.1C340.668 335.88 342.528 334.74 344.868 334.74C348.768 334.74 351.048 337.98 351.048 343.56C351.048 349.44 348.528 352.32 343.368 352.32C342.588 352.32 341.508 352.26 340.548 352.08V360.18C341.628 360.48 342.828 360.6 344.388 360.6Z" fill="#6B53FF"/>
<path d="M143.087 414V402.012C143.087 397.26 140.711 394.668 136.391 394.668H128.255V398.7H135.167C137.219 398.7 138.263 399.852 138.263 402.084V414H143.087ZM164.79 414V409.968H161.766V402.012C161.766 397.296 159.426 394.668 155.034 394.668H147.186V398.7H153.846C155.97 398.7 156.942 399.924 156.942 402.084V409.968H147.006V414H164.79ZM171.93 414C178.914 414 182.622 410.508 182.622 403.884C182.622 397.836 179.526 394.668 173.622 394.668H167.574V398.664H172.506C176.07 398.664 177.798 400.464 177.798 404.244C177.798 408.276 175.818 410.04 171.354 410.04H167.394V414H171.93ZM200.998 414V394.668H193.906V398.7H196.102V414H200.998ZM208.751 414.072C212.639 414.072 214.835 411.876 214.835 407.844V394.668H205.583V398.7H210.011V407.592C210.011 409.212 209.219 410.076 207.635 410.076H205.115V414.072H208.751ZM224.659 414V398.7H230.059C232.111 398.7 233.155 399.852 233.155 402.084V414H237.979V402.012C237.979 397.296 235.567 394.668 231.247 394.668H219.835V414H224.659ZM245.384 414.072C249.272 414.072 251.468 411.876 251.468 407.844V394.668H242.216V398.7H246.644V407.592C246.644 409.212 245.852 410.076 244.268 410.076H241.748V414.072H245.384ZM259.935 414C260.079 412.776 260.223 411.768 260.475 410.436C260.763 408.708 260.907 406.764 262.851 405.72L269.007 414H274.659L267.963 404.964C271.311 404.064 272.787 402.228 273.723 397.728C273.939 396.648 274.119 395.568 274.227 394.668H269.295C269.151 395.568 269.043 396.576 268.899 397.548C268.575 399.528 268.395 401.436 266.055 402.372L260.331 394.668H254.679L260.871 403.056C257.991 404.1 256.659 405.684 255.651 409.968C255.327 411.3 255.111 412.596 254.895 414H259.935ZM304.672 414V402.012C304.672 397.296 302.26 394.668 297.94 394.668H286.492V414H304.672ZM291.316 398.7H296.788C298.804 398.7 299.848 399.852 299.848 402.084V409.968H291.316V398.7ZM315.748 414V394.668H308.656V398.7H310.852V414H315.748ZM327.029 407.232V394.668H319.973V398.7H322.169V407.232H327.029ZM349.37 414V402.012C349.37 397.26 346.994 394.668 342.638 394.668H331.838V398.7H341.45C343.466 398.7 344.546 399.852 344.546 402.084V414H349.37ZM336.662 414V404.028H331.838V414H336.662ZM360.467 414V394.668H353.375V398.7H355.571V414H360.467ZM189.883 450L195.823 434.448V430.668H185.563V424.224H180.811V434.7H190.675L184.807 450H189.883ZM210.981 450.504C218.037 450.504 222.789 445.752 222.789 438.768V430.668H218.217V438.336C218.217 443.304 215.373 446.544 211.089 446.544C208.785 446.544 206.877 445.572 205.725 443.844C211.161 442.728 213.501 440.172 213.501 435.276V430.668H209.037V435.06C209.037 438.552 207.669 440.208 204.501 440.784C204.357 440.136 204.321 439.452 204.321 438.696V430.668H199.749V439.344C199.749 446.292 204.321 450.504 210.981 450.504ZM252.901 450V438.012C252.901 433.26 250.525 430.668 246.169 430.668H235.369V434.7H244.981C246.997 434.7 248.077 435.852 248.077 438.084V450H252.901ZM240.193 450V440.028H235.369V450H240.193ZM263.818 443.232V430.668H256.762V434.7H258.958V443.232H263.818ZM282.517 450V438.012C282.517 433.26 280.141 430.668 275.821 430.668H267.685V434.7H274.597C276.649 434.7 277.693 435.852 277.693 438.084V450H282.517ZM293.42 450C300.8 450 304.724 446.364 304.724 439.524C304.724 433.26 301.412 430.092 295.544 430.092C289.82 430.092 286.184 433.08 286.184 437.544C286.184 442.62 290.9 443.916 293.348 443.916V440.064C291.872 439.812 290.756 439.02 290.756 437.364C290.756 435.42 292.34 434.124 295.148 434.124C298.316 434.124 300.044 435.78 300.044 439.848C300.044 444.492 297.74 446.004 292.628 446.004H287.552V450H293.42ZM319.266 450.432C325.17 450.432 328.626 446.58 328.626 440.028C328.626 433.944 325.494 430.344 320.238 430.344C317.502 430.344 315.378 431.388 313.83 433.512L312.21 430.668H306.738L310.374 437.328C309.546 441.72 308.826 447.012 308.574 450.216H313.362L313.794 446.472C314.37 441.72 314.766 439.524 315.414 437.976C316.278 435.528 317.646 434.34 319.626 434.34C322.29 434.34 323.838 436.536 323.838 440.352C323.838 444.312 322.182 446.328 318.87 446.328C318.258 446.328 317.538 446.292 317.034 446.148V450.18C317.682 450.36 318.366 450.432 319.266 450.432ZM338.666 443.232V430.668H331.61V434.7H333.806V443.232H338.666ZM347.157 450C347.301 448.776 347.445 447.768 347.697 446.436C347.985 444.708 348.129 442.764 350.073 441.72L356.229 450H361.881L355.185 440.964C358.533 440.064 360.009 438.228 360.945 433.728C361.161 432.648 361.341 431.568 361.449 430.668H356.517C356.373 431.568 356.265 432.576 356.121 433.548C355.797 435.528 355.617 437.436 353.277 438.372L347.553 430.668H341.901L348.093 439.056C345.213 440.1 343.881 441.684 342.873 445.968C342.549 447.3 342.333 448.596 342.117 450H347.157Z" fill="white"/>
<path d="M88.1445 542.798L101.593 543.601L100.215 529.884" stroke="white" stroke-width="5" stroke-linecap="round" stroke-linejoin="round"/>
<path d="M100.638 541.729C69.9547 523.825 90.9641 463.838 132.69 459.315" stroke="white" stroke-width="5" stroke-linecap="round" stroke-linejoin="round"/>
</svg>
