<svg width="362" height="114" viewBox="0 0 362 114" fill="none" xmlns="http://www.w3.org/2000/svg">
<path d="M14.0569 3.67942L34.9372 0.0429689L361.618 0.042971L361.321 113.372L270.845 113.372L270.858 108.303L261.336 113.372L13.7699 113.372L14.0569 3.67942Z" fill="white"/>
<path d="M13.9648 15.9414L361.516 15.9414M360.313 100.387L13.7435 100.55" stroke="white" stroke-width="2"/>
<path d="M39.3844 54.2373C42.9544 54.2373 44.7244 52.3773 44.7244 48.6273L44.7244 41.2773L48.5344 41.2773C50.2144 41.2773 51.0844 42.2373 51.0844 44.0973L51.0844 54.0273L55.1044 54.0273L55.1044 44.0073C55.1044 40.0773 53.1244 37.9173 49.4944 37.9173L37.1044 37.9173L37.1044 41.2773L40.7044 41.2773L40.7044 48.0873C40.7044 50.0673 40.0744 50.8773 38.4544 50.8773C38.0644 50.8773 37.7344 50.8473 37.1344 50.7273L37.1344 53.9073C37.8244 54.1173 38.5744 54.2373 39.3844 54.2373ZM64.346 54.0273L64.346 37.9173L58.436 37.9173L58.436 41.2773L60.266 41.2773L60.266 54.0273L64.346 54.0273ZM72.9389 54.0273C79.1489 54.0273 81.8789 51.8973 82.6889 46.4673C82.8989 45.2073 83.0189 43.2573 83.0489 40.9173C83.0789 39.7473 83.0789 38.8173 83.0789 37.9173L78.9389 37.9173L78.9389 40.5573C78.9389 42.7473 78.8189 44.8173 78.6089 46.4073C78.2789 48.7173 77.7689 49.7673 76.7189 50.2473L71.9789 37.9173L67.5989 37.9173L72.6689 50.6673L70.3289 50.6673L67.9589 50.6673L67.9589 54.0273L72.9389 54.0273ZM92.1745 48.3873L92.1745 37.9173L86.2945 37.9173L86.2945 41.2773L88.1245 41.2773L88.1245 48.3873L92.1745 48.3873ZM106.952 54.0273L111.482 41.1873L111.482 37.9173L96.1516 37.9173L96.1516 41.2773L107.222 41.2773L102.752 54.0273L106.952 54.0273ZM100.292 57.8973L100.292 45.7173L96.2716 45.7173L96.2716 57.8973L100.292 57.8973ZM123.964 54.4473C129.844 54.4473 133.804 50.4873 133.804 44.6673L133.804 37.9173L129.994 37.9173L129.994 44.3073C129.994 48.4473 127.624 51.1473 124.054 51.1473C122.134 51.1473 120.544 50.3373 119.584 48.8973C124.114 47.9673 126.064 45.8373 126.064 41.7573L126.064 37.9173L122.344 37.9173L122.344 41.5773C122.344 44.4873 121.204 45.8673 118.564 46.3473C118.444 45.8073 118.414 45.2373 118.414 44.6073L118.414 37.9173L114.604 37.9173L114.604 45.1473C114.604 50.9373 118.414 54.4473 123.964 54.4473ZM146.672 54.3873C151.592 54.3873 154.472 51.1773 154.472 45.7173C154.472 40.6473 151.862 37.6473 147.482 37.6473C145.202 37.6473 143.432 38.5173 142.142 40.2873L140.792 37.9173L136.232 37.9173L139.262 43.4673C138.572 47.1273 137.972 51.5373 137.762 54.2073L141.752 54.2073L142.112 51.0873C142.592 47.1273 142.922 45.2973 143.462 44.0073C144.182 41.9673 145.322 40.9773 146.972 40.9773C149.192 40.9773 150.482 42.8073 150.482 45.9873C150.482 49.2873 149.102 50.9673 146.342 50.9673C145.832 50.9673 145.232 50.9373 144.812 50.8173L144.812 54.1773C145.352 54.3273 145.922 54.3873 146.672 54.3873ZM49.6666 85.0273L49.6666 75.0373C49.6666 71.1073 47.6566 68.9173 44.0566 68.9173L34.5166 68.9173L34.5166 85.0273L49.6666 85.0273ZM38.5366 72.2773L43.0966 72.2773C44.7766 72.2773 45.6466 73.2373 45.6466 75.0973L45.6466 81.6673L38.5366 81.6673L38.5366 72.2773ZM58.7468 79.3873L58.7468 68.9173L52.8668 68.9173L52.8668 72.2773L54.6968 72.2773L54.6968 79.3873L58.7468 79.3873ZM67.0502 85.0273C73.2602 85.0273 75.9902 82.8973 76.8002 77.4673C77.0102 76.2073 77.1302 74.2573 77.1602 71.9173C77.1902 70.7473 77.1902 69.8173 77.1902 68.9173L73.0502 68.9173L73.0502 71.5573C73.0502 73.7473 72.9302 75.8173 72.7202 77.4073C72.3902 79.7173 71.8802 80.7673 70.8302 81.2473L66.0902 68.9173L61.7102 68.9173L66.7802 81.6673L64.4402 81.6673L62.0702 81.6673L62.0702 85.0273L67.0502 85.0273ZM86.2859 79.3873L86.2859 68.9173L80.4059 68.9173L80.4059 72.2773L82.2359 72.2773L82.2359 79.3873L86.2859 79.3873ZM101.063 85.0273L105.593 72.1873L105.593 68.9173L90.263 68.9173L90.263 72.2773L101.333 72.2773L96.863 85.0273L101.063 85.0273ZM94.403 88.8973L94.403 76.7173L90.383 76.7173L90.383 88.8973L94.403 88.8973ZM118.075 85.4473C123.955 85.4473 127.915 81.4873 127.915 75.6673L127.915 68.9173L124.105 68.9173L124.105 75.3073C124.105 79.4473 121.735 82.1473 118.165 82.1473C116.245 82.1473 114.655 81.3373 113.695 79.8973C118.225 78.9673 120.175 76.8373 120.175 72.7573L120.175 68.9173L116.455 68.9173L116.455 72.5773C116.455 75.4873 115.315 76.8673 112.675 77.3473C112.555 76.8073 112.525 76.2373 112.525 75.6073L112.525 68.9173L108.715 68.9173L108.715 76.1473C108.715 81.9373 112.525 85.4473 118.075 85.4473ZM140.784 85.3873C145.704 85.3873 148.584 82.1773 148.584 76.7173C148.584 71.6473 145.974 68.6473 141.594 68.6473C139.314 68.6473 137.544 69.5173 136.254 71.2873L134.904 68.9173L130.344 68.9173L133.374 74.4673C132.684 78.1273 132.084 82.5373 131.874 85.2073L135.864 85.2073L136.224 82.0873C136.704 78.1273 137.034 76.2973 137.574 75.0073C138.294 72.9673 139.434 71.9773 141.084 71.9773C143.304 71.9773 144.594 73.8073 144.594 76.9873C144.594 80.2873 143.214 81.9673 140.454 81.9673C139.944 81.9673 139.344 81.9373 138.924 81.8173L138.924 85.1773C139.464 85.3273 140.034 85.3873 140.784 85.3873ZM157.012 85.0273L157.012 68.9173L151.102 68.9173L151.102 72.2773L152.932 72.2773L152.932 85.0273L157.012 85.0273Z" fill="#6B53FF"/>
</svg>
