<svg width="287" height="382" viewBox="0 0 287 382" fill="none" xmlns="http://www.w3.org/2000/svg">
<path d="M304.634 265.623C262.419 319.395 204.102 337.323 149.793 319.982C144.082 318.155 138.583 315.593 133.02 313.303C130.25 312.156 128.534 310.68 131.396 307.719C132.625 306.454 134.024 304.702 132.581 302.904C131.352 301.381 129.568 302.724 128.014 302.789C120.093 303.064 112.628 301.83 106.182 296.51C74.4998 270.338 56.9007 236.92 55.1432 195.794C53.4426 155.934 66.976 121.545 95.406 93.7119C127.123 62.6506 165.782 50.6766 209.662 56.1816C265.253 63.1457 313.149 108.87 323.881 164.12C331.839 205.057 322.424 241.717 304.634 265.623Z" fill="#FF6D46"/>
<path d="M313.5 189C313.5 254.894 258.314 308.5 190 308.5C121.686 308.5 66.5 254.894 66.5 189C66.5 123.107 121.686 69.5002 190 69.5002C258.314 69.5002 313.5 123.107 313.5 189Z" stroke="#6249FF" stroke-width="7"/>
<path d="M290.478 186.895C291.604 240.635 247.632 285.314 192.042 286.479C136.452 287.643 90.6477 244.845 89.5219 191.105C88.3961 137.365 132.368 92.686 187.958 91.5214C243.547 90.3569 289.352 133.155 290.478 186.895Z" stroke="#6249FF" stroke-width="7"/>
<rect x="79" y="164.965" width="222" height="63.9522" transform="rotate(-0.249102 79 164.965)" fill="#FF6D46"/>
<path d="M128.708 184.08C130.188 184.08 131.508 182.92 132.107 181.16C135.828 171.12 137.428 166.72 137.587 165.92C137.708 165.36 137.708 165.2 137.708 164.88C137.708 162.8 136.468 161.48 134.348 161.36C133.788 161.32 133.148 161.32 132.467 161.32C130.868 161.32 127.908 161.4 125.148 161.56C123.467 161.56 121.827 162.6 121.027 164.12C120.347 165.4 119.507 166.84 118.867 168.2C118.747 168.48 118.667 168.96 118.667 169.36C118.667 170.96 119.747 172 121.547 172.12C122.187 172.16 123.388 172.32 124.667 172.32C127.628 172.32 129.067 171.52 128.867 169.96C128.668 168.24 127.788 167.48 126.068 167.52H125.228L125.907 166.48C128.188 166.44 130.468 166.36 131.708 166.32C130.468 170.76 128.548 175.52 126.827 179.8C126.547 180.68 126.388 181.36 126.388 181.8C126.388 183.28 127.188 184.08 128.708 184.08ZM144.694 172.2C145.814 172.2 146.894 171.48 147.534 170.28C149.134 167.24 150.214 165.08 150.374 164.76C150.574 164.36 150.694 163.92 150.694 163.52C150.694 162.12 149.414 161.12 147.654 161.12C146.374 161.12 145.414 161.72 144.974 162.8C144.254 164.48 143.134 167.16 142.534 168.48C142.334 168.96 142.214 169.44 142.214 169.84C142.214 171.16 143.294 172.2 144.694 172.2ZM164.137 178.4C166.337 178.52 168.057 177.52 168.777 175.68C169.857 172.96 171.097 168.92 171.817 165.92C171.937 165.12 171.897 165.28 171.897 165.2C171.897 163.08 170.497 161.64 168.337 161.52C168.097 161.48 168.097 161.48 167.057 161.48C165.377 161.48 161.897 161.68 158.577 161.92C156.857 162.08 155.617 163.2 155.617 164.6C155.617 165.92 156.857 166.8 158.737 166.8C160.897 166.8 164.417 166.68 165.937 166.52C165.337 168.8 164.297 171.44 163.337 173.4C161.257 173.4 157.137 172.76 155.697 172.64C154.097 172.52 152.697 173.64 152.697 175.08C152.697 176.44 154.057 177.44 156.177 177.68C157.857 177.92 161.857 178.28 164.137 178.4ZM196.675 178.16C198.395 178.16 199.115 176.68 199.915 175.36C200.355 174.6 202.155 170.76 204.435 165.8C204.555 165.48 204.595 165.04 204.595 164.64C204.595 162.84 203.395 161.76 201.355 161.72C200.795 161.68 200.755 161.68 197.115 161.68C193.195 161.68 191.275 161.68 190.115 161.72C188.435 161.76 187.035 163 187.035 164.44C187.035 165.76 188.155 166.64 189.835 166.68C191.195 166.68 195.515 166.6 198.035 166.56L194.315 174.2C194.115 174.6 193.995 175.2 193.995 175.76C193.995 177.28 194.955 178.16 196.675 178.16ZM186.955 178.28C188.075 178.28 189.035 177.6 189.555 176.48L191.675 171.96C191.875 171.48 192.035 170.88 192.035 170.44C192.035 169.2 191.115 168.44 189.515 168.44C188.275 168.44 187.275 169.16 186.555 170.52C185.955 171.76 185.195 173.4 184.755 174.52C184.515 175.12 184.475 175.36 184.475 175.76C184.475 177.16 185.595 178.28 186.955 178.28ZM211.789 178.04C212.989 178.04 213.909 177.36 214.669 175.96C216.269 172.92 217.389 169.72 218.749 166.6H219.949C221.389 166.6 222.509 165.56 222.509 164.16C222.509 162.72 221.429 161.8 219.749 161.8L212.349 161.72C210.509 161.68 209.189 162.72 209.189 164.16C209.189 165.56 210.429 166.56 212.189 166.56H212.709L209.229 174.08C209.029 174.48 208.909 174.96 208.909 175.44C208.909 176.88 210.189 178.04 211.789 178.04ZM228.202 172.2C229.322 172.2 230.402 171.48 231.042 170.28C232.642 167.24 233.722 165.08 233.882 164.76C234.082 164.36 234.202 163.92 234.202 163.52C234.202 162.12 232.922 161.12 231.162 161.12C229.882 161.12 228.922 161.72 228.482 162.8C227.762 164.48 226.642 167.16 226.042 168.48C225.842 168.96 225.722 169.44 225.722 169.84C225.722 171.16 226.802 172.2 228.202 172.2ZM238.139 178.16C239.259 178.16 240.619 177.32 241.139 176.24L244.179 170.08C245.299 172 247.779 176.16 248.059 176.64C248.419 177.48 249.579 178.12 250.699 178.12C252.179 178.12 253.219 177.24 253.219 176.04C253.219 175.16 252.859 174.32 251.379 171.76C253.099 169.64 254.819 167.44 256.219 165.56C256.539 165.16 256.699 164.72 256.699 164.2C256.699 162.92 255.379 161.76 253.939 161.76C253.179 161.76 252.459 162.08 251.939 162.68C251.099 163.68 249.979 165.2 248.659 166.72C247.899 165.4 246.979 163.56 245.939 162.48C245.499 162 244.939 161.76 244.259 161.76C243.259 161.76 242.139 162.36 241.659 163.16C241.219 163.84 239.859 166.72 239.139 168.16C238.499 169.44 236.619 173.32 236.259 173.88C235.939 174.44 235.699 175.28 235.699 175.92C235.699 177.32 236.619 178.16 238.139 178.16ZM142.83 205.52C143.95 205.52 144.91 204.92 145.75 203.68C146.15 203.16 146.79 201.8 148.31 198.24C149.39 195.76 149.95 194.48 150.19 193.8C151.59 193.8 152.91 193.76 153.83 193.76L150.51 201.36C150.31 201.84 150.19 202.44 150.19 202.96C150.19 204.48 151.07 205.24 152.75 205.24C154.15 205.24 155.27 204.32 156.15 202.44C157.87 198.6 159.55 194.88 160.35 192.92C160.47 192.72 160.51 192.36 160.51 191.92C160.51 190.08 159.31 188.88 157.35 188.76C156.07 188.72 155.07 188.72 152.87 188.72C151.35 188.72 148.59 188.68 145.15 188.76C143.31 188.8 141.99 189.88 141.99 191.36C141.99 192.64 143.03 193.56 144.59 193.72C143.71 195.48 142.39 198.2 141.63 199.76L139.99 198.36C139.47 197.88 138.83 197.64 138.19 197.64C136.87 197.64 135.67 198.88 135.67 200.2C135.67 200.8 135.95 201.36 136.43 201.72C138.03 202.96 140.51 205.52 142.83 205.52ZM165.429 205.16C166.709 205.16 167.909 204.4 168.429 203.28C168.829 202.48 173.189 192.68 173.469 191.92C173.669 191.44 173.789 190.96 173.789 190.56C173.789 189.24 172.669 188.32 171.069 188.32C169.709 188.32 168.549 189.04 168.109 190.12C167.309 192.12 166.589 193.92 166.189 194.8C165.749 195.76 164.309 198.88 163.429 200.88C163.109 201.64 162.949 202.28 162.949 202.84C162.949 204.24 163.949 205.16 165.429 205.16ZM177.867 205.16C178.987 205.16 180.347 204.32 180.867 203.24L183.907 197.08C185.027 199 187.507 203.16 187.787 203.64C188.147 204.48 189.307 205.12 190.427 205.12C191.907 205.12 192.947 204.24 192.947 203.04C192.947 202.16 192.587 201.32 191.107 198.76C192.827 196.64 194.547 194.44 195.947 192.56C196.267 192.16 196.427 191.72 196.427 191.2C196.427 189.92 195.107 188.76 193.667 188.76C192.907 188.76 192.187 189.08 191.667 189.68C190.827 190.68 189.707 192.2 188.387 193.72C187.627 192.4 186.707 190.56 185.667 189.48C185.227 189 184.667 188.76 183.987 188.76C182.987 188.76 181.867 189.36 181.387 190.16C180.947 190.84 179.587 193.72 178.867 195.16C178.227 196.44 176.347 200.32 175.987 200.88C175.667 201.44 175.427 202.28 175.427 202.92C175.427 204.32 176.347 205.16 177.867 205.16ZM207.621 204.92C209.541 204.92 210.341 203.44 211.181 202C211.901 200.8 215.021 194.4 215.661 192.76C215.821 192.4 215.861 192.16 215.861 191.48C215.861 189.8 214.701 188.76 212.741 188.68C211.661 188.64 210.741 188.6 209.941 188.6C207.461 188.6 204.861 188.72 204.541 188.72C202.581 188.72 201.101 189.88 201.101 191.4C201.101 192.76 202.421 193.64 204.301 193.52C205.461 193.44 207.221 193.4 209.301 193.4C208.341 195.24 207.061 197.28 206.141 199.2C205.381 200.72 204.981 201.96 204.981 202.84C204.981 204.24 205.861 204.92 207.621 204.92ZM228.81 205.12C230.49 205.12 231.21 203.68 232.01 202.28C232.49 201.48 234.57 197.12 236.37 193.24C236.69 192.52 236.89 191.88 236.89 191.36C236.89 189.52 235.69 188.4 233.65 188.36C232.97 188.32 231.73 188.32 230.45 188.32C228.09 188.32 227.49 188.32 226.97 188.36L228.01 186.04C228.25 185.52 228.37 185.04 228.37 184.64C228.37 183.36 227.21 182.36 225.65 182.36C224.57 182.36 223.69 182.84 223.33 183.64C220.73 188.84 220.45 189.56 220.45 191C220.45 192.52 221.33 193.36 222.97 193.4C223.57 193.44 225.77 193.4 230.29 193.32L226.49 201.04C226.21 201.8 226.09 202.24 226.09 202.72C226.09 204.24 227.09 205.12 228.81 205.12ZM155.869 238.08C157.149 238.08 158.509 237.16 158.829 236.04C159.029 235.32 163.309 224.88 165.029 220.88C165.389 220.08 165.589 219.44 165.589 218.88C165.589 217 164.109 215.64 161.869 215.52C161.389 215.48 160.829 215.48 159.589 215.48C157.349 215.48 152.869 215.6 152.189 215.68C150.589 215.84 149.189 217.08 149.109 218.4C148.949 220.12 150.109 220.88 152.989 220.88C154.709 220.88 157.789 220.72 159.389 220.64C158.869 222 156.549 227.48 153.909 233.76C153.709 234.32 153.549 235.2 153.549 235.8C153.549 237.28 154.389 238.08 155.869 238.08ZM173.78 232.52C174.9 232.52 175.86 231.92 176.7 230.68C177.1 230.16 177.74 228.8 179.26 225.24C180.34 222.76 180.9 221.48 181.14 220.8C182.54 220.8 183.86 220.76 184.78 220.76L181.46 228.36C181.26 228.84 181.14 229.44 181.14 229.96C181.14 231.48 182.02 232.24 183.7 232.24C185.1 232.24 186.22 231.32 187.1 229.44C188.82 225.6 190.5 221.88 191.3 219.92C191.42 219.72 191.46 219.36 191.46 218.92C191.46 217.08 190.26 215.88 188.3 215.76C187.02 215.72 186.02 215.72 183.82 215.72C182.3 215.72 179.54 215.68 176.1 215.76C174.26 215.8 172.94 216.88 172.94 218.36C172.94 219.64 173.98 220.56 175.54 220.72C174.66 222.48 173.34 225.2 172.58 226.76L170.94 225.36C170.42 224.88 169.78 224.64 169.14 224.64C167.82 224.64 166.62 225.88 166.62 227.2C166.62 227.8 166.9 228.36 167.38 228.72C168.98 229.96 171.46 232.52 173.78 232.52ZM196.38 232.16C197.66 232.16 198.86 231.4 199.38 230.28C199.78 229.48 204.14 219.68 204.42 218.92C204.62 218.44 204.74 217.96 204.74 217.56C204.74 216.24 203.62 215.32 202.02 215.32C200.66 215.32 199.5 216.04 199.06 217.12C198.26 219.12 197.54 220.92 197.14 221.8C196.7 222.76 195.26 225.88 194.38 227.88C194.06 228.64 193.9 229.28 193.9 229.84C193.9 231.24 194.9 232.16 196.38 232.16ZM208.818 232.16C209.938 232.16 211.298 231.32 211.818 230.24L214.858 224.08C215.978 226 218.458 230.16 218.738 230.64C219.098 231.48 220.258 232.12 221.378 232.12C222.858 232.12 223.898 231.24 223.898 230.04C223.898 229.16 223.538 228.32 222.058 225.76C223.778 223.64 225.498 221.44 226.898 219.56C227.218 219.16 227.378 218.72 227.378 218.2C227.378 216.92 226.058 215.76 224.618 215.76C223.858 215.76 223.138 216.08 222.618 216.68C221.778 217.68 220.658 219.2 219.338 220.72C218.578 219.4 217.658 217.56 216.618 216.48C216.178 216 215.618 215.76 214.938 215.76C213.938 215.76 212.818 216.36 212.338 217.16C211.898 217.84 210.538 220.72 209.818 222.16C209.178 223.44 207.298 227.32 206.938 227.88C206.618 228.44 206.378 229.28 206.378 229.92C206.378 231.32 207.298 232.16 208.818 232.16Z" fill="#E7FF53"/>
</svg>
