<svg width="390" height="31" viewBox="0 0 390 31" fill="none" xmlns="http://www.w3.org/2000/svg">
<path d="M-20.4236 245.242C-18.4501 200.527 -16.7126 155.787 -15.5656 111.038C-14.8281 82.163 -13.3034 53.3214 -12.2116 24.4514C-11.5743 7.8135 -6.18491 1.48789 8.75217 2.05736C53.7991 3.81306 98.838 6.11696 143.864 7.96008C163.209 8.74758 182.678 10.4362 201.882 8.72126C211.938 7.81556 221.983 4.91381 232.361 4.86823C247.879 4.78819 263.372 3.67699 278.893 3.33383C310.154 2.60679 341.411 2.09903 372.669 1.45969C379.662 1.32075 386.592 0.0403474 393.615 1.83194C402.64 4.11343 408.626 14.8605 405.511 24.5752C404.582 27.4568 404.742 30.0033 405.094 32.8598C406.429 43.9117 407.39 54.9362 403.333 65.7337C402.391 68.2422 402.464 71.3139 402.462 74.1433C402.659 117.223 401.87 160.354 404.647 203.361C404.68 203.844 404.593 204.369 404.745 204.766C409.162 216.478 402.843 224.413 396.876 232.506C388.237 244.246 379.404 255.807 371.154 267.881C366.949 274.048 361.463 276.205 355.194 276.706C339.501 277.99 323.758 277.321 308.015 277.99C277.85 279.259 247.641 279.431 217.446 280.02C214.236 280.083 211.068 279.927 208.774 283.271C207.124 285.66 204.57 285.271 202.268 285.194C151.667 283.488 101.061 282.134 50.4893 279.837C35.1797 279.152 19.8857 278.753 4.59518 278.112C0.147905 277.916 -4.33646 277.565 -8.7157 276.755C-15.8834 275.422 -20.094 269.811 -20.6433 261.6C-20.6757 261.117 -20.6886 260.657 -20.6815 260.174C-20.6087 255.196 -20.5359 250.219 -20.4631 245.241L-20.4236 245.242Z" fill="#FF6E47"/>
</svg>
