<svg width="196" height="382" viewBox="0 0 196 382" fill="none" xmlns="http://www.w3.org/2000/svg">
<path d="M118.634 265.623C76.4188 319.395 18.1022 337.323 -36.2065 319.982C-41.9179 318.155 -47.4175 315.593 -52.9803 313.303C-55.7499 312.156 -57.4661 310.68 -54.6037 307.719C-53.3746 306.454 -51.9763 304.702 -53.4188 302.904C-54.648 301.381 -56.4322 302.724 -57.9862 302.789C-65.9067 303.064 -73.3725 301.83 -79.8178 296.51C-111.5 270.338 -129.099 236.92 -130.857 195.794C-132.557 155.934 -119.024 121.545 -90.594 93.7119C-58.8773 62.6506 -20.2184 50.6766 23.6625 56.1816C79.2535 63.1457 127.149 108.87 137.881 164.12C145.839 205.057 136.424 241.717 118.634 265.623Z" fill="#FF6D46"/>
<path d="M123.151 189.067C123.151 252.761 69.9696 304.567 4.15137 304.567C-61.6668 304.567 -114.849 252.761 -114.849 189.067C-114.849 125.373 -61.6668 73.5667 4.15137 73.5667C69.9696 73.5667 123.151 125.373 123.151 189.067Z" stroke="#6249FF" stroke-width="7"/>
<ellipse cx="31.6514" cy="158.066" rx="9" ry="19" fill="#6249FF"/>
<path d="M83.6514 189.066C83.6514 199.441 81.5821 209.714 77.5617 219.298C73.5414 228.883 67.6486 237.592 60.2199 244.928C52.7912 252.264 43.9721 258.083 34.266 262.053C24.56 266.023 14.1571 268.066 3.65136 268.066C-6.85439 268.066 -17.2573 266.023 -26.9633 262.053C-36.6694 258.083 -45.4885 252.264 -52.9172 244.928C-60.3459 237.592 -66.2386 228.883 -70.259 219.298C-74.2794 209.714 -76.3486 199.441 -76.3486 189.066" stroke="#6249FF" stroke-width="7" stroke-linecap="round"/>
</svg>
