<svg width="390" height="844" viewBox="0 0 390 844" fill="none" xmlns="http://www.w3.org/2000/svg">
<rect width="390" height="844" fill="#FBFFDA"/>
<g clip-path="url(#clip0_553_4311)">
<path d="M89.6172 485.762V458.186H307.77V485.762H89.6172ZM207.069 479.972L221.385 478.549C222.206 474.048 223.014 469.617 223.808 465.253L220.266 463.186C219.73 464.018 219.25 464.773 218.718 465.597L220.004 467.008C219.468 469.898 218.949 472.673 218.417 475.555L210.076 476.387C209.853 474.873 209.647 473.604 209.45 472.12L212.126 472.806L216.02 466.501L213.104 464.756L209.265 470.67C208.952 468.624 208.708 467.05 208.438 465.318L204.796 463.126L203.171 465.768L205.234 467.308C205.821 471.399 206.422 475.534 207.069 479.968V479.972ZM161.879 467.428L158.019 463.161L155.874 465.176C156.273 465.888 156.603 466.484 156.977 467.158L154.742 469.246L148.862 463.066L146.611 465.532C149.634 468.835 152.568 472.047 155.677 475.448L146.868 476.22C146.932 477.292 146.988 478.248 147.057 479.346L160.12 478.489V475.306L157.14 471.832L161.879 467.428ZM243.112 464.125C242.876 465.193 242.683 466.051 242.43 467.192H250.909V475.872L242.375 476.576C242.473 477.717 242.559 478.656 242.653 479.737L256.669 478.737C256.553 477.412 256.48 476.593 256.412 475.812L254.345 475.285V464.134L243.112 464.125ZM123.511 479.732L137.609 478.75C137.497 477.425 137.428 476.606 137.368 475.817L135.31 475.293V464.198H124.06C123.837 465.198 123.631 466.051 123.391 467.201H131.857V475.898L123.37 476.571C123.421 477.639 123.46 478.536 123.511 479.732ZM193.444 477.648L194.632 480.564L200.4 478.819V464.318H191.205C191.128 462.77 191.068 461.526 191.008 460.291H187.77V467.561H196.982V476.396L193.444 477.648ZM267.056 460.296V467.548H276.209V476.366L272.778 477.652C273.108 478.604 273.421 479.492 273.794 480.569L279.614 478.81V464.379H270.449C270.372 462.89 270.307 461.642 270.234 460.296H267.056ZM177.318 464.186H165.039V467.222H174.046V479.852L177.331 478.995L177.318 464.186ZM293.419 467.115V479.827L296.692 479.029V464.216H284.477V467.115H293.419ZM112.129 478.9V464.121H102.098C101.896 465.052 101.712 465.927 101.446 467.149H108.822V479.587L112.129 478.9ZM263.87 465.305L260.147 463.161L258.685 465.828L260.538 467.299V479.638L263.87 478.9V465.305ZM120.359 478.952V465.305L116.692 463.13L115.247 465.807L117.04 467.265V479.569L120.359 478.952ZM141.074 467.471V473.012L144.213 472.111V465.425L140.435 463.319L139.02 465.931L141.074 467.471ZM236.074 467.368V473.055L239.342 472.094V465.464L235.577 463.319L234.076 465.953L236.074 467.368ZM287.677 479.003V471.85H284.537V479.784L287.677 479.003ZM168.106 479.068V471.777H165.104V479.758L168.106 479.068Z" fill="#FC653C"/>
<path d="M278.424 425.431H261.184L275.813 402.131L263.126 401.046C265.614 390.89 268.054 380.94 270.597 370.557L286.093 372.049C284.502 378.542 282.958 384.817 281.337 391.409L299.156 393.742C292.127 404.472 285.269 414.963 278.424 425.431Z" fill="#FC653C"/>
<path d="M197.224 401.18C198.112 397.32 198.94 393.748 199.763 390.094L231.861 389.305C230.54 396.767 229.244 404.101 227.893 411.735H234.164C233.765 416.17 233.387 420.312 232.988 424.696L193.613 423.924C194.497 419.858 195.329 416.14 196.148 412.284H212.956C213.457 408.583 213.942 405.023 214.465 401.18H197.224Z" fill="#FC653C"/>
<path d="M125.129 367.067L119.391 372.329C114.699 371.103 109.87 370.584 104.963 371.562C96.0771 373.333 89.5239 381.361 89.0735 390.539C88.6104 400.056 93.9799 406.125 101.134 409.311C107.211 412.018 113.627 412.974 120.699 413.227L115.943 418.914C104.569 420.102 90.7676 415.582 85.1622 404.881C82.5283 399.772 81.5123 393.982 82.2493 388.281C82.9863 382.581 85.4414 377.24 89.288 372.968C97.6725 363.649 110.796 361.444 125.129 367.067Z" fill="#FC653C"/>
<path d="M236.504 424.565C238.704 412.698 240.861 401.076 243.031 389.363H261.379L252.291 424.565H236.504Z" fill="#FC653C"/>
<path d="M112.305 441.854H101.703C106.85 435.378 111.795 429.147 116.782 422.958C119.909 419.098 123.258 415.38 126.269 411.417C134.744 400.266 135.653 392.684 130.129 379.719L135.572 376.107C138.353 379.551 140.069 383.732 140.508 388.137C141.795 399.361 137.077 408.651 130.768 417.301C124.948 425.291 118.828 433.062 112.85 440.936C112.647 441.23 112.465 441.536 112.305 441.854Z" fill="#FC653C"/>
<path d="M191.641 406.094H177.535C179.272 398.777 180.966 391.654 182.682 384.436H196.646C194.952 391.726 193.301 398.906 191.641 406.094Z" fill="#FC653C"/>
<path d="M243.793 385.405C244.608 380.614 245.341 376.287 246.109 371.779H266.523C265.498 375.978 264.486 380.138 263.427 384.483L243.793 385.405Z" fill="#FC653C"/>
<path d="M133.84 418.192L137.837 411.832L152.603 413.359L146.599 420.422L133.84 418.192Z" fill="#FC653C"/>
<path d="M167.277 375.3C163.681 371.043 158.982 367.859 153.695 366.097C148.408 364.336 142.739 364.064 137.308 365.312C124.553 368.185 112.793 379.928 114.933 396.41C115.658 401.985 118.557 406.583 122.653 410.751L127.28 405.605L125.917 403.791C120.491 396.658 120.105 388.608 125.248 381.489C130.261 374.528 137.312 371.453 145.868 371.526C152.546 371.578 158.001 374.455 161.389 379.087L161.44 379.057L161.273 378.924C171.806 391.563 158.979 408.993 158.979 408.993L133.675 441.75H143.865C143.865 441.75 162.821 420.933 170.228 403.859C177.635 386.786 167.277 375.3 167.277 375.3Z" fill="#FC653C"/>
</g>
<defs>
<clipPath id="clip0_553_4311">
<rect width="225.769" height="121.758" fill="white" transform="translate(82 364)"/>
</clipPath>
</defs>
</svg>
