<svg width="390" height="844" viewBox="0 0 390 844" fill="none" xmlns="http://www.w3.org/2000/svg">
<rect width="390" height="844" fill="#FFC4B5"/>
<path d="M349.619 749.331L349.361 748.903L349.619 749.331C350.28 748.935 351.134 749.104 351.594 749.723L352.038 750.321C352.558 751.021 353.405 751.399 354.273 751.32L355.015 751.252C355.783 751.181 356.479 751.705 356.624 752.462L356.765 753.193C356.93 754.049 357.529 754.757 358.345 755.062L359.043 755.323C359.766 755.593 360.166 756.366 359.969 757.112L359.778 757.832C359.555 758.674 359.787 759.572 360.391 760.202L360.906 760.739C361.44 761.296 361.465 762.166 360.964 762.752L360.48 763.318C359.913 763.981 359.733 764.891 360.004 765.719L360.235 766.427C360.474 767.16 360.119 767.955 359.413 768.266L358.732 768.566C357.934 768.917 357.377 769.659 357.261 770.523L357.162 771.261C357.06 772.025 356.395 772.587 355.624 772.561L354.88 772.535C354.009 772.506 353.185 772.932 352.706 773.66L352.296 774.282C351.873 774.927 351.029 775.145 350.347 774.786L349.687 774.441C348.915 774.036 347.988 774.062 347.24 774.51L346.601 774.894C345.94 775.29 345.086 775.121 344.626 774.502L344.182 773.904C343.662 773.204 342.815 772.826 341.947 772.905L341.205 772.973C340.437 773.044 339.741 772.52 339.596 771.763L339.455 771.032C339.29 770.176 338.691 769.467 337.875 769.162L337.177 768.902C336.454 768.632 336.054 767.859 336.251 767.113L336.442 766.393C336.665 765.55 336.433 764.652 335.829 764.023L335.314 763.486L334.953 763.832L335.314 763.486C334.78 762.929 334.755 762.059 335.256 761.473L335.74 760.907C336.307 760.244 336.487 759.334 336.216 758.506L335.985 757.798C335.746 757.065 336.101 756.27 336.807 755.959L337.488 755.659C338.286 755.308 338.843 754.566 338.959 753.702L339.058 752.964C339.16 752.2 339.825 751.638 340.596 751.664L341.34 751.689C342.211 751.719 343.035 751.293 343.514 750.565L343.924 749.943C344.347 749.298 345.191 749.08 345.873 749.438L346.533 749.784C347.305 750.189 348.232 750.163 348.98 749.714L349.619 749.331Z" stroke="#FC653C"/>
<path d="M349.622 790.331L349.365 789.903L349.622 790.331C350.284 789.935 351.138 790.104 351.598 790.723L352.042 791.321C352.562 792.021 353.409 792.399 354.277 792.32L355.019 792.252C355.786 792.181 356.483 792.705 356.628 793.462L356.769 794.193C356.934 795.049 357.533 795.757 358.349 796.062L359.047 796.323C359.769 796.593 360.17 797.366 359.972 798.112L359.782 798.832C359.559 799.674 359.791 800.572 360.395 801.202L360.91 801.739C361.444 802.296 361.469 803.166 360.968 803.752L360.484 804.318C359.917 804.981 359.737 805.891 360.008 806.719L360.239 807.427C360.478 808.16 360.123 808.955 359.417 809.266L358.736 809.566C357.938 809.917 357.38 810.659 357.265 811.523L357.166 812.261C357.064 813.025 356.399 813.587 355.628 813.561L354.884 813.535C354.012 813.506 353.189 813.932 352.71 814.66L352.3 815.282C351.877 815.927 351.033 816.145 350.35 815.786L349.691 815.441C348.919 815.036 347.992 815.062 347.244 815.51L346.605 815.894C345.944 816.29 345.09 816.121 344.63 815.502L344.186 814.904C343.666 814.204 342.819 813.826 341.951 813.905L341.209 813.973C340.441 814.044 339.745 813.52 339.599 812.763L339.459 812.032C339.294 811.176 338.695 810.467 337.878 810.162L337.181 809.902C336.458 809.632 336.058 808.859 336.255 808.113L336.446 807.393C336.669 806.55 336.437 805.652 335.833 805.023L335.318 804.486L334.957 804.832L335.318 804.486C334.784 803.929 334.759 803.059 335.26 802.473L335.744 801.907C336.31 801.244 336.491 800.334 336.22 799.506L335.989 798.798C335.749 798.065 336.105 797.27 336.811 796.959L337.492 796.659C338.29 796.308 338.847 795.566 338.963 794.702L339.062 793.964C339.164 793.2 339.829 792.638 340.6 792.664L341.344 792.689C342.215 792.719 343.039 792.293 343.518 791.565L343.928 790.943C344.351 790.298 345.194 790.08 345.877 790.438L346.537 790.784C347.309 791.189 348.236 791.163 348.984 790.714L349.622 790.331Z" stroke="#FC653C"/>
<path d="M349.619 708.331L349.361 707.903L349.619 708.331C350.28 707.935 351.134 708.104 351.594 708.723L352.038 709.321C352.558 710.021 353.405 710.399 354.273 710.32L355.015 710.252C355.783 710.181 356.479 710.705 356.624 711.462L356.765 712.193C356.93 713.049 357.529 713.757 358.345 714.062L359.043 714.323C359.766 714.593 360.166 715.366 359.969 716.112L359.778 716.832C359.555 717.674 359.787 718.572 360.391 719.202L360.906 719.739C361.44 720.296 361.465 721.166 360.964 721.752L360.48 722.318C359.913 722.981 359.733 723.891 360.004 724.719L360.235 725.427C360.474 726.16 360.119 726.955 359.413 727.266L358.732 727.566C357.934 727.917 357.377 728.659 357.261 729.523L357.162 730.261C357.06 731.025 356.395 731.587 355.624 731.561L354.88 731.535C354.009 731.506 353.185 731.932 352.706 732.66L352.296 733.282C351.873 733.927 351.029 734.145 350.347 733.786L349.687 733.441C348.915 733.036 347.988 733.062 347.24 733.51L346.601 733.894C345.94 734.29 345.086 734.121 344.626 733.502L344.182 732.904C343.662 732.204 342.815 731.826 341.947 731.905L341.205 731.973C340.437 732.044 339.741 731.52 339.596 730.763L339.455 730.032C339.29 729.176 338.691 728.467 337.875 728.162L337.177 727.902C336.454 727.632 336.054 726.859 336.251 726.113L336.442 725.393C336.665 724.55 336.433 723.652 335.829 723.023L335.314 722.486L334.953 722.832L335.314 722.486C334.78 721.929 334.755 721.059 335.256 720.473L335.74 719.907C336.307 719.244 336.487 718.334 336.216 717.506L335.985 716.798C335.746 716.065 336.101 715.27 336.807 714.959L337.488 714.659C338.286 714.308 338.843 713.566 338.959 712.702L339.058 711.964C339.16 711.2 339.825 710.638 340.596 710.664L341.34 710.689C342.211 710.719 343.035 710.293 343.514 709.565L343.924 708.943C344.347 708.298 345.191 708.08 345.873 708.438L346.533 708.784C347.305 709.189 348.232 709.163 348.98 708.714L349.619 708.331Z" stroke="#FC653C"/>
<path d="M349.619 667.331L349.361 666.903L349.619 667.331C350.28 666.935 351.134 667.104 351.594 667.723L352.038 668.321C352.558 669.021 353.405 669.399 354.273 669.32L355.015 669.252C355.783 669.181 356.479 669.705 356.624 670.462L356.765 671.193C356.93 672.049 357.529 672.757 358.345 673.062L359.043 673.323C359.766 673.593 360.166 674.366 359.969 675.112L359.778 675.832C359.555 676.674 359.787 677.572 360.391 678.202L360.906 678.739C361.44 679.296 361.465 680.166 360.964 680.752L360.48 681.318C359.913 681.981 359.733 682.891 360.004 683.719L360.235 684.427C360.474 685.16 360.119 685.955 359.413 686.266L358.732 686.566C357.934 686.917 357.377 687.659 357.261 688.523L357.162 689.261C357.06 690.025 356.395 690.587 355.624 690.561L354.88 690.535C354.009 690.506 353.185 690.932 352.706 691.66L352.296 692.282C351.873 692.927 351.029 693.145 350.347 692.786L349.687 692.441C348.915 692.036 347.988 692.062 347.24 692.51L346.601 692.894C345.94 693.29 345.086 693.121 344.626 692.502L344.182 691.904C343.662 691.204 342.815 690.826 341.947 690.905L341.205 690.973C340.437 691.044 339.741 690.52 339.596 689.763L339.455 689.032C339.29 688.176 338.691 687.467 337.875 687.162L337.177 686.902C336.454 686.632 336.054 685.859 336.251 685.113L336.442 684.393C336.665 683.55 336.433 682.652 335.829 682.023L335.314 681.486L334.953 681.832L335.314 681.486C334.78 680.929 334.755 680.059 335.256 679.473L335.74 678.907C336.307 678.244 336.487 677.334 336.216 676.506L335.985 675.798C335.746 675.065 336.101 674.27 336.807 673.959L337.488 673.659C338.286 673.308 338.843 672.566 338.959 671.702L339.058 670.964C339.16 670.2 339.825 669.638 340.596 669.664L341.34 669.689C342.211 669.719 343.035 669.293 343.514 668.565L343.924 667.943C344.347 667.298 345.191 667.08 345.873 667.438L346.533 667.784C347.305 668.189 348.232 668.163 348.98 667.714L349.619 667.331Z" fill="#FC653C" stroke="#FC653C"/>
<path d="M158.979 273H168.534V240.5H134.669V249.73H158.979V273ZM134.994 273H144.614V255.385H134.994V273ZM175.993 273H181.648C189.643 273 194.258 268.515 194.258 260.91V240.5H175.798V249.86H184.703V258.7C184.703 262.73 183.858 263.77 179.763 263.77H175.993V273ZM237.08 240.5V257.53C237.08 261.95 234.805 263.705 231.49 263.705H228.76V240.5H219.075V263.705H211.145V240.5H201.525V273H232.595C240.135 273 246.505 267.475 246.505 259.48V240.5H237.08ZM299.006 240.5H268.131V249.73H284.576V273H294.131V249.73H299.006V240.5ZM305.921 273H315.671V240.5H305.921V273ZM322.358 273H346.538C354.403 273 360.383 268.19 360.383 260V240.5H350.958V257.595C350.958 262.47 348.813 263.705 345.108 263.705H337.503V240.5H328.078V263.705H322.358V273ZM36.6664 330H46.4164V297.5H36.6664V330ZM53.6227 330H59.2777C67.2727 330 71.8877 325.515 71.8877 317.91V297.5H53.4277V306.86H62.3327V315.7C62.3327 319.73 61.4877 320.77 57.3927 320.77H53.6227V330ZM79.3495 297.5V306.665H97.6795V330H107.235V297.5H79.3495ZM151.578 297.565L140.528 297.5L133.443 306.73L125.448 297.5H114.073L134.548 320.965H115.113V330H145.858V320.965L139.488 313.62L151.578 297.565ZM157.513 316.48H167.523V297.5H157.513V316.48ZM174.791 330H184.541V297.5H174.791V330ZM230.873 330H240.428V297.5H206.563V306.73H230.873V330ZM206.888 330H216.508V312.385H206.888V330ZM248.146 297.5V306.665H266.476V330H276.031V297.5H248.146ZM283.13 330H317.45V320.77H313.355V297.5H283.455V306.73H303.735V320.77H283.13V330ZM322.358 330H346.538C354.403 330 360.383 325.19 360.383 317V297.5H350.958V314.595C350.958 319.47 348.813 320.705 345.108 320.705H337.503V297.5H328.078V320.705H322.358V330ZM193.978 354.5H163.103V363.73H179.548V387H189.103V363.73H193.978V354.5ZM201.153 387H210.643V363.73H226.373V387H235.863V354.5H201.153V387ZM243.371 387H253.121V354.5H243.371V387ZM260.523 373.48H270.533V354.5H260.523V373.48ZM282.481 387H292.036V363.73H305.166C308.741 363.73 309.976 364.64 309.976 368.67V377.64H298.276V387H319.466V366.655C319.466 358.985 314.461 354.5 306.401 354.5H277.281V363.73H282.481V387ZM326.688 387H361.008V377.77H356.913V354.5H327.013V363.73H347.293V377.77H326.688V387ZM160.901 451.865H170.456V411.5H143.871V420.73H160.901V451.865ZM200.726 411.5H187.271V404.155H177.716V420.665H197.931C199.881 420.665 199.751 420.86 199.751 422.615V444.13H209.306V420.015C209.306 414.23 206.901 411.5 200.726 411.5ZM216.521 430.48H226.531V411.5H216.521V430.48ZM233.669 444H267.989V434.77H263.894V411.5H233.994V420.73H254.274V434.77H233.669V444ZM309.671 411.5V428.53C309.671 432.95 307.396 434.705 304.081 434.705H301.351V411.5H291.666V434.705H283.736V411.5H274.116V444H305.186C312.726 444 319.096 438.475 319.096 430.48V411.5H309.671ZM326.688 444H361.008V434.77H356.913V411.5H327.013V420.73H347.293V434.77H326.688V444ZM83.6832 508.865H93.2382V468.5H83.6832V508.865ZM100.96 501L137.945 500.935V481.045C137.945 473.375 133.33 468.5 125.27 468.5H116.43V477.73H124.035C127.61 477.73 128.455 479.485 128.455 483.32V491.64H110.45V468.5L100.96 468.565V501ZM144.368 468.5V477.47H149.308V508.54H159.123V477.47H174.723L168.093 500.935H178.298L187.723 468.5H144.368ZM206.682 501H216.432V468.5H206.682V501ZM248.468 501H258.023V468.5H224.158V477.73H248.468V501ZM224.483 501H234.103V483.385H224.483V501ZM301.102 468.5V485.53C301.102 489.95 298.827 491.705 295.512 491.705H292.782V468.5H283.097V491.705H275.167V468.5H265.547V501H296.617C304.157 501 310.527 495.475 310.527 487.48V468.5H301.102ZM322.928 501H332.483V477.73H345.613C349.188 477.73 350.423 478.64 350.423 482.67V491.64H338.723V501H359.913V480.655C359.913 472.985 354.908 468.5 346.848 468.5H317.728V477.73H322.928V501ZM165.841 558H175.591V525.5H165.841V558ZM182.798 558H188.453C196.448 558 201.063 553.515 201.063 545.91V525.5H182.603V534.86H191.508V543.7C191.508 547.73 190.663 548.77 186.568 548.77H182.798V558ZM207.419 558.585H211.124C220.289 558.585 225.099 553.125 225.034 545.845L224.904 534.73H239.464V558H248.954V525.5H208.459V534.73H215.544V544.025C215.544 548.64 213.659 549.355 207.419 549.42V558.585ZM256.333 544.48H266.343V525.5H256.333V544.48ZM312.352 525.5H300.782L292.917 536.095L284.012 525.5H273.807V558H282.972V538.825L298.897 558H311.182L299.157 543.57L312.352 525.5ZM322.928 558H332.483V534.73H345.613C349.188 534.73 350.423 535.64 350.423 539.67V548.64H338.723V558H359.913V537.655C359.913 529.985 354.908 525.5 346.848 525.5H317.728V534.73H322.928V558Z" fill="#FC653C"/>
<path d="M210.029 799L194.794 815.147L179.469 799.063H170L194.794 825L220 799H210.029Z" fill="white" fill-opacity="0.65"/>
</svg>
