<svg width="390" height="844" viewBox="0 0 390 844" fill="none" xmlns="http://www.w3.org/2000/svg">
<g clip-path="url(#clip0_571_2231)">
<rect width="390" height="844" fill="#FFC4B5"/>
<path d="M60.7191 306H80.6091V286.37H60.7191V306ZM143.061 306H162.171V241H94.4409V259.46H143.061V306ZM95.0909 306H114.331V270.77H95.0909V306ZM235.848 241H174.098V259.46H206.988V306H226.098V259.46H235.848V241ZM247.079 306H266.579V241H247.079V306ZM276.702 307.17H284.112C302.442 307.17 312.062 296.25 311.932 281.69L311.672 259.46H340.792V306H359.772V241H278.782V259.46H292.952V278.05C292.952 287.28 289.182 288.71 276.702 288.84V307.17Z" fill="#FC653C"/>
<path d="M199.044 591.5H191.799V587.545H186.654V596.435H197.539C198.589 596.435 198.519 596.54 198.519 597.485V609.07H203.664V596.085C203.664 592.97 202.369 591.5 199.044 591.5ZM227.149 591.5V600.67C227.149 603.05 225.924 603.995 224.139 603.995H222.669V591.5H217.454V603.995H213.184V591.5H208.004V609H224.734C228.794 609 232.224 606.025 232.224 601.72V591.5H227.149ZM258.394 609H263.539V591.5H245.304V596.47H258.394V609ZM245.479 609H250.659V599.515H245.479V609ZM268.08 609H271.125C275.43 609 277.915 606.585 277.915 602.49V591.5H267.975V596.54H272.77V601.3C272.77 603.47 272.315 604.03 270.11 604.03H268.08V609ZM301.498 591.5V600.67C301.498 603.05 300.273 603.995 298.488 603.995H297.018V591.5H291.803V603.995H287.533V591.5H282.353V609H299.083C303.143 609 306.573 606.025 306.573 601.72V591.5H301.498ZM331.009 591.5H323.764V587.545H318.619V596.435H329.504C330.554 596.435 330.484 596.54 330.484 597.485V609.07H335.629V596.085C335.629 592.97 334.334 591.5 331.009 591.5ZM339.654 609H352.674C356.909 609 360.129 606.41 360.129 602V591.5H355.054V600.705C355.054 603.33 353.899 603.995 351.904 603.995H347.809V591.5H342.734V603.995H339.654V609ZM117.989 645.315H119.984C124.919 645.315 127.509 642.375 127.474 638.455L127.404 632.47H135.244V645H140.354V627.5H118.549V632.47H122.364V637.475C122.364 639.96 121.349 640.345 117.989 640.38V645.315ZM144.993 645H157.453C161.583 645 164.173 642.41 164.173 638.315V627.5H144.993V637.405H150.138V632.54H158.958V637.23C158.958 639.435 158.573 640.03 156.578 640.03H144.993V645ZM168.237 645.315H170.232C175.167 645.315 177.757 642.375 177.722 638.455L177.652 632.47H185.492V645H190.602V627.5H168.797V632.47H172.612V637.475C172.612 639.96 171.597 640.345 168.237 640.38V645.315ZM195.101 645H200.351V627.5H195.101V645ZM223.936 627.5V636.67C223.936 639.05 222.711 639.995 220.926 639.995H219.456V627.5H214.241V639.995H209.971V627.5H204.791V645H221.521C225.581 645 229.011 642.025 229.011 637.72V627.5H223.936ZM236.214 645H241.359V632.47H248.429C250.354 632.47 251.019 632.96 251.019 635.13V639.96H244.719V645H256.129V634.045C256.129 629.915 253.434 627.5 249.094 627.5H233.414V632.47H236.214V645ZM281.758 645H286.903V627.5H268.668V632.47H281.758V645ZM268.843 645H274.023V635.515H268.843V645ZM291.549 637.72H296.939V627.5H291.549V637.72ZM301.378 637.72H306.768V627.5H301.378V637.72ZM330.281 627.5V636.67C330.281 639.05 329.056 639.995 327.271 639.995H325.801V627.5H320.586V639.995H316.316V627.5H311.136V645H327.866C331.926 645 335.356 642.025 335.356 637.72V627.5H330.281ZM339.654 645H352.674C356.909 645 360.129 642.41 360.129 638V627.5H355.054V636.705C355.054 639.33 353.899 639.995 351.904 639.995H347.809V627.5H342.734V639.995H339.654V645ZM64.6307 681.315H66.6257C71.5607 681.315 74.1507 678.375 74.1157 674.455L74.0457 668.47H81.8857V681H86.9957V663.5H65.1907V668.47H69.0057V673.475C69.0057 675.96 67.9907 676.345 64.6307 676.38V681.315ZM91.494 681H96.744V663.5H91.494V681ZM101.254 681.105H111.404C115.604 681.105 118.404 678.375 118.404 674.35V663.5H101.184V668.54H113.189V673.125C113.189 675.33 112.524 676.135 110.459 676.135H101.254V681.105ZM128.613 668.47H131.413V663.5H122.383L126.373 681H131.483L128.613 668.47ZM135.71 681H154.19V676.03H151.985V663.5H135.885V668.47H146.805V676.03H135.71V681ZM179.571 681H184.716V663.5H166.481V668.47H179.571V681ZM166.656 681H171.836V671.515H166.656V681ZM189.398 663.5V668.435H199.268V681H204.413V663.5H189.398ZM227.905 663.5V672.67C227.905 675.05 226.68 675.995 224.895 675.995H223.425V663.5H218.21V675.995H213.94V663.5H208.76V681H225.49C229.55 681 232.98 678.025 232.98 673.72V663.5H227.905ZM237.803 681H250.263C254.393 681 256.983 678.41 256.983 674.315V663.5H237.803V673.405H242.948V668.54H251.768V673.23C251.768 675.435 251.383 676.03 249.388 676.03H237.803V681ZM282.468 663.5H276.238L272.003 669.205L267.208 663.5H261.713V681H266.648V670.675L275.223 681H281.838L275.363 673.23L282.468 663.5ZM285.608 681.315H287.603C292.538 681.315 295.128 678.375 295.093 674.455L295.023 668.47H302.863V681H307.973V663.5H286.168V668.47H289.983V673.475C289.983 675.96 288.968 676.345 285.608 676.38V681.315ZM325.736 681H330.881V663.5H312.646V668.47H325.736V681ZM312.821 681H318.001V671.515H312.821V681ZM354.602 663.5V672.67C354.602 675.05 353.377 675.995 351.592 675.995H350.122V663.5H344.907V675.995H340.637V663.5H335.457V681H352.187C356.247 681 359.677 678.025 359.677 673.72V663.5H354.602ZM54.7145 717.315H56.7095C61.6445 717.315 64.2345 714.375 64.1995 710.455L64.1295 704.47H71.9695V717H77.0795V699.5H55.2745V704.47H59.0895V709.475C59.0895 711.96 58.0745 712.345 54.7145 712.38V717.315ZM93.7928 699.5H86.5478V695.545H81.4028V704.435H92.2878C93.3378 704.435 93.2678 704.54 93.2678 705.485V717.07H98.4128V704.085C98.4128 700.97 97.1178 699.5 93.7928 699.5ZM102.823 709.72H108.213V699.5H102.823V709.72ZM125.916 717H131.061V699.5H112.826V704.47H125.916V717ZM113.001 717H118.181V707.515H113.001V717ZM135.287 699.5V704.33H137.947V721.06H143.232V704.33H151.632L148.062 716.965H153.557L158.632 699.5H135.287ZM164.873 717H170.018V704.47H177.088C179.013 704.47 179.678 704.96 179.678 707.13V711.96H173.378V717H184.788V706.045C184.788 701.915 182.093 699.5 177.753 699.5H162.073V704.47H164.873V717ZM196.732 699.5V704.33H199.392V721.06H204.677V704.33H213.077L209.507 716.965H215.002L220.077 699.5H196.732ZM236.012 699.5H228.767V695.545H223.622V704.435H234.507C235.557 704.435 235.487 704.54 235.487 705.485V717.07H240.632V704.085C240.632 700.97 239.337 699.5 236.012 699.5ZM245.181 717H250.291V704.47H258.761V717H263.871V699.5H245.181V717ZM285.657 721.235H290.802V699.5H276.487V704.47H285.657V721.235ZM294.851 717.315H296.846C301.781 717.315 304.371 714.375 304.336 710.455L304.266 704.47H312.106V717H317.216V699.5H295.411V704.47H299.226V709.475C299.226 711.96 298.211 712.345 294.851 712.38V717.315ZM321.715 717H326.965V699.5H321.715V717ZM331.475 709.72H336.865V699.5H331.475V709.72ZM354.569 717H359.714V699.5H341.479V704.47H354.569V717ZM341.654 717H346.834V707.515H341.654V717ZM106.636 753H111.886V735.5H106.636V753ZM116.291 753H119.336C123.641 753 126.126 750.585 126.126 746.49V735.5H116.186V740.54H120.981V745.3C120.981 747.47 120.526 748.03 118.321 748.03H116.291V753ZM142.849 735.5H135.604V731.545H130.459V740.435H141.344C142.394 740.435 142.324 740.54 142.324 741.485V753.07H147.469V740.085C147.469 736.97 146.174 735.5 142.849 735.5ZM170.954 735.5V744.67C170.954 747.05 169.729 747.995 167.944 747.995H166.474V735.5H161.259V747.995H156.989V735.5H151.809V753H168.539C172.599 753 176.029 750.025 176.029 745.72V735.5H170.954ZM191.243 753L211.053 752.965V742.08C211.053 737.95 208.463 735.5 204.193 735.5H188.863V740.47H191.243V753ZM196.423 747.96V740.47H203.493C205.348 740.47 205.873 741.1 205.873 743.095V747.96H196.423ZM215.442 745.72H220.832V735.5H215.442V745.72ZM224.373 753H237.393C241.628 753 244.848 750.41 244.848 746V735.5H239.773V744.705C239.773 747.33 238.618 747.995 236.623 747.995H232.528V735.5H227.453V747.995H224.373V753ZM249.079 745.72H254.469V735.5H249.079V745.72ZM258.487 735.5V740.33H261.147V757.06H266.432V740.33H274.832L271.262 752.965H276.757L281.832 735.5H258.487ZM304.628 735.5V744.67C304.628 747.05 303.403 747.995 301.618 747.995H300.148V735.5H294.933V747.995H290.663V735.5H285.483V753H302.213C306.273 753 309.703 750.025 309.703 745.72V735.5H304.628ZM316.905 753H322.05V740.47H329.12C331.045 740.47 331.71 740.96 331.71 743.13V747.96H325.41V753H336.82V742.045C336.82 737.915 334.125 735.5 329.785 735.5H314.105V740.47H316.905V753ZM354.569 753H359.714V735.5H341.479V740.47H354.569V753ZM341.654 753H346.834V743.515H341.654V753Z" fill="#FC653C"/>
</g>
<defs>
<clipPath id="clip0_571_2231">
<rect width="390" height="844" fill="white"/>
</clipPath>
</defs>
</svg>
