<svg width="390" height="844" viewBox="0 0 390 844" fill="none" xmlns="http://www.w3.org/2000/svg">
<g clip-path="url(#clip0_1167_1157)">
<rect width="390" height="844" fill="#FBFFDA"/>
<path d="M261.704 679.989C262.709 681.414 263.697 682.851 264.64 684.315C265.248 685.26 265.916 686.168 266.551 687.096C266.918 687.631 267.452 687.598 268.584 686.892C271.999 684.763 275.403 682.615 278.815 680.484C280.281 679.568 281.739 678.616 283.242 677.792C284.03 677.361 284.854 676.998 285.649 676.522C286.839 675.812 288.046 675.138 289.241 674.436C291.648 673.025 294.051 671.606 296.456 670.191C296.994 669.874 297.549 669.599 298.053 669.216C298.7 668.724 298.953 668.085 298.529 667.899C298.403 667.844 298.366 667.75 298.339 667.637C298.23 667.201 298.093 666.783 297.576 666.603C297.456 666.562 297.402 666.454 297.348 666.358C296.54 664.889 295.655 663.463 295.046 661.878C295.039 661.86 295.023 661.846 295.027 661.826C295.141 661.226 294.506 661.247 293.894 661.247C293.009 661.246 292.111 661.26 291.249 661.23C290.809 661.214 290.348 661.393 289.859 661.664C288.633 662.342 287.44 663.088 286.222 663.788C283.889 665.131 281.573 666.513 279.25 667.881C279.003 668.026 278.763 668.177 278.524 668.169C278.352 668.164 278.164 668.295 277.989 668.403C274.148 670.786 270.299 673.157 266.471 675.558C265.312 676.285 264.149 677.001 262.991 677.726C262.654 677.937 262.317 678.154 261.998 678.383C261.474 678.758 261.259 679.141 261.374 679.445C261.381 679.463 261.389 679.479 261.398 679.495C261.499 679.66 261.6 679.826 261.701 679.991L261.704 679.989Z" fill="#6B53FF"/>
<path d="M-5.2535 664.009C-4.24795 665.434 -3.25997 666.871 -2.31704 668.335C-1.70879 669.28 -1.04093 670.187 -0.405648 671.116C-0.0389225 671.65 0.494554 671.617 1.62722 670.911C5.04235 668.782 8.4464 666.635 11.8583 664.503C13.3242 663.588 14.7825 662.636 16.2854 661.812C17.0726 661.38 17.8971 661.017 18.6925 660.542C19.882 659.832 21.0894 659.157 22.2842 658.456C24.6913 657.044 27.094 655.625 29.4993 654.211C30.0373 653.894 30.5923 653.619 31.0957 653.236C31.743 652.744 31.996 652.104 31.5718 651.918C31.4457 651.863 31.4092 651.769 31.3816 651.656C31.2726 651.22 31.1355 650.803 30.6186 650.623C30.4985 650.581 30.4454 650.474 30.3912 650.378C29.583 648.909 28.6984 647.483 28.0892 645.897C28.0825 645.88 28.0658 645.866 28.0698 645.845C28.1842 645.245 27.5488 645.267 26.9373 645.267C26.0516 645.266 25.1545 645.28 24.2921 645.249C23.8523 645.234 23.3911 645.413 22.9016 645.684C21.6757 646.361 20.4832 647.107 19.2652 647.808C16.9315 649.151 14.6156 650.533 12.2926 651.9C12.0457 652.046 11.8061 652.197 11.5666 652.189C11.3947 652.184 11.2066 652.314 11.0317 652.422C7.19048 654.805 3.34212 657.176 -0.48567 659.578C-1.64465 660.305 -2.8079 661.021 -3.96626 661.745C-4.30298 661.956 -4.63959 662.174 -4.95938 662.403C-5.48265 662.777 -5.69778 663.161 -5.58293 663.464C-5.57618 663.482 -5.56836 663.498 -5.5586 663.515C-5.4579 663.68 -5.35721 663.845 -5.25651 664.011L-5.2535 664.009Z" fill="#6B53FF"/>
<path d="M103.746 98.0088C104.752 99.4338 105.74 100.871 106.683 102.335C107.291 103.28 107.959 104.187 108.594 105.116C108.961 105.65 109.495 105.617 110.627 104.911C114.042 102.782 117.446 100.635 120.858 98.5033C122.324 97.5878 123.782 96.636 125.285 95.8117C126.073 95.3804 126.897 95.0172 127.692 94.5419C128.882 93.8316 130.089 93.1574 131.284 92.4559C133.691 91.0442 136.094 89.6252 138.499 88.2106C139.037 87.894 139.592 87.619 140.096 87.2356C140.743 86.7436 140.996 86.1042 140.572 85.9181C140.446 85.8631 140.409 85.7694 140.382 85.6564C140.273 85.2205 140.135 84.8026 139.619 84.623C139.498 84.5813 139.445 84.4738 139.391 84.378C138.583 82.9087 137.698 81.4829 137.089 79.8975C137.082 79.8796 137.066 79.8658 137.07 79.8454C137.184 79.2455 136.549 79.2668 135.937 79.2666C135.052 79.2656 134.154 79.2796 133.292 79.2494C132.852 79.2336 132.391 79.4125 131.902 79.6836C130.676 80.3611 129.483 81.1072 128.265 81.8078C125.932 83.1508 123.616 84.533 121.293 85.9004C121.046 86.0458 120.806 86.1967 120.567 86.1887C120.395 86.1835 120.207 86.314 120.032 86.4225C116.19 88.8053 112.342 91.1764 108.514 93.5779C107.355 94.3045 106.192 95.0208 105.034 95.7451C104.697 95.9561 104.36 96.174 104.041 96.4027C103.517 96.7772 103.302 97.1609 103.417 97.4644C103.424 97.4823 103.432 97.4985 103.441 97.5145C103.542 97.6799 103.643 97.8453 103.743 98.0107L103.746 98.0088Z" fill="#6B53FF"/>
<path d="M59.7465 253.009C60.7521 254.434 61.74 255.871 62.683 257.335C63.2912 258.28 63.9591 259.187 64.5944 260.116C64.9611 260.65 65.4946 260.617 66.6272 259.911C70.0424 257.782 73.4464 255.635 76.8583 253.503C78.3242 252.588 79.7825 251.636 81.2854 250.812C82.0726 250.38 82.8971 250.017 83.6925 249.542C84.882 248.832 86.0894 248.157 87.2842 247.456C89.6913 246.044 92.094 244.625 94.4993 243.211C95.0373 242.894 95.5923 242.619 96.0957 242.236C96.743 241.744 96.996 241.104 96.5718 240.918C96.4457 240.863 96.4092 240.769 96.3816 240.656C96.2726 240.22 96.1355 239.803 95.6186 239.623C95.4985 239.581 95.4454 239.474 95.3912 239.378C94.583 237.909 93.6984 236.483 93.0892 234.897C93.0825 234.88 93.0658 234.866 93.0698 234.845C93.1842 234.245 92.5488 234.267 91.9373 234.267C91.0516 234.266 90.1545 234.28 89.2921 234.249C88.8523 234.234 88.3911 234.413 87.9016 234.684C86.6757 235.361 85.4832 236.107 84.2652 236.808C81.9315 238.151 79.6156 239.533 77.2926 240.9C77.0457 241.046 76.8061 241.197 76.5666 241.189C76.3947 241.184 76.2066 241.314 76.0317 241.422C72.1905 243.805 68.3421 246.176 64.5143 248.578C63.3553 249.305 62.1921 250.021 61.0337 250.745C60.697 250.956 60.3604 251.174 60.0406 251.403C59.5174 251.777 59.3022 252.161 59.4171 252.464C59.4238 252.482 59.4316 252.498 59.4414 252.515C59.5421 252.68 59.6428 252.845 59.7435 253.011L59.7465 253.009Z" fill="#6B53FF"/>
<path d="M209.087 232.955C210.8 232.625 212.516 232.315 214.238 232.058C215.35 231.892 216.452 231.657 217.559 231.459C218.197 231.345 218.386 230.845 218.209 229.522C217.673 225.534 217.116 221.548 216.576 217.561C216.345 215.848 216.077 214.128 215.944 212.419C215.874 211.524 215.883 210.623 215.776 209.702C215.618 208.326 215.5 206.948 215.352 205.571C215.056 202.796 214.751 200.022 214.45 197.248C214.383 196.627 214.361 196.008 214.218 195.392C214.036 194.599 213.557 194.106 213.213 194.416C213.111 194.508 213.011 194.503 212.897 194.482C212.454 194.402 212.017 194.355 211.641 194.752C211.553 194.844 211.434 194.849 211.324 194.859C209.652 194.991 207.989 195.211 206.293 195.114C206.274 195.113 206.255 195.122 206.238 195.11C205.738 194.759 205.496 195.347 205.244 195.904C204.879 196.711 204.523 197.535 204.141 198.308C203.945 198.703 203.919 199.197 203.964 199.754C204.078 201.151 204.267 202.544 204.405 203.943C204.669 206.622 204.977 209.302 205.267 211.982C205.298 212.266 205.337 212.547 205.232 212.762C205.156 212.916 205.198 213.142 205.225 213.346C205.817 217.827 206.395 222.31 207.01 226.787C207.195 228.142 207.37 229.497 207.553 230.851C207.607 231.244 207.667 231.641 207.744 232.026C207.871 232.657 208.132 233.011 208.456 233.031C208.475 233.033 208.493 233.032 208.511 233.03C208.703 233.006 208.896 232.982 209.088 232.959L209.087 232.955Z" fill="#6B53FF"/>
<path d="M362.849 286.675C363.974 288.008 365.083 289.354 366.149 290.731C366.836 291.62 367.58 292.466 368.293 293.336C368.705 293.837 369.233 293.758 370.301 292.957C373.519 290.541 376.725 288.107 379.94 285.689C381.321 284.65 382.692 283.576 384.118 282.625C384.865 282.127 385.655 281.694 386.406 281.151C387.53 280.341 388.674 279.565 389.804 278.763C392.08 277.148 394.351 275.527 396.625 273.91C397.134 273.548 397.663 273.226 398.131 272.8C398.734 272.254 398.93 271.595 398.492 271.447C398.361 271.403 398.317 271.313 398.28 271.202C398.133 270.778 397.961 270.373 397.43 270.239C397.307 270.208 397.245 270.105 397.182 270.014C396.25 268.62 395.246 267.276 394.502 265.75C394.493 265.732 394.476 265.72 394.478 265.699C394.54 265.092 393.909 265.168 393.3 265.221C392.417 265.296 391.525 265.388 390.663 265.432C390.223 265.454 389.779 265.673 389.315 265.985C388.152 266.766 387.029 267.612 385.876 268.416C383.667 269.955 381.479 271.532 379.283 273.095C379.05 273.262 378.824 273.433 378.585 273.445C378.413 273.455 378.237 273.601 378.072 273.725C374.451 276.43 370.822 279.125 367.216 281.849C366.124 282.673 365.027 283.487 363.936 284.309C363.619 284.548 363.302 284.794 363.003 285.05C362.514 285.468 362.333 285.869 362.474 286.161C362.482 286.178 362.491 286.194 362.503 286.209C362.617 286.365 362.732 286.521 362.846 286.677L362.849 286.675Z" fill="#6B53FF"/>
<path d="M60.1864 555.905C61.9159 555.68 63.6475 555.476 65.3824 555.324C66.5019 555.227 67.6161 555.059 68.7337 554.93C69.3777 554.854 69.597 554.367 69.5008 553.036C69.2093 549.022 68.8964 545.009 68.6016 540.997C68.4751 539.274 68.3129 537.54 68.2844 535.826C68.2698 534.928 68.3329 534.03 68.2833 533.104C68.2095 531.721 68.1759 530.339 68.1123 528.954C67.9857 526.167 67.8505 523.38 67.7204 520.592C67.6912 519.969 67.7066 519.349 67.6022 518.725C67.4687 517.923 67.021 517.402 66.6586 517.69C66.5511 517.776 66.4512 517.764 66.3384 517.736C65.9019 517.629 65.4683 517.556 65.0684 517.929C64.9755 518.016 64.8557 518.013 64.7456 518.016C63.069 518.046 61.3953 518.164 59.7087 517.964C59.6897 517.962 59.6697 517.97 59.6535 517.957C59.1761 517.576 58.8988 518.148 58.6135 518.689C58.1997 519.472 57.7938 520.272 57.3651 521.021C57.146 521.403 57.0893 521.894 57.1009 522.454C57.1288 523.854 57.2328 525.257 57.2848 526.661C57.3849 529.352 57.528 532.045 57.6547 534.737C57.6682 535.024 57.6899 535.306 57.5712 535.514C57.4865 535.664 57.5143 535.891 57.5287 536.096C57.8458 540.605 58.1493 545.115 58.4893 549.621C58.5918 550.985 58.6831 552.349 58.7838 553.711C58.8135 554.107 58.8494 554.507 58.9026 554.896C58.99 555.534 59.2291 555.903 59.5512 555.943C59.5701 555.945 59.5881 555.946 59.6068 555.945C59.8001 555.933 59.9934 555.921 60.1866 555.909L60.1864 555.905Z" fill="#232323"/>
<path d="M356.137 555.12C357.592 556.082 359.035 557.061 360.445 558.082C361.356 558.741 362.308 559.343 363.237 559.977C363.773 560.342 364.258 560.117 365.057 559.048C367.464 555.822 369.853 552.584 372.256 549.357C373.289 547.971 374.301 546.554 375.401 545.24C375.978 544.552 376.614 543.914 377.182 543.182C378.031 542.087 378.911 541.02 379.769 539.932C381.498 537.742 383.22 535.546 384.946 533.353C385.332 532.863 385.749 532.405 386.078 531.864C386.502 531.171 386.505 530.483 386.043 530.464C385.905 530.459 385.837 530.385 385.77 530.29C385.51 529.923 385.23 529.584 384.684 529.604C384.557 529.609 384.468 529.528 384.383 529.459C383.095 528.384 381.753 527.378 380.609 526.122C380.596 526.108 380.575 526.101 380.572 526.081C380.46 525.481 379.876 525.732 379.306 525.954C378.481 526.275 377.65 526.614 376.836 526.9C376.42 527.045 376.056 527.379 375.699 527.81C374.803 528.887 373.964 530.016 373.084 531.111C371.398 533.211 369.744 535.341 368.077 537.46C367.9 537.685 367.732 537.913 367.506 537.992C367.344 538.05 367.216 538.24 367.093 538.405C364.381 542.021 361.659 545.63 358.966 549.259C358.151 550.357 357.328 551.448 356.512 552.544C356.276 552.863 356.041 553.188 355.827 553.517C355.475 554.056 355.414 554.492 355.632 554.733C355.645 554.747 355.658 554.76 355.673 554.771C355.827 554.888 355.981 555.006 356.135 555.123L356.137 555.12Z" fill="#232323"/>
<path d="M286.35 268.368C288.031 268.834 289.705 269.321 291.362 269.857C292.431 270.204 293.522 270.483 294.602 270.8C295.224 270.982 295.616 270.618 296.046 269.355C297.342 265.544 298.617 261.727 299.909 257.917C300.464 256.281 300.99 254.621 301.632 253.031C301.968 252.199 302.377 251.396 302.691 250.524C303.163 249.221 303.67 247.935 304.151 246.636C305.121 244.019 306.082 241.399 307.049 238.782C307.265 238.196 307.52 237.632 307.667 237.016C307.857 236.226 307.648 235.571 307.202 235.695C307.069 235.732 306.982 235.683 306.889 235.613C306.528 235.344 306.158 235.108 305.644 235.296C305.525 235.34 305.415 235.29 305.313 235.25C303.757 234.625 302.17 234.081 300.694 233.239C300.678 233.23 300.656 233.23 300.646 233.211C300.355 232.674 299.877 233.093 299.403 233.48C298.717 234.04 298.031 234.619 297.345 235.141C296.994 235.408 296.751 235.838 296.543 236.358C296.023 237.658 295.572 238.991 295.073 240.304C294.117 242.821 293.199 245.357 292.267 247.887C292.168 248.155 292.078 248.424 291.887 248.569C291.751 248.674 291.688 248.894 291.621 249.089C290.156 253.365 288.678 257.637 287.236 261.919C286.798 263.215 286.351 264.506 285.913 265.8C285.786 266.177 285.664 266.559 285.561 266.938C285.393 267.559 285.469 267.992 285.75 268.155C285.767 268.164 285.783 268.172 285.801 268.178C285.984 268.242 286.166 268.307 286.349 268.371L286.35 268.368Z" fill="#232323"/>
<path d="M240.59 177.043C242.32 176.82 244.052 176.618 245.787 176.469C246.906 176.373 248.021 176.206 249.138 176.079C249.783 176.004 250.003 175.517 249.908 174.186C249.622 170.172 249.314 166.159 249.025 162.146C248.9 160.422 248.74 158.688 248.714 156.974C248.701 156.077 248.765 155.178 248.717 154.253C248.645 152.869 248.613 151.487 248.551 150.103C248.428 147.315 248.297 144.527 248.17 141.74C248.142 141.116 248.158 140.497 248.054 139.873C247.922 139.071 247.475 138.548 247.112 138.836C247.005 138.922 246.905 138.91 246.792 138.882C246.356 138.775 245.922 138.701 245.522 139.074C245.429 139.16 245.309 139.157 245.199 139.16C243.522 139.188 241.848 139.304 240.162 139.101C240.143 139.099 240.123 139.107 240.107 139.094C239.63 138.712 239.352 139.284 239.066 139.825C238.651 140.607 238.244 141.407 237.814 142.155C237.595 142.537 237.537 143.028 237.548 143.587C237.574 144.988 237.676 146.391 237.727 147.795C237.823 150.486 237.963 153.179 238.086 155.872C238.099 156.158 238.12 156.44 238.001 156.648C237.917 156.798 237.944 157.025 237.958 157.231C238.269 161.74 238.567 166.251 238.901 170.757C239.002 172.121 239.091 173.484 239.19 174.847C239.219 175.243 239.255 175.643 239.307 176.032C239.394 176.67 239.633 177.039 239.955 177.08C239.974 177.082 239.992 177.083 240.01 177.082C240.204 177.07 240.397 177.058 240.59 177.046L240.59 177.043Z" fill="#FC653C"/>
<path d="M21.5517 196.638C22.3298 195.077 23.1266 193.526 23.9689 192.002C24.5126 191.019 24.9951 190 25.5115 189.001C25.8085 188.424 25.5264 187.97 24.3682 187.308C20.8745 185.31 17.3701 183.33 13.8762 181.336C12.3752 180.479 10.8459 179.647 9.40774 178.714C8.65484 178.225 7.94421 177.671 7.14871 177.196C5.95945 176.486 4.7935 175.742 3.60943 175.022C1.22545 173.572 -1.16284 172.129 -3.54854 170.682C-4.08229 170.358 -4.58754 170 -5.16378 169.738C-5.9038 169.401 -6.58665 169.482 -6.54951 169.943C-6.53818 170.08 -6.60338 170.157 -6.68978 170.235C-7.02198 170.537 -7.32493 170.856 -7.23806 171.396C-7.21788 171.522 -7.28736 171.62 -7.34603 171.713C-8.25672 173.121 -9.09286 174.576 -10.2001 175.864C-10.2126 175.878 -10.2169 175.899 -10.2368 175.905C-10.8192 176.089 -10.4993 176.638 -10.2096 177.177C-9.79067 177.957 -9.35311 178.741 -8.97097 179.514C-8.77643 179.909 -8.40024 180.23 -7.92952 180.533C-6.75185 181.291 -5.52974 181.987 -4.33544 182.728C-2.04676 184.146 0.268034 185.53 2.57312 186.927C2.81821 187.076 3.06458 187.215 3.17109 187.43C3.24804 187.584 3.45213 187.688 3.63047 187.79C7.5493 190.043 11.4612 192.308 15.3902 194.54C16.5794 195.216 17.7614 195.901 18.9482 196.578C19.2936 196.774 19.6451 196.967 19.998 197.14C20.5758 197.424 21.0156 197.431 21.2285 197.186C21.241 197.172 21.2516 197.157 21.261 197.141C21.3589 196.974 21.4568 196.807 21.5547 196.64L21.5517 196.638Z" fill="#FC653C"/>
<path d="M78.35 572.368C80.0305 572.834 81.7049 573.321 83.3617 573.857C84.4307 574.204 85.5223 574.483 86.6018 574.8C87.2242 574.982 87.6161 574.618 88.0462 573.355C89.3418 569.544 90.6173 565.727 91.909 561.917C92.4642 560.281 92.9905 558.621 93.6321 557.031C93.9683 556.199 94.3767 555.396 94.6914 554.524C95.1626 553.221 95.6704 551.935 96.1511 550.636C97.1207 548.019 98.0823 545.399 99.0487 542.782C99.2647 542.196 99.5202 541.632 99.6672 541.016C99.8568 540.226 99.6478 539.571 99.2017 539.695C99.0692 539.732 98.9817 539.683 98.8888 539.613C98.5284 539.344 98.1577 539.108 97.6439 539.296C97.5245 539.34 97.4154 539.29 97.3127 539.25C95.757 538.625 94.1696 538.081 92.6943 537.239C92.6778 537.23 92.6561 537.23 92.6463 537.211C92.3551 536.674 91.8767 537.093 91.4033 537.48C90.717 538.04 90.0314 538.619 89.3448 539.141C88.9943 539.408 88.7506 539.838 88.5432 540.358C88.0232 541.658 87.5724 542.991 87.0731 544.304C86.1169 546.821 85.1992 549.357 84.2667 551.887C84.1676 552.155 84.0776 552.424 83.8872 552.569C83.7508 552.674 83.6878 552.894 83.6212 553.089C82.1562 557.365 80.6783 561.637 79.2356 565.919C78.7985 567.215 78.3515 568.506 77.9133 569.8C77.7862 570.177 77.6636 570.559 77.5609 570.938C77.3929 571.559 77.4692 571.992 77.7503 572.155C77.7669 572.164 77.7832 572.172 77.8009 572.178C77.9835 572.242 78.1662 572.307 78.3488 572.371L78.35 572.368Z" fill="#FC653C"/>
<path d="M122.674 659.139C122.265 660.834 121.836 662.524 121.357 664.198C121.047 665.279 120.805 666.379 120.526 667.469C120.365 668.097 120.742 668.476 122.019 668.863C125.871 670.028 129.73 671.172 133.582 672.333C135.237 672.832 136.914 673.301 138.524 673.888C139.367 674.195 140.184 674.576 141.066 674.861C142.384 675.287 143.687 675.751 145.002 676.187C147.65 677.066 150.301 677.938 152.95 678.814C153.543 679.01 154.116 679.246 154.736 679.372C155.533 679.534 156.18 679.303 156.04 678.861C155.999 678.73 156.045 678.641 156.112 678.546C156.368 678.177 156.592 677.798 156.386 677.291C156.338 677.173 156.384 677.062 156.42 676.958C156.993 675.382 157.482 673.777 158.272 672.274C158.281 672.257 158.281 672.235 158.299 672.225C158.825 671.916 158.39 671.452 157.987 670.992C157.404 670.325 156.802 669.66 156.257 668.991C155.979 668.65 155.54 668.421 155.014 668.232C153.696 667.757 152.349 667.352 151.019 666.898C148.471 666.028 145.905 665.197 143.346 664.352C143.073 664.262 142.802 664.181 142.65 663.996C142.541 663.863 142.319 663.808 142.122 663.748C137.798 662.43 133.478 661.099 129.149 659.803C127.839 659.411 126.533 659.008 125.225 658.615C124.844 658.5 124.459 658.391 124.076 658.301C123.449 658.155 123.019 658.246 122.866 658.532C122.857 658.549 122.85 658.566 122.845 658.584C122.787 658.768 122.729 658.953 122.671 659.138L122.674 659.139Z" fill="#232323"/>
<path d="M55.35 147.368C57.0305 147.834 58.7049 148.321 60.3617 148.857C61.4307 149.204 62.5223 149.483 63.6018 149.8C64.2242 149.982 64.6161 149.618 65.0462 148.355C66.3418 144.544 67.6173 140.727 68.909 136.917C69.4642 135.281 69.9905 133.621 70.6321 132.031C70.9683 131.199 71.3767 130.396 71.6914 129.524C72.1626 128.221 72.6704 126.935 73.1511 125.636C74.1207 123.019 75.0823 120.399 76.0487 117.782C76.2647 117.196 76.5202 116.632 76.6672 116.016C76.8568 115.226 76.6478 114.571 76.2017 114.695C76.0692 114.732 75.9817 114.683 75.8888 114.613C75.5284 114.344 75.1577 114.108 74.6439 114.296C74.5245 114.34 74.4154 114.29 74.3127 114.25C72.757 113.625 71.1696 113.081 69.6943 112.239C69.6778 112.23 69.6561 112.23 69.6463 112.211C69.3551 111.674 68.8767 112.093 68.4033 112.48C67.717 113.04 67.0314 113.619 66.3448 114.141C65.9943 114.408 65.7506 114.838 65.5432 115.358C65.0232 116.658 64.5724 117.991 64.0731 119.304C63.1169 121.821 62.1992 124.357 61.2667 126.887C61.1676 127.155 61.0776 127.424 60.8872 127.569C60.7508 127.674 60.6878 127.894 60.6212 128.089C59.1562 132.365 57.6783 136.637 56.2356 140.919C55.7985 142.215 55.3515 143.506 54.9133 144.8C54.7862 145.177 54.6636 145.559 54.5609 145.938C54.3929 146.559 54.4692 146.992 54.7503 147.155C54.7669 147.164 54.7832 147.172 54.8009 147.178C54.9835 147.242 55.1662 147.307 55.3488 147.371L55.35 147.368Z" fill="#232323"/>
<path d="M315.22 556.239C316.768 557.043 318.305 557.867 319.814 558.735C320.788 559.295 321.798 559.795 322.789 560.329C323.36 560.635 323.819 560.361 324.501 559.214C326.558 555.755 328.598 552.285 330.651 548.826C331.533 547.34 332.392 545.825 333.35 544.403C333.851 543.659 334.417 542.958 334.906 542.17C335.637 540.994 336.4 539.841 337.14 538.669C338.631 536.31 340.114 533.947 341.602 531.586C341.935 531.058 342.302 530.559 342.573 529.987C342.923 529.253 342.854 528.569 342.392 528.598C342.255 528.607 342.179 528.541 342.103 528.453C341.806 528.116 341.492 527.807 340.951 527.885C340.825 527.903 340.728 527.832 340.636 527.772C339.244 526.837 337.804 525.976 336.535 524.847C336.521 524.834 336.5 524.83 336.494 524.81C336.32 524.224 335.765 524.535 335.222 524.815C334.435 525.221 333.644 525.645 332.864 526.014C332.466 526.201 332.138 526.572 331.828 527.037C331.049 528.202 330.332 529.412 329.571 530.593C328.114 532.857 326.691 535.148 325.254 537.429C325.101 537.672 324.958 537.916 324.741 538.018C324.586 538.093 324.479 538.295 324.373 538.472C322.054 542.351 319.722 546.224 317.423 550.114C316.727 551.291 316.022 552.462 315.325 553.637C315.123 553.979 314.924 554.327 314.745 554.677C314.451 555.25 314.436 555.689 314.678 555.906C314.692 555.919 314.706 555.93 314.722 555.94C314.888 556.04 315.053 556.141 315.218 556.242L315.22 556.239Z" fill="#FC653C"/>
<path d="M198.177 663.669C199.528 662.566 200.892 661.48 202.287 660.437C203.187 659.764 204.045 659.035 204.927 658.336C205.435 657.933 205.365 657.403 204.582 656.323C202.219 653.065 199.839 649.819 197.474 646.564C196.458 645.166 195.407 643.778 194.48 642.336C193.994 641.581 193.575 640.784 193.045 640.024C192.253 638.887 191.496 637.729 190.713 636.586C189.136 634.284 187.553 631.986 185.974 629.686C185.621 629.171 185.307 628.637 184.89 628.161C184.354 627.55 183.698 627.342 183.542 627.778C183.496 627.908 183.405 627.951 183.294 627.986C182.867 628.126 182.46 628.292 182.317 628.82C182.284 628.942 182.18 629.003 182.088 629.064C180.679 629.973 179.319 630.955 177.78 631.673C177.762 631.681 177.75 631.699 177.729 631.696C177.123 631.624 177.188 632.256 177.231 632.866C177.292 633.75 177.368 634.644 177.398 635.506C177.413 635.946 177.624 636.394 177.929 636.863C178.69 638.039 179.518 639.176 180.302 640.342C181.805 642.576 183.345 644.79 184.872 647.012C185.034 647.248 185.201 647.476 185.21 647.716C185.217 647.888 185.36 648.066 185.481 648.233C188.126 651.898 190.76 655.572 193.423 659.222C194.229 660.328 195.025 661.438 195.828 662.543C196.062 662.864 196.303 663.185 196.554 663.488C196.964 663.983 197.362 664.171 197.657 664.035C197.674 664.027 197.689 664.019 197.705 664.008C197.863 663.896 198.021 663.784 198.179 663.672L198.177 663.669Z" fill="#FC653C"/>
<path d="M259.22 721.239C260.768 722.043 262.305 722.867 263.814 723.735C264.788 724.295 265.798 724.795 266.789 725.329C267.36 725.635 267.819 725.361 268.501 724.214C270.558 720.755 272.598 717.285 274.651 713.826C275.533 712.34 276.392 710.825 277.35 709.403C277.851 708.659 278.417 707.958 278.906 707.17C279.637 705.994 280.4 704.841 281.14 703.669C282.631 701.31 284.114 698.947 285.602 696.586C285.935 696.058 286.302 695.559 286.573 694.987C286.923 694.253 286.854 693.569 286.392 693.598C286.255 693.607 286.179 693.541 286.103 693.453C285.806 693.116 285.492 692.807 284.951 692.885C284.825 692.903 284.728 692.832 284.636 692.772C283.244 691.837 281.804 690.976 280.535 689.847C280.521 689.834 280.5 689.83 280.494 689.81C280.32 689.224 279.765 689.535 279.222 689.815C278.435 690.221 277.644 690.645 276.864 691.014C276.466 691.201 276.138 691.572 275.828 692.037C275.049 693.202 274.332 694.412 273.571 695.593C272.114 697.857 270.691 700.148 269.254 702.429C269.101 702.672 268.958 702.916 268.741 703.018C268.586 703.093 268.479 703.295 268.373 703.472C266.054 707.351 263.722 711.224 261.423 715.114C260.727 716.291 260.022 717.462 259.325 718.637C259.123 718.979 258.924 719.327 258.745 719.677C258.451 720.25 258.436 720.689 258.678 720.906C258.692 720.919 258.706 720.93 258.722 720.94C258.888 721.04 259.053 721.141 259.218 721.242L259.22 721.239Z" fill="#FC653C"/>
<path d="M340.22 222.239C341.768 223.043 343.305 223.867 344.814 224.735C345.788 225.295 346.798 225.795 347.789 226.329C348.36 226.635 348.819 226.361 349.501 225.214C351.558 221.755 353.598 218.285 355.651 214.826C356.533 213.34 357.392 211.825 358.35 210.403C358.851 209.659 359.417 208.958 359.906 208.17C360.637 206.994 361.4 205.841 362.14 204.669C363.631 202.31 365.114 199.947 366.602 197.586C366.935 197.058 367.302 196.559 367.573 195.987C367.923 195.253 367.854 194.569 367.392 194.598C367.255 194.607 367.179 194.541 367.103 194.453C366.806 194.116 366.492 193.807 365.951 193.885C365.825 193.903 365.728 193.832 365.636 193.772C364.244 192.837 362.804 191.976 361.535 190.847C361.521 190.834 361.5 190.83 361.494 190.81C361.32 190.224 360.765 190.535 360.222 190.815C359.435 191.221 358.644 191.645 357.864 192.014C357.466 192.201 357.138 192.572 356.828 193.037C356.049 194.202 355.332 195.412 354.571 196.593C353.114 198.857 351.691 201.148 350.254 203.429C350.101 203.672 349.958 203.916 349.741 204.018C349.586 204.093 349.479 204.295 349.373 204.472C347.054 208.351 344.722 212.224 342.423 216.114C341.727 217.291 341.022 218.462 340.325 219.637C340.123 219.979 339.924 220.327 339.745 220.677C339.451 221.25 339.436 221.689 339.678 221.906C339.692 221.919 339.706 221.93 339.722 221.94C339.888 222.04 340.053 222.141 340.218 222.242L340.22 222.239Z" fill="#FC653C"/>
<path d="M49.2202 680.239C50.7675 681.043 52.3046 681.867 53.8142 682.735C54.7882 683.295 55.7981 683.795 56.7886 684.329C57.3598 684.635 57.8185 684.361 58.5011 683.214C60.5585 679.755 62.5976 676.285 64.6511 672.826C65.5335 671.34 66.3924 669.825 67.3496 668.403C67.8511 667.659 68.417 666.958 68.9056 666.17C69.6366 664.994 70.4 663.841 71.1397 662.669C72.6306 660.31 74.1143 657.947 75.6024 655.586C75.9351 655.058 76.3021 654.559 76.5734 653.987C76.9228 653.253 76.8542 652.569 76.3919 652.598C76.2546 652.607 76.1792 652.541 76.1028 652.453C75.8059 652.116 75.4924 651.807 74.9507 651.885C74.8248 651.903 74.7283 651.832 74.6362 651.772C73.2439 650.837 71.8038 649.976 70.535 648.847C70.5208 648.834 70.4996 648.83 70.4939 648.81C70.3202 648.224 69.7654 648.535 69.222 648.815C68.4346 649.221 67.6439 649.645 66.8639 650.014C66.4658 650.201 66.1381 650.572 65.8276 651.037C65.0492 652.202 64.332 653.412 63.5713 654.593C62.1141 656.857 60.6906 659.148 59.2541 661.429C59.1013 661.672 58.9577 661.916 58.7413 662.018C58.5861 662.093 58.4789 662.295 58.3733 662.472C56.0537 666.351 53.7224 670.224 51.4233 674.114C50.727 675.291 50.0221 676.462 49.3252 677.637C49.1228 677.979 48.9238 678.327 48.7445 678.677C48.4515 679.25 48.4364 679.689 48.6777 679.906C48.6919 679.919 48.7063 679.93 48.7223 679.94C48.8877 680.04 49.053 680.141 49.2184 680.242L49.2202 680.239Z" fill="#FC653C"/>
<path d="M37.2202 110.239C38.7675 111.043 40.3046 111.867 41.8142 112.735C42.7882 113.295 43.7981 113.795 44.7886 114.329C45.3598 114.635 45.8185 114.361 46.5011 113.214C48.5585 109.755 50.5976 106.285 52.6511 102.826C53.5335 101.34 54.3924 99.8252 55.3496 98.4032C55.8511 97.6588 56.417 96.9577 56.9056 96.1705C57.6366 94.9936 58.4 93.8405 59.1397 92.6689C60.6306 90.3101 62.1143 87.9469 63.6024 85.5863C63.9351 85.0581 64.3021 84.5591 64.5734 83.9874C64.9228 83.2533 64.8542 82.5691 64.3919 82.5984C64.2546 82.6073 64.1792 82.5409 64.1028 82.4531C63.8059 82.1158 63.4924 81.8074 62.9507 81.885C62.8248 81.9031 62.7283 81.8319 62.6362 81.7717C61.2439 80.837 59.8038 79.9761 58.535 78.847C58.5208 78.8342 58.4996 78.8296 58.4939 78.8096C58.3202 78.2241 57.7654 78.5346 57.222 78.815C56.4346 79.2206 55.6439 79.6447 54.8639 80.0135C54.4658 80.2013 54.1381 80.5719 53.8276 81.0374C53.0492 82.2019 52.332 83.4119 51.5713 84.5934C50.1141 86.8575 48.6906 89.1482 47.2541 91.4291C47.1013 91.6716 46.9577 91.9155 46.7413 92.0184C46.5861 92.0927 46.4789 92.2949 46.3733 92.4715C44.0537 96.3512 41.7224 100.224 39.4233 104.114C38.727 105.291 38.0221 106.462 37.3252 107.637C37.1228 107.979 36.9238 108.327 36.7445 108.677C36.4515 109.25 36.4364 109.689 36.6777 109.906C36.6919 109.919 36.7063 109.93 36.7223 109.94C36.8877 110.04 37.053 110.141 37.2184 110.242L37.2202 110.239Z" fill="#FC653C"/>
<path d="M161.604 190.34C163.01 189.308 164.428 188.293 165.874 187.322C166.807 186.696 167.702 186.011 168.618 185.359C169.146 184.982 169.103 184.449 168.376 183.33C166.182 179.956 163.971 176.593 161.776 173.222C160.833 171.773 159.854 170.333 159.001 168.846C158.555 168.067 158.176 167.25 157.686 166.463C156.954 165.288 156.257 164.093 155.533 162.912C154.076 160.532 152.612 158.156 151.152 155.778C150.825 155.246 150.54 154.696 150.147 154.2C149.643 153.562 148.999 153.322 148.821 153.749C148.768 153.876 148.675 153.914 148.563 153.944C148.129 154.061 147.714 154.206 147.544 154.727C147.505 154.847 147.398 154.903 147.303 154.959C145.85 155.794 144.441 156.706 142.867 157.345C142.849 157.352 142.836 157.369 142.815 157.365C142.213 157.262 142.247 157.897 142.258 158.508C142.274 159.394 142.305 160.291 142.291 161.153C142.283 161.593 142.471 162.051 142.751 162.535C143.452 163.748 144.22 164.927 144.944 166.131C146.33 168.439 147.756 170.729 149.167 173.025C149.317 173.269 149.472 173.506 149.469 173.746C149.467 173.918 149.601 174.103 149.713 174.276C152.168 178.072 154.611 181.875 157.084 185.656C157.832 186.801 158.571 187.951 159.317 189.095C159.534 189.428 159.758 189.761 159.993 190.076C160.377 190.592 160.765 190.8 161.066 190.679C161.084 190.672 161.1 190.664 161.116 190.654C161.279 190.55 161.443 190.447 161.606 190.343L161.604 190.34Z" fill="#232323"/>
<path d="M402.209 153.448C401.503 151.853 400.817 150.25 400.18 148.629C399.769 147.583 399.293 146.562 398.852 145.527C398.598 144.931 398.068 144.858 396.819 145.328C393.052 146.744 389.292 148.181 385.528 149.6C383.911 150.209 382.294 150.856 380.658 151.369C379.802 151.637 378.922 151.831 378.049 152.14C376.743 152.603 375.426 153.027 374.117 153.48C371.479 154.391 368.844 155.31 366.208 156.224C365.618 156.429 365.02 156.589 364.451 156.866C363.72 157.221 363.346 157.799 363.725 158.064C363.838 158.143 363.856 158.242 363.86 158.358C363.882 158.807 363.934 159.244 364.405 159.522C364.515 159.586 364.546 159.702 364.58 159.807C365.084 161.406 365.671 162.978 365.957 164.652C365.96 164.671 365.973 164.688 365.965 164.707C365.735 165.273 366.362 165.377 366.962 165.497C367.83 165.672 368.713 165.835 369.552 166.034C369.98 166.136 370.468 166.051 371.001 165.881C372.336 165.458 373.652 164.961 374.984 164.513C377.536 163.655 380.079 162.755 382.625 161.871C382.896 161.777 383.16 161.676 383.393 161.731C383.561 161.77 383.771 161.679 383.964 161.607C388.199 160.026 392.438 158.458 396.663 156.855C397.942 156.371 399.224 155.897 400.502 155.415C400.873 155.274 401.246 155.126 401.605 154.965C402.191 154.701 402.478 154.367 402.425 154.047C402.422 154.028 402.417 154.01 402.411 153.993C402.345 153.811 402.278 153.629 402.212 153.447L402.209 153.448Z" fill="#232323"/>
<path d="M88.3226 64.7808C89.9881 65.2982 91.6469 65.8356 93.2866 66.4222C94.3446 66.801 95.4271 67.1138 96.4965 67.463C97.1131 67.6636 97.5159 67.3122 97.9842 66.0626C99.3952 62.2935 100.786 58.5167 102.193 54.748C102.798 53.1289 103.375 51.4857 104.064 49.9164C104.426 49.0948 104.858 48.3045 105.2 47.443C105.71 46.1551 106.257 44.8849 106.777 43.6006C107.826 41.0147 108.867 38.4257 109.912 35.8386C110.146 35.2598 110.418 34.7035 110.584 34.0928C110.798 33.3083 110.609 32.6472 110.159 32.758C110.025 32.7912 109.939 32.7391 109.849 32.6663C109.497 32.387 109.133 32.1392 108.614 32.3117C108.493 32.3518 108.386 32.2989 108.284 32.2559C106.748 31.5831 105.178 30.9914 103.729 30.1053C103.713 30.0953 103.692 30.0945 103.682 30.0758C103.407 29.5304 102.917 29.9345 102.432 30.3068C101.729 30.8456 101.026 31.4033 100.323 31.9047C99.9651 32.1601 99.7084 32.583 99.4853 33.0962C98.9259 34.3803 98.4348 35.6984 97.8958 36.9961C96.8634 39.4828 95.8689 41.9898 94.8599 44.4893C94.7526 44.7551 94.6545 45.0206 94.4598 45.1602C94.3203 45.2609 94.2506 45.479 94.178 45.6715C92.5836 49.9012 90.9764 54.126 89.404 58.3624C88.9276 59.6447 88.4415 60.9214 87.9642 62.2014C87.8257 62.5739 87.6916 62.9518 87.5773 63.3279C87.3905 63.9437 87.4536 64.379 87.7297 64.5498C87.7459 64.5598 87.762 64.5679 87.7795 64.5747C87.9601 64.6445 88.1407 64.7143 88.3213 64.7841L88.3226 64.7808Z" fill="#FC653C"/>
<path d="M122.99 214.909C124.446 213.949 125.913 213.007 127.407 212.111C128.37 211.533 129.299 210.894 130.247 210.289C130.793 209.939 130.777 209.405 130.107 208.251C128.088 204.77 126.049 201.299 124.027 197.821C123.159 196.327 122.254 194.839 121.478 193.311C121.072 192.51 120.735 191.675 120.285 190.865C119.613 189.653 118.977 188.425 118.314 187.208C116.98 184.758 115.638 182.311 114.3 179.862C114.001 179.314 113.743 178.751 113.376 178.236C112.905 177.573 112.274 177.3 112.075 177.718C112.016 177.842 111.921 177.876 111.807 177.9C111.368 177.995 110.946 178.119 110.75 178.629C110.704 178.748 110.595 178.798 110.498 178.849C109.003 179.61 107.55 180.449 105.946 181.008C105.928 181.014 105.914 181.03 105.894 181.025C105.298 180.892 105.299 181.528 105.279 182.139C105.25 183.024 105.236 183.921 105.178 184.782C105.148 185.221 105.312 185.688 105.568 186.186C106.206 187.433 106.914 188.648 107.576 189.888C108.844 192.263 110.152 194.622 111.445 196.987C111.582 197.238 111.725 197.482 111.71 197.722C111.699 197.893 111.824 198.085 111.926 198.264C114.186 202.179 116.434 206.1 118.712 210.002C119.402 211.184 120.081 212.369 120.768 213.55C120.968 213.893 121.175 214.237 121.394 214.564C121.751 215.099 122.128 215.326 122.435 215.221C122.453 215.214 122.47 215.207 122.486 215.198C122.654 215.102 122.823 215.007 122.991 214.912L122.99 214.909Z" fill="#FC653C"/>
<path d="M207.715 723.612C209.422 723.253 211.133 722.915 212.851 722.63C213.959 722.446 215.057 722.192 216.162 721.977C216.798 721.852 216.979 721.349 216.78 720.03C216.178 716.05 215.555 712.074 214.951 708.097C214.691 706.388 214.395 704.672 214.234 702.966C214.15 702.072 214.143 701.171 214.022 700.252C213.841 698.879 213.701 697.503 213.53 696.128C213.188 693.359 212.837 690.59 212.492 687.821C212.414 687.202 212.381 686.583 212.229 685.969C212.034 685.18 211.547 684.694 211.208 685.01C211.107 685.104 211.007 685.1 210.892 685.081C210.449 685.008 210.011 684.969 209.641 685.372C209.555 685.466 209.436 685.472 209.326 685.484C207.657 685.643 205.997 685.891 204.3 685.822C204.281 685.821 204.262 685.831 204.245 685.819C203.739 685.476 203.507 686.068 203.265 686.629C202.913 687.442 202.57 688.271 202.2 689.051C202.012 689.449 201.993 689.943 202.048 690.5C202.184 691.894 202.397 693.284 202.557 694.68C202.866 697.355 203.217 700.029 203.552 702.704C203.587 702.988 203.631 703.268 203.529 703.485C203.456 703.64 203.501 703.865 203.531 704.068C204.197 708.539 204.849 713.012 205.537 717.478C205.745 718.83 205.941 720.182 206.147 721.533C206.207 721.926 206.274 722.321 206.357 722.705C206.494 723.334 206.761 723.684 207.085 723.698C207.104 723.699 207.122 723.699 207.141 723.696C207.332 723.669 207.524 723.642 207.716 723.615L207.715 723.612Z" fill="#6B53FF"/>
<path d="M92.7038 725.034C94.4106 724.675 96.1212 724.337 97.8391 724.052C98.9477 723.868 100.046 723.614 101.15 723.399C101.786 723.274 101.967 722.771 101.768 721.452C101.166 717.472 100.544 713.496 99.9389 709.519C99.6793 707.81 99.3833 706.094 99.2221 704.387C99.138 703.494 99.1313 702.593 99.0101 701.674C98.8294 700.301 98.6888 698.925 98.5182 697.55C98.176 694.78 97.8254 692.012 97.4798 689.243C97.4023 688.624 97.3698 688.005 97.2172 687.391C97.022 686.602 96.5353 686.116 96.1963 686.432C96.0958 686.526 95.9953 686.522 95.8806 686.503C95.4372 686.43 94.9992 686.39 94.6295 686.794C94.5436 686.888 94.4239 686.894 94.3144 686.906C92.6451 687.065 90.9856 687.312 89.2885 687.243C89.2694 687.243 89.2501 687.252 89.233 687.241C88.7275 686.898 88.4953 687.49 88.2528 688.051C87.9009 688.864 87.5582 689.693 87.1887 690.473C86.9999 690.87 86.9815 691.365 87.0364 691.922C87.1726 693.316 87.385 694.706 87.5456 696.102C87.8539 698.777 88.2051 701.451 88.54 704.126C88.5756 704.41 88.6192 704.69 88.517 704.906C88.4441 705.062 88.4894 705.287 88.5196 705.49C89.1851 709.961 89.837 714.434 90.525 718.9C90.7329 720.252 90.9295 721.604 91.1355 722.955C91.1958 723.347 91.2625 723.743 91.3457 724.127C91.4822 724.756 91.7492 725.105 92.0734 725.12C92.0925 725.121 92.1104 725.12 92.129 725.118C92.3208 725.091 92.5125 725.064 92.7043 725.037L92.7038 725.034Z" fill="#6B53FF"/>
<path d="M347.35 852.368C349.031 852.834 350.705 853.321 352.362 853.857C353.431 854.204 354.522 854.483 355.602 854.8C356.224 854.982 356.616 854.618 357.046 853.355C358.342 849.544 359.617 845.727 360.909 841.917C361.464 840.281 361.99 838.621 362.632 837.031C362.968 836.199 363.377 835.396 363.691 834.524C364.163 833.221 364.67 831.935 365.151 830.636C366.121 828.019 367.082 825.399 368.049 822.782C368.265 822.196 368.52 821.632 368.667 821.016C368.857 820.226 368.648 819.571 368.202 819.695C368.069 819.732 367.982 819.683 367.889 819.613C367.528 819.344 367.158 819.108 366.644 819.296C366.525 819.34 366.415 819.29 366.313 819.25C364.757 818.625 363.17 818.081 361.694 817.239C361.678 817.23 361.656 817.23 361.646 817.211C361.355 816.674 360.877 817.093 360.403 817.48C359.717 818.04 359.031 818.619 358.345 819.141C357.994 819.408 357.751 819.838 357.543 820.358C357.023 821.658 356.572 822.991 356.073 824.304C355.117 826.821 354.199 829.357 353.267 831.887C353.168 832.155 353.078 832.424 352.887 832.569C352.751 832.674 352.688 832.894 352.621 833.089C351.156 837.365 349.678 841.637 348.236 845.919C347.798 847.215 347.351 848.506 346.913 849.8C346.786 850.177 346.664 850.559 346.561 850.938C346.393 851.559 346.469 851.992 346.75 852.155C346.767 852.164 346.783 852.172 346.801 852.178C346.984 852.242 347.166 852.307 347.349 852.371L347.35 852.368Z" fill="#232323"/>
<path d="M259.22 721.239C260.768 722.043 262.305 722.867 263.814 723.735C264.788 724.295 265.798 724.795 266.789 725.329C267.36 725.635 267.819 725.361 268.501 724.214C270.558 720.755 272.598 717.285 274.651 713.826C275.533 712.34 276.392 710.825 277.35 709.403C277.851 708.659 278.417 707.958 278.906 707.17C279.637 705.994 280.4 704.841 281.14 703.669C282.631 701.31 284.114 698.947 285.602 696.586C285.935 696.058 286.302 695.559 286.573 694.987C286.923 694.253 286.854 693.569 286.392 693.598C286.255 693.607 286.179 693.541 286.103 693.453C285.806 693.116 285.492 692.807 284.951 692.885C284.825 692.903 284.728 692.832 284.636 692.772C283.244 691.837 281.804 690.976 280.535 689.847C280.521 689.834 280.5 689.83 280.494 689.81C280.32 689.224 279.765 689.535 279.222 689.815C278.435 690.221 277.644 690.645 276.864 691.014C276.466 691.201 276.138 691.572 275.828 692.037C275.049 693.202 274.332 694.412 273.571 695.593C272.114 697.857 270.691 700.148 269.254 702.429C269.101 702.672 268.958 702.916 268.741 703.018C268.586 703.093 268.479 703.295 268.373 703.472C266.054 707.351 263.722 711.224 261.423 715.114C260.727 716.291 260.022 717.462 259.325 718.637C259.123 718.979 258.924 719.327 258.745 719.677C258.451 720.25 258.436 720.689 258.678 720.906C258.692 720.919 258.706 720.93 258.722 720.94C258.888 721.04 259.053 721.141 259.218 721.242L259.22 721.239Z" fill="#FC653C"/>
<path d="M249.22 799.239C250.768 800.043 252.305 800.867 253.814 801.735C254.788 802.295 255.798 802.795 256.789 803.329C257.36 803.635 257.819 803.361 258.501 802.214C260.558 798.755 262.598 795.285 264.651 791.826C265.533 790.34 266.392 788.825 267.35 787.403C267.851 786.659 268.417 785.958 268.906 785.17C269.637 783.994 270.4 782.841 271.14 781.669C272.631 779.31 274.114 776.947 275.602 774.586C275.935 774.058 276.302 773.559 276.573 772.987C276.923 772.253 276.854 771.569 276.392 771.598C276.255 771.607 276.179 771.541 276.103 771.453C275.806 771.116 275.492 770.807 274.951 770.885C274.825 770.903 274.728 770.832 274.636 770.772C273.244 769.837 271.804 768.976 270.535 767.847C270.521 767.834 270.5 767.83 270.494 767.81C270.32 767.224 269.765 767.535 269.222 767.815C268.435 768.221 267.644 768.645 266.864 769.014C266.466 769.201 266.138 769.572 265.828 770.037C265.049 771.202 264.332 772.412 263.571 773.593C262.114 775.857 260.691 778.148 259.254 780.429C259.101 780.672 258.958 780.916 258.741 781.018C258.586 781.093 258.479 781.295 258.373 781.472C256.054 785.351 253.722 789.224 251.423 793.114C250.727 794.291 250.022 795.462 249.325 796.637C249.123 796.979 248.924 797.327 248.745 797.677C248.451 798.25 248.436 798.689 248.678 798.906C248.692 798.919 248.706 798.93 248.722 798.94C248.888 799.04 249.053 799.141 249.218 799.242L249.22 799.239Z" fill="#FC653C"/>
<path d="M324.885 790.878C325.008 789.138 325.152 787.401 325.348 785.67C325.475 784.554 325.532 783.428 325.627 782.308C325.682 781.661 325.248 781.35 323.924 781.179C319.932 780.668 315.937 780.177 311.947 779.669C310.232 779.45 308.501 779.265 306.815 778.952C305.933 778.788 305.065 778.548 304.148 778.412C302.777 778.21 301.416 777.968 300.047 777.755C297.289 777.326 294.531 776.904 291.773 776.478C291.156 776.383 290.553 776.245 289.92 776.223C289.108 776.194 288.507 776.53 288.718 776.942C288.781 777.064 288.75 777.16 288.7 777.265C288.508 777.672 288.35 778.082 288.637 778.548C288.703 778.656 288.676 778.773 288.658 778.882C288.354 780.531 288.137 782.195 287.606 783.808C287.599 783.826 287.604 783.847 287.588 783.86C287.119 784.253 287.625 784.638 288.098 785.025C288.784 785.586 289.487 786.143 290.136 786.712C290.467 787.003 290.937 787.156 291.488 787.256C292.866 787.507 294.261 787.683 295.648 787.911C298.304 788.348 300.972 788.743 303.636 789.154C303.92 789.197 304.201 789.232 304.381 789.39C304.511 789.503 304.739 789.52 304.943 789.547C309.425 790.132 313.906 790.731 318.39 791.293C319.747 791.464 321.101 791.645 322.456 791.817C322.85 791.866 323.249 791.911 323.641 791.936C324.283 791.977 324.693 791.816 324.796 791.508C324.802 791.49 324.806 791.473 324.809 791.454C324.835 791.262 324.862 791.07 324.889 790.879L324.885 790.878Z" fill="#232323"/>
<path d="M71.0225 777.025H74.6975V761.5H71.0225V777.025ZM93.4924 761.5H89.0424L86.0174 765.575L82.5924 761.5H78.6674V774H82.1924V766.625L88.3174 774H93.0424L88.4174 768.45L93.4924 761.5ZM96.7604 774.075H104.01C107.01 774.075 109.01 772.125 109.01 769.25V761.5H96.7104V765.1H105.285V768.375C105.285 769.95 104.81 770.525 103.335 770.525H96.7604V774.075Z" fill="#FDFFEE"/>
<path d="M328.746 614.009C329.752 615.434 330.74 616.871 331.683 618.335C332.291 619.28 332.959 620.187 333.594 621.116C333.961 621.65 334.495 621.617 335.627 620.911C339.042 618.782 342.446 616.635 345.858 614.503C347.324 613.588 348.782 612.636 350.285 611.812C351.073 611.38 351.897 611.017 352.692 610.542C353.882 609.832 355.089 609.157 356.284 608.456C358.691 607.044 361.094 605.625 363.499 604.211C364.037 603.894 364.592 603.619 365.096 603.236C365.743 602.744 365.996 602.104 365.572 601.918C365.446 601.863 365.409 601.769 365.382 601.656C365.273 601.22 365.135 600.803 364.619 600.623C364.498 600.581 364.445 600.474 364.391 600.378C363.583 598.909 362.698 597.483 362.089 595.897C362.082 595.88 362.066 595.866 362.07 595.845C362.184 595.245 361.549 595.267 360.937 595.267C360.052 595.266 359.154 595.28 358.292 595.249C357.852 595.234 357.391 595.413 356.902 595.684C355.676 596.361 354.483 597.107 353.265 597.808C350.932 599.151 348.616 600.533 346.293 601.9C346.046 602.046 345.806 602.197 345.567 602.189C345.395 602.184 345.207 602.314 345.032 602.422C341.19 604.805 337.342 607.176 333.514 609.578C332.355 610.305 331.192 611.021 330.034 611.745C329.697 611.956 329.36 612.174 329.041 612.403C328.517 612.777 328.302 613.161 328.417 613.464C328.424 613.482 328.432 613.498 328.441 613.515C328.542 613.68 328.643 613.845 328.743 614.011L328.746 614.009Z" fill="#6B53FF"/>
<path d="M342.35 774.368C344.031 774.834 345.705 775.321 347.362 775.857C348.431 776.204 349.522 776.483 350.602 776.8C351.224 776.982 351.616 776.618 352.046 775.355C353.342 771.544 354.617 767.727 355.909 763.917C356.464 762.281 356.99 760.621 357.632 759.031C357.968 758.199 358.377 757.396 358.691 756.524C359.163 755.221 359.67 753.935 360.151 752.636C361.121 750.019 362.082 747.399 363.049 744.782C363.265 744.196 363.52 743.632 363.667 743.016C363.857 742.226 363.648 741.571 363.202 741.695C363.069 741.732 362.982 741.683 362.889 741.613C362.528 741.344 362.158 741.108 361.644 741.296C361.525 741.34 361.415 741.29 361.313 741.25C359.757 740.625 358.17 740.081 356.694 739.239C356.678 739.23 356.656 739.23 356.646 739.211C356.355 738.674 355.877 739.093 355.403 739.48C354.717 740.04 354.031 740.619 353.345 741.141C352.994 741.408 352.751 741.838 352.543 742.358C352.023 743.658 351.572 744.991 351.073 746.304C350.117 748.821 349.199 751.357 348.267 753.887C348.168 754.155 348.078 754.424 347.887 754.569C347.751 754.674 347.688 754.894 347.621 755.089C346.156 759.365 344.678 763.637 343.236 767.919C342.798 769.215 342.351 770.506 341.913 771.8C341.786 772.177 341.664 772.559 341.561 772.938C341.393 773.559 341.469 773.992 341.75 774.155C341.767 774.164 341.783 774.172 341.801 774.178C341.984 774.242 342.166 774.307 342.349 774.371L342.35 774.368Z" fill="#6B53FF"/>
<path d="M334.22 686.239C335.768 687.043 337.305 687.867 338.814 688.735C339.788 689.295 340.798 689.795 341.789 690.329C342.36 690.635 342.819 690.361 343.501 689.214C345.558 685.755 347.598 682.285 349.651 678.826C350.533 677.34 351.392 675.825 352.35 674.403C352.851 673.659 353.417 672.958 353.906 672.17C354.637 670.994 355.4 669.841 356.14 668.669C357.631 666.31 359.114 663.947 360.602 661.586C360.935 661.058 361.302 660.559 361.573 659.987C361.923 659.253 361.854 658.569 361.392 658.598C361.255 658.607 361.179 658.541 361.103 658.453C360.806 658.116 360.492 657.807 359.951 657.885C359.825 657.903 359.728 657.832 359.636 657.772C358.244 656.837 356.804 655.976 355.535 654.847C355.521 654.834 355.5 654.83 355.494 654.81C355.32 654.224 354.765 654.535 354.222 654.815C353.435 655.221 352.644 655.645 351.864 656.014C351.466 656.201 351.138 656.572 350.828 657.037C350.049 658.202 349.332 659.412 348.571 660.593C347.114 662.857 345.691 665.148 344.254 667.429C344.101 667.672 343.958 667.916 343.741 668.018C343.586 668.093 343.479 668.295 343.373 668.472C341.054 672.351 338.722 676.224 336.423 680.114C335.727 681.291 335.022 682.462 334.325 683.637C334.123 683.979 333.924 684.327 333.745 684.677C333.451 685.25 333.436 685.689 333.678 685.906C333.692 685.919 333.706 685.93 333.722 685.94C333.888 686.04 334.053 686.141 334.218 686.242L334.22 686.239Z" fill="#FC653C"/>
<path d="M71.0225 777.025H74.6975V761.5H71.0225V777.025ZM93.4924 761.5H89.0424L86.0174 765.575L82.5924 761.5H78.6674V774H82.1924V766.625L88.3174 774H93.0424L88.4174 768.45L93.4924 761.5ZM96.7604 774.075H104.01C107.01 774.075 109.01 772.125 109.01 769.25V761.5H96.7104V765.1H105.285V768.375C105.285 769.95 104.81 770.525 103.335 770.525H96.7604V774.075Z" fill="#FDFFEE"/>
<path d="M97.6367 814.738L98.2657 805.947L105.849 808.505" stroke="#232323" stroke-width="3" stroke-linecap="round" stroke-linejoin="round"/>
<path d="M98.7786 807.07C111.248 826.029 126.651 810.555 129.186 805.579" stroke="#232323" stroke-width="3" stroke-linecap="round" stroke-linejoin="round"/>
<path d="M104.503 781H111.943C114.363 781 116.203 779.52 116.203 777V771H113.303V776.26C113.303 777.76 112.643 778.14 111.503 778.14H109.163V771H106.263V778.14H104.503V781ZM119.121 781H122.121V771H119.121V781ZM126.638 781H129.578V773.84H133.618C134.718 773.84 135.098 774.12 135.098 775.36V778.12H131.498V781H138.018V774.74C138.018 772.38 136.478 771 133.998 771H125.038V773.84H126.638V781ZM151.98 771V776.24C151.98 777.6 151.28 778.14 150.26 778.14H149.42V771H146.44V778.14H144V771H141.04V781H150.6C152.92 781 154.88 779.3 154.88 776.84V771H151.98ZM165.036 771H160.896V768.74H157.956V773.82H164.176C164.776 773.82 164.736 773.88 164.736 774.42V781.04H167.676V773.62C167.676 771.84 166.936 771 165.036 771ZM183.474 781H186.414V771H175.994V773.84H183.474V781ZM176.094 781H179.054V775.58H176.094V781ZM200.989 771.02L197.589 771L195.409 773.84L192.949 771H189.449L195.749 778.22H189.769V781H199.229V778.22L197.269 775.96L200.989 771.02ZM203.615 781H206.615V771H203.615V781ZM209.713 771V773.82H215.353V781H218.293V771H209.713ZM140.894 795.08H143.734C143.734 794.52 143.774 794.06 144.734 793.46C145.894 792.72 146.694 791.76 146.694 790.42V790.24C146.694 788 144.794 786.64 142.454 786.64C140.154 786.64 138.234 788.12 138.234 790.6H140.994C141.014 790.02 141.534 789.28 142.474 789.28C143.414 789.28 143.914 789.72 143.914 790.34C143.914 791.04 143.374 791.36 142.754 791.76C141.534 792.6 140.894 793.62 140.894 795.08ZM140.854 799H143.914V795.98H140.854V799ZM159.085 789H149.585V791.84H154.645V799H157.585V791.84H159.085V789ZM162.013 799H165.013V789H162.013V799ZM167.87 799H175.31C177.73 799 179.57 797.52 179.57 795V789H176.67V794.26C176.67 795.76 176.01 796.14 174.87 796.14H172.53V789H169.63V796.14H167.87V799Z" fill="#232323"/>
<path d="M44.2817 773.41V775.525H48.5117V780.91H50.7167V773.41H44.2817ZM52.7448 781.045H53.5998C55.7148 781.045 56.8248 779.785 56.8098 778.105L56.7798 775.54H60.1398V780.91H62.3298V773.41H52.9848V775.54H54.6198V777.685C54.6198 778.75 54.1848 778.915 52.7448 778.93V781.045ZM73.5727 773.41H70.9027L69.0877 775.855L67.0327 773.41H64.6777V780.91H66.7927V776.485L70.4677 780.91H73.3027L70.5277 777.58L73.5727 773.41ZM80.7685 773.41H77.6635V771.715H75.4585V775.525H80.1235C80.5735 775.525 80.5435 775.57 80.5435 775.975V780.94H82.7485V775.375C82.7485 774.04 82.1935 773.41 80.7685 773.41ZM45.2323 790.79H47.5423V786.41H45.2323V790.79ZM49.7896 793.91H57.7096V791.78H56.7646V786.41H49.8646V788.54H54.5446V791.78H49.7896V793.91ZM59.7536 793.91H62.0036V786.41H59.7536V793.91ZM69.5466 786.41H66.4416V784.715H64.2366V788.525H68.9016C69.3516 788.525 69.3216 788.57 69.3216 788.975V793.94H71.5266V788.375C71.5266 787.04 70.9716 786.41 69.5466 786.41ZM79.4765 793.91H81.6815V786.41H73.8665V788.54H79.4765V793.91ZM73.9415 793.91H76.1615V789.845H73.9415V793.91Z" fill="white"/>
<path d="M183.366 92.7337H186.306V80.0938H176.766V85.7537L179.706 85.7737V82.9537H183.366V92.7337ZM189.265 90.2738H190.405C193.225 90.2738 194.705 88.5937 194.685 86.3537L194.645 82.9337H199.125V90.0938H202.045V80.0938H189.585V82.9337H191.765V85.7937C191.765 87.2137 191.185 87.4337 189.265 87.4538V90.2738ZM216.015 80.0938V85.3337C216.015 86.6937 215.315 87.2337 214.295 87.2337H213.455V80.0938H210.475V87.2337H208.035V80.0938H205.075V90.0938H214.635C216.955 90.0938 218.915 88.3937 218.915 85.9337V80.0938H216.015ZM229.071 80.0938H224.931V77.8337H221.991V82.9137H228.211C228.811 82.9137 228.771 82.9737 228.771 83.5137V90.1338H231.711V82.7137C231.711 80.9337 230.971 80.0938 229.071 80.0938ZM247.509 90.0938H250.449V80.0938H240.029V82.9337H247.509V90.0938ZM240.129 90.0938H243.089V84.6737H240.129V90.0938ZM265.024 80.1137L261.624 80.0938L259.444 82.9337L256.984 80.0938H253.484L259.784 87.3137H253.804V90.0938H263.264V87.3137L261.304 85.0537L265.024 80.1137ZM267.65 90.0938H270.65V80.0938H267.65V90.0938ZM273.748 80.0938V82.9137H279.388V90.0938H282.328V80.0938H273.748ZM177.511 104.174H180.351C180.351 103.614 180.391 103.154 181.351 102.554C182.511 101.814 183.311 100.854 183.311 99.5137V99.3337C183.311 97.0937 181.411 95.7337 179.071 95.7337C176.771 95.7337 174.851 97.2137 174.851 99.6937H177.611C177.631 99.1137 178.151 98.3737 179.091 98.3737C180.031 98.3737 180.531 98.8137 180.531 99.4337C180.531 100.134 179.991 100.454 179.371 100.854C178.151 101.694 177.511 102.714 177.511 104.174ZM177.471 108.094H180.531V105.074H177.471V108.094ZM187.642 108.094L198.962 108.074V101.854C198.962 99.4937 197.482 98.0938 195.042 98.0938H186.282V100.934H187.642V108.094ZM190.602 105.214V100.934H194.642C195.702 100.934 196.002 101.294 196.002 102.434V105.214H190.602ZM201.969 103.934H205.049V98.0938H201.969V103.934ZM208.106 98.0938V100.914H213.746V108.094H216.686V98.0938H208.106ZM219.67 108.094H230.23V105.254H228.97V98.0938H219.77V100.934H226.01V105.254H219.67V108.094ZM233.035 108.094H235.955V100.934H240.795V108.094H243.715V98.0938H233.035V108.094ZM253.344 108.094L264.664 108.074V101.854C264.664 99.4937 263.184 98.0938 260.744 98.0938H251.984V100.934H253.344V108.094ZM256.304 105.214V100.934H260.344C261.404 100.934 261.704 101.294 261.704 102.434V105.214H256.304ZM267.452 108.094H274.892C277.312 108.094 279.152 106.614 279.152 104.094V98.0938H276.252V103.354C276.252 104.854 275.592 105.234 274.452 105.234H272.112V98.0938H269.212V105.234H267.452V108.094Z" fill="#232323"/>
<path d="M312.476 97.98H314.681V88.5H307.526V92.745L309.731 92.76V90.645H312.476V97.98ZM317.139 96H319.389V88.5H317.139V96ZM321.457 96.135H322.312C324.427 96.135 325.537 94.875 325.522 93.195L325.492 90.63H328.852V96H331.042V88.5H321.697V90.63H323.332V92.775C323.332 93.84 322.897 94.005 321.457 94.02V96.135ZM333.345 92.88H335.655V88.5H333.345V92.88ZM346.108 88.5V92.43C346.108 93.45 345.583 93.855 344.818 93.855H344.188V88.5H341.953V93.855H340.123V88.5H337.903V96H345.073C346.813 96 348.283 94.725 348.283 92.88V88.5H346.108Z" fill="white"/>
<path d="M289.66 61.9688L298.461 62.4548L296.88 54.6094" stroke="#232323" stroke-width="3" stroke-linecap="round" stroke-linejoin="round"/>
<path d="M266.02 63.1107C276.83 43.1587 293.495 57.2644 296.444 62.0059" stroke="#232323" stroke-width="3" stroke-linecap="round" stroke-linejoin="round"/>
</g>
<defs>
<clipPath id="clip0_1167_1157">
<rect width="390" height="844" fill="white"/>
</clipPath>
</defs>
</svg>
