<svg width="378" height="829" viewBox="0 0 378 829" fill="none" xmlns="http://www.w3.org/2000/svg">
<path d="M239.268 577.711C239.464 579.093 239.642 580.476 239.779 581.863C239.867 582.757 240.011 583.647 240.125 584.54C240.19 585.054 240.582 585.225 241.646 585.137C244.855 584.868 248.062 584.582 251.269 584.31C252.646 584.193 254.032 584.048 255.403 584.01C256.12 583.99 256.84 584.033 257.58 583.985C258.686 583.913 259.791 583.874 260.898 583.811C263.127 583.685 265.355 583.552 267.584 583.423C268.082 583.394 268.578 583.401 269.076 583.312C269.716 583.198 270.13 582.835 269.896 582.548C269.826 582.462 269.835 582.382 269.856 582.292C269.938 581.942 269.993 581.594 269.69 581.278C269.62 581.204 269.621 581.108 269.618 581.02C269.579 579.679 269.47 578.341 269.615 576.99C269.616 576.975 269.61 576.959 269.62 576.946C269.92 576.561 269.46 576.344 269.025 576.121C268.395 575.797 267.751 575.479 267.148 575.143C266.841 574.971 266.447 574.93 266 574.944C264.88 574.979 263.759 575.075 262.636 575.129C260.484 575.233 258.331 575.372 256.178 575.497C255.95 575.51 255.724 575.53 255.556 575.437C255.436 575.371 255.254 575.395 255.09 575.408C251.486 575.702 247.881 575.985 244.279 576.298C243.189 576.392 242.1 576.477 241.011 576.57C240.694 576.597 240.375 576.629 240.064 576.675C239.554 576.751 239.261 576.945 239.232 577.203C239.23 577.219 239.23 577.233 239.231 577.248C239.243 577.402 239.254 577.557 239.265 577.711L239.268 577.711Z" fill="#6B53FF"/>
<path d="M239.597 728.807C240.401 729.947 241.192 731.096 241.946 732.268C242.433 733.024 242.967 733.75 243.475 734.492C243.769 734.92 244.195 734.894 245.102 734.329C247.834 732.626 250.557 730.908 253.286 729.203C254.459 728.47 255.626 727.709 256.828 727.049C257.458 726.704 258.117 726.414 258.754 726.034C259.705 725.465 260.671 724.926 261.627 724.365C263.553 723.235 265.475 722.1 267.399 720.968C267.83 720.715 268.274 720.495 268.676 720.188C269.194 719.795 269.397 719.283 269.057 719.134C268.956 719.09 268.927 719.016 268.905 718.925C268.818 718.576 268.708 718.242 268.295 718.098C268.199 718.065 268.156 717.979 268.113 717.902C267.466 716.727 266.759 715.586 266.271 714.318C266.266 714.304 266.252 714.293 266.256 714.276C266.347 713.796 265.839 713.813 265.35 713.813C264.641 713.813 263.923 713.824 263.234 713.8C262.882 713.787 262.513 713.93 262.121 714.147C261.14 714.689 260.186 715.286 259.212 715.846C257.345 716.921 255.492 718.026 253.634 719.12C253.436 719.237 253.245 719.357 253.053 719.351C252.916 719.347 252.765 719.451 252.625 719.538C249.552 721.444 246.473 723.341 243.411 725.262C242.484 725.844 241.553 726.417 240.627 726.996C240.357 727.165 240.088 727.339 239.832 727.522C239.414 727.822 239.242 728.129 239.333 728.372C239.339 728.386 239.345 728.399 239.353 728.412C239.433 728.544 239.514 728.676 239.595 728.809L239.597 728.807Z" fill="#6B53FF"/>
<path d="M26.3968 582.206C27.2012 583.346 27.9916 584.495 28.746 585.667C29.2326 586.423 29.7669 587.149 30.2751 587.891C30.5685 588.319 30.9953 588.293 31.9014 587.728C34.6335 586.025 37.3567 584.307 40.0862 582.602C41.259 581.869 42.4256 581.108 43.628 580.448C44.2577 580.103 44.9173 579.813 45.5536 579.432C46.5052 578.864 47.4711 578.325 48.427 577.764C50.3526 576.634 52.2748 575.499 54.199 574.367C54.6294 574.114 55.0734 573.894 55.4762 573.587C55.994 573.194 56.1964 572.682 55.857 572.533C55.7561 572.489 55.727 572.414 55.7049 572.324C55.6177 571.975 55.508 571.641 55.0945 571.497C54.9984 571.464 54.9559 571.378 54.9126 571.301C54.266 570.126 53.5584 568.985 53.071 567.717C53.0656 567.703 53.0523 567.692 53.0555 567.675C53.147 567.195 52.6386 567.212 52.1495 567.212C51.4409 567.211 50.7232 567.223 50.0333 567.198C49.6815 567.186 49.3125 567.329 48.9209 567.546C47.9401 568.088 46.9862 568.685 46.0118 569.245C44.1448 570.32 42.2921 571.425 40.4337 572.519C40.2361 572.636 40.0445 572.756 39.8529 572.75C39.7153 572.746 39.5648 572.85 39.425 572.937C36.352 574.843 33.2733 576.74 30.2111 578.661C29.2839 579.243 28.3533 579.816 27.4266 580.395C27.1572 580.564 26.8879 580.738 26.6321 580.921C26.2135 581.221 26.0414 581.528 26.1333 581.77C26.1387 581.785 26.1449 581.798 26.1527 581.811C26.2333 581.943 26.3138 582.075 26.3944 582.207L26.3968 582.206Z" fill="#6B53FF"/>
<path d="M18.597 725.807C19.4014 726.947 20.1918 728.096 20.9462 729.268C21.4328 730.024 21.9671 730.75 22.4753 731.492C22.7687 731.92 23.1954 731.894 24.1016 731.329C26.8337 729.626 29.5569 727.908 32.2864 726.203C33.4592 725.47 34.6258 724.709 35.8282 724.049C36.4579 723.704 37.1175 723.414 37.7538 723.034C38.7054 722.465 39.6713 721.926 40.6272 721.365C42.5528 720.235 44.475 719.1 46.3992 717.968C46.8296 717.715 47.2736 717.495 47.6764 717.188C48.1942 716.795 48.3966 716.283 48.0572 716.134C47.9563 716.09 47.9272 716.016 47.9051 715.925C47.8179 715.576 47.7082 715.242 47.2947 715.098C47.1986 715.065 47.1561 714.979 47.1127 714.902C46.4662 713.727 45.7586 712.586 45.2712 711.318C45.2658 711.304 45.2525 711.293 45.2557 711.276C45.3471 710.796 44.8388 710.813 44.3497 710.813C43.6411 710.813 42.9234 710.824 42.2335 710.8C41.8817 710.787 41.5127 710.93 41.1211 711.147C40.1403 711.689 39.1864 712.286 38.2119 712.846C36.345 713.921 34.4922 715.026 32.6339 716.12C32.4363 716.237 32.2447 716.357 32.0531 716.351C31.9155 716.347 31.765 716.451 31.6252 716.538C28.5522 718.444 25.4735 720.341 22.4113 722.262C21.4841 722.844 20.5535 723.417 19.6268 723.996C19.3574 724.165 19.0881 724.339 18.8323 724.522C18.4137 724.822 18.2416 725.129 18.3335 725.372C18.3389 725.386 18.3451 725.399 18.3529 725.412C18.4335 725.544 18.514 725.676 18.5946 725.809L18.597 725.807Z" fill="#6B53FF"/>
<path d="M113.597 129.406C114.401 130.546 115.192 131.696 115.946 132.867C116.433 133.623 116.967 134.349 117.475 135.092C117.769 135.519 118.195 135.493 119.102 134.928C121.834 133.225 124.557 131.507 127.286 129.802C128.459 129.069 129.626 128.308 130.828 127.648C131.458 127.303 132.117 127.013 132.754 126.633C133.705 126.064 134.671 125.525 135.627 124.964C137.553 123.834 139.475 122.699 141.399 121.568C141.83 121.314 142.274 121.094 142.676 120.788C143.194 120.394 143.397 119.883 143.057 119.734C142.956 119.69 142.927 119.615 142.905 119.524C142.818 119.175 142.708 118.841 142.295 118.698C142.199 118.664 142.156 118.578 142.113 118.502C141.466 117.326 140.759 116.185 140.271 114.917C140.266 114.903 140.252 114.892 140.256 114.875C140.347 114.395 139.839 114.413 139.35 114.412C138.641 114.412 137.923 114.423 137.234 114.399C136.882 114.386 136.513 114.529 136.121 114.746C135.14 115.288 134.186 115.885 133.212 116.445C131.345 117.52 129.492 118.626 127.634 119.719C127.436 119.836 127.245 119.956 127.053 119.95C126.916 119.946 126.765 120.05 126.625 120.137C123.552 122.043 120.473 123.94 117.411 125.861C116.484 126.443 115.553 127.016 114.627 127.595C114.357 127.764 114.088 127.938 113.832 128.121C113.414 128.421 113.242 128.728 113.333 128.971C113.339 128.985 113.345 128.998 113.353 129.011C113.433 129.143 113.514 129.275 113.595 129.408L113.597 129.406Z" fill="#6B53FF"/>
<path d="M78.3968 253.406C79.2012 254.546 79.9916 255.696 80.746 256.867C81.2326 257.623 81.7669 258.349 82.2751 259.092C82.5685 259.519 82.9953 259.493 83.9014 258.928C86.6335 257.225 89.3567 255.507 92.0862 253.802C93.259 253.069 94.4256 252.308 95.628 251.648C96.2577 251.303 96.9173 251.013 97.5536 250.633C98.5052 250.064 99.4711 249.525 100.427 248.964C102.353 247.834 104.275 246.699 106.199 245.568C106.629 245.314 107.073 245.094 107.476 244.788C107.994 244.394 108.196 243.883 107.857 243.734C107.756 243.69 107.727 243.615 107.705 243.524C107.618 243.175 107.508 242.841 107.094 242.698C106.998 242.664 106.956 242.578 106.913 242.502C106.266 241.326 105.558 240.185 105.071 238.917C105.066 238.903 105.052 238.892 105.055 238.875C105.147 238.395 104.639 238.413 104.149 238.412C103.441 238.412 102.723 238.423 102.033 238.399C101.681 238.386 101.312 238.529 100.921 238.746C99.9401 239.288 98.9862 239.885 98.0118 240.445C96.1448 241.52 94.2921 242.626 92.4337 243.719C92.2361 243.836 92.0445 243.956 91.8529 243.95C91.7153 243.946 91.5648 244.05 91.425 244.137C88.352 246.043 85.2733 247.94 82.2111 249.861C81.2839 250.443 80.3533 251.016 79.4266 251.595C79.1572 251.764 78.8879 251.938 78.6321 252.121C78.2135 252.421 78.0414 252.728 78.1333 252.971C78.1387 252.985 78.1449 252.998 78.1527 253.011C78.2333 253.143 78.3138 253.275 78.3944 253.408L78.3968 253.406Z" fill="#6B53FF"/>
<path d="M197.87 237.365C199.24 237.1 200.613 236.853 201.991 236.647C202.88 236.514 203.761 236.326 204.647 236.168C205.158 236.077 205.309 235.677 205.167 234.619C204.738 231.428 204.293 228.239 203.861 225.05C203.676 223.679 203.462 222.303 203.355 220.936C203.3 220.22 203.306 219.499 203.221 218.763C203.095 217.662 203 216.559 202.882 215.457C202.645 213.237 202.4 211.018 202.16 208.799C202.107 208.303 202.089 207.807 201.975 207.314C201.829 206.68 201.446 206.285 201.171 206.533C201.089 206.607 201.009 206.603 200.917 206.586C200.563 206.522 200.214 206.485 199.913 206.802C199.843 206.876 199.747 206.88 199.659 206.888C198.322 206.993 196.991 207.169 195.634 207.092C195.619 207.091 195.604 207.098 195.59 207.089C195.19 206.808 194.997 207.278 194.795 207.724C194.503 208.37 194.218 209.029 193.912 209.647C193.756 209.963 193.735 210.358 193.772 210.804C193.862 211.921 194.014 213.036 194.124 214.155C194.335 216.298 194.581 218.442 194.814 220.586C194.839 220.814 194.87 221.038 194.785 221.21C194.725 221.334 194.758 221.514 194.78 221.677C195.253 225.262 195.716 228.849 196.208 232.43C196.356 233.514 196.496 234.598 196.643 235.681C196.686 235.996 196.734 236.313 196.795 236.622C196.896 237.127 197.105 237.41 197.365 237.426C197.38 237.427 197.394 237.426 197.409 237.425C197.563 237.406 197.717 237.387 197.87 237.368L197.87 237.365Z" fill="#6B53FF"/>
<path d="M2.92451 132.274C4.18309 132.877 5.43396 133.494 6.66409 134.148C7.45777 134.57 8.27851 134.943 9.08463 135.343C9.54949 135.573 9.909 135.342 10.4243 134.407C11.9772 131.587 13.5153 128.758 15.0652 125.937C15.7312 124.726 16.3777 123.492 17.1052 122.329C17.4864 121.721 17.9202 121.145 18.2899 120.503C18.8431 119.542 19.4228 118.6 19.9831 117.643C21.1125 115.718 22.2359 113.789 23.3629 111.862C23.6149 111.431 23.895 111.022 24.0968 110.558C24.3566 109.961 24.2835 109.416 23.9147 109.452C23.8051 109.463 23.7431 109.411 23.6797 109.343C23.4333 109.081 23.1744 108.843 22.7434 108.92C22.6432 108.937 22.5642 108.883 22.4889 108.837C21.3509 108.127 20.1765 107.477 19.132 106.608C19.1203 106.598 19.1032 106.595 19.0981 106.579C18.9436 106.116 18.5083 106.379 18.0813 106.617C17.4625 106.963 16.8416 107.323 16.2277 107.638C15.9144 107.799 15.6623 108.104 15.4264 108.485C14.835 109.436 14.2938 110.423 13.7169 111.388C12.612 113.237 11.5348 115.106 10.4469 116.968C10.3312 117.166 10.2229 117.365 10.0525 117.453C9.93045 117.517 9.85008 117.681 9.77037 117.825C8.01887 120.989 6.25787 124.147 4.52311 127.319C3.99766 128.279 3.46518 129.233 2.93923 130.191C2.78654 130.47 2.63662 130.754 2.50264 131.038C2.28355 131.504 2.28316 131.856 2.4819 132.023C2.49359 132.033 2.50537 132.041 2.51845 132.048C2.65334 132.125 2.78823 132.201 2.92313 132.277L2.92451 132.274Z" fill="#6B53FF"/>
<path d="M320.879 280.339C321.779 281.405 322.666 282.482 323.519 283.584C324.069 284.295 324.664 284.972 325.234 285.668C325.564 286.069 325.987 286.005 326.84 285.365C329.415 283.431 331.98 281.485 334.552 279.55C335.657 278.719 336.753 277.859 337.894 277.099C338.491 276.7 339.123 276.354 339.725 275.92C340.623 275.272 341.539 274.651 342.443 274.009C344.264 272.718 346.081 271.42 347.9 270.127C348.307 269.837 348.73 269.58 349.105 269.239C349.587 268.802 349.744 268.275 349.393 268.156C349.289 268.121 349.253 268.049 349.223 267.961C349.106 267.621 348.968 267.297 348.544 267.19C348.445 267.165 348.396 267.083 348.346 267.01C347.6 265.895 346.796 264.82 346.201 263.599C346.195 263.585 346.18 263.575 346.182 263.558C346.232 263.072 345.727 263.133 345.239 263.175C344.534 263.236 343.819 263.309 343.13 263.345C342.778 263.362 342.423 263.537 342.052 263.787C341.122 264.412 340.223 265.089 339.3 265.731C337.533 266.963 335.783 268.225 334.026 269.475C333.839 269.608 333.659 269.745 333.468 269.755C333.33 269.763 333.189 269.88 333.057 269.979C330.161 272.143 327.257 274.299 324.373 276.478C323.499 277.137 322.622 277.788 321.749 278.446C321.495 278.637 321.242 278.834 321.003 279.039C320.611 279.373 320.466 279.694 320.579 279.928C320.586 279.942 320.593 279.954 320.602 279.966C320.694 280.091 320.785 280.216 320.877 280.341L320.879 280.339Z" fill="#6B53FF"/>
<path d="M309.679 28.9401C310.579 30.0064 311.466 31.0831 312.318 32.1848C312.869 32.8958 313.464 33.573 314.034 34.269C314.363 34.6698 314.786 34.6065 315.64 33.9658C318.215 32.0326 320.779 30.0856 323.351 28.151C324.456 27.3199 325.553 26.4605 326.694 25.6996C327.291 25.3014 327.923 24.955 328.524 24.5211C329.423 23.8728 330.339 23.2519 331.243 22.6102C333.064 21.3186 334.88 20.0216 336.7 18.7278C337.107 18.4383 337.53 18.1807 337.905 17.8403C338.386 17.4034 338.544 16.8764 338.193 16.7573C338.089 16.7222 338.053 16.6501 338.023 16.5619C337.906 16.222 337.768 15.8985 337.344 15.7911C337.245 15.7661 337.195 15.6841 337.145 15.6115C336.4 14.4963 335.596 13.4212 335.001 12.1997C334.994 12.1859 334.98 12.1761 334.982 12.1595C335.032 11.6735 334.527 11.7344 334.039 11.7765C333.333 11.837 332.619 11.9102 331.93 11.9457C331.578 11.9635 331.223 12.1381 330.852 12.388C329.921 13.0127 329.023 13.6898 328.1 14.3324C326.333 15.5642 324.583 16.8259 322.826 18.0764C322.639 18.2093 322.459 18.3461 322.267 18.3563C322.13 18.3641 321.989 18.4811 321.857 18.5797C318.961 20.7444 316.057 22.9003 313.173 25.079C312.299 25.7383 311.422 26.3896 310.548 27.0469C310.295 27.2384 310.041 27.4353 309.802 27.6397C309.411 27.9744 309.266 28.295 309.379 28.529C309.385 28.5428 309.393 28.5552 309.402 28.5673C309.493 28.6921 309.585 28.817 309.677 28.9418L309.679 28.9401Z" fill="#6B53FF"/>
<path d="M70.6697 71.166C72.0397 70.9016 73.4124 70.654 74.7903 70.4481C75.6795 70.3155 76.5611 70.1272 77.4471 69.9694C77.9577 69.8779 78.109 69.478 77.9672 68.4199C77.5382 65.2289 77.0923 62.0401 76.6609 58.8509C76.4756 57.4807 76.2614 56.1041 76.1549 54.7369C76.0994 54.021 76.1058 53.3003 76.021 52.5639C75.8944 51.4628 75.8001 50.3605 75.6817 49.2584C75.4443 47.0386 75.2002 44.8197 74.9602 42.6003C74.9063 42.1038 74.8884 41.6086 74.7745 41.1153C74.6287 40.4815 74.2457 40.0866 73.9704 40.3347C73.8888 40.4085 73.8085 40.4043 73.717 40.3873C73.3633 40.3233 73.0135 40.2858 72.7124 40.6036C72.6425 40.6775 72.5466 40.6808 72.4589 40.6888C71.1216 40.7947 69.7908 40.9705 68.4343 40.8931C68.419 40.8922 68.4035 40.8997 68.3899 40.8901C67.9901 40.6093 67.7966 41.0797 67.5952 41.5255C67.3031 42.171 67.0181 42.8298 66.7123 43.4487C66.556 43.7642 66.5348 44.1594 66.5714 44.6055C66.662 45.7224 66.8137 46.8374 66.9238 47.9562C67.1352 50.0998 67.381 52.2434 67.6138 54.3872C67.6385 54.6151 67.6697 54.8394 67.5851 55.0115C67.5248 55.1351 67.558 55.3152 67.5796 55.4784C68.0531 59.0635 68.5159 62.6499 69.0075 66.2313C69.156 67.3156 69.2956 68.3995 69.4425 69.4825C69.4856 69.7974 69.5338 70.1146 69.5953 70.423C69.6962 70.9278 69.9052 71.2109 70.1643 71.2271C70.1796 71.228 70.194 71.2277 70.2089 71.2258C70.3626 71.2068 70.5163 71.1878 70.6701 71.1688L70.6697 71.166Z" fill="#6B53FF"/>
<path d="M60.0241 497.864C61.4077 497.684 62.793 497.521 64.1809 497.4C65.0765 497.321 65.9679 497.187 66.8619 497.084C67.3771 497.024 67.5526 496.634 67.4757 495.569C67.2424 492.358 66.9922 489.148 66.7563 485.938C66.6551 484.559 66.5253 483.172 66.5026 481.801C66.4909 481.083 66.5413 480.364 66.5016 479.624C66.4426 478.517 66.4157 477.411 66.3649 476.304C66.2635 474.074 66.1554 471.844 66.0514 469.614C66.028 469.115 66.0403 468.62 65.9567 468.121C65.8499 467.479 65.4918 467.061 65.2018 467.292C65.1159 467.361 65.036 467.352 64.9457 467.329C64.5965 467.244 64.2496 467.185 63.9297 467.484C63.8554 467.553 63.7595 467.551 63.6715 467.553C62.3302 467.577 60.9912 467.672 59.6419 467.511C59.6268 467.51 59.6108 467.516 59.5978 467.506C59.2159 467.201 58.994 467.659 58.7658 468.091C58.4348 468.718 58.1101 469.358 57.7671 469.957C57.5918 470.262 57.5465 470.656 57.5557 471.103C57.578 472.223 57.6612 473.346 57.7029 474.469C57.783 476.622 57.8974 478.776 57.9988 480.93C58.0095 481.159 58.027 481.385 57.932 481.552C57.8642 481.671 57.8864 481.853 57.898 482.017C58.1517 485.625 58.3945 489.233 58.6664 492.837C58.7485 493.929 58.8215 495.019 58.9021 496.109C58.9258 496.426 58.9545 496.746 58.9971 497.057C59.067 497.567 59.2583 497.863 59.5159 497.894C59.5311 497.896 59.5455 497.897 59.5605 497.896C59.7151 497.886 59.8697 497.877 60.0243 497.867L60.0241 497.864Z" fill="#232323"/>
<path d="M341.911 408.896C343.075 409.666 344.229 410.449 345.358 411.266C346.086 411.793 346.848 412.275 347.591 412.782C348.02 413.074 348.408 412.894 349.047 412.038C350.972 409.458 352.884 406.867 354.807 404.286C355.633 403.177 356.442 402.043 357.323 400.992C357.784 400.441 358.292 399.931 358.747 399.345C359.427 398.47 360.13 397.616 360.816 396.746C362.199 394.993 363.577 393.237 364.958 391.483C365.267 391.09 365.6 390.724 365.864 390.292C366.203 389.737 366.206 389.187 365.835 389.171C365.725 389.167 365.671 389.108 365.617 389.032C365.409 388.738 365.186 388.467 364.748 388.484C364.647 388.487 364.576 388.423 364.507 388.367C363.478 387.507 362.404 386.702 361.488 385.698C361.478 385.687 361.462 385.681 361.459 385.665C361.369 385.184 360.902 385.385 360.446 385.563C359.786 385.82 359.122 386.091 358.47 386.32C358.138 386.436 357.846 386.704 357.56 387.048C356.844 387.91 356.172 388.813 355.468 389.689C354.12 391.369 352.796 393.073 351.463 394.768C351.321 394.948 351.187 395.13 351.006 395.194C350.876 395.24 350.774 395.392 350.675 395.524C348.506 398.417 346.328 401.304 344.175 404.207C343.522 405.086 342.864 405.958 342.211 406.835C342.022 407.09 341.834 407.35 341.663 407.614C341.382 408.045 341.333 408.394 341.507 408.586C341.517 408.598 341.528 408.608 341.54 408.617C341.663 408.711 341.786 408.805 341.909 408.899L341.911 408.896Z" fill="#232323"/>
<path d="M259.68 265.693C261.024 266.066 262.364 266.456 263.689 266.885C264.544 267.162 265.418 267.386 266.281 267.639C266.779 267.784 267.093 267.494 267.437 266.483C268.473 263.435 269.494 260.381 270.527 257.333C270.971 256.024 271.392 254.696 271.905 253.424C272.174 252.758 272.501 252.116 272.753 251.419C273.13 250.376 273.536 249.347 273.921 248.308C274.696 246.214 275.466 244.119 276.239 242.024C276.412 241.556 276.616 241.105 276.734 240.612C276.885 239.98 276.718 239.456 276.361 239.555C276.255 239.585 276.185 239.545 276.111 239.489C275.823 239.275 275.526 239.085 275.115 239.236C275.019 239.271 274.932 239.231 274.85 239.199C273.605 238.699 272.335 238.264 271.155 237.591C271.142 237.583 271.125 237.583 271.117 237.568C270.884 237.139 270.501 237.474 270.122 237.783C269.573 238.231 269.025 238.694 268.476 239.112C268.195 239.325 268 239.67 267.834 240.085C267.418 241.126 267.058 242.192 266.658 243.243C265.893 245.256 265.159 247.285 264.413 249.308C264.334 249.523 264.262 249.738 264.11 249.855C264 249.938 263.95 250.115 263.897 250.27C262.725 253.691 261.542 257.109 260.388 260.535C260.039 261.571 259.681 262.604 259.33 263.639C259.229 263.941 259.131 264.246 259.048 264.55C258.914 265.047 258.975 265.393 259.2 265.523C259.213 265.531 259.226 265.537 259.241 265.542C259.387 265.593 259.533 265.644 259.679 265.696L259.68 265.693Z" fill="#232323"/>
<path d="M325.406 98.3688C326.516 97.5226 327.635 96.6901 328.777 95.8928C329.515 95.3785 330.22 94.8176 330.944 94.2822C331.36 93.9732 331.318 93.5477 330.72 92.6631C328.917 89.9961 327.099 87.3385 325.294 84.6741C324.518 83.5294 323.714 82.3918 323.01 81.2147C322.642 80.5982 322.327 79.9499 321.924 79.3281C321.321 78.3982 320.746 77.453 320.149 76.5186C318.949 74.6362 317.744 72.7575 316.541 70.8766C316.272 70.4559 316.036 70.0203 315.714 69.6292C315.302 69.1264 314.783 68.9431 314.647 69.2877C314.607 69.3902 314.533 69.4221 314.444 69.4476C314.098 69.5477 313.768 69.6697 313.64 70.0882C313.61 70.1855 313.526 70.2311 313.451 70.2773C312.3 70.967 311.187 71.7165 309.937 72.2506C309.923 72.2565 309.913 72.2703 309.896 72.2677C309.413 72.1941 309.449 72.7014 309.467 73.1902C309.493 73.8983 309.53 74.6151 309.532 75.3054C309.532 75.6575 309.689 76.0209 309.92 76.4042C310.498 77.3642 311.13 78.2953 311.726 79.2483C312.869 81.074 314.043 82.8845 315.205 84.701C315.329 84.8941 315.457 85.0811 315.457 85.2728C315.458 85.4105 315.568 85.557 315.66 85.6935C317.679 88.6937 319.689 91.6998 321.722 94.6887C322.338 95.5937 322.945 96.5023 323.558 97.4069C323.737 97.6698 323.921 97.9325 324.113 98.1813C324.428 98.5885 324.741 98.7491 324.981 98.6483C324.995 98.6424 325.008 98.6356 325.02 98.6274C325.149 98.542 325.279 98.4565 325.408 98.3711L325.406 98.3688Z" fill="#232323"/>
<path d="M261.079 794.094C262.424 794.467 263.763 794.857 265.089 795.286C265.944 795.563 266.817 795.787 267.681 796.04C268.179 796.185 268.492 795.894 268.836 794.884C269.873 791.836 270.893 788.782 271.926 785.734C272.371 784.424 272.792 783.096 273.305 781.825C273.574 781.159 273.901 780.517 274.152 779.819C274.529 778.777 274.936 777.748 275.32 776.708C276.096 774.615 276.865 772.52 277.638 770.425C277.811 769.957 278.015 769.505 278.133 769.013C278.285 768.381 278.117 767.856 277.761 767.956C277.655 767.986 277.585 767.946 277.51 767.89C277.222 767.676 276.925 767.486 276.514 767.637C276.419 767.672 276.332 767.632 276.249 767.6C275.005 767.1 273.735 766.665 272.555 765.991C272.541 765.984 272.524 765.984 272.516 765.969C272.283 765.54 271.901 765.875 271.522 766.184C270.973 766.632 270.424 767.095 269.875 767.513C269.595 767.726 269.4 768.071 269.234 768.486C268.818 769.527 268.457 770.593 268.058 771.643C267.293 773.657 266.559 775.686 265.813 777.709C265.733 777.924 265.661 778.139 265.509 778.255C265.4 778.339 265.349 778.515 265.296 778.671C264.124 782.092 262.942 785.51 261.788 788.935C261.438 789.972 261.08 791.005 260.73 792.04C260.628 792.341 260.53 792.647 260.448 792.95C260.314 793.447 260.375 793.794 260.599 793.924C260.613 793.931 260.626 793.938 260.64 793.942C260.786 793.994 260.932 794.045 261.078 794.097L261.079 794.094Z" fill="#232323"/>
<path d="M13.0792 639.094C14.4236 639.467 15.7631 639.857 17.0886 640.286C17.9438 640.563 18.817 640.787 19.6806 641.04C20.1786 641.185 20.4921 640.894 20.8362 639.884C21.8726 636.836 22.893 633.782 23.9265 630.734C24.3706 629.424 24.7916 628.096 25.3049 626.825C25.5739 626.159 25.9005 625.517 26.1524 624.819C26.5293 623.777 26.9355 622.748 27.3201 621.708C28.0958 619.615 28.8651 617.52 29.6382 615.425C29.811 614.957 30.0154 614.505 30.133 614.013C30.2847 613.381 30.1175 612.856 29.7605 612.956C29.6546 612.986 29.5846 612.946 29.5102 612.89C29.2219 612.676 28.9254 612.486 28.5143 612.637C28.4188 612.672 28.3315 612.632 28.2494 612.6C27.0048 612.1 25.7349 611.665 24.5547 610.991C24.5414 610.984 24.5241 610.984 24.5163 610.969C24.2833 610.54 23.9006 610.875 23.5218 611.184C22.9728 611.632 22.4243 612.095 21.875 612.513C21.5946 612.726 21.3997 613.071 21.2338 613.486C20.8178 614.527 20.4572 615.593 20.0577 616.643C19.2927 618.657 18.5585 620.686 17.8126 622.709C17.7333 622.924 17.6613 623.139 17.509 623.255C17.3999 623.339 17.3495 623.515 17.2961 623.671C16.1241 627.092 14.9418 630.51 13.7877 633.935C13.438 634.972 13.0804 636.005 12.7299 637.04C12.6282 637.341 12.5301 637.647 12.4479 637.95C12.3135 638.447 12.3746 638.794 12.5995 638.924C12.6127 638.931 12.6258 638.938 12.6399 638.942C12.786 638.994 12.9322 639.045 13.0783 639.097L13.0792 639.094Z" fill="#232323"/>
<path d="M223.071 192.632C224.455 192.454 225.841 192.292 227.229 192.173C228.124 192.096 229.016 191.963 229.91 191.861C230.425 191.801 230.601 191.411 230.526 190.346C230.297 187.135 230.051 183.924 229.819 180.715C229.72 179.335 229.592 177.948 229.571 176.577C229.56 175.859 229.611 175.14 229.573 174.4C229.515 173.293 229.49 172.187 229.44 171.08C229.342 168.849 229.237 166.62 229.136 164.39C229.113 163.891 229.126 163.395 229.043 162.896C228.937 162.254 228.579 161.836 228.289 162.067C228.203 162.135 228.123 162.126 228.033 162.103C227.684 162.017 227.337 161.958 227.017 162.257C226.942 162.326 226.846 162.323 226.758 162.326C225.417 162.348 224.078 162.44 222.729 162.279C222.714 162.277 222.698 162.283 222.685 162.273C222.303 161.968 222.081 162.425 221.852 162.857C221.52 163.483 221.195 164.123 220.851 164.722C220.675 165.027 220.629 165.42 220.638 165.868C220.659 166.988 220.741 168.11 220.781 169.234C220.858 171.386 220.97 173.541 221.068 175.695C221.079 175.924 221.096 176.15 221.001 176.316C220.933 176.436 220.955 176.618 220.966 176.782C221.215 180.39 221.453 183.998 221.72 187.603C221.801 188.695 221.872 189.785 221.952 190.875C221.975 191.192 222.003 191.512 222.045 191.823C222.115 192.334 222.305 192.629 222.563 192.661C222.578 192.663 222.593 192.664 222.608 192.663C222.762 192.654 222.917 192.644 223.072 192.635L223.071 192.632Z" fill="#FC653C"/>
<path d="M47.8414 208.308C48.4639 207.059 49.1013 205.819 49.7751 204.599C50.21 203.812 50.5961 202.998 51.0092 202.198C51.2468 201.737 51.0211 201.374 50.0946 200.844C47.2996 199.245 44.4961 197.662 41.701 196.067C40.5002 195.381 39.2767 194.715 38.1262 193.969C37.5239 193.578 36.9554 193.135 36.319 192.755C35.3676 192.186 34.4348 191.591 33.4875 191.015C31.5804 189.855 29.6697 188.701 27.7612 187.543C27.3342 187.284 26.93 186.997 26.469 186.788C25.877 186.519 25.3307 186.583 25.3604 186.952C25.3695 187.062 25.3173 187.123 25.2482 187.185C24.9824 187.427 24.7401 187.683 24.8095 188.115C24.8257 188.215 24.7701 188.293 24.7232 188.368C23.9946 189.494 23.3257 190.658 22.4399 191.688C22.4299 191.7 22.4265 191.717 22.4105 191.722C21.9446 191.869 22.2006 192.308 22.4323 192.739C22.7675 193.363 23.1175 193.99 23.4232 194.609C23.5789 194.925 23.8798 195.182 24.2564 195.424C25.1985 196.03 26.1762 196.588 27.1316 197.18C28.9626 198.314 30.8144 199.422 32.6585 200.54C32.8546 200.658 33.0517 200.77 33.1369 200.942C33.1984 201.065 33.3617 201.148 33.5044 201.23C36.6394 203.032 39.769 204.844 42.9122 206.63C43.8635 207.17 44.8091 207.718 45.7586 208.26C46.0349 208.417 46.3161 208.571 46.5984 208.71C47.0607 208.936 47.4125 208.943 47.5828 208.746C47.5928 208.735 47.6012 208.723 47.6088 208.71C47.6872 208.577 47.7655 208.443 47.8438 208.309L47.8414 208.308Z" fill="#FC653C"/>
<path d="M78.0792 521.094C79.4236 521.467 80.7631 521.857 82.0886 522.286C82.9438 522.563 83.817 522.787 84.6806 523.04C85.1786 523.185 85.4921 522.894 85.8362 521.884C86.8726 518.836 87.893 515.782 88.9265 512.734C89.3706 511.424 89.7916 510.096 90.3049 508.825C90.5739 508.159 90.9005 507.517 91.1524 506.819C91.5293 505.777 91.9355 504.748 92.3201 503.708C93.0958 501.615 93.8651 499.52 94.6382 497.425C94.811 496.957 95.0154 496.505 95.133 496.013C95.2847 495.381 95.1175 494.856 94.7605 494.956C94.6546 494.986 94.5846 494.946 94.5102 494.89C94.2219 494.676 93.9254 494.486 93.5143 494.637C93.4188 494.672 93.3315 494.632 93.2494 494.6C92.0048 494.1 90.7349 493.665 89.5547 492.991C89.5414 492.984 89.5241 492.984 89.5163 492.969C89.2833 492.54 88.9006 492.875 88.5218 493.184C87.9728 493.632 87.4243 494.095 86.875 494.513C86.5946 494.726 86.3997 495.071 86.2338 495.486C85.8178 496.527 85.4572 497.593 85.0577 498.643C84.2927 500.657 83.5585 502.686 82.8126 504.709C82.7333 504.924 82.6613 505.139 82.509 505.255C82.3999 505.339 82.3495 505.515 82.2961 505.671C81.1241 509.092 79.9418 512.51 78.7877 515.935C78.438 516.972 78.0804 518.005 77.7299 519.04C77.6282 519.341 77.5301 519.647 77.4479 519.95C77.3135 520.447 77.3746 520.794 77.5995 520.924C77.6127 520.931 77.6258 520.938 77.6399 520.942C77.786 520.994 77.9322 521.045 78.0783 521.097L78.0792 521.094Z" fill="#FC653C"/>
<path d="M120.335 541.091C120.008 542.448 119.665 543.8 119.281 545.139C119.033 546.003 118.84 546.884 118.616 547.755C118.488 548.258 118.789 548.561 119.811 548.871C122.893 549.802 125.98 550.718 129.061 551.646C130.385 552.045 131.727 552.421 133.015 552.89C133.69 553.136 134.343 553.441 135.048 553.669C136.103 554.01 137.145 554.381 138.197 554.73C140.316 555.433 142.437 556.13 144.556 556.831C145.03 556.988 145.488 557.177 145.984 557.278C146.622 557.408 147.14 557.223 147.028 556.869C146.995 556.764 147.032 556.693 147.085 556.617C147.29 556.321 147.469 556.019 147.305 555.613C147.266 555.519 147.303 555.43 147.332 555.347C147.79 554.086 148.181 552.802 148.814 551.599C148.821 551.586 148.82 551.569 148.835 551.56C149.256 551.313 148.908 550.942 148.586 550.574C148.119 550.04 147.638 549.508 147.201 548.973C146.979 548.7 146.628 548.517 146.207 548.366C145.153 547.985 144.075 547.661 143.011 547.298C140.973 546.603 138.92 545.938 136.872 545.262C136.654 545.19 136.437 545.125 136.316 544.977C136.228 544.871 136.051 544.826 135.893 544.778C132.434 543.724 128.978 542.659 125.515 541.623C124.467 541.309 123.422 540.987 122.376 540.672C122.071 540.581 121.763 540.493 121.456 540.421C120.955 540.304 120.611 540.377 120.489 540.606C120.482 540.619 120.476 540.633 120.472 540.647C120.425 540.795 120.379 540.943 120.332 541.09L120.335 541.091Z" fill="#232323"/>
<path d="M74.88 168.893C76.2244 169.266 77.5639 169.655 78.8893 170.085C79.7446 170.362 80.6178 170.585 81.4814 170.839C81.9793 170.984 82.2929 170.693 82.6369 169.683C83.6734 166.634 84.6938 163.58 85.7272 160.533C86.1714 159.223 86.5924 157.895 87.1057 156.624C87.3747 155.958 87.7013 155.315 87.9532 154.618C88.3301 153.576 88.7363 152.547 89.1209 151.507C89.8966 149.414 90.6658 147.318 91.4389 145.224C91.6118 144.756 91.8162 144.304 91.9338 143.812C92.0854 143.179 91.9183 142.655 91.5613 142.755C91.4553 142.785 91.3853 142.745 91.311 142.689C91.0227 142.474 90.7262 142.285 90.3151 142.436C90.2196 142.471 90.1323 142.431 90.0502 142.399C88.8056 141.898 87.5357 141.464 86.3555 140.79C86.3422 140.783 86.3249 140.782 86.3171 140.768C86.084 140.338 85.7014 140.673 85.3226 140.983C84.7736 141.431 84.2251 141.894 83.6758 142.312C83.3954 142.525 83.2004 142.869 83.0346 143.285C82.6186 144.326 82.2579 145.392 81.8585 146.442C81.0935 148.456 80.3593 150.485 79.6134 152.508C79.534 152.723 79.4621 152.938 79.3097 153.054C79.2007 153.138 79.1503 153.314 79.0969 153.47C77.9249 156.891 76.7426 160.308 75.5885 163.734C75.2388 164.771 74.8812 165.804 74.5306 166.839C74.429 167.14 74.3309 167.446 74.2487 167.749C74.1143 168.246 74.1754 168.593 74.4003 168.723C74.4135 168.73 74.4265 168.736 74.4407 168.741C74.5868 168.793 74.7329 168.844 74.8791 168.896L74.88 168.893Z" fill="#232323"/>
<path d="M282.777 495.99C284.015 496.634 285.245 497.292 286.453 497.987C287.232 498.435 288.04 498.835 288.832 499.262C289.289 499.507 289.656 499.288 290.202 498.37C291.848 495.603 293.479 492.827 295.122 490.06C295.828 488.871 296.515 487.659 297.281 486.522C297.682 485.926 298.135 485.365 298.526 484.735C299.11 483.794 299.721 482.871 300.313 481.934C301.506 480.047 302.693 478.156 303.883 476.268C304.149 475.845 304.443 475.446 304.66 474.989C304.939 474.402 304.885 473.854 304.515 473.878C304.405 473.885 304.345 473.832 304.283 473.761C304.046 473.492 303.795 473.245 303.362 473.307C303.261 473.321 303.184 473.264 303.11 473.216C301.996 472.469 300.844 471.78 299.829 470.877C299.818 470.866 299.801 470.863 299.796 470.847C299.657 470.378 299.214 470.627 298.779 470.851C298.149 471.175 297.516 471.515 296.892 471.81C296.574 471.96 296.312 472.256 296.063 472.629C295.441 473.56 294.867 474.528 294.258 475.474C293.092 477.285 291.954 479.118 290.804 480.942C290.682 481.136 290.567 481.331 290.394 481.414C290.27 481.473 290.184 481.635 290.1 481.776C288.244 484.88 286.379 487.978 284.54 491.09C283.983 492.032 283.419 492.968 282.861 493.908C282.699 494.182 282.54 494.46 282.397 494.74C282.162 495.199 282.15 495.55 282.343 495.724C282.355 495.734 282.366 495.743 282.379 495.751C282.511 495.831 282.644 495.912 282.776 495.992L282.777 495.99Z" fill="#FC653C"/>
<path d="M360.735 346.771C362.114 346.557 363.494 346.36 364.879 346.205C365.772 346.105 366.66 345.949 367.552 345.824C368.065 345.751 368.231 345.357 368.128 344.295C367.817 341.09 367.488 337.887 367.174 334.684C367.039 333.308 366.875 331.925 366.819 330.555C366.79 329.837 366.823 329.117 366.765 328.378C366.679 327.273 366.625 326.168 366.547 325.062C366.392 322.835 366.229 320.609 366.071 318.382C366.035 317.884 366.035 317.389 365.94 316.891C365.817 316.253 365.449 315.844 365.165 316.082C365.08 316.153 365 316.145 364.91 316.125C364.558 316.048 364.21 315.998 363.898 316.304C363.825 316.376 363.729 316.375 363.641 316.38C362.301 316.437 360.965 316.564 359.612 316.437C359.597 316.435 359.581 316.442 359.568 316.432C359.178 316.137 358.968 316.6 358.75 317.038C358.434 317.672 358.125 318.32 357.797 318.927C357.629 319.237 357.594 319.631 357.614 320.078C357.664 321.198 357.774 322.318 357.843 323.44C357.976 325.589 358.143 327.741 358.297 329.892C358.313 330.12 358.336 330.346 358.245 330.514C358.18 330.636 358.207 330.817 358.222 330.981C358.564 334.581 358.895 338.182 359.255 341.779C359.363 342.868 359.463 343.956 359.57 345.044C359.602 345.36 359.638 345.679 359.688 345.989C359.771 346.497 359.969 346.788 360.228 346.814C360.243 346.815 360.257 346.815 360.272 346.814C360.426 346.801 360.581 346.787 360.735 346.774L360.735 346.771Z" fill="#FC653C"/>
<path d="M342.281 668.883C343.41 669.702 344.53 670.534 345.622 671.399C346.327 671.957 347.067 672.472 347.788 673.011C348.204 673.321 348.599 673.158 349.274 672.331C351.309 669.836 353.332 667.33 355.364 664.835C356.237 663.763 357.095 662.665 358.02 661.653C358.504 661.123 359.035 660.635 359.514 660.069C360.231 659.224 360.971 658.402 361.694 657.562C363.152 655.871 364.604 654.176 366.06 652.483C366.385 652.104 366.734 651.753 367.016 651.332C367.379 650.792 367.406 650.243 367.036 650.212C366.927 650.203 366.875 650.141 366.825 650.063C366.629 649.761 366.418 649.48 365.98 649.477C365.878 649.477 365.81 649.409 365.744 649.351C364.753 648.447 363.715 647.596 362.844 646.554C362.834 646.542 362.818 646.536 362.815 646.519C362.747 646.035 362.271 646.216 361.808 646.374C361.138 646.602 360.462 646.844 359.801 647.044C359.464 647.146 359.161 647.401 358.861 647.732C358.108 648.562 357.398 649.435 356.657 650.28C355.237 651.9 353.841 653.545 352.435 655.181C352.286 655.355 352.144 655.531 351.96 655.587C351.829 655.627 351.72 655.775 351.616 655.902C349.323 658.699 347.023 661.489 344.745 664.296C344.056 665.146 343.36 665.989 342.67 666.836C342.47 667.083 342.271 667.335 342.088 667.591C341.789 668.01 341.725 668.356 341.891 668.556C341.9 668.568 341.91 668.578 341.922 668.588C342.041 668.687 342.16 668.786 342.279 668.885L342.281 668.883Z" fill="#FC653C"/>
<path d="M115.082 803.092C114.263 804.222 113.43 805.341 112.566 806.433C112.007 807.138 111.493 807.878 110.954 808.599C110.644 809.015 110.807 809.41 111.634 810.086C114.129 812.121 116.635 814.143 119.13 816.175C120.202 817.049 121.299 817.907 122.312 818.832C122.842 819.316 123.33 819.846 123.895 820.326C124.741 821.043 125.563 821.783 126.403 822.506C128.094 823.963 129.789 825.416 131.482 826.871C131.861 827.197 132.212 827.546 132.633 827.828C133.172 828.191 133.722 828.217 133.753 827.848C133.762 827.738 133.824 827.686 133.902 827.636C134.204 827.441 134.485 827.229 134.487 826.791C134.488 826.69 134.556 826.622 134.614 826.556C135.518 825.564 136.368 824.526 137.411 823.655C137.423 823.645 137.429 823.629 137.446 823.627C137.93 823.559 137.749 823.083 137.591 822.62C137.363 821.949 137.121 821.274 136.921 820.613C136.819 820.276 136.564 819.973 136.233 819.672C135.403 818.919 134.53 818.209 133.684 817.468C132.065 816.048 130.42 814.652 128.784 813.247C128.61 813.098 128.434 812.955 128.378 812.772C128.337 812.64 128.19 812.532 128.063 812.427C125.266 810.135 122.476 807.834 119.669 805.557C118.819 804.867 117.976 804.172 117.128 803.482C116.882 803.281 116.63 803.083 116.374 802.9C115.955 802.6 115.609 802.537 115.409 802.702C115.397 802.712 115.387 802.722 115.377 802.733C115.278 802.852 115.179 802.971 115.08 803.09L115.082 803.092Z" fill="#FC653C"/>
<path d="M208.541 557.335C209.622 556.453 210.714 555.585 211.829 554.75C212.549 554.212 213.236 553.628 213.942 553.069C214.348 552.747 214.292 552.323 213.665 551.458C211.775 548.852 209.871 546.256 207.979 543.652C207.167 542.533 206.326 541.423 205.584 540.269C205.196 539.665 204.86 539.027 204.436 538.419C203.803 537.51 203.197 536.584 202.57 535.67C201.309 533.827 200.042 531.989 198.779 530.149C198.496 529.737 198.246 529.31 197.912 528.929C197.483 528.44 196.959 528.274 196.834 528.623C196.797 528.727 196.724 528.761 196.636 528.79C196.294 528.901 195.968 529.034 195.853 529.456C195.827 529.554 195.744 529.603 195.671 529.651C194.543 530.378 193.455 531.164 192.224 531.739C192.21 531.745 192.2 531.759 192.183 531.757C191.698 531.7 191.751 532.205 191.785 532.693C191.833 533.4 191.895 534.115 191.919 534.805C191.931 535.157 192.099 535.515 192.343 535.891C192.952 536.831 193.614 537.741 194.242 538.674C195.444 540.461 196.676 542.232 197.897 544.01C198.027 544.199 198.161 544.381 198.168 544.573C198.173 544.71 198.288 544.853 198.384 544.987C200.501 547.919 202.608 550.858 204.739 553.778C205.383 554.662 206.02 555.551 206.663 556.435C206.85 556.692 207.043 556.948 207.243 557.19C207.571 557.587 207.889 557.737 208.125 557.629C208.139 557.622 208.152 557.615 208.164 557.607C208.29 557.517 208.417 557.427 208.543 557.338L208.541 557.335Z" fill="#FC653C"/>
<path d="M251.978 626.591C253.215 627.235 254.445 627.893 255.653 628.588C256.432 629.036 257.24 629.436 258.032 629.863C258.489 630.108 258.856 629.889 259.402 628.972C261.048 626.204 262.679 623.428 264.322 620.661C265.028 619.472 265.715 618.26 266.481 617.123C266.882 616.527 267.335 615.966 267.726 615.336C268.311 614.395 268.921 613.472 269.513 612.535C270.706 610.648 271.893 608.757 273.083 606.869C273.349 606.447 273.643 606.047 273.86 605.59C274.14 605.003 274.085 604.455 273.715 604.479C273.605 604.486 273.545 604.433 273.484 604.363C273.246 604.093 272.995 603.846 272.562 603.908C272.461 603.922 272.384 603.866 272.31 603.817C271.197 603.07 270.044 602.381 269.029 601.478C269.018 601.467 269.001 601.464 268.996 601.448C268.858 600.979 268.414 601.228 267.979 601.452C267.349 601.776 266.716 602.116 266.092 602.411C265.774 602.561 265.512 602.858 265.263 603.23C264.641 604.162 264.067 605.13 263.458 606.075C262.293 607.886 261.154 609.719 260.005 611.543C259.882 611.737 259.768 611.932 259.594 612.015C259.47 612.074 259.384 612.236 259.3 612.377C257.444 615.481 255.579 618.579 253.74 621.691C253.183 622.633 252.619 623.569 252.062 624.509C251.9 624.783 251.74 625.061 251.597 625.341C251.363 625.8 251.35 626.151 251.544 626.325C251.555 626.335 251.566 626.344 251.579 626.352C251.712 626.432 251.844 626.513 251.976 626.593L251.978 626.591Z" fill="#FC653C"/>
<path d="M302.775 228.79C304.013 229.434 305.243 230.093 306.451 230.787C307.23 231.235 308.038 231.635 308.83 232.062C309.287 232.308 309.654 232.088 310.2 231.171C311.846 228.404 313.477 225.628 315.12 222.86C315.826 221.671 316.513 220.459 317.279 219.322C317.68 218.726 318.133 218.165 318.524 217.536C319.108 216.594 319.719 215.672 320.311 214.734C321.504 212.847 322.691 210.957 323.881 209.068C324.147 208.646 324.441 208.246 324.658 207.789C324.937 207.202 324.883 206.655 324.513 206.678C324.403 206.685 324.343 206.632 324.281 206.562C324.044 206.292 323.793 206.045 323.36 206.107C323.259 206.122 323.182 206.065 323.108 206.017C321.994 205.269 320.842 204.58 319.827 203.677C319.816 203.667 319.799 203.663 319.794 203.647C319.655 203.179 319.212 203.427 318.777 203.651C318.147 203.976 317.514 204.315 316.89 204.61C316.572 204.76 316.31 205.057 316.061 205.429C315.439 206.361 314.865 207.329 314.256 208.274C313.09 210.085 311.952 211.918 310.802 213.742C310.68 213.936 310.565 214.132 310.392 214.214C310.268 214.273 310.182 214.435 310.098 214.576C308.242 217.68 306.377 220.778 304.538 223.89C303.981 224.832 303.417 225.769 302.859 226.709C302.697 226.982 302.538 227.261 302.395 227.541C302.16 227.999 302.148 228.351 302.341 228.524C302.353 228.534 302.364 228.543 302.377 228.551C302.509 228.631 302.642 228.712 302.774 228.793L302.775 228.79Z" fill="#FC653C"/>
<path d="M354.978 70.591C356.215 71.2348 357.445 71.8933 358.653 72.5879C359.432 73.0362 360.24 73.4362 361.032 73.8629C361.489 74.1084 361.856 73.8889 362.402 72.9716C364.048 70.2044 365.679 67.4283 367.322 64.6609C368.028 63.472 368.715 62.2602 369.481 61.1226C369.882 60.527 370.335 59.9662 370.726 59.3364C371.311 58.3949 371.921 57.4724 372.513 56.5351C373.706 54.6481 374.893 52.7575 376.083 50.869C376.349 50.4465 376.643 50.0473 376.86 49.5899C377.14 49.0026 377.085 48.4553 376.715 48.4787C376.605 48.4859 376.545 48.4327 376.484 48.3625C376.246 48.0926 375.995 47.8459 375.562 47.908C375.461 47.9225 375.384 47.8656 375.31 47.8174C374.197 47.0696 373.044 46.3809 372.029 45.4776C372.018 45.4674 372.001 45.4637 371.996 45.4477C371.858 44.9793 371.414 45.2277 370.979 45.452C370.349 45.7765 369.716 46.1157 369.092 46.4108C368.774 46.561 368.512 46.8575 368.263 47.2299C367.641 48.1615 367.067 49.1295 366.458 50.0747C365.293 51.886 364.154 53.7186 363.005 55.5433C362.882 55.7373 362.768 55.9324 362.594 56.0147C362.47 56.0741 362.384 56.236 362.3 56.3772C360.444 59.481 358.579 62.5791 356.74 65.6912C356.183 66.6332 355.619 67.5693 355.062 68.5093C354.9 68.7829 354.74 69.0614 354.597 69.3413C354.363 69.7996 354.35 70.1513 354.544 70.3249C354.555 70.3351 354.566 70.3438 354.579 70.3516C354.712 70.4322 354.844 70.5128 354.976 70.5934L354.978 70.591Z" fill="#FC653C"/>
<path d="M69.9756 595.19C71.2134 595.834 72.4431 596.492 73.6508 597.187C74.43 597.635 75.2379 598.035 76.0303 598.462C76.4872 598.707 76.8542 598.488 77.4003 597.571C79.0462 594.804 80.6775 592.027 82.3203 589.26C83.0262 588.071 83.7133 586.859 84.4791 585.722C84.8803 585.126 85.333 584.565 85.7239 583.936C86.3087 582.994 86.9194 582.072 87.5112 581.134C88.7039 579.247 89.8909 577.357 91.0813 575.468C91.3475 575.046 91.6411 574.646 91.8582 574.189C92.1377 573.602 92.0828 573.054 91.7129 573.078C91.6031 573.085 91.5428 573.032 91.4817 572.962C91.2442 572.692 90.9933 572.445 90.56 572.507C90.4593 572.522 90.3821 572.465 90.3084 572.416C89.1946 571.669 88.0424 570.98 87.0274 570.077C87.016 570.067 86.9991 570.063 86.9945 570.047C86.8555 569.578 86.4118 569.827 85.9771 570.051C85.3471 570.376 84.7145 570.715 84.0905 571.01C83.7721 571.16 83.5099 571.457 83.2615 571.829C82.6388 572.761 82.065 573.729 81.4565 574.674C80.2907 576.485 79.1519 578.318 78.0027 580.142C77.8805 580.336 77.7656 580.532 77.5924 580.614C77.4683 580.673 77.3825 580.835 77.2981 580.976C75.4423 584.08 73.5773 587.178 71.7381 590.29C71.181 591.232 70.6171 592.168 70.0596 593.108C69.8977 593.382 69.7384 593.661 69.5951 593.94C69.3606 594.399 69.3485 594.75 69.5416 594.924C69.5529 594.934 69.5644 594.943 69.5773 594.951C69.7096 595.031 69.8418 595.112 69.9741 595.193L69.9756 595.19Z" fill="#FC653C"/>
<path d="M7.97754 411.591C9.2154 412.235 10.4451 412.893 11.6528 413.588C12.432 414.036 13.2399 414.436 14.0322 414.863C14.4892 415.108 14.8562 414.889 15.4023 413.972C17.0481 411.204 18.6794 408.428 20.3222 405.661C21.0281 404.472 21.7153 403.26 22.481 402.123C22.8822 401.527 23.335 400.966 23.7258 400.336C24.3106 399.395 24.9213 398.472 25.5131 397.535C26.7059 395.648 27.8928 393.757 29.0833 391.869C29.3495 391.447 29.643 391.047 29.8601 390.59C30.1396 390.003 30.0847 389.455 29.7149 389.479C29.605 389.486 29.5447 389.433 29.4836 389.363C29.2461 389.093 28.9953 388.846 28.5619 388.908C28.4612 388.922 28.384 388.866 28.3103 388.817C27.1965 388.07 26.0444 387.381 25.0294 386.478C25.018 386.467 25.0011 386.464 24.9964 386.448C24.8575 385.979 24.4137 386.228 23.979 386.452C23.3491 386.776 22.7165 387.116 22.0925 387.411C21.774 387.561 21.5119 387.858 21.2634 388.23C20.6407 389.162 20.067 390.13 19.4584 391.075C18.2926 392.886 17.1538 394.719 16.0046 396.543C15.8824 396.737 15.7675 396.932 15.5944 397.015C15.4703 397.074 15.3845 397.236 15.3 397.377C13.4443 400.481 11.5793 403.579 9.74001 406.691C9.18294 407.633 8.61902 408.569 8.06152 409.509C7.89964 409.783 7.74037 410.061 7.59701 410.341C7.36255 410.8 7.35046 411.151 7.54353 411.325C7.55489 411.335 7.5664 411.344 7.57922 411.352C7.7115 411.432 7.84379 411.513 7.97608 411.593L7.97754 411.591Z" fill="#FC653C"/>
<path d="M60.376 139.591C61.6138 140.235 62.8435 140.893 64.0512 141.588C64.8304 142.036 65.6383 142.436 66.4307 142.863C66.8876 143.108 67.2546 142.889 67.8007 141.972C69.4466 139.204 71.0779 136.428 72.7207 133.661C73.4266 132.472 74.1137 131.26 74.8795 130.123C75.2807 129.527 75.7334 128.966 76.1243 128.336C76.7091 127.395 77.3198 126.472 77.9116 125.535C79.1043 123.648 80.2913 121.757 81.4817 119.869C81.7479 119.447 82.0415 119.047 82.2586 118.59C82.5381 118.003 82.4831 117.455 82.1133 117.479C82.0035 117.486 81.9432 117.433 81.8821 117.363C81.6445 117.093 81.3937 116.846 80.9604 116.908C80.8597 116.922 80.7825 116.866 80.7088 116.817C79.595 116.07 78.4428 115.381 77.4278 114.478C77.4164 114.467 77.3995 114.464 77.3949 114.448C77.2559 113.979 76.8121 114.228 76.3774 114.452C75.7475 114.776 75.1149 115.116 74.4909 115.411C74.1725 115.561 73.9103 115.858 73.6619 116.23C73.0392 117.162 72.4654 118.13 71.8569 119.075C70.6911 120.886 69.5522 122.719 68.4031 124.543C68.2809 124.737 68.166 124.932 67.9928 125.015C67.8687 125.074 67.7829 125.236 67.6984 125.377C65.8427 128.481 63.9777 131.579 62.1384 134.691C61.5814 135.633 61.0175 136.569 60.46 137.509C60.2981 137.783 60.1388 138.061 59.9954 138.341C59.761 138.8 59.7489 139.151 59.942 139.325C59.9533 139.335 59.9648 139.344 59.9777 139.352C60.1099 139.432 60.2422 139.513 60.3745 139.593L60.376 139.591Z" fill="#FC653C"/>
<path d="M159.883 203.271C161.008 202.445 162.142 201.633 163.299 200.857C164.045 200.356 164.761 199.808 165.494 199.286C165.916 198.985 165.882 198.558 165.3 197.663C163.546 194.964 161.776 192.273 160.02 189.576C159.266 188.418 158.482 187.266 157.801 186.076C157.444 185.453 157.141 184.799 156.749 184.17C156.162 183.229 155.605 182.274 155.026 181.328C153.86 179.424 152.689 177.524 151.521 175.621C151.26 175.196 151.032 174.756 150.717 174.359C150.314 173.849 149.799 173.656 149.656 173.998C149.614 174.1 149.54 174.131 149.45 174.154C149.103 174.248 148.771 174.364 148.635 174.78C148.603 174.877 148.518 174.921 148.442 174.966C147.279 175.634 146.152 176.364 144.893 176.875C144.879 176.88 144.868 176.894 144.852 176.891C144.37 176.809 144.397 177.317 144.406 177.806C144.419 178.514 144.443 179.231 144.432 179.922C144.426 180.274 144.576 180.64 144.8 181.027C145.361 181.998 145.976 182.94 146.554 183.904C147.664 185.75 148.804 187.582 149.933 189.419C150.053 189.615 150.177 189.804 150.175 189.996C150.173 190.133 150.28 190.282 150.37 190.42C152.334 193.456 154.288 196.499 156.267 199.524C156.866 200.44 157.456 201.36 158.053 202.275C158.227 202.542 158.406 202.808 158.594 203.06C158.901 203.473 159.211 203.639 159.452 203.543C159.467 203.537 159.48 203.53 159.492 203.522C159.623 203.439 159.754 203.356 159.884 203.273L159.883 203.271Z" fill="#232323"/>
<path d="M32.2834 63.8714C33.408 63.0456 34.5422 62.2337 35.6991 61.4574C36.4457 60.9566 37.1616 60.4087 37.8946 59.8866C38.3167 59.5852 38.2821 59.159 37.7006 58.2637C35.9459 55.5642 34.1769 52.8738 32.4206 50.177C31.6662 49.0183 30.8829 47.8663 30.2009 46.6765C29.844 46.0534 29.5411 45.3994 29.1489 44.7704C28.5628 43.8297 28.0053 42.8741 27.4262 41.929C26.2607 40.025 25.0895 38.1246 23.9217 36.222C23.6603 35.7965 23.432 35.3567 23.1177 34.9598C22.7144 34.4495 22.1992 34.2569 22.0567 34.5989C22.0146 34.7006 21.9402 34.7312 21.8503 34.755C21.5032 34.8488 21.1711 34.9647 21.0352 35.3809C21.0037 35.4776 20.9185 35.5217 20.8427 35.5665C19.6796 36.2351 18.5526 36.9641 17.2937 37.4754C17.2795 37.481 17.2687 37.4946 17.2523 37.4916C16.7707 37.4092 16.7974 37.9171 16.8064 38.4062C16.819 39.1147 16.8437 39.8321 16.8326 40.5223C16.8266 40.8743 16.9767 41.2405 17.2009 41.6279C17.7613 42.5983 18.376 43.5408 18.9548 44.5045C20.0643 46.3508 21.2048 48.1824 22.3336 50.0198C22.4536 50.2151 22.5778 50.4045 22.5751 50.5961C22.5735 50.7337 22.6808 50.8822 22.7702 51.0204C24.734 54.0569 26.6886 57.0993 28.6673 60.1247C29.266 61.0408 29.8565 61.9604 30.4533 62.876C30.6271 63.1421 30.8065 63.4081 30.9942 63.6604C31.3017 64.0733 31.6118 64.2396 31.8529 64.1432C31.8671 64.1375 31.8799 64.131 31.8926 64.1229C32.0234 64.0399 32.1541 63.9569 32.2849 63.8738L32.2834 63.8714Z" fill="#232323"/>
<path d="M1.4452 256.768C2.63725 257.493 3.82014 258.232 4.97872 259.006C5.72621 259.505 6.50555 259.958 7.26763 260.437C7.70715 260.712 8.08801 260.518 8.69419 259.639C10.5213 256.988 12.3346 254.327 14.1587 251.676C14.9425 250.537 15.7091 249.374 16.5492 248.29C16.9893 247.722 17.4785 247.193 17.9106 246.591C18.557 245.691 19.228 244.811 19.8811 243.915C21.1974 242.112 22.508 240.305 23.8221 238.501C24.1159 238.097 24.4355 237.718 24.6827 237.276C25.0008 236.709 24.9826 236.159 24.612 236.158C24.5019 236.158 24.4454 236.101 24.3891 236.026C24.1701 235.741 23.9363 235.478 23.4998 235.511C23.3984 235.519 23.3252 235.457 23.2548 235.404C22.1935 234.584 21.09 233.819 20.1376 232.85C20.1269 232.839 20.1103 232.834 20.1068 232.818C19.9994 232.342 19.54 232.56 19.0913 232.754C18.4411 233.036 17.7873 233.332 17.1449 233.585C16.8171 233.714 16.5357 233.992 16.263 234.347C15.5794 235.235 14.9422 236.162 14.2718 237.065C12.9876 238.794 11.7288 240.546 10.4602 242.29C10.3253 242.475 10.1976 242.663 10.0194 242.733C9.89156 242.784 9.79513 242.94 9.70142 243.075C7.64239 246.048 5.57443 249.014 3.53126 251.997C2.91247 252.899 2.28723 253.796 1.66814 254.696C1.48833 254.958 1.31081 255.226 1.14905 255.495C0.88448 255.937 0.848911 256.287 1.02995 256.473C1.0406 256.484 1.0515 256.493 1.06377 256.502C1.19037 256.591 1.31697 256.681 1.44358 256.77L1.4452 256.768Z" fill="#232323"/>
<path d="M371.269 121.715C369.906 121.417 368.547 121.102 367.2 120.747C366.331 120.518 365.447 120.343 364.57 120.138C364.065 120.021 363.768 120.328 363.481 121.356C362.615 124.457 361.765 127.563 360.903 130.664C360.532 131.996 360.185 133.345 359.743 134.643C359.512 135.323 359.221 135.983 359.008 136.693C358.69 137.754 358.341 138.804 358.015 139.863C357.357 141.997 356.705 144.132 356.049 146.266C355.902 146.743 355.723 147.205 355.633 147.703C355.517 148.343 355.713 148.857 356.064 148.738C356.168 148.702 356.24 148.738 356.317 148.79C356.617 148.988 356.924 149.161 357.326 148.987C357.419 148.947 357.509 148.982 357.592 149.009C358.863 149.44 360.155 149.804 361.371 150.411C361.384 150.418 361.402 150.417 361.41 150.431C361.667 150.847 362.03 150.491 362.391 150.161C362.915 149.683 363.436 149.19 363.962 148.743C364.23 148.514 364.405 148.16 364.548 147.735C364.906 146.673 365.207 145.589 365.547 144.518C366.199 142.465 366.82 140.398 367.452 138.337C367.52 138.118 367.579 137.899 367.725 137.775C367.829 137.685 367.87 137.506 367.915 137.348C368.895 133.867 369.886 130.389 370.848 126.905C371.14 125.85 371.44 124.799 371.732 123.746C371.817 123.44 371.898 123.129 371.963 122.821C372.07 122.318 371.99 121.975 371.758 121.858C371.744 121.851 371.731 121.846 371.716 121.842C371.568 121.798 371.419 121.755 371.27 121.712L371.269 121.715Z" fill="#232323"/>
<path d="M103.067 35.8059C104.399 36.2198 105.726 36.6497 107.038 37.119C107.885 37.422 108.751 37.6723 109.606 37.9516C110.099 38.1121 110.422 37.831 110.796 36.8314C111.925 33.8161 113.038 30.7946 114.164 27.7797C114.647 26.4844 115.109 25.1698 115.66 23.9144C115.95 23.2571 116.296 22.6249 116.569 21.9357C116.977 20.9053 117.414 19.8892 117.831 18.8618C118.67 16.793 119.502 14.7218 120.339 12.6521C120.526 12.1891 120.744 11.7441 120.876 11.2555C121.047 10.6279 120.896 10.099 120.536 10.1876C120.429 10.2142 120.361 10.1725 120.288 10.1143C120.006 9.89089 119.716 9.69261 119.3 9.83061C119.204 9.86267 119.118 9.82036 119.037 9.786C117.808 9.24776 116.552 8.77438 115.393 8.06551C115.38 8.05747 115.362 8.05682 115.355 8.04189C115.135 7.60559 114.742 7.92881 114.354 8.2267C113.792 8.65774 113.23 9.10387 112.668 9.50499C112.381 9.70932 112.176 10.0476 111.997 10.4582C111.55 11.4855 111.157 12.54 110.726 13.5781C109.9 15.5675 109.104 17.5731 108.297 19.5727C108.211 19.7853 108.133 19.9978 107.977 20.1094C107.865 20.1899 107.809 20.3644 107.751 20.5184C106.476 23.9022 105.19 27.2821 103.932 30.6712C103.551 31.697 103.162 32.7183 102.78 33.7424C102.67 34.0404 102.562 34.3427 102.471 34.6436C102.321 35.1362 102.372 35.4845 102.593 35.6211C102.606 35.6291 102.619 35.6356 102.633 35.641C102.777 35.6968 102.922 35.7527 103.066 35.8085L103.067 35.8059Z" fill="#FC653C"/>
<path d="M128.992 222.926C130.157 222.158 131.331 221.405 132.525 220.688C133.296 220.226 134.039 219.715 134.797 219.23C135.234 218.951 135.221 218.523 134.686 217.599C133.07 214.815 131.439 212.038 129.822 209.256C129.127 208.061 128.403 206.87 127.782 205.648C127.457 205.007 127.188 204.339 126.828 203.691C126.29 202.722 125.782 201.739 125.251 200.766C124.184 198.805 123.11 196.848 122.04 194.889C121.801 194.451 121.595 194 121.301 193.587C120.924 193.057 120.419 192.839 120.26 193.173C120.212 193.273 120.137 193.3 120.046 193.319C119.694 193.395 119.357 193.494 119.2 193.903C119.163 193.998 119.076 194.037 118.998 194.078C117.803 194.687 116.64 195.358 115.357 195.805C115.343 195.81 115.331 195.823 115.315 195.819C114.838 195.713 114.839 196.221 114.823 196.71C114.8 197.418 114.788 198.136 114.742 198.825C114.719 199.176 114.85 199.549 115.054 199.948C115.565 200.945 116.131 201.918 116.66 202.909C117.675 204.809 118.721 206.696 119.756 208.588C119.866 208.79 119.98 208.985 119.968 209.176C119.959 209.314 120.059 209.467 120.141 209.61C121.949 212.742 123.747 215.879 125.57 219.001C126.121 219.946 126.665 220.895 127.214 221.839C127.374 222.114 127.54 222.388 127.715 222.65C128.001 223.078 128.302 223.26 128.548 223.175C128.562 223.171 128.576 223.165 128.589 223.157C128.724 223.081 128.858 223.005 128.993 222.928L128.992 222.926Z" fill="#FC653C"/>
<path d="M196.772 629.889C198.138 629.602 199.506 629.332 200.88 629.103C201.767 628.956 202.646 628.753 203.529 628.581C204.038 628.481 204.183 628.079 204.024 627.023C203.542 623.84 203.044 620.658 202.56 617.477C202.353 616.11 202.116 614.737 201.987 613.372C201.92 612.657 201.914 611.936 201.817 611.201C201.673 610.102 201.56 609.002 201.424 607.902C201.15 605.686 200.869 603.471 200.593 601.256C200.531 600.761 200.505 600.266 200.383 599.775C200.227 599.143 199.837 598.755 199.566 599.007C199.486 599.082 199.405 599.08 199.314 599.064C198.959 599.006 198.609 598.974 198.313 599.297C198.244 599.372 198.148 599.377 198.061 599.386C196.725 599.514 195.398 599.712 194.04 599.657C194.025 599.656 194.009 599.664 193.996 599.654C193.591 599.38 193.405 599.854 193.211 600.303C192.93 600.953 192.656 601.616 192.36 602.24C192.209 602.558 192.194 602.954 192.238 603.399C192.347 604.514 192.517 605.627 192.646 606.743C192.892 608.883 193.173 611.023 193.441 613.162C193.47 613.39 193.505 613.614 193.423 613.787C193.364 613.912 193.401 614.091 193.425 614.254C193.957 617.831 194.479 621.409 195.029 624.982C195.195 626.064 195.353 627.145 195.518 628.225C195.566 628.54 195.619 628.856 195.686 629.163C195.795 629.666 196.009 629.946 196.268 629.958C196.283 629.959 196.298 629.958 196.312 629.956C196.466 629.934 196.619 629.913 196.773 629.891L196.772 629.889Z" fill="#6B53FF"/>
<path d="M151.396 636.495C152.548 635.707 153.709 634.934 154.891 634.197C155.654 633.721 156.388 633.198 157.138 632.701C157.57 632.414 157.55 631.987 156.999 631.072C155.336 628.315 153.659 625.567 151.994 622.812C151.279 621.629 150.535 620.451 149.894 619.239C149.558 618.605 149.277 617.941 148.906 617.299C148.352 616.339 147.827 615.365 147.28 614.401C146.179 612.459 145.073 610.52 143.97 608.579C143.723 608.145 143.509 607.698 143.209 607.291C142.823 606.767 142.314 606.557 142.16 606.894C142.115 606.995 142.04 607.023 141.949 607.043C141.599 607.126 141.263 607.23 141.113 607.642C141.078 607.737 140.992 607.778 140.915 607.821C139.73 608.45 138.579 609.14 137.303 609.609C137.289 609.614 137.278 609.627 137.261 609.624C136.783 609.525 136.792 610.034 136.785 610.523C136.774 611.231 136.774 611.949 136.74 612.639C136.722 612.99 136.86 613.361 137.071 613.756C137.598 614.745 138.181 615.707 138.727 616.69C139.774 618.573 140.852 620.442 141.918 622.316C142.032 622.515 142.149 622.709 142.14 622.9C142.134 623.038 142.236 623.19 142.321 623.331C144.181 626.432 146.033 629.538 147.908 632.628C148.476 633.564 149.035 634.503 149.601 635.438C149.765 635.71 149.936 635.982 150.115 636.24C150.408 636.663 150.713 636.84 150.957 636.752C150.971 636.746 150.984 636.74 150.997 636.733C151.131 636.654 151.264 636.576 151.398 636.497L151.396 636.495Z" fill="#6B53FF"/>
<path d="M308.48 732.893C309.824 733.266 311.163 733.655 312.489 734.085C313.344 734.362 314.217 734.585 315.081 734.839C315.579 734.984 315.892 734.693 316.237 733.683C317.273 730.634 318.293 727.58 319.327 724.533C319.771 723.223 320.192 721.895 320.705 720.624C320.974 719.958 321.301 719.315 321.553 718.618C321.93 717.576 322.336 716.547 322.721 715.507C323.496 713.414 324.265 711.318 325.039 709.224C325.211 708.756 325.416 708.304 325.533 707.812C325.685 707.179 325.518 706.655 325.161 706.755C325.055 706.785 324.985 706.745 324.911 706.689C324.622 706.474 324.326 706.285 323.915 706.436C323.819 706.471 323.732 706.431 323.65 706.399C322.405 705.898 321.135 705.464 319.955 704.79C319.942 704.783 319.925 704.782 319.917 704.768C319.684 704.338 319.301 704.673 318.922 704.983C318.373 705.431 317.825 705.894 317.275 706.312C316.995 706.525 316.8 706.869 316.634 707.285C316.218 708.326 315.858 709.392 315.458 710.442C314.693 712.456 313.959 714.485 313.213 716.508C313.134 716.723 313.062 716.938 312.909 717.054C312.8 717.138 312.75 717.314 312.697 717.47C311.525 720.891 310.342 724.308 309.188 727.734C308.838 728.771 308.481 729.804 308.13 730.839C308.029 731.14 307.931 731.446 307.848 731.749C307.714 732.246 307.775 732.593 308 732.723C308.013 732.73 308.026 732.736 308.04 732.741C308.186 732.793 308.333 732.844 308.479 732.896L308.48 732.893Z" fill="#232323"/>
<path d="M365.634 627.793C366.811 627.044 367.997 626.309 369.203 625.611C369.981 625.161 370.732 624.662 371.498 624.19C371.939 623.917 371.933 623.49 371.412 622.558C369.841 619.747 368.255 616.945 366.682 614.138C366.006 612.931 365.301 611.73 364.7 610.497C364.385 609.852 364.127 609.179 363.777 608.525C363.255 607.548 362.762 606.557 362.247 605.576C361.211 603.598 360.169 601.624 359.13 599.648C358.898 599.206 358.699 598.752 358.412 598.335C358.043 597.799 357.542 597.573 357.377 597.905C357.329 598.003 357.252 598.029 357.161 598.047C356.808 598.117 356.469 598.211 356.306 598.617C356.268 598.711 356.18 598.75 356.102 598.789C354.897 599.379 353.724 600.032 352.433 600.458C352.419 600.463 352.407 600.475 352.391 600.471C351.916 600.357 351.909 600.866 351.885 601.354C351.851 602.062 351.828 602.78 351.771 603.467C351.741 603.818 351.867 604.194 352.065 604.595C352.559 605.601 353.11 606.582 353.623 607.582C354.608 609.498 355.624 611.401 356.628 613.31C356.735 613.513 356.846 613.71 356.83 613.901C356.82 614.038 356.917 614.194 356.997 614.337C358.754 617.498 360.502 620.663 362.275 623.814C362.812 624.768 363.34 625.724 363.874 626.678C364.03 626.955 364.191 627.232 364.362 627.496C364.641 627.929 364.94 628.115 365.187 628.035C365.201 628.03 365.214 628.025 365.227 628.018C365.363 627.943 365.499 627.869 365.635 627.795L365.634 627.793Z" fill="#232323"/>
<path d="M206.978 729.591C208.215 730.235 209.445 730.893 210.653 731.588C211.432 732.036 212.24 732.436 213.032 732.863C213.489 733.108 213.856 732.889 214.402 731.972C216.048 729.204 217.679 726.428 219.322 723.661C220.028 722.472 220.715 721.26 221.481 720.123C221.882 719.527 222.335 718.966 222.726 718.336C223.311 717.395 223.921 716.472 224.513 715.535C225.706 713.648 226.893 711.757 228.083 709.869C228.349 709.447 228.643 709.047 228.86 708.59C229.14 708.003 229.085 707.455 228.715 707.479C228.605 707.486 228.545 707.433 228.484 707.363C228.246 707.093 227.995 706.846 227.562 706.908C227.461 706.922 227.384 706.866 227.31 706.817C226.197 706.07 225.044 705.381 224.029 704.478C224.018 704.467 224.001 704.464 223.996 704.448C223.858 703.979 223.414 704.228 222.979 704.452C222.349 704.776 221.716 705.116 221.092 705.411C220.774 705.561 220.512 705.858 220.263 706.23C219.641 707.162 219.067 708.13 218.458 709.075C217.293 710.886 216.154 712.719 215.005 714.543C214.882 714.737 214.768 714.932 214.594 715.015C214.47 715.074 214.384 715.236 214.3 715.377C212.444 718.481 210.579 721.579 208.74 724.691C208.183 725.633 207.619 726.569 207.062 727.509C206.9 727.783 206.74 728.061 206.597 728.341C206.363 728.8 206.35 729.151 206.544 729.325C206.555 729.335 206.566 729.344 206.579 729.352C206.712 729.432 206.844 729.513 206.976 729.593L206.978 729.591Z" fill="#FC653C"/>
<path d="M290.507 683.703C290.606 682.312 290.721 680.921 290.878 679.537C290.979 678.644 291.025 677.744 291.101 676.847C291.145 676.33 290.797 676.08 289.738 675.944C286.545 675.535 283.349 675.142 280.157 674.736C278.785 674.561 277.4 674.413 276.051 674.162C275.345 674.031 274.651 673.839 273.918 673.731C272.821 673.569 271.732 673.375 270.636 673.205C268.431 672.861 266.224 672.524 264.018 672.183C263.524 672.107 263.041 671.996 262.535 671.979C261.885 671.956 261.405 672.224 261.574 672.554C261.624 672.652 261.599 672.729 261.559 672.813C261.406 673.138 261.279 673.466 261.509 673.839C261.562 673.926 261.54 674.019 261.525 674.106C261.282 675.425 261.109 676.756 260.684 678.047C260.679 678.062 260.682 678.079 260.669 678.089C260.295 678.403 260.699 678.711 261.078 679.021C261.626 679.47 262.189 679.915 262.708 680.37C262.972 680.603 263.349 680.725 263.789 680.805C264.892 681.006 266.008 681.147 267.117 681.33C269.243 681.679 271.377 681.995 273.508 682.324C273.735 682.359 273.96 682.386 274.104 682.513C274.208 682.603 274.391 682.617 274.554 682.638C278.14 683.107 281.724 683.585 285.311 684.035C286.397 684.172 287.48 684.317 288.564 684.454C288.879 684.494 289.198 684.529 289.512 684.55C290.026 684.582 290.353 684.454 290.436 684.207C290.441 684.193 290.444 684.179 290.446 684.164C290.467 684.011 290.489 683.857 290.51 683.704L290.507 683.703Z" fill="#232323"/>
<path d="M69.1326 769.308C70.5244 769.406 71.9145 769.522 73.2989 769.678C74.1921 769.78 75.0924 769.826 75.9891 769.902C76.506 769.945 76.7555 769.598 76.8916 768.539C77.3011 765.346 77.6936 762.15 78.1002 758.957C78.275 757.586 78.4234 756.201 78.6735 754.852C78.8047 754.146 78.997 753.452 79.1052 752.718C79.2672 751.622 79.4606 750.533 79.6308 749.437C79.9746 747.231 80.3116 745.025 80.6527 742.819C80.7289 742.325 80.8395 741.842 80.8567 741.336C80.8796 740.686 80.6115 740.206 80.2815 740.374C80.1836 740.425 80.1071 740.4 80.0231 740.36C79.6978 740.207 79.3696 740.08 78.9967 740.309C78.91 740.363 78.8166 740.341 78.7298 740.326C77.4105 740.083 76.0794 739.909 74.7889 739.484C74.7744 739.48 74.7574 739.483 74.7468 739.47C74.433 739.096 74.1246 739.5 73.815 739.879C73.3661 740.427 72.9206 740.99 72.4655 741.509C72.233 741.773 72.1105 742.15 72.0306 742.59C71.8299 743.692 71.6885 744.809 71.506 745.918C71.1569 748.044 70.8409 750.178 70.5123 752.309C70.4773 752.536 70.4495 752.761 70.3234 752.905C70.2332 753.009 70.2188 753.191 70.1975 753.355C69.7294 756.94 69.2505 760.525 68.8008 764.112C68.6644 765.197 68.5193 766.281 68.3817 767.365C68.342 767.68 68.3066 767.999 68.2864 768.313C68.2536 768.827 68.3824 769.154 68.6286 769.237C68.6431 769.242 68.6571 769.245 68.6719 769.247C68.8254 769.268 68.9788 769.29 69.1322 769.311L69.1326 769.308Z" fill="#232323"/>
<path d="M293.597 542.206C294.401 543.346 295.192 544.495 295.946 545.667C296.433 546.423 296.967 547.149 297.475 547.891C297.769 548.319 298.195 548.293 299.102 547.728C301.834 546.025 304.557 544.307 307.286 542.602C308.459 541.869 309.626 541.108 310.828 540.448C311.458 540.103 312.117 539.813 312.754 539.432C313.705 538.864 314.671 538.325 315.627 537.764C317.553 536.634 319.475 535.499 321.399 534.367C321.83 534.114 322.274 533.894 322.676 533.587C323.194 533.194 323.397 532.682 323.057 532.533C322.956 532.489 322.927 532.414 322.905 532.324C322.818 531.975 322.708 531.641 322.295 531.497C322.199 531.464 322.156 531.378 322.113 531.301C321.466 530.126 320.759 528.985 320.271 527.717C320.266 527.703 320.252 527.692 320.256 527.675C320.347 527.195 319.839 527.212 319.35 527.212C318.641 527.211 317.923 527.223 317.234 527.198C316.882 527.186 316.513 527.329 316.121 527.546C315.14 528.088 314.186 528.685 313.212 529.245C311.345 530.32 309.492 531.425 307.634 532.519C307.436 532.636 307.245 532.756 307.053 532.75C306.916 532.746 306.765 532.85 306.625 532.937C303.552 534.843 300.473 536.74 297.411 538.661C296.484 539.243 295.553 539.816 294.627 540.395C294.357 540.564 294.088 540.738 293.832 540.921C293.414 541.221 293.242 541.528 293.333 541.77C293.339 541.785 293.345 541.798 293.353 541.811C293.433 541.943 293.514 542.075 293.595 542.207L293.597 542.206Z" fill="#6B53FF"/>
<path d="M353.568 472.289C354.925 471.965 356.286 471.658 357.654 471.393C358.536 471.222 359.409 470.995 360.287 470.799C360.793 470.686 360.927 470.28 360.74 469.229C360.173 466.059 359.589 462.893 359.019 459.725C358.775 458.364 358.501 456.998 358.336 455.637C358.249 454.924 358.224 454.204 358.107 453.472C357.933 452.377 357.791 451.28 357.625 450.184C357.292 447.977 356.952 445.771 356.615 443.564C356.54 443.07 356.501 442.576 356.366 442.088C356.192 441.461 355.793 441.084 355.528 441.343C355.45 441.421 355.37 441.42 355.277 441.407C354.921 441.358 354.57 441.336 354.283 441.667C354.217 441.743 354.121 441.751 354.034 441.763C352.702 441.926 351.38 442.16 350.022 442.141C350.006 442.141 349.991 442.149 349.977 442.14C349.566 441.877 349.393 442.355 349.211 442.809C348.947 443.467 348.691 444.138 348.412 444.769C348.27 445.091 348.266 445.487 348.322 445.931C348.461 447.043 348.66 448.15 348.819 449.263C349.123 451.396 349.462 453.527 349.787 455.658C349.822 455.885 349.863 456.108 349.786 456.283C349.731 456.409 349.772 456.588 349.8 456.75C350.429 460.311 351.047 463.874 351.694 467.431C351.889 468.508 352.075 469.584 352.269 470.66C352.326 470.973 352.388 471.288 352.463 471.593C352.585 472.093 352.806 472.367 353.066 472.372C353.081 472.372 353.096 472.371 353.11 472.368C353.263 472.343 353.416 472.317 353.569 472.292L353.568 472.289Z" fill="#6B53FF"/>
<path d="M342.766 815.9C343.035 814.531 343.321 813.165 343.647 811.811C343.858 810.937 344.014 810.049 344.201 809.169C344.308 808.661 343.994 808.371 342.96 808.105C339.841 807.305 336.718 806.521 333.6 805.724C332.261 805.381 330.904 805.063 329.597 804.648C328.913 804.431 328.247 804.154 327.533 803.957C326.465 803.66 325.408 803.334 324.342 803.03C322.195 802.417 320.047 801.81 317.9 801.199C317.419 801.063 316.954 800.894 316.454 800.814C315.811 800.711 315.302 800.918 315.428 801.266C315.466 801.37 315.432 801.442 315.382 801.521C315.19 801.825 315.024 802.135 315.205 802.533C315.247 802.626 315.215 802.716 315.189 802.8C314.785 804.079 314.449 805.379 313.868 806.607C313.861 806.621 313.862 806.638 313.848 806.647C313.438 806.912 313.801 807.268 314.139 807.622C314.627 808.135 315.131 808.647 315.59 809.163C315.824 809.426 316.182 809.594 316.609 809.727C317.678 810.063 318.769 810.341 319.847 810.659C321.913 811.267 323.992 811.844 326.067 812.433C326.287 812.496 326.507 812.551 326.635 812.694C326.727 812.797 326.906 812.833 327.065 812.875C330.566 813.782 334.064 814.699 337.568 815.588C338.629 815.857 339.686 816.135 340.745 816.405C341.053 816.483 341.365 816.558 341.674 816.617C342.179 816.713 342.52 816.625 342.633 816.391C342.639 816.377 342.644 816.364 342.648 816.349C342.688 816.2 342.728 816.05 342.768 815.9L342.766 815.9Z" fill="#6B53FF"/>
<path d="M14.1698 471.31C15.527 470.987 16.8877 470.68 18.2554 470.414C19.138 470.243 20.0105 470.017 20.8889 469.821C21.395 469.707 21.5289 469.301 21.3412 468.25C20.7743 465.081 20.1905 461.914 19.6211 458.747C19.3765 457.386 19.1028 456.02 18.9371 454.659C18.8506 453.946 18.8258 453.225 18.709 452.493C18.5349 451.399 18.3928 450.302 18.2267 449.206C17.8933 446.998 17.5531 444.792 17.217 442.585C17.1417 442.092 17.1023 441.598 16.9671 441.11C16.794 440.483 16.3942 440.105 16.1299 440.365C16.0516 440.442 15.9712 440.441 15.879 440.428C15.5228 440.38 15.1717 440.357 14.8847 440.688C14.8181 440.765 14.7225 440.772 14.6352 440.784C13.3037 440.948 11.9818 441.181 10.6232 441.163C10.6079 441.163 10.5927 441.171 10.5787 441.162C10.1671 440.899 9.99421 441.377 9.81239 441.831C9.54851 442.489 9.29234 443.159 9.0137 443.791C8.87127 444.113 8.86717 444.508 8.92309 444.953C9.06212 446.064 9.26197 447.172 9.42054 448.285C9.72477 450.417 10.0633 452.548 10.3889 454.68C10.4235 454.906 10.4644 455.129 10.3873 455.305C10.3324 455.431 10.3734 455.609 10.402 455.771C11.0307 459.333 11.6485 462.896 12.2951 466.452C12.4905 467.529 12.6769 468.606 12.8708 469.682C12.9274 469.994 12.9893 470.309 13.0642 470.615C13.1869 471.115 13.4079 471.388 13.6675 471.393C13.6828 471.393 13.6972 471.392 13.712 471.39C13.8647 471.364 14.0175 471.339 14.1703 471.313L14.1698 471.31Z" fill="#6B53FF"/>
<path d="M218.079 819.094C219.424 819.467 220.763 819.857 222.089 820.286C222.944 820.563 223.817 820.787 224.681 821.04C225.179 821.185 225.492 820.894 225.836 819.884C226.873 816.836 227.893 813.782 228.926 810.734C229.371 809.424 229.792 808.096 230.305 806.825C230.574 806.159 230.901 805.517 231.152 804.819C231.529 803.777 231.936 802.748 232.32 801.708C233.096 799.615 233.865 797.52 234.638 795.425C234.811 794.957 235.015 794.505 235.133 794.013C235.285 793.381 235.117 792.856 234.761 792.956C234.655 792.986 234.585 792.946 234.51 792.89C234.222 792.676 233.925 792.486 233.514 792.637C233.419 792.672 233.332 792.632 233.249 792.6C232.005 792.1 230.735 791.665 229.555 790.991C229.541 790.984 229.524 790.984 229.516 790.969C229.283 790.54 228.901 790.875 228.522 791.184C227.973 791.632 227.424 792.095 226.875 792.513C226.595 792.726 226.4 793.071 226.234 793.486C225.818 794.527 225.457 795.593 225.058 796.643C224.293 798.657 223.559 800.686 222.813 802.709C222.733 802.924 222.661 803.139 222.509 803.255C222.4 803.339 222.349 803.515 222.296 803.671C221.124 807.092 219.942 810.51 218.788 813.935C218.438 814.972 218.08 816.005 217.73 817.04C217.628 817.341 217.53 817.647 217.448 817.95C217.314 818.447 217.375 818.794 217.599 818.924C217.613 818.931 217.626 818.938 217.64 818.942C217.786 818.994 217.932 819.045 218.078 819.097L218.079 819.094Z" fill="#6B53FF"/>
<path d="M113.471 765.291C113.098 766.636 112.709 767.975 112.28 769.3C112.003 770.156 111.779 771.029 111.526 771.893C111.38 772.39 111.671 772.704 112.682 773.048C115.73 774.085 118.784 775.105 121.832 776.138C123.141 776.582 124.469 777.004 125.741 777.517C126.406 777.786 127.049 778.112 127.746 778.364C128.788 778.741 129.817 779.147 130.857 779.532C132.95 780.308 135.046 781.077 137.14 781.85C137.609 782.023 138.06 782.227 138.552 782.345C139.185 782.497 139.709 782.329 139.609 781.972C139.58 781.866 139.619 781.796 139.675 781.722C139.89 781.434 140.079 781.137 139.929 780.726C139.894 780.631 139.933 780.543 139.965 780.461C140.466 779.217 140.901 777.947 141.574 776.767C141.582 776.753 141.582 776.736 141.596 776.728C142.026 776.495 141.691 776.113 141.381 775.734C140.933 775.185 140.47 774.636 140.052 774.087C139.839 773.807 139.495 773.612 139.079 773.446C138.039 773.03 136.973 772.669 135.922 772.27C133.908 771.505 131.879 770.77 129.856 770.024C129.641 769.945 129.426 769.873 129.31 769.721C129.226 769.612 129.05 769.561 128.894 769.508C125.473 768.336 122.056 767.154 118.63 766C117.593 765.65 116.56 765.292 115.525 764.942C115.224 764.84 114.919 764.742 114.615 764.66C114.118 764.525 113.771 764.587 113.642 764.811C113.634 764.825 113.628 764.838 113.623 764.852C113.572 764.998 113.52 765.144 113.469 765.29L113.471 765.291Z" fill="#6B53FF"/>
<path d="M13.6932 317.105C15.0622 317.375 16.4275 317.66 17.7819 317.987C18.6558 318.198 19.5436 318.354 20.4241 318.541C20.9316 318.647 21.222 318.334 21.4878 317.3C22.2881 314.181 23.0719 311.058 23.8692 307.94C24.2119 306.601 24.5301 305.244 24.9446 303.937C25.1619 303.253 25.4385 302.587 25.6363 301.873C25.9323 300.805 26.2587 299.748 26.5627 298.682C27.176 296.535 27.7827 294.387 28.3934 292.24C28.5298 291.759 28.6991 291.294 28.7787 290.794C28.8816 290.151 28.6748 289.642 28.3265 289.768C28.2231 289.806 28.1503 289.772 28.0719 289.722C27.768 289.53 27.4579 289.364 27.0595 289.545C26.967 289.587 26.8769 289.554 26.7926 289.529C25.5133 289.125 24.2139 288.788 22.9856 288.207C22.9719 288.201 22.9546 288.202 22.9456 288.188C22.6805 287.778 22.3245 288.141 21.9706 288.479C21.4574 288.967 20.9459 289.471 20.4302 289.93C20.1669 290.163 19.9989 290.522 19.8653 290.949C19.5301 292.018 19.252 293.109 18.9341 294.187C18.3254 296.253 17.7485 298.332 17.1595 300.407C17.0969 300.627 17.0416 300.847 16.8986 300.974C16.7962 301.066 16.7594 301.246 16.7181 301.405C15.8112 304.906 14.8938 308.404 14.005 311.908C13.7356 312.968 13.4581 314.025 13.1877 315.084C13.1094 315.392 13.035 315.705 12.9762 316.013C12.8803 316.519 12.9677 316.86 13.2018 316.972C13.2156 316.979 13.2291 316.984 13.2436 316.988C13.3932 317.028 13.5428 317.068 13.6924 317.108L13.6932 317.105Z" fill="#6B53FF"/>
<path d="M318.898 603.791C320.274 603.563 321.653 603.351 323.036 603.181C323.928 603.072 324.814 602.907 325.704 602.772C326.217 602.694 326.379 602.298 326.265 601.237C325.919 598.036 325.557 594.836 325.209 591.637C325.059 590.262 324.881 588.881 324.811 587.511C324.774 586.794 324.799 586.074 324.733 585.335C324.636 584.231 324.57 583.127 324.481 582.022C324.301 579.797 324.115 577.572 323.933 575.347C323.893 574.85 323.888 574.354 323.787 573.858C323.657 573.221 323.285 572.816 323.003 573.057C322.92 573.128 322.839 573.122 322.748 573.103C322.396 573.03 322.048 572.983 321.739 573.293C321.667 573.365 321.571 573.366 321.483 573.371C320.143 573.442 318.808 573.583 317.454 573.47C317.439 573.469 317.423 573.476 317.41 573.466C317.018 573.175 316.812 573.64 316.599 574.081C316.29 574.718 315.988 575.369 315.666 575.98C315.502 576.291 315.47 576.686 315.495 577.133C315.556 578.252 315.679 579.37 315.76 580.491C315.915 582.64 316.105 584.789 316.281 586.938C316.3 587.167 316.326 587.392 316.236 587.562C316.173 587.684 316.202 587.865 316.219 588.028C316.598 591.625 316.967 595.222 317.365 598.815C317.485 599.903 317.597 600.99 317.715 602.076C317.75 602.392 317.79 602.711 317.843 603.02C317.931 603.528 318.132 603.816 318.391 603.839C318.406 603.84 318.421 603.841 318.436 603.839C318.59 603.824 318.744 603.809 318.898 603.794L318.898 603.791Z" fill="#FC653C"/>
<path d="M358.983 548.419C360.303 547.968 361.628 547.533 362.964 547.138C363.827 546.884 364.674 546.575 365.529 546.297C366.022 546.135 366.117 545.718 365.83 544.69C364.964 541.589 364.081 538.492 363.213 535.394C362.84 534.062 362.437 532.729 362.142 531.389C361.988 530.688 361.895 529.973 361.709 529.256C361.432 528.183 361.186 527.104 360.916 526.029C360.374 523.863 359.825 521.699 359.28 519.535C359.158 519.05 359.072 518.562 358.891 518.09C358.659 517.482 358.225 517.144 357.987 517.428C357.916 517.512 357.836 517.519 357.743 517.515C357.384 517.5 357.032 517.512 356.778 517.868C356.719 517.951 356.625 517.967 356.539 517.987C355.229 518.277 353.935 518.635 352.581 518.746C352.566 518.748 352.552 518.757 352.537 518.75C352.102 518.527 351.975 519.019 351.838 519.489C351.638 520.169 351.446 520.86 351.229 521.516C351.118 521.85 351.152 522.244 351.25 522.681C351.494 523.774 351.798 524.858 352.062 525.951C352.568 528.044 353.108 530.133 353.635 532.224C353.691 532.447 353.753 532.664 353.693 532.847C353.65 532.977 353.708 533.151 353.752 533.31C354.717 536.795 355.671 540.283 356.654 543.762C356.951 544.815 357.239 545.869 357.534 546.922C357.621 547.227 357.712 547.535 357.816 547.832C357.986 548.318 358.232 548.569 358.491 548.55C358.506 548.548 358.52 548.546 358.534 548.542C358.684 548.502 358.834 548.462 358.983 548.422L358.983 548.419Z" fill="#FC653C"/>
<path d="M183.974 758.787C183.331 760.025 182.672 761.255 181.978 762.462C181.529 763.242 181.129 764.049 180.703 764.842C180.457 765.299 180.677 765.666 181.594 766.212C184.361 767.858 187.137 769.489 189.904 771.132C191.093 771.838 192.305 772.525 193.443 773.291C194.038 773.692 194.599 774.145 195.229 774.535C196.171 775.12 197.093 775.731 198.03 776.323C199.917 777.515 201.808 778.702 203.696 779.893C204.119 780.159 204.518 780.453 204.976 780.67C205.563 780.949 206.11 780.894 206.087 780.524C206.08 780.415 206.133 780.354 206.203 780.293C206.473 780.056 206.719 779.805 206.657 779.371C206.643 779.271 206.7 779.194 206.748 779.12C207.496 778.006 208.185 776.854 209.088 775.839C209.098 775.828 209.102 775.811 209.118 775.806C209.586 775.667 209.338 775.223 209.113 774.789C208.789 774.159 208.45 773.526 208.155 772.902C208.004 772.584 207.708 772.321 207.336 772.073C206.404 771.45 205.436 770.877 204.491 770.268C202.679 769.102 200.847 767.963 199.022 766.814C198.828 766.692 198.633 766.577 198.551 766.404C198.491 766.28 198.329 766.194 198.188 766.11C195.084 764.254 191.986 762.389 188.874 760.55C187.932 759.993 186.996 759.429 186.056 758.871C185.782 758.709 185.504 758.55 185.224 758.407C184.766 758.172 184.414 758.16 184.241 758.353C184.23 758.364 184.222 758.376 184.214 758.389C184.133 758.521 184.053 758.653 183.972 758.786L183.974 758.787Z" fill="#FC653C"/>
<path d="M342.003 773.987C343.133 774.806 344.252 775.638 345.345 776.503C346.049 777.061 346.789 777.575 347.51 778.114C347.926 778.424 348.322 778.261 348.997 777.434C351.032 774.939 353.054 772.434 355.086 769.938C355.96 768.866 356.818 767.769 357.743 766.756C358.227 766.226 358.757 765.738 359.237 765.173C359.954 764.328 360.694 763.505 361.417 762.665C362.875 760.974 364.327 759.279 365.782 757.586C366.108 757.208 366.457 756.856 366.739 756.436C367.102 755.896 367.128 755.346 366.759 755.315C366.649 755.306 366.597 755.245 366.547 755.166C366.352 754.864 366.14 754.583 365.703 754.581C365.601 754.58 365.533 754.513 365.467 754.454C364.475 753.551 363.437 752.7 362.566 751.657C362.557 751.645 362.54 751.639 362.538 751.623C362.47 751.139 361.994 751.319 361.531 751.477C360.86 751.705 360.185 751.948 359.524 752.148C359.187 752.249 358.884 752.504 358.583 752.836C357.83 753.666 357.12 754.539 356.379 755.384C354.96 757.004 353.563 758.649 352.158 760.284C352.009 760.458 351.866 760.635 351.683 760.69C351.551 760.731 351.443 760.878 351.338 761.006C349.046 763.802 346.745 766.592 344.468 769.4C343.778 770.249 343.083 771.092 342.393 771.94C342.192 772.187 341.994 772.439 341.811 772.695C341.512 773.113 341.448 773.459 341.613 773.66C341.623 773.671 341.633 773.682 341.645 773.691C341.764 773.79 341.883 773.89 342.002 773.989L342.003 773.987Z" fill="#FC653C"/>
<path d="M22.988 790.88C22.169 792.01 21.3366 793.129 20.4718 794.221C19.9137 794.926 19.3991 795.666 18.8604 796.387C18.5504 796.803 18.7134 797.198 19.5404 797.874C22.0351 799.909 24.5408 801.931 27.0362 803.963C28.1082 804.837 29.2057 805.695 30.2182 806.62C30.7482 807.104 31.2363 807.634 31.8017 808.114C32.6469 808.831 33.4694 809.571 34.3093 810.294C36.0002 811.752 37.6955 813.204 39.3882 814.659C39.7669 814.985 40.1185 815.334 40.5389 815.616C41.0787 815.979 41.6281 816.005 41.6595 815.636C41.6685 815.526 41.73 815.474 41.8084 815.424C42.1103 815.229 42.3912 815.017 42.3936 814.58C42.3942 814.478 42.4618 814.41 42.5203 814.344C43.4239 813.352 44.2747 812.314 45.3176 811.443C45.3294 811.434 45.3355 811.417 45.352 811.415C45.8358 811.347 45.6554 810.871 45.4975 810.408C45.2694 809.737 45.0269 809.062 44.8269 808.401C44.7252 808.064 44.4705 807.761 44.1388 807.46C43.309 806.707 42.436 805.997 41.5907 805.256C39.9708 803.837 38.3258 802.44 36.6901 801.035C36.5162 800.886 36.3401 800.743 36.2842 800.56C36.2437 800.428 36.0963 800.32 35.969 800.215C33.1722 797.923 30.3824 795.622 27.5749 793.345C26.7253 792.655 25.8823 791.96 25.0346 791.27C24.7878 791.069 24.5358 790.871 24.2801 790.688C23.8613 790.388 23.5152 790.325 23.3151 790.49C23.3033 790.5 23.293 790.51 23.2834 790.522C23.1842 790.641 23.085 790.759 22.9859 790.878L22.988 790.88Z" fill="#FC653C"/>
<path d="M108.71 702.787L109.213 695.754L115.28 697.801" stroke="#232323" stroke-width="3" stroke-linecap="round" stroke-linejoin="round"/>
<path d="M109.624 696.652C119.599 711.819 131.922 699.44 133.95 695.46" stroke="#232323" stroke-width="3" stroke-linecap="round" stroke-linejoin="round"/>
<path d="M114.202 675.6H120.154C122.09 675.6 123.562 674.416 123.562 672.4V667.6H121.242V671.808C121.242 673.008 120.714 673.312 119.802 673.312H117.93V667.6H115.61V673.312H114.202V675.6ZM125.896 675.6H128.296V667.6H125.896V675.6ZM131.91 675.6H134.262V669.872H137.494C138.374 669.872 138.678 670.096 138.678 671.088V673.296H135.798V675.6H141.014V670.592C141.014 668.704 139.782 667.6 137.798 667.6H130.63V669.872H131.91V675.6ZM152.183 667.6V671.792C152.183 672.88 151.623 673.312 150.807 673.312H150.135V667.6H147.751V673.312H145.799V667.6H143.431V675.6H151.079C152.935 675.6 154.503 674.24 154.503 672.272V667.6H152.183ZM162.628 667.6H159.316V665.792H156.964V669.856H161.94C162.42 669.856 162.388 669.904 162.388 670.336V675.632H164.74V669.696C164.74 668.272 164.148 667.6 162.628 667.6ZM177.379 675.6H179.731V667.6H171.395V669.872H177.379V675.6ZM171.475 675.6H173.843V671.264H171.475V675.6ZM191.391 667.616L188.671 667.6L186.927 669.872L184.959 667.6H182.159L187.199 673.376H182.415V675.6H189.983V673.376L188.415 671.568L191.391 667.616ZM193.491 675.6H195.891V667.6H193.491V675.6ZM198.369 667.6V669.856H202.881V675.6H205.233V667.6H198.369ZM143.314 686.464H145.586C145.586 686.016 145.618 685.648 146.386 685.168C147.314 684.576 147.954 683.808 147.954 682.736V682.592C147.954 680.8 146.434 679.712 144.562 679.712C142.722 679.712 141.186 680.896 141.186 682.88H143.394C143.41 682.416 143.826 681.824 144.578 681.824C145.33 681.824 145.73 682.176 145.73 682.672C145.73 683.232 145.298 683.488 144.802 683.808C143.826 684.48 143.314 685.296 143.314 686.464ZM143.282 689.6H145.73V687.184H143.282V689.6ZM157.867 681.6H150.267V683.872H154.315V689.6H156.667V683.872H157.867V681.6ZM160.209 689.6H162.609V681.6H160.209V689.6ZM164.895 689.6H170.847C172.783 689.6 174.255 688.416 174.255 686.4V681.6H171.935V685.808C171.935 687.008 171.407 687.312 170.495 687.312H168.623V681.6H166.303V687.312H164.895V689.6Z" fill="#232323"/>
<path d="M177.293 124.985H179.645V114.873H172.013V119.401L174.365 119.417V117.161H177.293V124.985ZM182.011 123.017H182.923C185.179 123.017 186.363 121.673 186.347 119.881L186.315 117.145H189.899V122.873H192.235V114.873H182.267V117.145H184.011V119.433C184.011 120.569 183.547 120.745 182.011 120.761V123.017ZM203.412 114.873V119.065C203.412 120.153 202.852 120.585 202.036 120.585H201.364V114.873H198.98V120.585H197.028V114.873H194.66V122.873H202.308C204.164 122.873 205.732 121.513 205.732 119.545V114.873H203.412ZM213.856 114.873H210.544V113.065H208.192V117.129H213.168C213.648 117.129 213.616 117.177 213.616 117.609V122.905H215.968V116.969C215.968 115.545 215.376 114.873 213.856 114.873ZM228.607 122.873H230.959V114.873H222.623V117.145H228.607V122.873ZM222.703 122.873H225.071V118.537H222.703V122.873ZM242.619 114.889L239.899 114.873L238.155 117.145L236.187 114.873H233.387L238.427 120.649H233.643V122.873H241.211V120.649L239.643 118.841L242.619 114.889ZM244.72 122.873H247.12V114.873H244.72V122.873ZM249.598 114.873V117.129H254.11V122.873H256.462V114.873H249.598ZM172.608 133.737H174.88C174.88 133.289 174.912 132.921 175.68 132.441C176.608 131.849 177.248 131.081 177.248 130.009V129.865C177.248 128.073 175.728 126.985 173.856 126.985C172.016 126.985 170.48 128.169 170.48 130.153H172.688C172.704 129.689 173.12 129.097 173.872 129.097C174.624 129.097 175.024 129.449 175.024 129.945C175.024 130.505 174.592 130.761 174.096 131.081C173.12 131.753 172.608 132.569 172.608 133.737ZM172.576 136.873H175.024V134.457H172.576V136.873ZM180.713 136.873L189.769 136.857V131.881C189.769 129.993 188.585 128.873 186.633 128.873H179.625V131.145H180.713V136.873ZM183.081 134.569V131.145H186.313C187.161 131.145 187.401 131.433 187.401 132.345V134.569H183.081ZM192.175 133.545H194.639V128.873H192.175V133.545ZM197.084 128.873V131.129H201.596V136.873H203.948V128.873H197.084ZM206.335 136.873H214.783V134.601H213.775V128.873H206.415V131.145H211.407V134.601H206.335V136.873ZM217.028 136.873H219.364V131.145H223.236V136.873H225.572V128.873H217.028V136.873ZM233.275 136.873L242.331 136.857V131.881C242.331 129.993 241.147 128.873 239.195 128.873H232.187V131.145H233.275V136.873ZM235.643 134.569V131.145H238.875C239.723 131.145 239.963 131.433 239.963 132.345V134.569H235.643ZM244.561 136.873H250.513C252.449 136.873 253.921 135.689 253.921 133.673V128.873H251.601V133.081C251.601 134.281 251.073 134.585 250.161 134.585H248.289V128.873H245.969V134.585H244.561V136.873Z" fill="#232323"/>
<path d="M262.328 100.575L269.368 100.964L268.104 94.6872" stroke="#232323" stroke-width="3" stroke-linecap="round" stroke-linejoin="round"/>
<path d="M243.415 101.488C252.063 85.5261 265.395 96.8106 267.755 100.604" stroke="#232323" stroke-width="3" stroke-linecap="round" stroke-linejoin="round"/>
<path d="M163.807 33.05C164.947 32.2455 166.096 31.4551 167.268 30.7008C168.024 30.2142 168.75 29.6799 169.492 29.1717C169.92 28.8783 169.894 28.4515 169.329 27.5454C167.626 24.8133 165.908 22.09 164.203 19.3606C163.47 18.1878 162.709 17.0212 162.049 15.8188C161.704 15.1891 161.414 14.5295 161.034 13.8932C160.465 12.9416 159.926 11.9757 159.365 11.0198C158.235 9.09413 157.1 7.172 155.968 5.24774C155.715 4.81736 155.495 4.37334 155.188 3.97058C154.795 3.45275 154.283 3.25041 154.134 3.58973C154.09 3.69063 154.016 3.71978 153.925 3.74189C153.576 3.8291 153.242 3.93877 153.098 4.3523C153.065 4.44837 152.979 4.49085 152.902 4.53422C151.727 5.18075 150.586 5.88841 149.318 6.37579C149.304 6.38119 149.293 6.39452 149.276 6.39129C148.796 6.29982 148.813 6.80813 148.813 7.2973C148.813 8.00586 148.824 8.7236 148.8 9.41346C148.787 9.76532 148.93 10.1343 149.147 10.5259C149.689 11.5066 150.286 12.4606 150.846 13.435C151.921 15.3019 153.026 17.1547 154.12 19.013C154.237 19.2106 154.357 19.4023 154.351 19.5939C154.347 19.7314 154.451 19.8819 154.538 20.0218C156.444 23.0948 158.341 26.1735 160.262 29.2357C160.844 30.1629 161.417 31.0935 161.996 32.0202C162.165 32.2896 162.339 32.5588 162.522 32.8147C162.822 33.2333 163.129 33.4054 163.372 33.3135C163.386 33.3081 163.399 33.3019 163.412 33.2941C163.544 33.2135 163.676 33.1329 163.809 33.0524L163.807 33.05Z" fill="#6B53FF"/>
<path d="M213.294 51.767C213.667 50.4226 214.057 49.0831 214.486 47.7576C214.763 46.9024 214.987 46.0292 215.24 45.1655C215.385 44.6676 215.095 44.3541 214.084 44.01C211.036 42.9736 207.982 41.9532 204.934 40.9197C203.625 40.4756 202.297 40.0546 201.025 39.5413C200.359 39.2723 199.717 38.9456 199.02 38.6938C197.977 38.3169 196.948 37.9107 195.909 37.5261C193.815 36.7504 191.72 35.9811 189.626 35.208C189.157 35.0352 188.706 34.8308 188.213 34.7132C187.581 34.5615 187.057 34.7287 187.156 35.0856C187.186 35.1916 187.146 35.2616 187.09 35.336C186.876 35.6243 186.686 35.9208 186.837 36.3319C186.872 36.4274 186.832 36.5147 186.8 36.5968C186.3 37.8414 185.865 39.1113 185.192 40.2915C185.184 40.3047 185.184 40.3221 185.169 40.3299C184.74 40.5629 185.075 40.9456 185.384 41.3243C185.832 41.8733 186.295 42.4219 186.713 42.9712C186.926 43.2516 187.271 43.4465 187.687 43.6124C188.727 44.0284 189.793 44.389 190.844 44.7885C192.857 45.5534 194.886 46.2876 196.909 47.0336C197.125 47.1129 197.339 47.1849 197.456 47.3372C197.54 47.4463 197.716 47.4967 197.871 47.55C201.292 48.722 204.71 49.9043 208.136 51.0585C209.173 51.4082 210.205 51.7658 211.24 52.1163C211.542 52.218 211.847 52.3161 212.151 52.3983C212.648 52.5327 212.994 52.4716 213.124 52.2467C213.132 52.2335 213.138 52.2204 213.143 52.2063C213.194 52.0601 213.246 51.914 213.297 51.7679L213.294 51.767Z" fill="#232323"/>
<path d="M183.992 69.271C184.636 68.0331 185.295 66.8035 185.989 65.5958C186.438 64.8166 186.838 64.0087 187.264 63.2163C187.51 62.7594 187.29 62.3923 186.373 61.8463C183.606 60.2004 180.83 58.5691 178.062 56.9263C176.873 56.2204 175.662 55.5333 174.524 54.7675C173.928 54.3663 173.368 53.9136 172.738 53.5227C171.796 52.9379 170.874 52.3272 169.937 51.7354C168.049 50.5426 166.159 49.3557 164.27 48.1653C163.848 47.8991 163.449 47.6055 162.991 47.3884C162.404 47.1089 161.857 47.1638 161.88 47.5337C161.887 47.6435 161.834 47.7038 161.764 47.7649C161.494 48.0024 161.247 48.2533 161.309 48.6866C161.324 48.7873 161.267 48.8645 161.219 48.9382C160.471 50.052 159.782 51.2042 158.879 52.2192C158.869 52.2305 158.865 52.2475 158.849 52.2521C158.381 52.391 158.629 52.8348 158.853 53.2695C159.178 53.8995 159.517 54.532 159.812 55.1561C159.962 55.4745 160.259 55.7367 160.631 55.9851C161.563 56.6078 162.531 57.1815 163.476 57.7901C165.287 58.9559 167.12 60.0947 168.945 61.2439C169.139 61.3661 169.334 61.481 169.416 61.6542C169.475 61.7783 169.637 61.8641 169.779 61.9485C172.882 63.8042 175.98 65.6693 179.093 67.5085C180.035 68.0656 180.971 68.6295 181.911 69.187C182.184 69.3489 182.463 69.5082 182.743 69.6515C183.201 69.886 183.553 69.8981 183.726 69.705C183.737 69.6936 183.745 69.6821 183.753 69.6693C183.834 69.537 183.914 69.4047 183.995 69.2725L183.992 69.271Z" fill="#FC653C"/>
<path d="M267.327 7.65526C266.559 6.49028 265.806 5.31639 265.089 4.12172C264.627 3.35073 264.116 2.60806 263.632 1.84955C263.352 1.4127 262.924 1.4257 262.001 1.96114C259.216 3.57695 256.44 5.20761 253.657 6.82511C252.462 7.51993 251.272 8.24394 250.049 8.86482C249.409 9.18971 248.74 9.45918 248.092 9.81901C247.123 10.3567 246.14 10.8651 245.167 11.3957C243.207 12.4634 241.249 13.5369 239.29 14.6069C238.852 14.8464 238.401 15.0522 237.989 15.346C237.459 15.7229 237.24 16.2277 237.575 16.3873C237.674 16.4345 237.701 16.5103 237.72 16.6014C237.796 16.9528 237.895 17.2904 238.304 17.4471C238.399 17.4835 238.439 17.5708 238.48 17.6488C239.088 18.8442 239.76 20.0067 240.206 21.2899C240.211 21.3043 240.224 21.3158 240.221 21.332C240.114 21.8088 240.622 21.8079 241.111 21.8236C241.82 21.8469 242.537 21.8585 243.226 21.9046C243.577 21.9284 243.951 21.797 244.349 21.5927C245.346 21.0821 246.319 20.5159 247.311 19.9866C249.211 18.972 251.098 17.9257 252.99 16.8913C253.191 16.7813 253.386 16.6668 253.578 16.6792C253.715 16.6877 253.869 16.5882 254.011 16.5059C257.143 14.6982 260.281 12.9001 263.402 11.0771C264.348 10.5255 265.296 9.98235 266.24 9.43265C266.515 9.27249 266.79 9.10678 267.051 8.93206C267.479 8.64589 267.661 8.34459 267.577 8.09894C267.572 8.08449 267.566 8.07133 267.559 8.05826C267.482 7.92346 267.406 7.78867 267.33 7.65387L267.327 7.65526Z" fill="#FC653C"/>
</svg>
