<svg width="75" height="78" viewBox="0 0 75 78" fill="none" xmlns="http://www.w3.org/2000/svg">
<path d="M41.476 6.56227C41.9576 5.99895 42.8681 6.14982 43.1572 6.84085L44.4167 9.8517C44.6678 10.4518 45.4096 10.6648 45.9296 10.286L48.5099 8.40652C49.1077 7.97109 49.9606 8.32493 50.0867 9.06066L50.6446 12.316C50.7539 12.9535 51.426 13.3291 52.0186 13.0838L54.9533 11.8689C55.6341 11.5871 56.3817 12.1229 56.3403 12.8629L56.1537 16.1971C56.1179 16.837 56.683 17.3521 57.3137 17.2546L60.4609 16.7684C61.1857 16.6565 61.7875 17.3428 61.5831 18.0481L60.6461 21.2807C60.4696 21.8894 60.8981 22.5133 61.5303 22.5682L64.7336 22.8468C65.4608 22.91 65.886 23.7078 65.5307 24.3425L63.882 27.288C63.5757 27.8352 63.8471 28.5326 64.445 28.7347L67.5357 29.7792C68.2247 30.0121 68.453 30.8778 67.9657 31.41L65.6918 33.8935C65.2716 34.3524 65.3745 35.0861 65.9061 35.4215L68.7103 37.1907C69.3243 37.5781 69.3457 38.4663 68.7508 38.869L65.9827 40.7425C65.4691 41.0902 65.4001 41.8231 65.8388 42.2718L68.1905 44.6769C68.6982 45.1962 68.5126 46.0615 67.8396 46.313L64.7418 47.4705C64.1597 47.688 63.9227 48.3839 64.2476 48.9214L66.0044 51.828C66.381 52.4512 65.9976 53.2495 65.2808 53.3346L62.0354 53.7198C61.414 53.7936 61.0197 54.4173 61.2156 55.0165L62.2739 58.2542C62.5011 58.9493 61.9381 59.6389 61.2157 59.5504L58.0056 59.1573C57.3781 59.0805 56.8445 59.599 56.9014 60.2302L57.206 63.6081C57.272 64.34 56.5572 64.8833 55.8695 64.6238L52.8642 63.49C52.266 63.2643 51.6192 63.648 51.5329 64.2797L51.0787 67.6044C50.9788 68.3358 50.149 68.7013 49.5356 68.2841L46.8844 66.4809C46.3504 66.1177 45.6241 66.343 45.3968 66.9422L44.2244 70.0332C43.9617 70.7256 43.0617 70.8911 42.558 70.3396L40.3873 67.9634C39.9489 67.4835 39.1833 67.5352 38.8247 68.069L37.0103 70.7692C36.5968 71.3845 35.6768 71.3392 35.3109 70.6854L33.7259 67.8529C33.4079 67.2846 32.647 67.1586 32.1747 67.5958L29.8203 69.7756C29.2769 70.2787 28.3889 70.0245 28.1802 69.306L27.2641 66.1534C27.083 65.5302 26.3709 65.2336 25.8106 65.548L23.0363 67.1048C22.3924 67.4661 21.5866 67.018 21.5443 66.2751L21.3553 62.9585C21.3187 62.3155 20.6959 61.8667 20.0797 62.0393L17.0201 62.8962C16.3122 63.0945 15.633 62.4789 15.757 61.7515L16.3207 58.445C16.4278 57.8167 15.9279 57.243 15.2918 57.2642L12.0962 57.3705C11.365 57.3948 10.8482 56.6475 11.1301 55.9733L12.4307 52.8614C12.6738 52.2798 12.3219 51.6146 11.7025 51.4848L8.53393 50.8209C7.82089 50.6715 7.4923 49.8342 7.9163 49.247L9.89137 46.512C10.2569 46.0058 10.0688 45.2856 9.50038 45.0147L6.53135 43.5997C5.87554 43.2872 5.75011 42.4046 6.29464 41.934L8.83441 39.7394C9.30414 39.3335 9.28719 38.5955 8.79907 38.2007L6.2015 36.0994C5.63711 35.6429 5.71977 34.7606 6.35779 34.4311L9.31277 32.9053C9.86402 32.6207 10.0179 31.9018 9.63386 31.4054L7.56398 28.7302C7.11907 28.1552 7.40529 27.318 8.10481 27.1483L11.2995 26.3731C11.9052 26.2261 12.2227 25.5621 11.9607 24.9901L10.5431 21.895C10.2393 21.2317 10.7153 20.4827 11.4399 20.4841L14.69 20.4902C15.3187 20.4913 15.7854 19.9163 15.6581 19.2972L14.973 15.965C14.8253 15.247 15.4683 14.6262 16.1784 14.8011L19.3061 15.5716C19.9234 15.7237 20.5174 15.2692 20.5319 14.6337L20.6091 11.2587C20.626 10.5223 21.4034 10.0645 22.0587 10.4051L24.9042 11.8843C25.4745 12.1808 26.1658 11.8738 26.3233 11.2541L27.1441 8.02505C27.3263 7.30833 28.1972 7.04071 28.7598 7.52856L31.1852 9.63167C31.675 10.0563 32.4263 9.91659 32.721 9.34599L34.2257 6.43247C34.5658 5.77398 35.4823 5.71334 35.9201 6.32037L37.8098 8.94055C38.1906 9.46854 38.9594 9.50589 39.3776 9.01671L41.476 6.56227Z" fill="#FC653C"/>
<path d="M18.2817 29.4102V31.5252H22.5117V36.9102H24.7167V29.4102H18.2817ZM26.7448 37.0452H27.5998C29.7148 37.0452 30.8248 35.7852 30.8098 34.1052L30.7798 31.5402H34.1398V36.9102H36.3298V29.4102H26.9848V31.5402H28.6198V33.6852C28.6198 34.7502 28.1848 34.9152 26.7448 34.9302V37.0452ZM47.5727 29.4102H44.9027L43.0877 31.8552L41.0327 29.4102H38.6777V36.9102H40.7927V32.4852L44.4677 36.9102H47.3027L44.5277 33.5802L47.5727 29.4102ZM54.7685 29.4102H51.6635V27.7152H49.4585V31.5252H54.1235C54.5735 31.5252 54.5435 31.5702 54.5435 31.9752V36.9402H56.7485V31.3752C56.7485 30.0402 56.1935 29.4102 54.7685 29.4102ZM19.2323 46.7902H21.5423V42.4102H19.2323V46.7902ZM23.7896 49.9102H31.7096V47.7802H30.7646V42.4102H23.8646V44.5402H28.5446V47.7802H23.7896V49.9102ZM33.7536 49.9102H36.0036V42.4102H33.7536V49.9102ZM43.5466 42.4102H40.4416V40.7152H38.2366V44.5252H42.9016C43.3516 44.5252 43.3216 44.5702 43.3216 44.9752V49.9402H45.5266V44.3752C45.5266 43.0402 44.9716 42.4102 43.5466 42.4102ZM53.4765 49.9102H55.6815V42.4102H47.8665V44.5402H53.4765V49.9102ZM47.9415 49.9102H50.1615V45.8452H47.9415V49.9102Z" fill="white"/>
<path d="M41.476 6.56227C41.9576 5.99895 42.8681 6.14982 43.1572 6.84085L44.4167 9.8517C44.6678 10.4518 45.4096 10.6648 45.9296 10.286L48.5099 8.40652C49.1077 7.97109 49.9606 8.32493 50.0867 9.06066L50.6446 12.316C50.7539 12.9535 51.426 13.3291 52.0186 13.0838L54.9533 11.8689C55.6341 11.5871 56.3817 12.1229 56.3403 12.8629L56.1537 16.1971C56.1179 16.837 56.683 17.3521 57.3137 17.2546L60.4609 16.7684C61.1857 16.6565 61.7875 17.3428 61.5831 18.0481L60.6461 21.2807C60.4696 21.8894 60.8981 22.5133 61.5303 22.5682L64.7336 22.8468C65.4608 22.91 65.886 23.7078 65.5307 24.3425L63.882 27.288C63.5757 27.8352 63.8471 28.5326 64.445 28.7347L67.5357 29.7792C68.2247 30.0121 68.453 30.8778 67.9657 31.41L65.6918 33.8935C65.2716 34.3524 65.3745 35.0861 65.9061 35.4215L68.7103 37.1907C69.3243 37.5781 69.3457 38.4663 68.7508 38.869L65.9827 40.7425C65.4691 41.0902 65.4001 41.8231 65.8388 42.2718L68.1905 44.6769C68.6982 45.1962 68.5126 46.0615 67.8396 46.313L64.7418 47.4705C64.1597 47.688 63.9227 48.3839 64.2476 48.9214L66.0044 51.828C66.381 52.4512 65.9976 53.2495 65.2808 53.3346L62.0354 53.7198C61.414 53.7936 61.0197 54.4173 61.2156 55.0165L62.2739 58.2542C62.5011 58.9493 61.9381 59.6389 61.2157 59.5504L58.0056 59.1573C57.3781 59.0805 56.8445 59.599 56.9014 60.2302L57.206 63.6081C57.272 64.34 56.5572 64.8833 55.8695 64.6238L52.8642 63.49C52.266 63.2643 51.6192 63.648 51.5329 64.2797L51.0787 67.6044C50.9788 68.3358 50.149 68.7013 49.5356 68.2841L46.8844 66.4809C46.3504 66.1177 45.6241 66.343 45.3968 66.9422L44.2244 70.0332C43.9617 70.7256 43.0617 70.8911 42.558 70.3396L40.3873 67.9634C39.9489 67.4835 39.1833 67.5352 38.8247 68.069L37.0103 70.7692C36.5968 71.3845 35.6768 71.3392 35.3109 70.6854L33.7259 67.8529C33.4079 67.2846 32.647 67.1586 32.1747 67.5958L29.8203 69.7756C29.2769 70.2787 28.3889 70.0245 28.1802 69.306L27.2641 66.1534C27.083 65.5302 26.3709 65.2336 25.8106 65.548L23.0363 67.1048C22.3924 67.4661 21.5866 67.018 21.5443 66.2751L21.3553 62.9585C21.3187 62.3155 20.6959 61.8667 20.0797 62.0393L17.0201 62.8962C16.3122 63.0945 15.633 62.4789 15.757 61.7515L16.3207 58.445C16.4278 57.8167 15.9279 57.243 15.2918 57.2642L12.0962 57.3705C11.365 57.3948 10.8482 56.6475 11.1301 55.9733L12.4307 52.8614C12.6738 52.2798 12.3219 51.6146 11.7025 51.4848L8.53393 50.8209C7.82089 50.6715 7.4923 49.8342 7.9163 49.247L9.89137 46.512C10.2569 46.0058 10.0688 45.2856 9.50038 45.0147L6.53135 43.5997C5.87554 43.2872 5.75011 42.4046 6.29464 41.934L8.83441 39.7394C9.30414 39.3335 9.28719 38.5955 8.79907 38.2007L6.2015 36.0994C5.63711 35.6429 5.71977 34.7606 6.35779 34.4311L9.31277 32.9053C9.86402 32.6207 10.0179 31.9018 9.63386 31.4054L7.56398 28.7302C7.11907 28.1552 7.40529 27.318 8.10481 27.1483L11.2995 26.3731C11.9052 26.2261 12.2227 25.5621 11.9607 24.9901L10.5431 21.895C10.2393 21.2317 10.7153 20.4827 11.4399 20.4841L14.69 20.4902C15.3187 20.4913 15.7854 19.9163 15.6581 19.2972L14.973 15.965C14.8253 15.247 15.4683 14.6262 16.1784 14.8011L19.3061 15.5716C19.9234 15.7237 20.5174 15.2692 20.5319 14.6337L20.6091 11.2587C20.626 10.5223 21.4034 10.0645 22.0587 10.4051L24.9042 11.8843C25.4745 12.1808 26.1658 11.8738 26.3233 11.2541L27.1441 8.02505C27.3263 7.30833 28.1972 7.04071 28.7598 7.52856L31.1852 9.63167C31.675 10.0563 32.4263 9.91659 32.721 9.34599L34.2257 6.43247C34.5658 5.77398 35.4823 5.71334 35.9201 6.32037L37.8098 8.94055C38.1906 9.46854 38.9594 9.50589 39.3776 9.01671L41.476 6.56227Z" fill="#FC653C"/>
<path d="M18.2817 29.4102V31.5252H22.5117V36.9102H24.7167V29.4102H18.2817ZM26.7448 37.0452H27.5998C29.7148 37.0452 30.8248 35.7852 30.8098 34.1052L30.7798 31.5402H34.1398V36.9102H36.3298V29.4102H26.9848V31.5402H28.6198V33.6852C28.6198 34.7502 28.1848 34.9152 26.7448 34.9302V37.0452ZM47.5727 29.4102H44.9027L43.0877 31.8552L41.0327 29.4102H38.6777V36.9102H40.7927V32.4852L44.4677 36.9102H47.3027L44.5277 33.5802L47.5727 29.4102ZM54.7685 29.4102H51.6635V27.7152H49.4585V31.5252H54.1235C54.5735 31.5252 54.5435 31.5702 54.5435 31.9752V36.9402H56.7485V31.3752C56.7485 30.0402 56.1935 29.4102 54.7685 29.4102ZM19.2323 46.7902H21.5423V42.4102H19.2323V46.7902ZM23.7896 49.9102H31.7096V47.7802H30.7646V42.4102H23.8646V44.5402H28.5446V47.7802H23.7896V49.9102ZM33.7536 49.9102H36.0036V42.4102H33.7536V49.9102ZM43.5466 42.4102H40.4416V40.7152H38.2366V44.5252H42.9016C43.3516 44.5252 43.3216 44.5702 43.3216 44.9752V49.9402H45.5266V44.3752C45.5266 43.0402 44.9716 42.4102 43.5466 42.4102ZM53.4765 49.9102H55.6815V42.4102H47.8665V44.5402H53.4765V49.9102ZM47.9415 49.9102H50.1615V45.8452H47.9415V49.9102Z" fill="white"/>
</svg>
