<svg width="126" height="76" viewBox="0 0 126 76" fill="none" xmlns="http://www.w3.org/2000/svg">
<rect width="125.003" height="75.0016" fill="#FBFFDA"/>
<g clip-path="url(#clip0_619_1384)">
<path d="M8.14453 67.3194V53.3672H118.516V67.3194H8.14453ZM67.5682 64.3901L74.8112 63.6697C75.2264 61.3928 75.635 59.1506 76.0372 56.9431L74.2449 55.8972C73.9736 56.3182 73.7306 56.7001 73.4616 57.1167L74.1125 57.8306C73.8413 59.2931 73.5787 60.697 73.3097 62.1551L69.0893 62.5761C68.9765 61.8101 68.8723 61.1678 68.7725 60.4171L70.1265 60.7642L72.0967 57.5745L70.6212 56.6914L68.6792 59.6836C68.5208 58.6486 68.3971 57.8523 68.2604 56.9757L66.4182 55.8669L65.5958 57.2035L66.6395 57.9825C66.9368 60.0525 67.2406 62.1443 67.5682 64.3879V64.3901ZM44.7044 58.0432L42.7516 55.8842L41.6666 56.9041C41.8684 57.2642 42.0355 57.5659 42.2243 57.9065L41.0938 58.9632L38.1189 55.8365L36.9798 57.0841C38.5095 58.7549 39.9937 60.3802 41.5668 62.1009L37.1099 62.4914C37.1425 63.0339 37.1707 63.5178 37.2054 64.0733L43.8148 63.6393V62.0293L42.3068 60.2717L44.7044 58.0432ZM85.8037 56.3724C85.6844 56.9127 85.5867 57.3467 85.4587 57.9239H89.7485V62.3157L85.4305 62.6715C85.4804 63.2487 85.5238 63.7239 85.5715 64.2707L92.6626 63.7651C92.604 63.0947 92.5671 62.6802 92.5324 62.2853L91.4866 62.0184V56.3768L85.8037 56.3724ZM25.2929 64.2685L32.4252 63.7716C32.3688 63.1012 32.3341 62.6867 32.3037 62.2875L31.2622 62.0227V56.4093H25.5707C25.4578 56.9149 25.3537 57.3467 25.2322 57.9282H29.5155V62.3287L25.2213 62.6694C25.2473 63.2097 25.2669 63.6632 25.2929 64.2685ZM60.6746 63.214L61.2756 64.6895L64.1941 63.8064V56.4701H59.5419C59.5029 55.6868 59.4725 55.0575 59.4421 54.4326H57.8039V58.1105H62.4647V62.5804L60.6746 63.214ZM97.918 54.4348V58.104H102.548V62.5652L100.813 63.2162C100.98 63.6979 101.138 64.147 101.327 64.6917L104.271 63.802V56.5005H99.6344C99.5953 55.7475 99.5628 55.1161 99.5259 54.4348H97.918ZM52.5159 56.4028H46.3036V57.9391H50.8603V64.3293L52.5224 63.8953L52.5159 56.4028ZM111.256 57.8848V64.3163L112.912 63.9127V56.418H106.732V57.8848H111.256ZM19.5341 63.8476V56.3703H14.4588C14.3568 56.8411 14.2635 57.2838 14.129 57.9022H17.8611V64.1948L19.5341 63.8476ZM96.3058 56.9691L94.4224 55.8842L93.6824 57.2339L94.6198 57.9781V64.2208L96.3058 63.8476V56.9691ZM23.6981 63.8736V56.9691L21.8428 55.869L21.1116 57.223L22.0186 57.9608V64.1861L23.6981 63.8736ZM34.1785 58.0649V60.8684L35.7668 60.4127V57.0299L33.8552 55.9645L33.1391 57.2859L34.1785 58.0649ZM82.243 58.0128V60.8901L83.8964 60.404V57.0494L81.9913 55.9645L81.2318 57.2968L82.243 58.0128ZM108.351 63.8997V60.2803H106.762V64.2946L108.351 63.8997ZM47.8551 63.9322V60.2435H46.3362V64.2816L47.8551 63.9322Z" fill="#FC653C"/>
<path d="M103.668 36.7955H94.9453L102.347 25.0067L95.9283 24.4577C97.1868 19.3195 98.4214 14.2855 99.7082 9.03223L107.548 9.78734C106.743 13.0725 105.962 16.247 105.141 19.5821L114.157 20.7625C110.601 26.1915 107.131 31.4989 103.668 36.7955Z" fill="#FC653C"/>
<path d="M62.5848 24.5249C63.034 22.5721 63.4528 20.7646 63.8694 18.9159L80.1086 18.5166C79.4403 22.2922 78.785 26.0026 78.1015 29.865H81.2738C81.072 32.1086 80.8811 34.2047 80.6793 36.4223L60.7578 36.0317C61.2048 33.9747 61.6258 32.0934 62.0402 30.1427H70.5439C70.7977 28.2701 71.0429 26.4691 71.3077 24.5249H62.5848Z" fill="#FC653C"/>
<path d="M26.1097 7.26653L23.2065 9.92895C20.8327 9.30837 18.3894 9.04582 15.9071 9.54054C11.4111 10.4367 8.09559 14.4987 7.86776 19.1422C7.63341 23.9571 10.3501 27.0274 13.9694 28.6396C17.0441 30.0088 20.2902 30.4927 23.8683 30.6207L21.4619 33.4979C15.7074 34.099 8.72485 31.812 5.88885 26.3982C4.55626 23.8133 4.04221 20.8839 4.41509 17.9997C4.78797 15.1156 6.03009 12.4133 7.97625 10.2523C12.2183 5.53716 18.8581 4.42185 26.1097 7.26653Z" fill="#FC653C"/>
<path d="M82.457 36.358C83.5702 30.354 84.6616 24.4737 85.7596 18.5479H95.0422L90.4443 36.358H82.457Z" fill="#FC653C"/>
<path d="M19.6217 45.1047H14.2578C16.8616 41.8282 19.3635 38.6754 21.887 35.5443C23.4689 33.5915 25.1635 31.7102 26.6868 29.7053C30.9744 24.0636 31.4344 20.2273 28.6396 13.6678L31.3932 11.8408C32.8006 13.5831 33.6686 15.6985 33.8907 17.9273C34.5416 23.6058 32.1548 28.3057 28.9629 32.6823C26.0184 36.7247 22.922 40.6565 19.8973 44.6404C19.7949 44.7887 19.7029 44.9439 19.6217 45.1047Z" fill="#FC653C"/>
<path d="M59.7617 27.0125H52.625C53.5038 23.3107 54.3609 19.7066 55.2288 16.0547H62.2939C61.4368 19.7434 60.6014 23.3758 59.7617 27.0125Z" fill="#FC653C"/>
<path d="M86.1484 16.545C86.5607 14.1213 86.9318 11.9319 87.3202 9.65137H97.6487C97.1301 11.7757 96.618 13.8804 96.082 16.0785L86.1484 16.545Z" fill="#FC653C"/>
<path d="M30.5156 33.1329L32.5379 29.915L40.0087 30.6875L36.9709 34.2613L30.5156 33.1329Z" fill="#FC653C"/>
<path d="M47.4355 11.4328C45.616 9.27912 43.2384 7.6682 40.5637 6.77674C37.8889 5.88528 35.0203 5.74774 32.2725 6.37919C25.8194 7.83299 19.8696 13.7741 20.9524 22.1128C21.3191 24.9336 22.7859 27.2597 24.8581 29.3688L27.1994 26.765L26.5094 25.8471C23.7645 22.2387 23.5692 18.1659 26.1709 14.5639C28.7075 11.0422 32.2747 9.48642 36.6036 9.52331C39.982 9.54935 42.7421 11.0053 44.4563 13.3488L44.4823 13.3336L44.3977 13.2663C49.7269 19.6609 43.2368 28.4792 43.2368 28.4792L30.4347 45.0526H35.5903C35.5903 45.0526 45.181 34.5201 48.9284 25.8819C52.6757 17.2437 47.4355 11.4328 47.4355 11.4328Z" fill="#FC653C"/>
</g>
<defs>
<clipPath id="clip0_619_1384">
<rect width="114.226" height="61.6022" fill="white" transform="translate(4.28906 5.71484)"/>
</clipPath>
</defs>
</svg>
