<svg width="71" height="73" viewBox="0 0 71 73" fill="none" xmlns="http://www.w3.org/2000/svg">
<path d="M34.1612 3.83818C34.5442 3.20371 35.4671 3.20371 35.8653 3.83818L37.6001 6.60263C37.9458 7.15359 38.7125 7.24243 39.1636 6.78379L41.4019 4.50777C41.9205 3.98047 42.8198 4.19012 43.0645 4.89535L44.147 8.01566C44.359 8.62676 45.0835 8.88745 45.6281 8.54855L48.3247 6.87022C48.9502 6.48091 49.7753 6.8873 49.8555 7.62416L50.2165 10.944C50.2857 11.5811 50.9274 11.9969 51.5338 11.7977L54.5591 10.8035C55.2558 10.5746 55.9617 11.1533 55.8754 11.8826L55.4794 15.2248C55.4049 15.8542 55.9295 16.3996 56.5622 16.3505L59.7679 16.1017C60.4957 16.0452 61.0456 16.7627 60.7989 17.4469L59.6538 20.6223C59.4411 21.2123 59.8229 21.8559 60.4458 21.9575L63.6656 22.4828C64.3835 22.5999 64.7502 23.4166 64.3564 24.0213L62.5191 26.8431C62.1796 27.3645 62.401 28.0716 62.9803 28.3155L66.036 29.6026C66.7051 29.8844 66.8714 30.7571 66.3503 31.2516L63.9257 33.5525C63.4759 33.9794 63.5277 34.7138 64.0338 35.0847L66.747 37.073C67.3328 37.5023 67.2911 38.3863 66.6682 38.7444L63.8014 40.3928C63.2626 40.7025 63.1426 41.4278 63.551 41.905L65.7593 44.4853C66.2328 45.0385 65.985 45.8888 65.2917 46.0899L62.153 47.0005C61.552 47.1748 61.265 47.8546 61.5561 48.4137L63.1295 51.4349C63.4673 52.0834 63.0246 52.8558 62.2975 52.8866L59.0662 53.0236C58.4346 53.0504 57.993 53.6491 58.1523 54.2626L59.005 57.5452C59.1897 58.2565 58.5733 58.9093 57.8525 58.7657L54.7023 58.1384C54.0752 58.0136 53.4999 58.4978 53.518 59.1352L53.6134 62.4894C53.6344 63.2273 52.8756 63.7235 52.2022 63.4122L49.2918 62.0666C48.7056 61.7956 48.026 62.1366 47.8997 62.765L47.2483 66.006C47.1024 66.732 46.2416 67.0424 45.6544 66.5807L43.1245 64.5913C42.6136 64.1895 41.8668 64.3657 41.6002 64.951L40.2516 67.9114C39.9443 68.5861 39.0292 68.6917 38.5614 68.1065L36.5346 65.5712C36.128 65.0626 35.3568 65.0626 34.9623 65.5712L32.9959 68.1065C32.5421 68.6917 31.6245 68.5861 31.3011 67.9114L29.882 64.951C29.6015 64.3657 28.8505 64.1895 28.3491 64.5913L25.8665 66.5807C25.2904 67.0424 24.4222 66.732 24.259 66.006L23.5304 62.765C23.3892 62.1366 22.7014 61.7956 22.1216 62.0666L19.2433 63.4122C18.5774 63.7235 17.8067 63.2273 17.8101 62.4894L17.8256 59.1352C17.8286 58.4978 17.2417 58.0136 16.6176 58.1384L13.4823 58.7657C12.7649 58.9093 12.133 58.2565 12.3008 57.5452L13.0752 54.2626C13.22 53.6491 12.7641 53.0504 12.1318 53.0236L8.89732 52.8866C8.16944 52.8558 7.70839 52.0834 8.0307 51.4349L9.5321 48.4137C9.80997 47.8546 9.5067 47.1748 8.9016 47.0005L5.7412 46.0899C5.04312 45.8888 4.7751 45.0385 5.23538 44.4853L7.38222 41.905C7.77927 41.4278 7.64192 40.7025 7.09582 40.3928L4.18969 38.7444C3.55826 38.3863 3.49557 37.5023 4.07116 37.073L6.73696 35.0847C7.23426 34.7138 7.26857 33.9794 6.80854 33.5525L4.32918 31.2516C3.79626 30.7571 3.94177 29.8844 4.60413 29.6026L7.62916 28.3155C8.20265 28.0716 8.4073 27.3645 8.05535 26.8431L6.15082 24.0213C5.74266 23.4166 6.08989 22.5999 6.80495 22.4828L10.0123 21.9575C10.6328 21.8559 10.9992 21.2123 10.7724 20.6223L9.55174 17.4469C9.28871 16.7627 9.82151 16.0452 10.5506 16.1017L13.7623 16.3505C14.3962 16.3996 14.9078 15.8542 14.8183 15.2248L14.3427 11.8826C14.239 11.1533 14.9311 10.5746 15.6333 10.8035L18.6823 11.7977C19.2934 11.9969 19.9252 11.5811 19.9793 10.944L20.2612 7.62416C20.3237 6.8873 21.1392 6.48091 21.774 6.87022L24.5106 8.54855C25.0632 8.88744 25.7815 8.62676 25.979 8.01567L26.9872 4.89535C27.215 4.19012 28.1093 3.98047 28.6405 4.50777L30.9331 6.78379C31.395 7.24243 32.1596 7.15359 32.4922 6.60263L34.1612 3.83818Z" fill="#6B53FF"/>
<path d="M19.4756 41.8882H21.6806V32.4082H14.5256V36.6532L16.7306 36.6682V34.5532H19.4756V41.8882ZM24.1394 39.9082H26.3894V32.4082H24.1394V39.9082ZM28.4574 40.0432H29.3124C31.4274 40.0432 32.5374 38.7832 32.5224 37.1032L32.4924 34.5382H35.8524V39.9082H38.0424V32.4082H28.6974V34.5382H30.3324V36.6832C30.3324 37.7482 29.8974 37.9132 28.4574 37.9282V40.0432ZM40.3453 36.7882H42.6553V32.4082H40.3453V36.7882ZM53.1076 32.4082V36.3382C53.1076 37.3582 52.5826 37.7632 51.8176 37.7632H51.1876V32.4082H48.9526V37.7632H47.1226V32.4082H44.9026V39.9082H52.0726C53.8126 39.9082 55.2826 38.6332 55.2826 36.7882V32.4082H53.1076Z" fill="white"/>
<path d="M34.1612 3.83818C34.5442 3.20371 35.4671 3.20371 35.8653 3.83818L37.6001 6.60263C37.9458 7.15359 38.7125 7.24243 39.1636 6.78379L41.4019 4.50777C41.9205 3.98047 42.8198 4.19012 43.0645 4.89535L44.147 8.01566C44.359 8.62676 45.0835 8.88745 45.6281 8.54855L48.3247 6.87022C48.9502 6.48091 49.7753 6.8873 49.8555 7.62416L50.2165 10.944C50.2857 11.5811 50.9274 11.9969 51.5338 11.7977L54.5591 10.8035C55.2558 10.5746 55.9617 11.1533 55.8754 11.8826L55.4794 15.2248C55.4049 15.8542 55.9295 16.3996 56.5622 16.3505L59.7679 16.1017C60.4957 16.0452 61.0456 16.7627 60.7989 17.4469L59.6538 20.6223C59.4411 21.2123 59.8229 21.8559 60.4458 21.9575L63.6656 22.4828C64.3835 22.5999 64.7502 23.4166 64.3564 24.0213L62.5191 26.8431C62.1796 27.3645 62.401 28.0716 62.9803 28.3155L66.036 29.6026C66.7051 29.8844 66.8714 30.7571 66.3503 31.2516L63.9257 33.5525C63.4759 33.9794 63.5277 34.7138 64.0338 35.0847L66.747 37.073C67.3328 37.5023 67.2911 38.3863 66.6682 38.7444L63.8014 40.3928C63.2626 40.7025 63.1426 41.4278 63.551 41.905L65.7593 44.4853C66.2328 45.0385 65.985 45.8888 65.2917 46.0899L62.153 47.0005C61.552 47.1748 61.265 47.8546 61.5561 48.4137L63.1295 51.4349C63.4673 52.0834 63.0246 52.8558 62.2975 52.8866L59.0662 53.0236C58.4346 53.0504 57.993 53.6491 58.1523 54.2626L59.005 57.5452C59.1897 58.2565 58.5733 58.9093 57.8525 58.7657L54.7023 58.1384C54.0752 58.0136 53.4999 58.4978 53.518 59.1352L53.6134 62.4894C53.6344 63.2273 52.8756 63.7235 52.2022 63.4122L49.2918 62.0666C48.7056 61.7956 48.026 62.1366 47.8997 62.765L47.2483 66.006C47.1024 66.732 46.2416 67.0424 45.6544 66.5807L43.1245 64.5913C42.6136 64.1895 41.8668 64.3657 41.6002 64.951L40.2516 67.9114C39.9443 68.5861 39.0292 68.6917 38.5614 68.1065L36.5346 65.5712C36.128 65.0626 35.3568 65.0626 34.9623 65.5712L32.9959 68.1065C32.5421 68.6917 31.6245 68.5861 31.3011 67.9114L29.882 64.951C29.6015 64.3657 28.8505 64.1895 28.3491 64.5913L25.8665 66.5807C25.2904 67.0424 24.4222 66.732 24.259 66.006L23.5304 62.765C23.3892 62.1366 22.7014 61.7956 22.1216 62.0666L19.2433 63.4122C18.5774 63.7235 17.8067 63.2273 17.8101 62.4894L17.8256 59.1352C17.8286 58.4978 17.2417 58.0136 16.6176 58.1384L13.4823 58.7657C12.7649 58.9093 12.133 58.2565 12.3008 57.5452L13.0752 54.2626C13.22 53.6491 12.7641 53.0504 12.1318 53.0236L8.89732 52.8866C8.16944 52.8558 7.70839 52.0834 8.0307 51.4349L9.5321 48.4137C9.80997 47.8546 9.5067 47.1748 8.9016 47.0005L5.7412 46.0899C5.04312 45.8888 4.7751 45.0385 5.23538 44.4853L7.38222 41.905C7.77927 41.4278 7.64192 40.7025 7.09582 40.3928L4.18969 38.7444C3.55826 38.3863 3.49557 37.5023 4.07116 37.073L6.73696 35.0847C7.23426 34.7138 7.26857 33.9794 6.80854 33.5525L4.32918 31.2516C3.79626 30.7571 3.94177 29.8844 4.60413 29.6026L7.62916 28.3155C8.20265 28.0716 8.4073 27.3645 8.05535 26.8431L6.15082 24.0213C5.74266 23.4166 6.08989 22.5999 6.80495 22.4828L10.0123 21.9575C10.6328 21.8559 10.9992 21.2123 10.7724 20.6223L9.55174 17.4469C9.28871 16.7627 9.82151 16.0452 10.5506 16.1017L13.7623 16.3505C14.3962 16.3996 14.9078 15.8542 14.8183 15.2248L14.3427 11.8826C14.239 11.1533 14.9311 10.5746 15.6333 10.8035L18.6823 11.7977C19.2934 11.9969 19.9252 11.5811 19.9793 10.944L20.2612 7.62416C20.3237 6.8873 21.1392 6.48091 21.774 6.87022L24.5106 8.54855C25.0632 8.88744 25.7815 8.62676 25.979 8.01567L26.9872 4.89535C27.215 4.19012 28.1093 3.98047 28.6405 4.50777L30.9331 6.78379C31.395 7.24243 32.1596 7.15359 32.4922 6.60263L34.1612 3.83818Z" fill="#6B53FF"/>
<path d="M19.4756 41.8882H21.6806V32.4082H14.5256V36.6532L16.7306 36.6682V34.5532H19.4756V41.8882ZM24.1394 39.9082H26.3894V32.4082H24.1394V39.9082ZM28.4574 40.0432H29.3124C31.4274 40.0432 32.5374 38.7832 32.5224 37.1032L32.4924 34.5382H35.8524V39.9082H38.0424V32.4082H28.6974V34.5382H30.3324V36.6832C30.3324 37.7482 29.8974 37.9132 28.4574 37.9282V40.0432ZM40.3453 36.7882H42.6553V32.4082H40.3453V36.7882ZM53.1076 32.4082V36.3382C53.1076 37.3582 52.5826 37.7632 51.8176 37.7632H51.1876V32.4082H48.9526V37.7632H47.1226V32.4082H44.9026V39.9082H52.0726C53.8126 39.9082 55.2826 38.6332 55.2826 36.7882V32.4082H53.1076Z" fill="white"/>
</svg>
