<svg width="390" height="118" viewBox="0 0 390 118" fill="none" xmlns="http://www.w3.org/2000/svg">
<path d="M18.7035 47.0088C19.7091 48.4338 20.6971 49.8706 21.64 51.3347C22.2482 52.2796 22.9161 53.1872 23.5514 54.1156C23.9181 54.6503 24.4516 54.6171 25.5843 53.9114C28.9994 51.7821 32.4034 49.6346 35.8153 47.5033C37.2812 46.5878 38.7395 45.636 40.2425 44.8117C41.0296 44.3804 41.8541 44.0172 42.6495 43.5419C43.839 42.8316 45.0464 42.1574 46.2412 41.4559C48.6483 40.0442 51.051 38.6252 53.4563 37.2106C53.9943 36.894 54.5493 36.619 55.0528 36.2356C55.7001 35.7436 55.953 35.1042 55.5288 34.9181C55.4027 34.8631 55.3663 34.7694 55.3386 34.6564C55.2296 34.2205 55.0925 33.8026 54.5756 33.623C54.4555 33.5813 54.4024 33.4738 54.3482 33.378C53.5401 31.9087 52.6555 30.4829 52.0463 28.8975C52.0395 28.8796 52.0228 28.8658 52.0269 28.8454C52.1412 28.2455 51.5058 28.2668 50.8944 28.2666C50.0087 28.2656 49.1115 28.2796 48.2492 28.2494C47.8093 28.2336 47.3481 28.4125 46.8586 28.6836C45.6327 29.3611 44.4402 30.1072 43.2222 30.8078C40.8886 32.1508 38.5726 33.533 36.2497 34.9004C36.0027 35.0458 35.7631 35.1967 35.5236 35.1887C35.3517 35.1835 35.1636 35.314 34.9888 35.4225C31.1475 37.8053 27.2991 40.1764 23.4714 42.5779C22.3124 43.3045 21.1491 44.0208 19.9908 44.7451C19.6541 44.9561 19.3174 45.174 18.9977 45.4027C18.4744 45.7772 18.2593 46.1609 18.3741 46.4644C18.3809 46.4823 18.3887 46.4985 18.3984 46.5145C18.4991 46.6799 18.5998 46.8453 18.7005 47.0107L18.7035 47.0088Z" fill="#6B53FF"/>
<path d="M339.35 51.3676C341.031 51.8341 342.705 52.3208 344.362 52.8572C345.431 53.2035 346.522 53.4833 347.602 53.7998C348.224 53.9815 348.616 53.6181 349.046 52.3548C350.342 48.5445 351.617 44.7271 352.909 40.9173C353.464 39.2805 353.99 37.6206 354.632 36.031C354.968 35.1988 355.377 34.3957 355.691 33.5242C356.163 32.2213 356.67 30.9351 357.151 29.6356C358.121 27.0189 359.082 24.3995 360.049 21.7817C360.265 21.1961 360.52 20.6318 360.667 20.0163C360.857 19.2256 360.648 18.5706 360.202 18.695C360.069 18.7323 359.982 18.6829 359.889 18.6129C359.528 18.3444 359.158 18.1077 358.644 18.296C358.525 18.3397 358.415 18.2901 358.313 18.2503C356.757 17.6245 355.17 17.0809 353.694 16.2393C353.678 16.2297 353.656 16.2296 353.646 16.2112C353.355 15.6744 352.877 16.0932 352.403 16.4802C351.717 17.0401 351.031 17.6189 350.345 18.1415C349.994 18.4077 349.751 18.8382 349.543 19.3579C349.023 20.6585 348.572 21.9909 348.073 23.3044C347.117 25.8214 346.199 28.3575 345.267 30.8865C345.168 31.1555 345.078 31.4239 344.887 31.5693C344.751 31.6742 344.688 31.8943 344.621 32.0889C343.156 36.3652 341.678 40.637 340.236 44.9193C339.798 46.2155 339.351 47.5063 338.913 48.8003C338.786 49.1768 338.664 49.5586 338.561 49.9381C338.393 50.5593 338.469 50.9924 338.75 51.1547C338.767 51.1643 338.783 51.1719 338.801 51.1781C338.984 51.2424 339.166 51.3067 339.349 51.3709L339.35 51.3676Z" fill="#6B53FF"/>
<path d="M16.2202 88.2582C17.7675 89.063 19.3046 89.8862 20.8142 90.7544C21.7882 91.3148 22.7981 91.8148 23.7886 92.3482C24.3598 92.655 24.8185 92.3807 25.5011 91.234C27.5585 87.775 29.5976 84.305 31.6511 80.8457C32.5335 79.3596 33.3924 77.8448 34.3496 76.4227C34.8511 75.6783 35.417 74.9773 35.9056 74.19C36.6366 73.0131 37.4 71.86 38.1397 70.6884C39.6306 68.3296 41.1143 65.9664 42.6024 63.6058C42.9351 63.0777 43.3021 62.5786 43.5734 62.0069C43.9228 61.2728 43.8542 60.5887 43.3919 60.6179C43.2546 60.6269 43.1792 60.5604 43.1028 60.4727C42.8059 60.1353 42.4924 59.827 41.9507 59.9046C41.8248 59.9226 41.7283 59.8515 41.6362 59.7912C40.2439 58.8566 38.8038 57.9957 37.535 56.8665C37.5208 56.8538 37.4996 56.8491 37.4939 56.8291C37.3202 56.2436 36.7654 56.5542 36.222 56.8346C35.4346 57.2401 34.6439 57.6642 33.8639 58.033C33.4658 58.2208 33.1381 58.5914 32.8276 59.0569C32.0492 60.2214 31.332 61.4314 30.5713 62.6129C29.1141 64.877 27.6906 67.1678 26.2541 69.4486C26.1013 69.6911 25.9577 69.9351 25.7413 70.0379C25.5861 70.1122 25.4789 70.3145 25.3733 70.491C23.0537 74.3707 20.7224 78.2434 18.4233 82.1336C17.727 83.311 17.0221 84.4812 16.3252 85.6562C16.1228 85.9982 15.9238 86.3463 15.7445 86.6962C15.4515 87.2691 15.4364 87.7087 15.6777 87.9257C15.6919 87.9385 15.7063 87.9493 15.7223 87.959C15.8877 88.0598 16.053 88.1605 16.2184 88.2613L16.2202 88.2582Z" fill="#FC653C"/>
<path d="M235.85 83.5325C235.973 81.7928 236.117 80.0551 236.313 78.3247C236.44 77.2081 236.497 76.0827 236.592 74.9618C236.647 74.3157 236.212 74.0039 234.889 73.8337C230.897 73.3219 226.902 72.8312 222.911 72.323C221.197 72.1045 219.466 71.919 217.78 71.6064C216.898 71.4424 216.029 71.202 215.113 71.0668C213.742 70.8642 212.381 70.6225 211.011 70.4098C208.254 69.98 205.496 69.5587 202.738 69.1323C202.121 69.0371 201.517 68.8989 200.885 68.8773C200.072 68.8488 199.472 69.1839 199.683 69.5964C199.746 69.7188 199.715 69.8144 199.664 69.9194C199.473 70.3259 199.315 70.7363 199.601 71.2024C199.668 71.3107 199.641 71.4275 199.623 71.536C199.319 73.1852 199.102 74.8489 198.57 76.4621C198.564 76.4802 198.568 76.5015 198.552 76.5148C198.084 76.907 198.59 77.2925 199.063 77.6795C199.749 78.2406 200.452 78.7974 201.101 79.3664C201.431 79.6569 201.902 79.8102 202.452 79.91C203.83 80.1609 205.226 80.3377 206.612 80.5657C209.269 81.0022 211.937 81.3971 214.601 81.8079C214.885 81.8516 215.166 81.8863 215.346 82.044C215.476 82.1568 215.704 82.1747 215.908 82.2014C220.39 82.7865 224.871 83.3852 229.354 83.9472C230.712 84.1178 232.066 84.2991 233.421 84.4711C233.815 84.5208 234.214 84.565 234.606 84.5902C235.248 84.6312 235.658 84.4703 235.761 84.1625C235.767 84.1444 235.771 84.1269 235.774 84.1083C235.8 83.9165 235.827 83.7248 235.853 83.533L235.85 83.5325Z" fill="#232323"/>
<rect width="390" height="118" fill="#FDFFEE"/>
<path d="M144.816 49.1H148.366C148.366 48.4 148.416 47.825 149.616 47.075C151.066 46.15 152.066 44.95 152.066 43.275V43.05C152.066 40.25 149.691 38.55 146.766 38.55C143.891 38.55 141.491 40.4 141.491 43.5H144.941C144.966 42.775 145.616 41.85 146.791 41.85C147.966 41.85 148.591 42.4 148.591 43.175C148.591 44.05 147.916 44.45 147.141 44.95C145.616 46 144.816 47.275 144.816 49.1ZM144.766 54H148.591V50.225H144.766V54ZM167.554 41.5H155.679V45.05H162.004V54H165.679V45.05H167.554V41.5ZM171.214 54H174.964V41.5H171.214V54ZM178.536 54H187.836C190.861 54 193.161 52.15 193.161 49V41.5H189.536V48.075C189.536 49.95 188.711 50.425 187.286 50.425H184.361V41.5H180.736V50.425H178.536V54ZM203.031 54H212.331C215.356 54 217.656 52.15 217.656 49V41.5H214.031V48.075C214.031 49.95 213.206 50.425 211.781 50.425H208.856V41.5H205.231V50.425H203.031V54ZM221.303 54H225.053V41.5H221.303V54ZM230.7 54H234.375V45.05H239.425C240.8 45.05 241.275 45.4 241.275 46.95V50.4H236.775V54H244.925V46.175C244.925 43.225 243 41.5 239.9 41.5H228.7V45.05H230.7V54ZM262.377 41.5V48.05C262.377 49.75 261.502 50.425 260.227 50.425H259.177V41.5H255.452V50.425H252.402V41.5H248.702V54H260.652C263.552 54 266.002 51.875 266.002 48.8V41.5H262.377ZM278.697 41.5H273.522V38.675H269.847V45.025H277.622C278.372 45.025 278.322 45.1 278.322 45.775V54.05H281.997V44.775C281.997 42.55 281.072 41.5 278.697 41.5ZM293.92 54L308.07 53.975V46.2C308.07 43.25 306.22 41.5 303.17 41.5H292.22V45.05H293.92V54ZM297.62 50.4V45.05H302.67C303.995 45.05 304.37 45.5 304.37 46.925V50.4H297.62ZM311.829 48.8H315.679V41.5H311.829V48.8ZM333.75 41.525L329.5 41.5L326.775 45.05L323.7 41.5H319.325L327.2 50.525H319.725V54H331.55V50.525L329.1 47.7L333.75 41.525ZM337.032 54H340.782V41.5H337.032V54ZM344.654 41.5V45.025H351.704V54H355.379V41.5H344.654ZM221.254 76H225.004V63.5H221.254V76ZM243.126 63.525L238.876 63.5L236.151 67.05L233.076 63.5H228.701L236.576 72.525H229.101V76H240.926V72.525L238.476 69.7L243.126 63.525ZM246.508 76H250.158V67.05H256.208V76H259.858V63.5H246.508V76ZM272.471 63.5H267.296V60.675H263.621V67.025H271.396C272.146 67.025 272.096 67.1 272.096 67.775V76.05H275.771V66.775C275.771 64.55 274.846 63.5 272.471 63.5Z" fill="#232323"/>
<path d="M131.152 84.3926L131.951 73.2344L141.575 76.4812" stroke="#232323" stroke-width="5" stroke-linecap="round" stroke-linejoin="round"/>
<path d="M132.603 74.6605C148.429 98.7236 167.98 79.0838 171.197 72.7688" stroke="#232323" stroke-width="5" stroke-linecap="round" stroke-linejoin="round"/>
</svg>
