<svg width="143" height="49" viewBox="0 0 143 49" fill="none" xmlns="http://www.w3.org/2000/svg">
<path fill-rule="evenodd" clip-rule="evenodd" d="M142.568 8.60632C143.13 7.96811 143.098 7.01571 142.496 6.47908L136.673 1.2839C136.353 0.998925 135.919 0.877102 135.485 0.950683C135.051 1.02426 134.66 1.28583 134.417 1.66614L130.117 8.39442C129.659 9.11056 129.843 10.0374 130.527 10.4645C131.21 10.8916 132.136 10.6573 132.594 9.94112L134.806 6.47951C135.807 17.4278 131.938 26.4716 125.156 32.2019C117.806 38.412 106.846 40.8889 94.455 37.4335C93.657 37.2109 92.8298 37.6774 92.6072 38.4754C92.3847 39.2734 92.8512 40.1007 93.6492 40.3232C106.853 44.0053 118.877 41.4351 127.092 34.4934C134.648 28.1092 138.822 18.1611 137.813 6.42704L140.462 8.79025C141.064 9.32688 142.006 9.24453 142.568 8.60632ZM11.9605 15.0082V23.0002H8.74446V15.0562C8.74446 13.5682 8.02446 12.8002 6.68046 12.8002H0.272461V10.1122H7.47246C10.3765 10.1122 11.9605 11.8402 11.9605 15.0082ZM3.48846 16.3522V23.0002H0.272461V16.3522H3.48846ZM18.1346 20.6242C17.9666 21.5122 17.8706 22.1842 17.7746 23.0002H14.4146C14.5586 22.0642 14.7026 21.2002 14.9186 20.3122C15.5906 17.4562 16.4786 16.4002 18.3986 15.7042L14.2706 10.1122H18.0386L21.8546 15.2482C23.3302 14.6579 23.5174 13.488 23.7162 12.246C23.7275 12.1749 23.739 12.1036 23.7506 12.0322C23.7937 11.7415 23.8319 11.446 23.8697 11.1543C23.9161 10.7957 23.9617 10.443 24.0146 10.1122H27.3026C27.2306 10.7122 27.1106 11.4322 26.9666 12.1522C26.3426 15.1522 25.3586 16.3762 23.1266 16.9762L27.5906 23.0002H23.8226L19.7186 17.4802C18.5315 18.1177 18.3512 19.2587 18.1818 20.3312C18.1662 20.4296 18.1508 20.5274 18.1346 20.6242ZM34.1449 10.1122V18.4882H30.9049V12.8002H29.4409V10.1122H34.1449ZM46.6106 15.0082V23.0002H43.3946V15.0562C43.3946 13.5682 42.6986 12.8002 41.3306 12.8002H36.7226V10.1122H42.1466C45.0266 10.1122 46.6106 11.8402 46.6106 15.0082ZM61.8953 12.7282L58.2713 23.0002H54.9113L58.4873 12.8002H49.6313V10.1122H61.8953V12.7282ZM52.9433 16.3522V26.0962H49.7273V16.3522H52.9433ZM74.0805 12.6322L70.1205 23.0002H66.7365L70.6485 12.8002H64.0725V5.81618H67.2405V10.1122H74.0805V12.6322ZM18.9895 43.6802C18.9895 46.6802 17.5735 48.1682 14.7175 48.1682C14.0695 48.1682 13.4695 48.0722 12.9175 47.9042V45.3602C13.3975 45.4562 13.6615 45.4802 13.9735 45.4802C15.2695 45.4802 15.7735 44.8322 15.7735 43.2482V37.8002H12.8935V35.1122H22.8055C25.7095 35.1122 27.2935 36.8402 27.2935 39.9842V48.0002H24.0775V40.0562C24.0775 38.5682 23.3815 37.8002 22.0375 37.8002H18.9895V43.6802ZM42.1028 41.0162C42.1028 45.5762 39.4868 48.0002 34.5668 48.0002H30.6548V45.3362H34.0388C37.4468 45.3362 38.9828 44.3282 38.9828 41.2322C38.9828 38.5202 37.8308 37.4162 35.7188 37.4162C33.8468 37.4162 32.7908 38.2802 32.7908 39.5762C32.7908 40.6802 33.5348 41.2082 34.5188 41.3762V43.9442C32.8868 43.9442 29.7428 43.0802 29.7428 39.6962C29.7428 36.7202 32.1668 34.7282 35.9828 34.7282C39.8948 34.7282 42.1028 36.8402 42.1028 41.0162ZM57.4506 41.4722C57.4506 45.5762 54.8346 48.3362 50.9466 48.3362C47.2026 48.3362 44.7546 45.7682 44.7546 41.8322V35.1122H51.2826C55.0506 35.1122 57.4506 37.5842 57.4506 41.4722ZM47.9706 41.6642C47.9706 44.0882 49.1706 45.6002 51.0666 45.6002C52.9866 45.6002 54.2346 44.0402 54.2346 41.6402C54.2346 39.2882 52.9866 37.8002 51.0186 37.8002H47.9706V41.6642ZM64.2649 35.1122V48.0002H61.0009V37.8002H59.5369V35.1122H64.2649ZM73.4895 43.8962C73.4895 46.5842 72.0255 48.0482 69.4335 48.0482H67.0095V45.3842H68.6895C69.7455 45.3842 70.2735 44.8082 70.2735 43.7282V37.8002H67.3215V35.1122H73.4895V43.8962Z" fill="white"/>
</svg>
