<svg width="369" height="293" viewBox="0 0 369 293" fill="none" xmlns="http://www.w3.org/2000/svg">
<path d="M59.7465 273.536C60.7521 274.961 61.74 276.398 62.683 277.862C63.2912 278.807 63.9591 279.715 64.5944 280.643C64.9611 281.178 65.4946 281.144 66.6272 280.439C70.0424 278.309 73.4464 276.162 76.8583 274.031C78.3242 273.115 79.7825 272.163 81.2854 271.339C82.0726 270.908 82.8971 270.545 83.6925 270.069C84.882 269.359 86.0894 268.685 87.2842 267.983C89.6913 266.572 92.094 265.153 94.4993 263.738C95.0373 263.421 95.5923 263.146 96.0957 262.763C96.743 262.271 96.996 261.632 96.5718 261.445C96.4457 261.39 96.4092 261.297 96.3816 261.184C96.2726 260.748 96.1355 260.33 95.6186 260.15C95.4985 260.109 95.4454 260.001 95.3912 259.905C94.583 258.436 93.6984 257.01 93.0892 255.425C93.0825 255.407 93.0658 255.393 93.0698 255.373C93.1842 254.773 92.5488 254.794 91.9373 254.794C91.0516 254.793 90.1545 254.807 89.2921 254.777C88.8523 254.761 88.3911 254.94 87.9016 255.211C86.6757 255.888 85.4832 256.635 84.2652 257.335C81.9315 258.678 79.6156 260.06 77.2926 261.428C77.0457 261.573 76.8061 261.724 76.5666 261.716C76.3947 261.711 76.2066 261.841 76.0317 261.95C72.1905 264.333 68.3421 266.704 64.5143 269.105C63.3553 269.832 62.1921 270.548 61.0337 271.272C60.697 271.483 60.3604 271.701 60.0406 271.93C59.5174 272.305 59.3022 272.688 59.4171 272.992C59.4238 273.01 59.4316 273.026 59.4414 273.042C59.5421 273.207 59.6428 273.373 59.7435 273.538L59.7465 273.536Z" fill="#6B53FF"/>
<path d="M221.608 115.45C223.255 116.023 224.895 116.615 226.515 117.256C227.559 117.67 228.631 118.018 229.688 118.403C230.298 118.624 230.712 118.286 231.222 117.053C232.757 113.333 234.273 109.604 235.805 105.885C236.463 104.287 237.094 102.663 237.836 101.118C238.224 100.309 238.683 99.5334 239.052 98.6837C239.606 97.4135 240.194 96.1622 240.757 94.896C241.891 92.3464 243.017 89.7934 244.149 87.2425C244.401 86.6718 244.692 86.1249 244.878 85.52C245.118 84.7431 244.951 84.0761 244.498 84.1718C244.363 84.2006 244.279 84.1457 244.191 84.0699C243.848 83.7791 243.493 83.5193 242.969 83.6744C242.847 83.7104 242.741 83.654 242.641 83.6077C241.128 82.8842 239.579 82.2405 238.16 81.3067C238.144 81.2961 238.122 81.2946 238.114 81.2756C237.857 80.7214 237.353 81.1089 236.856 81.4649C236.136 81.98 235.415 82.514 234.696 82.9917C234.329 83.2351 234.059 83.6492 233.819 84.1547C233.217 85.4195 232.682 86.7205 232.1 87.9995C230.986 90.4505 229.908 92.923 228.817 95.3876C228.701 95.6497 228.594 95.9118 228.395 96.0449C228.252 96.1408 228.175 96.3565 228.096 96.5464C226.362 100.721 224.615 104.89 222.902 109.071C222.384 110.337 221.855 111.597 221.336 112.86C221.185 113.228 221.038 113.601 220.911 113.974C220.704 114.583 220.753 115.02 221.023 115.2C221.039 115.21 221.055 115.219 221.072 115.226C221.25 115.302 221.428 115.378 221.607 115.454L221.608 115.45Z" fill="#6B53FF"/>
<path d="M286.35 288.895C288.031 289.361 289.705 289.848 291.362 290.385C292.431 290.731 293.522 291.011 294.602 291.327C295.224 291.509 295.616 291.145 296.046 289.882C297.342 286.072 298.617 282.254 299.909 278.445C300.464 276.808 300.99 275.148 301.632 273.558C301.968 272.726 302.377 271.923 302.691 271.052C303.163 269.749 303.67 268.462 304.151 267.163C305.121 264.546 306.082 261.927 307.049 259.309C307.265 258.723 307.52 258.159 307.667 257.544C307.857 256.753 307.648 256.098 307.202 256.222C307.069 256.26 306.982 256.21 306.889 256.14C306.528 255.872 306.158 255.635 305.644 255.823C305.525 255.867 305.415 255.817 305.313 255.778C303.757 255.152 302.17 254.608 300.694 253.767C300.678 253.757 300.656 253.757 300.646 253.739C300.355 253.202 299.877 253.621 299.403 254.008C298.717 254.567 298.031 255.146 297.345 255.669C296.994 255.935 296.751 256.366 296.543 256.885C296.023 258.186 295.572 259.518 295.073 260.832C294.117 263.349 293.199 265.885 292.267 268.414C292.168 268.683 292.078 268.951 291.887 269.097C291.751 269.202 291.688 269.422 291.621 269.616C290.156 273.893 288.678 278.164 287.236 282.447C286.798 283.743 286.351 285.034 285.913 286.328C285.786 286.704 285.664 287.086 285.561 287.465C285.393 288.087 285.469 288.52 285.75 288.682C285.767 288.692 285.783 288.699 285.801 288.705C285.984 288.77 286.166 288.834 286.349 288.898L286.35 288.895Z" fill="#232323"/>
<path d="M21.5517 217.165C22.3298 215.605 23.1266 214.054 23.9689 212.529C24.5126 211.546 24.9951 210.528 25.5115 209.528C25.8085 208.952 25.5264 208.498 24.3682 207.835C20.8745 205.837 17.3701 203.858 13.8762 201.864C12.3752 201.007 10.8459 200.174 9.40774 199.241C8.65484 198.753 7.94421 198.199 7.14871 197.724C5.95945 197.013 4.7935 196.269 3.60943 195.55C1.22545 194.099 -1.16284 192.656 -3.54854 191.209C-4.08229 190.885 -4.58754 190.527 -5.16378 190.265C-5.9038 189.929 -6.58665 190.009 -6.54951 190.471C-6.53818 190.608 -6.60338 190.684 -6.68978 190.762C-7.02198 191.065 -7.32493 191.384 -7.23806 191.924C-7.21788 192.049 -7.28736 192.147 -7.34603 192.24C-8.25672 193.648 -9.09286 195.103 -10.2001 196.391C-10.2126 196.405 -10.2169 196.426 -10.2368 196.433C-10.8192 196.616 -10.4993 197.166 -10.2096 197.704C-9.79067 198.484 -9.35311 199.268 -8.97097 200.041C-8.77643 200.436 -8.40024 200.758 -7.92952 201.06C-6.75185 201.818 -5.52974 202.515 -4.33544 203.255C-2.04676 204.673 0.268034 206.058 2.57312 207.455C2.81821 207.603 3.06458 207.743 3.17109 207.957C3.24804 208.111 3.45213 208.215 3.63047 208.318C7.5493 210.571 11.4612 212.835 15.3902 215.067C16.5794 215.744 17.7614 216.428 18.9482 217.105C19.2936 217.301 19.6451 217.495 19.998 217.668C20.5758 217.951 21.0156 217.959 21.2285 217.714C21.241 217.699 21.2516 217.685 21.261 217.668C21.3589 217.501 21.4568 217.334 21.5547 217.167L21.5517 217.165Z" fill="#FC653C"/>
<path d="M340.22 242.766C341.768 243.571 343.305 244.394 344.814 245.262C345.788 245.823 346.798 246.323 347.789 246.856C348.36 247.163 348.819 246.888 349.501 245.742C351.558 242.283 353.598 238.813 355.651 235.354C356.533 233.867 357.392 232.353 358.35 230.931C358.851 230.186 359.417 229.485 359.906 228.698C360.637 227.521 361.4 226.368 362.14 225.196C363.631 222.837 365.114 220.474 366.602 218.114C366.935 217.585 367.302 217.086 367.573 216.515C367.923 215.781 367.854 215.096 367.392 215.126C367.255 215.135 367.179 215.068 367.103 214.98C366.806 214.643 366.492 214.335 365.951 214.412C365.825 214.43 365.728 214.359 365.636 214.299C364.244 213.364 362.804 212.503 361.535 211.374C361.521 211.362 361.5 211.357 361.494 211.337C361.32 210.751 360.765 211.062 360.222 211.342C359.435 211.748 358.644 212.172 357.864 212.541C357.466 212.729 357.138 213.099 356.828 213.565C356.049 214.729 355.332 215.939 354.571 217.121C353.114 219.385 351.691 221.676 350.254 223.956C350.101 224.199 349.958 224.443 349.741 224.546C349.586 224.62 349.479 224.822 349.373 224.999C347.054 228.879 344.722 232.751 342.423 236.641C341.727 237.819 341.022 238.989 340.325 240.164C340.123 240.506 339.924 240.854 339.745 241.204C339.451 241.777 339.436 242.216 339.678 242.434C339.692 242.446 339.706 242.457 339.722 242.467C339.888 242.568 340.053 242.668 340.218 242.769L340.22 242.766Z" fill="#FC653C"/>
<path d="M186.604 202.34C188.01 201.308 189.428 200.293 190.874 199.322C191.807 198.696 192.702 198.011 193.618 197.359C194.146 196.982 194.103 196.449 193.376 195.33C191.182 191.956 188.971 188.593 186.776 185.222C185.833 183.773 184.854 182.333 184.001 180.846C183.555 180.067 183.176 179.25 182.686 178.463C181.954 177.288 181.257 176.093 180.533 174.912C179.076 172.532 177.612 170.156 176.152 167.778C175.825 167.246 175.54 166.696 175.147 166.2C174.643 165.562 173.999 165.322 173.821 165.749C173.768 165.876 173.675 165.914 173.563 165.944C173.129 166.061 172.714 166.206 172.544 166.727C172.505 166.847 172.398 166.903 172.303 166.959C170.85 167.794 169.441 168.706 167.867 169.345C167.849 169.352 167.836 169.369 167.815 169.365C167.213 169.262 167.247 169.897 167.258 170.508C167.274 171.394 167.305 172.291 167.291 173.153C167.283 173.593 167.471 174.051 167.751 174.535C168.452 175.748 169.22 176.927 169.944 178.131C171.33 180.439 172.756 182.729 174.167 185.025C174.317 185.269 174.472 185.506 174.469 185.746C174.467 185.918 174.601 186.103 174.713 186.276C177.168 190.072 179.611 193.875 182.084 197.656C182.832 198.801 183.571 199.951 184.317 201.095C184.534 201.428 184.758 201.761 184.993 202.076C185.377 202.592 185.765 202.8 186.066 202.679C186.084 202.672 186.1 202.664 186.116 202.654C186.279 202.55 186.443 202.447 186.606 202.343L186.604 202.34Z" fill="#232323"/>
<path d="M59.7465 273.536C60.7521 274.961 61.74 276.398 62.683 277.862C63.2912 278.807 63.9591 279.715 64.5944 280.643C64.9611 281.178 65.4946 281.144 66.6272 280.439C70.0424 278.309 73.4464 276.162 76.8583 274.031C78.3242 273.115 79.7825 272.163 81.2854 271.339C82.0726 270.908 82.8971 270.545 83.6925 270.069C84.882 269.359 86.0894 268.685 87.2842 267.983C89.6913 266.572 92.094 265.153 94.4993 263.738C95.0373 263.421 95.5923 263.146 96.0957 262.763C96.743 262.271 96.996 261.632 96.5718 261.445C96.4457 261.39 96.4092 261.297 96.3816 261.184C96.2726 260.748 96.1355 260.33 95.6186 260.15C95.4985 260.109 95.4454 260.001 95.3912 259.905C94.583 258.436 93.6984 257.01 93.0892 255.425C93.0825 255.407 93.0658 255.393 93.0698 255.373C93.1842 254.773 92.5488 254.794 91.9373 254.794C91.0516 254.793 90.1545 254.807 89.2921 254.777C88.8523 254.761 88.3911 254.94 87.9016 255.211C86.6757 255.888 85.4832 256.635 84.2652 257.335C81.9315 258.678 79.6156 260.06 77.2926 261.428C77.0457 261.573 76.8061 261.724 76.5666 261.716C76.3947 261.711 76.2066 261.841 76.0317 261.95C72.1905 264.333 68.3421 266.704 64.5143 269.105C63.3553 269.832 62.1921 270.548 61.0337 271.272C60.697 271.483 60.3604 271.701 60.0406 271.93C59.5174 272.305 59.3022 272.688 59.4171 272.992C59.4238 273.01 59.4316 273.026 59.4414 273.042C59.5421 273.207 59.6428 273.373 59.7435 273.538L59.7465 273.536Z" fill="#6B53FF"/>
<path d="M114.228 37.2947C115.586 36.2005 116.957 35.1232 118.358 34.0891C119.263 33.422 120.126 32.6978 121.012 32.0047C121.522 31.6047 121.455 31.0745 120.679 29.9889C118.337 26.7161 115.977 23.4555 113.633 20.1861C112.626 18.7814 111.584 17.3866 110.666 15.939C110.185 15.1809 109.77 14.3812 109.245 13.6176C108.461 12.4757 107.711 11.3136 106.935 10.1658C105.373 7.85337 103.804 5.5458 102.24 3.2353C101.889 2.71855 101.58 2.18213 101.165 1.70409C100.633 1.08939 99.9788 0.87763 99.82 1.31276C99.7731 1.44214 99.6819 1.48446 99.5709 1.51922C99.1428 1.65573 98.7345 1.81911 98.5881 2.3464C98.5541 2.4689 98.4502 2.52872 98.358 2.58893C96.9431 3.48888 95.5765 4.46233 94.033 5.17114C94.0156 5.17902 94.0029 5.19651 93.9822 5.19379C93.3763 5.11784 93.438 5.75058 93.4767 6.36081C93.532 7.24478 93.603 8.13925 93.6277 9.00175C93.6399 9.4417 93.8478 9.89059 94.1494 10.3619C94.9036 11.5422 95.7239 12.6848 96.5006 13.8558C97.9893 16.0994 99.5159 18.3228 101.028 20.554C101.189 20.7913 101.355 21.0207 101.362 21.2603C101.368 21.4322 101.51 21.6116 101.629 21.7792C104.252 25.4611 106.863 29.1509 109.503 32.8183C110.302 33.9287 111.09 35.044 111.887 36.154C112.119 36.4766 112.358 36.7987 112.606 37.1033C113.013 37.6017 113.41 37.792 113.706 37.6581C113.723 37.6502 113.739 37.6414 113.754 37.6306C113.913 37.5196 114.071 37.4086 114.23 37.2976L114.228 37.2947Z" fill="#FC653C"/>
</svg>
