<svg width="143" height="95" viewBox="0 0 143 95" fill="none" xmlns="http://www.w3.org/2000/svg">
<path d="M38.7991 12.864V5.186H34.4871V7.65H35.8291V12.864H38.7991ZM42.8188 17.154C45.4368 17.154 46.7348 15.79 46.7348 13.04V7.65H49.5288C50.7608 7.65 51.3988 8.354 51.3988 9.718V17H54.3468V9.652C54.3468 6.77 52.8948 5.186 50.2328 5.186H41.1468V7.65H43.7868V12.644C43.7868 14.096 43.3248 14.69 42.1368 14.69C41.8508 14.69 41.6088 14.668 41.1688 14.58V16.912C41.6748 17.066 42.2248 17.154 42.8188 17.154ZM58.858 17.044C61.234 17.044 62.576 15.702 62.576 13.238V5.186H56.922V7.65H59.628V13.084C59.628 14.074 59.144 14.602 58.176 14.602H56.636V17.044H58.858ZM75.9069 17V14.536H74.0589V9.674C74.0589 6.792 72.6289 5.186 69.9449 5.186H65.1489V7.65H69.2189C70.5169 7.65 71.1109 8.398 71.1109 9.718V14.536H65.0389V17H75.9069ZM88.6743 17V9.674C88.6743 6.77 87.2223 5.186 84.5603 5.186H77.9603V7.65H83.8343C85.0663 7.65 85.7263 8.354 85.7263 9.718V17H88.6743ZM80.9083 17V10.906H77.9603V17H80.9083ZM55.3017 40V28.186H50.9677V30.65H52.3097V40H55.3017ZM60.7892 40C60.8772 39.252 60.9652 38.636 61.1192 37.822C61.2952 36.766 61.3832 35.578 62.5712 34.94L66.3332 40H69.7872L65.6952 34.478C67.7412 33.928 68.6432 32.806 69.2152 30.056C69.3472 29.396 69.4572 28.736 69.5232 28.186H66.5092C66.4212 28.736 66.3552 29.352 66.2672 29.946C66.0692 31.156 65.9592 32.322 64.5292 32.894L61.0312 28.186H57.5772L61.3612 33.312C59.6012 33.95 58.7872 34.918 58.1712 37.536C57.9732 38.35 57.8412 39.142 57.7092 40H60.7892ZM75.9912 40V28.186H71.6572V30.65H72.9992V40H75.9912ZM89.4206 40V37.536H87.5726V32.674C87.5726 29.792 86.1426 28.186 83.4586 28.186H78.6626V30.65H82.7326C84.0306 30.65 84.6246 31.398 84.6246 32.718V37.536H78.5526V40H89.4206ZM39.0153 63V55.674C39.0153 52.792 37.5413 51.186 34.9013 51.186H27.9053V63H39.0153ZM30.8533 53.65H34.1973C35.4293 53.65 36.0673 54.354 36.0673 55.718V60.536H30.8533V53.65ZM49.3701 63V53.65H51.9221V51.186H40.8341V53.65H46.4221V63H49.3701ZM61.9677 63L65.2897 53.584V51.186H54.0477V53.65H62.1657L58.8877 63H61.9677ZM57.0837 65.838V56.906H54.1357V65.838H57.0837ZM68.8578 63.154C71.4758 63.154 72.7738 61.79 72.7738 59.04V53.65H75.5678C76.7998 53.65 77.4378 54.354 77.4378 55.718V63H80.3858V55.652C80.3858 52.77 78.9338 51.186 76.2718 51.186H67.1858V53.65H69.8258V58.644C69.8258 60.096 69.3638 60.69 68.1758 60.69C67.8898 60.69 67.6478 60.668 67.2078 60.58V62.912C67.7138 63.066 68.2638 63.154 68.8578 63.154ZM84.897 63.044C87.273 63.044 88.615 61.702 88.615 59.238V51.186H82.961V53.65H85.667V59.084C85.667 60.074 85.183 60.602 84.215 60.602H82.675V63.044H84.897Z" fill="white"/>
<path d="M128.256 78.2788L121.054 85.3479L115.085 76.9217" stroke="white" stroke-width="3" stroke-linecap="round" stroke-linejoin="round"/>
<path d="M121.355 83.9579C121.688 52.5074 114.081 46.9916 104.178 47.7351" stroke="white" stroke-width="3" stroke-linecap="round" stroke-linejoin="round"/>
</svg>
