<svg width="36" height="158" viewBox="0 0 36 158" fill="none" xmlns="http://www.w3.org/2000/svg">
<path d="M19.6185 86.3313L19.3614 85.9025L19.6185 86.3313C20.2798 85.9348 21.1341 86.1042 21.594 86.7232L22.0382 87.321C22.5581 88.0207 23.4049 88.3991 24.2729 88.3196L25.0146 88.2516C25.7825 88.1812 26.4786 88.7045 26.6244 89.4617L26.7653 90.1931C26.9301 91.0491 27.5289 91.7574 28.3455 92.0624L29.0432 92.323C29.7656 92.5928 30.1657 93.3663 29.9685 94.1117L29.7781 94.8318C29.5552 95.6745 29.7873 96.5725 30.3907 97.2016L30.9063 97.7391C31.4401 98.2956 31.465 99.1661 30.9639 99.7522L30.4799 100.318C29.9134 100.981 29.733 101.891 30.0037 102.719L30.235 103.427C30.4744 104.16 30.1191 104.955 29.4134 105.266L28.7317 105.566C27.9338 105.917 27.3765 106.659 27.2609 107.523L27.1621 108.261C27.0598 109.025 26.3947 109.587 25.6241 109.561L24.8797 109.535C24.0085 109.506 23.1847 109.932 22.7057 110.66L22.2964 111.282C21.8726 111.927 21.0294 112.145 20.3466 111.786L19.687 111.441C18.915 111.036 17.9878 111.062 17.2402 111.51L16.6015 111.894C15.9402 112.29 15.0859 112.121 14.626 111.502L14.1818 110.904C13.6619 110.204 12.8151 109.826 11.947 109.905L11.2053 109.973C10.4375 110.044 9.74134 109.52 9.59555 108.763L9.45473 108.032C9.28991 107.176 8.69112 106.467 7.8745 106.162L7.17678 105.902C6.45442 105.632 6.05429 104.859 6.25146 104.113L6.44191 103.393C6.66481 102.55 6.43265 101.652 5.82923 101.023L5.31367 100.486L4.95282 100.832L5.31367 100.486C4.7799 99.9293 4.75501 99.0588 5.25609 98.4727L5.74009 97.9066C6.30657 97.244 6.48702 96.3343 6.21632 95.5056L5.98503 94.7977C5.74557 94.0647 6.10084 93.2696 6.8066 92.959L7.48829 92.6589C8.28614 92.3078 8.84346 91.5664 8.95909 90.7024L9.05788 89.9641C9.16016 89.1999 9.82524 88.6376 10.5959 88.664L11.3402 88.6894C12.2114 88.7192 13.0353 88.2931 13.5143 87.5648L13.9236 86.9425C14.3474 86.2983 15.1905 86.0804 15.8734 86.4385L16.533 86.7844C17.305 87.1892 18.2322 87.1627 18.9798 86.7144L19.6185 86.3313Z" fill="#FC653C" stroke="#FC653C"/>
<path d="M19.6224 127.331L19.3653 126.903L19.6224 127.331C20.2837 126.935 21.138 127.104 21.5979 127.723L22.0421 128.321C22.562 129.021 23.4088 129.399 24.2769 129.32L25.0185 129.252C25.7864 129.181 26.4825 129.705 26.6283 130.462L26.7692 131.193C26.934 132.049 27.5328 132.757 28.3494 133.062L29.0471 133.323C29.7695 133.593 30.1696 134.366 29.9724 135.112L29.782 135.832C29.5591 136.674 29.7912 137.572 30.3947 138.202L30.9102 138.739C31.444 139.296 31.4689 140.166 30.9678 140.752L30.4838 141.318C29.9173 141.981 29.7369 142.891 30.0076 143.719L30.2389 144.427C30.4783 145.16 30.123 145.955 29.4173 146.266L28.7356 146.566C27.9377 146.917 27.3804 147.659 27.2648 148.523L27.166 149.261C27.0637 150.025 26.3986 150.587 25.628 150.561L24.8836 150.535C24.0124 150.506 23.1886 150.932 22.7096 151.66L22.3003 152.282C21.8765 152.927 21.0334 153.145 20.3505 152.786L19.6909 152.441C18.9189 152.036 17.9917 152.062 17.2441 152.51L16.6054 152.894C15.9441 153.29 15.0898 153.121 14.6299 152.502L14.1857 151.904C13.6658 151.204 12.819 150.826 11.9509 150.905L11.2093 150.973C10.4414 151.044 9.74525 150.52 9.59946 149.763L9.45863 149.032C9.29381 148.176 8.69502 147.467 7.87841 147.162L7.18069 146.902C6.45833 146.632 6.05819 145.859 6.25536 145.113L6.44581 144.393C6.66871 143.55 6.43655 142.652 5.83314 142.023L5.31757 141.486L4.95673 141.832L5.31757 141.486C4.78381 140.929 4.75891 140.059 5.26 139.473L5.744 138.907C6.31047 138.244 6.49093 137.334 6.22022 136.506L5.98893 135.798C5.74948 135.065 6.10475 134.27 6.81051 133.959L7.49219 133.659C8.29004 133.308 8.84737 132.566 8.963 131.702L9.06179 130.964C9.16407 130.2 9.82915 129.638 10.5998 129.664L11.3442 129.689C12.2154 129.719 13.0392 129.293 13.5182 128.565L13.9275 127.943C14.3513 127.298 15.1944 127.08 15.8773 127.438L16.5369 127.784C17.3089 128.189 18.2361 128.163 18.9837 127.714L19.6224 127.331Z" fill="#FC653C" stroke="#FC653C"/>
<path d="M19.6185 45.3313L19.3614 44.9025L19.6185 45.3313C20.2798 44.9348 21.1341 45.1042 21.594 45.7232L22.0382 46.321C22.5581 47.0207 23.4049 47.3991 24.2729 47.3196L25.0146 47.2516C25.7825 47.1812 26.4786 47.7045 26.6244 48.4617L26.7653 49.1931C26.9301 50.0491 27.5289 50.7574 28.3455 51.0624L29.0432 51.323C29.7656 51.5928 30.1657 52.3663 29.9685 53.1117L29.7781 53.8318C29.5552 54.6745 29.7873 55.5725 30.3907 56.2016L30.9063 56.7391C31.4401 57.2956 31.465 58.1661 30.9639 58.7522L30.4799 59.3183C29.9134 59.9808 29.733 60.8906 30.0037 61.7192L30.235 62.4272C30.4744 63.1602 30.1191 63.9553 29.4134 64.2659L28.7317 64.566C27.9338 64.9171 27.3765 65.6585 27.2609 66.5225L27.1621 67.2607C27.0598 68.025 26.3947 68.5872 25.6241 68.5609L24.8797 68.5354C24.0085 68.5057 23.1847 68.9318 22.7057 69.6601L22.2964 70.2823C21.8726 70.9265 21.0294 71.1445 20.3466 70.7864L19.687 70.4405C18.915 70.0357 17.9878 70.0622 17.2402 70.5105L16.6015 70.8935C15.9402 71.2901 15.0859 71.1206 14.626 70.5017L14.1818 69.9039C13.6619 69.2042 12.8151 68.8258 11.947 68.9053L11.2053 68.9733C10.4375 69.0436 9.74134 68.5203 9.59555 67.7631L9.45473 67.0318C9.28991 66.1758 8.69112 65.4675 7.8745 65.1625L7.17678 64.9019C6.45442 64.6321 6.05429 63.8586 6.25146 63.1132L6.44191 62.3931C6.66481 61.5504 6.43265 60.6524 5.82923 60.0233L5.31367 59.4858L4.95282 59.8319L5.31367 59.4858C4.7799 58.9293 4.75501 58.0588 5.25609 57.4727L5.74009 56.9066C6.30657 56.244 6.48702 55.3343 6.21632 54.5056L5.98503 53.7977C5.74557 53.0647 6.10084 52.2696 6.8066 51.959L7.48829 51.6589C8.28614 51.3078 8.84346 50.5664 8.95909 49.7024L9.05788 48.9641C9.16016 48.1999 9.82524 47.6376 10.5959 47.664L11.3402 47.6894C12.2114 47.7192 13.0353 47.2931 13.5143 46.5648L13.9236 45.9425C14.3474 45.2983 15.1905 45.0804 15.8734 45.4385L16.533 45.7844C17.305 46.1892 18.2322 46.1627 18.9798 45.7144L19.6185 45.3313Z" fill="#FC653C" stroke="#FC653C"/>
<path d="M19.6185 4.33135L19.3614 3.90253L19.6185 4.33135C20.2798 3.93479 21.1341 4.10423 21.594 4.72317L22.0382 5.321C22.5581 6.02071 23.4049 6.39908 24.2729 6.31955L25.0146 6.2516C25.7825 6.18125 26.4786 6.70454 26.6244 7.46173L26.7653 8.19309C26.9301 9.04907 27.5289 9.7574 28.3455 10.0624L29.0432 10.323C29.7656 10.5928 30.1657 11.3663 29.9685 12.1117L29.7781 12.8318C29.5552 13.6745 29.7873 14.5725 30.3907 15.2016L30.9063 15.7391C31.4401 16.2956 31.465 17.1661 30.9639 17.7522L30.4799 18.3183C29.9134 18.9808 29.733 19.8906 30.0037 20.7192L30.235 21.4272C30.4744 22.1602 30.1191 22.9553 29.4134 23.2659L28.7317 23.566C27.9338 23.9171 27.3765 24.6585 27.2609 25.5225L27.1621 26.2607C27.0598 27.025 26.3947 27.5872 25.6241 27.5609L24.8797 27.5354C24.0085 27.5057 23.1847 27.9318 22.7057 28.6601L22.2964 29.2823C21.8726 29.9265 21.0294 30.1445 20.3466 29.7864L19.687 29.4405C18.915 29.0357 17.9878 29.0622 17.2402 29.5105L16.6015 29.8935C15.9402 30.2901 15.0859 30.1206 14.626 29.5017L14.1818 28.9039C13.6619 28.2042 12.8151 27.8258 11.947 27.9053L11.2053 27.9733C10.4375 28.0436 9.74134 27.5203 9.59555 26.7631L9.45473 26.0318C9.28991 25.1758 8.69112 24.4675 7.8745 24.1625L7.17678 23.9019C6.45442 23.6321 6.05429 22.8586 6.25146 22.1132L6.44191 21.3931C6.66481 20.5504 6.43265 19.6524 5.82923 19.0233L5.31367 18.4858L4.95282 18.8319L5.31367 18.4858C4.7799 17.9293 4.75501 17.0588 5.25609 16.4727L5.74009 15.9066C6.30657 15.244 6.48702 14.3343 6.21632 13.5056L5.98503 12.7977C5.74557 12.0647 6.10084 11.2696 6.8066 10.959L7.48829 10.6589C8.28614 10.3078 8.84346 9.56637 8.95909 8.70236L9.05788 7.96414C9.16016 7.19987 9.82524 6.63764 10.5959 6.66399L11.3402 6.68944C12.2114 6.71922 13.0353 6.29307 13.5143 5.56479L13.9236 4.94255C14.3474 4.29833 15.1905 4.08035 15.8734 4.43846L16.533 4.78435C17.305 5.18919 18.2322 5.16268 18.9798 4.71438L19.6185 4.33135Z" fill="#FC653C" stroke="#FC653C"/>
</svg>
