<svg width="226" height="122" viewBox="0 0 226 122" fill="none" xmlns="http://www.w3.org/2000/svg">
<g clip-path="url(#clip0_336_2941)">
<path d="M7.61719 121.762V94.1855H225.77V121.762H7.61719ZM125.069 115.972L139.385 114.549C140.206 110.048 141.014 105.617 141.808 101.253L138.266 99.1862C137.73 100.018 137.25 100.773 136.718 101.597L138.004 103.008C137.468 105.898 136.949 108.673 136.417 111.555L128.076 112.387C127.853 110.873 127.647 109.604 127.45 108.12L130.126 108.806L134.02 102.501L131.104 100.756L127.265 106.67C126.952 104.624 126.708 103.05 126.438 101.318L122.796 99.1262L121.171 101.768L123.234 103.308C123.821 107.399 124.422 111.534 125.069 115.968V115.972ZM79.8787 103.428L76.0188 99.1605L73.8744 101.176C74.2732 101.888 74.6035 102.484 74.9766 103.158L72.7421 105.246L66.8622 99.0662L64.6106 101.532C67.6342 104.835 70.5677 108.047 73.6771 111.448L64.868 112.22C64.9323 113.292 64.9881 114.248 65.0567 115.346L78.1203 114.489V111.306L75.1396 107.832L79.8787 103.428ZM161.112 100.125C160.876 101.193 160.683 102.051 160.43 103.192H168.909V111.872L160.375 112.576C160.473 113.717 160.559 114.656 160.653 115.737L174.669 114.737C174.553 113.412 174.48 112.593 174.412 111.812L172.345 111.285V100.134L161.112 100.125ZM41.5113 115.732L55.6085 114.75C55.497 113.425 55.4284 112.606 55.3683 111.817L53.3097 111.293V100.198H42.0603C41.8373 101.198 41.6314 102.051 41.3912 103.201H49.8573V111.898L41.3698 112.571C41.4213 113.639 41.4599 114.536 41.5113 115.732ZM111.444 113.648L112.632 116.564L118.4 114.819V100.318H109.205C109.128 98.7702 109.068 97.5265 109.008 96.2913H105.77V103.561H114.982V112.396L111.444 113.648ZM185.056 96.2956V103.548H194.209V112.366L190.778 113.652C191.108 114.604 191.421 115.492 191.794 116.569L197.614 114.81V100.379H188.449C188.372 98.8903 188.307 97.6423 188.234 96.2956H185.056ZM95.3182 100.186H83.0395V103.222H92.0459V115.852L95.3311 114.995L95.3182 100.186ZM211.419 103.115V115.827L214.692 115.029V100.216H202.477V103.115H211.419ZM30.1289 114.9V100.121H20.0975C19.8959 101.052 19.7115 101.927 19.4456 103.149H26.8223V115.587L30.1289 114.9ZM181.87 101.305L178.147 99.1605L176.685 101.828L178.538 103.299V115.638L181.87 114.9V101.305ZM38.3591 114.952V101.305L34.6922 99.1305L33.2469 101.807L35.0396 103.265V115.569L38.3591 114.952ZM59.0738 103.471V109.012L62.2132 108.111V101.425L58.4348 99.3192L57.0195 101.931L59.0738 103.471ZM154.074 103.368V109.055L157.342 108.094V101.464L153.577 99.3192L152.076 101.953L154.074 103.368ZM205.677 115.003V107.85H202.537V115.784L205.677 115.003ZM86.106 115.068V107.777H83.1038V115.758L86.106 115.068Z" fill="#FC653C"/>
<path d="M196.424 61.4314H179.184L193.813 38.1306L181.126 37.0455C183.614 26.8897 186.054 16.9397 188.597 6.55664L204.093 8.04913C202.502 14.5423 200.958 20.8168 199.337 27.4086L217.156 29.7417C210.127 40.4722 203.269 50.9626 196.424 61.4314Z" fill="#FC653C"/>
<path d="M115.224 37.1803C116.112 33.3204 116.94 29.7479 117.763 26.0938L149.861 25.3047C148.54 32.7671 147.244 40.1009 145.893 47.735H152.164C151.765 52.1695 151.387 56.3125 150.988 60.6956L111.613 59.9236C112.497 55.8579 113.329 52.1395 114.148 48.2839H130.956C131.457 44.5827 131.942 41.023 132.465 37.1803H115.224Z" fill="#FC653C"/>
<path d="M43.1292 3.06699L37.3909 8.32931C32.6989 7.10272 27.8698 6.58378 22.9634 7.56162C14.0771 9.33288 7.52387 17.3615 7.07355 26.5394C6.61036 36.0562 11.9799 42.1248 19.1336 45.3114C25.2108 48.0176 31.6268 48.974 38.6989 49.227L33.9427 54.9139C22.5689 56.1019 8.76761 51.5815 3.16219 40.8811C0.528298 35.772 -0.487717 29.982 0.249281 24.2814C0.98628 18.5808 3.44136 13.2396 7.28799 8.96834C15.6725 -0.351158 28.7962 -2.55559 43.1292 3.06699Z" fill="#FC653C"/>
<path d="M154.504 60.5655C156.704 48.6985 158.861 37.0759 161.031 25.3633H179.379L170.291 60.5655H154.504Z" fill="#FC653C"/>
<path d="M30.305 77.8542H19.7031C24.8496 71.3782 29.7946 65.1466 34.7824 58.9579C37.9089 55.098 41.2585 51.3797 44.2692 47.4169C52.7438 36.2661 53.653 28.6835 48.1291 15.7186L53.5715 12.1074C56.3534 15.5512 58.069 19.7323 58.5079 24.1374C59.7945 35.3611 55.0769 44.6506 48.7681 53.301C42.9483 61.291 36.8282 69.0623 30.8496 76.9365C30.6474 77.2296 30.4654 77.5363 30.305 77.8542Z" fill="#FC653C"/>
<path d="M109.641 42.0938H95.5352C97.2721 34.7772 98.9662 27.6535 100.682 20.4355H114.646C112.952 27.7265 111.301 34.9059 109.641 42.0938Z" fill="#FC653C"/>
<path d="M161.793 21.4047C162.608 16.6142 163.341 12.2868 164.109 7.7793H184.523C183.498 11.978 182.486 16.1381 181.427 20.4826L161.793 21.4047Z" fill="#FC653C"/>
<path d="M51.8398 54.1923L55.837 47.832L70.6032 49.3588L64.5989 56.4224L51.8398 54.1923Z" fill="#FC653C"/>
<path d="M85.2775 11.3003C81.6811 7.0435 76.9818 3.85947 71.6951 2.09749C66.4084 0.33551 60.7386 0.0636449 55.3075 1.31172C42.5527 4.1852 30.7929 15.9278 32.933 32.4096C33.6578 37.985 36.557 42.5826 40.6528 46.7512L45.2804 41.6047L43.9166 39.7906C38.4913 32.6583 38.1053 24.6083 43.2475 17.489C48.2611 10.5283 55.3118 7.45324 63.8679 7.52615C70.5455 7.57761 76.0009 10.4554 79.389 15.0872L79.4404 15.0572L79.2732 14.9243C89.8064 27.5633 76.9787 44.9928 76.9787 44.9928L51.675 77.7505H61.8651C61.8651 77.7505 80.8214 56.9328 88.2281 39.8592C95.6348 22.7856 85.2775 11.3003 85.2775 11.3003Z" fill="#FC653C"/>
</g>
<defs>
<clipPath id="clip0_336_2941">
<rect width="225.769" height="121.758" fill="white"/>
</clipPath>
</defs>
</svg>
