<svg width="33" height="33" viewBox="0 0 33 33" fill="none" xmlns="http://www.w3.org/2000/svg">
<rect x="2.61426" width="30" height="30" rx="1" transform="rotate(5 2.61426 0)" fill="#6B53FF"/>
<path d="M15.0357 22.3751C18.0671 22.6404 20.2534 20.9206 20.4455 18.2585C20.5961 16.1729 19.3971 14.8395 17.6638 14.5343L20.1447 12.0383L20.2585 10.4614L13.9077 9.9058L13.7682 11.8388L17.3754 12.1544L14.9442 14.6717L15.1507 16.5326C15.5598 16.2954 16.028 16.1828 16.5361 16.2272C17.6538 16.325 18.3125 17.1164 18.2305 18.2524C18.1277 19.6767 16.9753 20.5314 15.1801 20.3743C14.4181 20.3077 13.7021 20.0744 13.0987 19.6974L12.9482 21.783C13.5721 22.1106 14.2736 22.3085 15.0357 22.3751Z" fill="white"/>
</svg>
