<svg width="33" height="33" viewBox="0 0 33 33" fill="none" xmlns="http://www.w3.org/2000/svg">
<rect x="2.61426" width="30" height="30" rx="1" transform="rotate(5 2.61426 0)" fill="#6B53FF"/>
<path d="M19.9603 22.5834L20.1023 20.6165L15.7838 20.2387L18.5795 17.3949C20.1414 15.8253 20.7459 14.7691 20.8353 13.5313C20.9772 11.5644 19.6465 10.1683 17.4279 9.97416C14.9893 9.7608 13.269 11.163 13.0808 13.5354L15.1977 13.7206C15.3052 12.4673 15.9989 11.8284 17.1166 11.9262C18.1327 12.0151 18.7334 12.6649 18.6686 13.5635C18.6245 14.174 18.3132 14.7098 17.577 15.4644L12.8634 20.3245L12.7459 21.9522L19.9603 22.5834Z" fill="white"/>
</svg>
