<svg width="249" height="253" viewBox="0 0 249 253" fill="none" xmlns="http://www.w3.org/2000/svg">
<path d="M143.859 23.0338C144.363 22.4954 145.258 22.6753 145.522 23.3679L151.466 38.9978C151.694 39.5986 152.419 39.8341 152.952 39.4809L166.781 30.326C167.395 29.9192 168.226 30.2993 168.324 31.0326L170.558 47.6508C170.644 48.2861 171.294 48.6812 171.894 48.4621L187.426 42.7895C188.117 42.5371 188.837 43.096 188.767 43.8301L187.165 60.5454C187.104 61.1808 187.644 61.7126 188.277 61.6399L204.684 59.7551C205.413 59.6713 205.984 60.3776 205.749 61.0733L200.389 76.984C200.186 77.5856 200.588 78.2241 201.219 78.3014L217.622 80.3109C218.349 80.3999 218.74 81.2145 218.355 81.8355L209.519 96.078C209.186 96.6148 209.43 97.3248 210.023 97.5466L225.54 103.35C226.224 103.606 226.417 104.485 225.901 104.999L214.066 116.797C213.621 117.242 213.694 117.985 214.218 118.338L228.009 127.63C228.614 128.038 228.598 128.934 227.979 129.314L213.787 138.026C213.252 138.354 213.151 139.093 213.579 139.557L224.893 151.84C225.387 152.376 225.164 153.243 224.474 153.468L208.698 158.621C208.1 158.817 207.832 159.511 208.142 160.062L216.361 174.67C216.719 175.307 216.3 176.098 215.575 176.156L199.073 177.476C198.444 177.526 198.021 178.141 198.198 178.749L202.874 194.889C203.078 195.592 202.485 196.266 201.764 196.153L185.429 193.576C184.803 193.477 184.247 193.979 184.28 194.612L185.164 211.405C185.202 212.139 184.466 212.659 183.788 212.379L168.499 206.051C167.91 205.808 167.249 206.169 167.137 206.796L164.186 223.331C164.056 224.056 163.216 224.394 162.619 223.961L149.193 214.23C148.674 213.854 147.944 214.054 147.692 214.64L141.073 230.026C140.781 230.704 139.882 230.839 139.399 230.278L128.552 217.667C128.133 217.18 127.373 217.206 126.993 217.72L117.069 231.132C116.63 231.725 115.721 231.65 115.38 230.992L107.69 216.175C107.394 215.604 106.647 215.454 106.158 215.867L93.4666 226.591C92.9033 227.067 92.0343 226.785 91.8523 226.067L87.7348 209.834C87.577 209.211 86.8844 208.894 86.3137 209.182L71.5346 216.646C70.8773 216.978 70.0968 216.505 70.0828 215.766L69.7637 198.986C69.7515 198.347 69.1518 197.88 68.531 198.027L52.4537 201.832C51.7388 202.001 51.0893 201.364 51.2428 200.644L54.7469 184.22C54.8798 183.597 54.4052 183.008 53.7692 183.005L37.2528 182.943C36.5201 182.941 36.0361 182.175 36.3481 181.512L43.4938 166.332C43.7635 165.759 43.4387 165.08 42.8227 164.93L26.7533 160.998C26.0433 160.824 25.7498 159.971 26.2032 159.4L36.6088 146.29C37.0007 145.796 36.8415 145.065 36.2793 144.775L21.5243 137.177C20.8755 136.842 20.787 135.949 21.3581 135.499L34.4606 125.174C34.9543 124.784 34.9681 124.039 34.4892 123.627L21.8501 112.767C21.2969 112.291 21.4173 111.404 22.0765 111.099L37.163 104.119C37.7333 103.856 37.9188 103.135 37.5478 102.624L27.714 89.0861C27.285 88.4955 27.6079 87.661 28.3207 87.518L44.57 84.2603C45.1874 84.1365 45.5351 83.4776 45.2906 82.8946L38.7987 67.4148C38.5158 66.7404 39.0247 66.0025 39.7533 66.0304L56.2835 66.6643C56.9152 66.6886 57.4078 66.1264 57.3023 65.5015L54.5039 48.9221C54.3818 48.1992 55.0505 47.5975 55.7553 47.796L71.6745 52.2793C72.2862 52.4516 72.8986 52.0169 72.938 51.3824L73.98 34.6043C74.0256 33.8706 74.8191 33.4384 75.4612 33.7975L89.9156 41.8816C90.4732 42.1935 91.1734 41.9109 91.3566 41.3001L96.1755 25.2309C96.3871 24.5252 97.2631 24.2869 97.8066 24.7871L110.025 36.0341C110.497 36.4686 111.247 36.3549 111.566 35.8007L119.894 21.3042C120.261 20.6645 121.172 20.6342 121.587 21.2478L130.918 35.0547C131.278 35.5874 132.036 35.6499 132.474 35.1829L143.859 23.0338Z" fill="#6B53FF"/>
<path d="M126.133 118.76C126.613 117.8 127.693 113.48 123.853 112.04C120.013 110.6 115.093 111.44 113.533 114.56C112.693 116.24 110.053 124.4 107.893 129.68C106.093 133.76 100.453 149.12 99.8528 150.44C99.1328 152.12 96.2528 158.72 100.693 160.88C105.133 163.04 108.853 159.8 109.933 156.44C110.773 153.44 115.333 142.16 116.893 138.68C118.573 135.2 126.133 118.76 126.133 118.76ZM106.573 171.92C106.933 170.6 108.133 167 105.013 165.56C101.293 163.88 97.8128 165.08 95.6528 168.44C93.6128 171.56 92.1728 176.72 96.8528 178.16C103.213 180.2 104.773 178.4 106.573 171.92ZM160 118.76C160.48 117.8 161.56 113.48 157.72 112.04C153.88 110.6 148.96 111.44 147.4 114.56C146.56 116.24 143.92 124.4 141.76 129.68C139.96 133.76 134.32 149.12 133.72 150.44C133 152.12 130.12 158.72 134.56 160.88C139 163.04 142.72 159.8 143.8 156.44C144.64 153.44 149.2 142.16 150.76 138.68C152.44 135.2 160 118.76 160 118.76ZM140.44 171.92C140.8 170.6 142 167 138.88 165.56C135.16 163.88 131.68 165.08 129.52 168.44C127.48 171.56 126.04 176.72 130.72 178.16C137.08 180.2 138.64 178.4 140.44 171.92Z" fill="white"/>
</svg>
