<svg width="249" height="253" viewBox="0 0 249 253" fill="none" xmlns="http://www.w3.org/2000/svg">
<path d="M143.861 23.0323C144.365 22.4939 145.26 22.6738 145.524 23.3664L151.468 38.9964C151.696 39.5971 152.421 39.8327 152.954 39.4795L166.783 30.3246C167.397 29.9177 168.227 30.2978 168.326 31.0311L170.56 47.6494C170.646 48.2847 171.296 48.6798 171.896 48.4607L187.428 42.788C188.119 42.5357 188.839 43.0946 188.769 43.8286L187.167 60.544C187.106 61.1793 187.646 61.7112 188.279 61.6385L204.686 59.7536C205.415 59.6699 205.986 60.3761 205.751 61.0719L200.391 76.9825C200.188 77.5842 200.59 78.2227 201.221 78.2999L217.624 80.3095C218.351 80.3984 218.742 81.213 218.357 81.834L209.521 96.0765C209.188 96.6133 209.432 97.3233 210.025 97.5451L225.542 103.349C226.226 103.605 226.419 104.483 225.903 104.997L214.068 116.796C213.623 117.24 213.696 117.984 214.22 118.337L228.011 127.629C228.616 128.036 228.6 128.933 227.981 129.313L213.789 138.024C213.254 138.353 213.153 139.091 213.581 139.555L224.895 151.838C225.389 152.375 225.166 153.241 224.476 153.467L208.7 158.62C208.102 158.815 207.834 159.51 208.144 160.06L216.363 174.669C216.721 175.305 216.302 176.097 215.577 176.155L199.075 177.475C198.446 177.525 198.023 178.14 198.2 178.748L202.876 194.887C203.08 195.591 202.487 196.265 201.766 196.151L185.431 193.574C184.805 193.475 184.249 193.977 184.282 194.611L185.165 211.404C185.204 212.137 184.468 212.658 183.79 212.377L168.501 206.05C167.912 205.806 167.251 206.168 167.139 206.794L164.188 223.33C164.058 224.054 163.218 224.392 162.621 223.96L149.195 214.228C148.676 213.852 147.946 214.052 147.694 214.639L141.075 230.025C140.783 230.702 139.884 230.838 139.401 230.277L128.554 217.665C128.135 217.178 127.375 217.204 126.995 217.718L117.071 231.131C116.632 231.724 115.723 231.649 115.382 230.991L107.692 216.173C107.396 215.603 106.649 215.453 106.16 215.866L93.4685 226.589C92.9052 227.065 92.0363 226.783 91.8542 226.065L87.7368 209.832C87.5789 209.21 86.8863 208.892 86.3156 209.181L71.5365 216.644C70.8793 216.976 70.0988 216.504 70.0847 215.765L69.7656 198.985C69.7534 198.345 69.1537 197.878 68.5329 198.025L52.4556 201.83C51.7408 201.999 51.0913 201.362 51.2448 200.643L54.7489 184.218C54.8817 183.596 54.4072 183.006 53.7711 183.004L37.2547 182.942C36.522 182.939 36.038 182.174 36.35 181.511L43.4957 166.331C43.7654 165.758 43.4406 165.079 42.8247 164.928L26.7553 160.996C26.0453 160.822 25.7517 159.97 26.2052 159.399L36.6107 146.289C37.0026 145.795 36.8435 145.063 36.2813 144.774L21.5263 137.175C20.8775 136.841 20.7889 135.948 21.36 135.498L34.4625 125.172C34.9563 124.783 34.9701 124.037 34.4912 123.626L21.8521 112.765C21.2989 112.29 21.4193 111.402 22.0784 111.097L37.165 104.118C37.7353 103.854 37.9207 103.133 37.5497 102.622L27.716 89.0847C27.287 88.494 27.6099 87.6595 28.3227 87.5166L44.572 84.2588C45.1893 84.1351 45.537 83.4761 45.2925 82.8931L38.8006 67.4133C38.5178 66.7389 39.0266 66.001 39.7552 66.029L56.2854 66.6629C56.9172 66.6871 57.4098 66.1249 57.3043 65.5001L54.5058 48.9207C54.3838 48.1977 55.0524 47.5961 55.7573 47.7946L71.6764 52.2778C72.2881 52.4501 72.9005 52.0154 72.94 51.3809L73.982 34.6029C74.0275 33.8692 74.8211 33.4369 75.4632 33.796L89.9176 41.8802C90.4751 42.192 91.1754 41.9094 91.3585 41.2986L96.1775 25.2294C96.3891 24.5237 97.2651 24.2854 97.8086 24.7857L110.027 36.0327C110.499 36.4671 111.249 36.3534 111.567 35.7992L119.896 21.3027C120.263 20.6631 121.174 20.6327 121.589 21.2463L130.92 35.0533C131.28 35.5859 132.038 35.6484 132.476 35.1815L143.861 23.0323Z" fill="#6B53FF"/>
<path d="M119.158 147C122.608 147 125.908 144.3 127.108 140.55C128.608 136.2 133.858 122.7 135.808 118.35C137.308 115.5 142.708 103.8 146.308 96.15C147.358 93.9 147.958 91.8 147.958 90.3C147.958 86.4 144.808 84.15 139.708 84.15C135.958 84.15 132.808 85.65 131.608 88.2C130.558 90.3 127.258 100.5 124.558 107.1C122.308 112.2 115.258 131.4 114.508 133.05C113.308 135.75 112.558 139.05 112.558 140.7C112.558 144.45 115.108 147 119.158 147ZM115.858 168.75C119.308 168.75 121.108 166.5 122.908 159.9C123.358 158.7 123.658 157.2 123.658 156.15C123.658 152.85 121.258 151.05 116.908 151.05C113.758 151.05 111.208 152.55 109.258 155.55C107.758 157.65 106.858 160.35 106.858 162.6C106.858 165.15 108.208 166.95 110.758 167.7C113.458 168.45 114.658 168.75 115.858 168.75Z" fill="white"/>
</svg>
