<svg width="216" height="98" viewBox="0 0 216 98" fill="none" xmlns="http://www.w3.org/2000/svg">
<path d="M73.5992 19.6C74.6342 19.6 75.6242 18.79 75.9842 17.665C76.4342 16.36 78.0092 12.31 78.5942 11.005C79.0442 10.15 80.6642 6.64 81.7442 4.345C82.0592 3.67 82.2392 3.04 82.2392 2.59C82.2392 1.42 81.2942 0.744998 79.7642 0.744998C78.6392 0.744998 77.6942 1.195 77.3342 1.96C77.0192 2.59 76.0292 5.65 75.2192 7.63C74.5442 9.16 72.4292 14.92 72.2042 15.415C71.8442 16.225 71.6192 17.215 71.6192 17.71C71.6192 18.835 72.3842 19.6 73.5992 19.6ZM72.6092 26.125C73.6442 26.125 74.1842 25.45 74.7242 23.47C74.8592 23.11 74.9492 22.66 74.9492 22.345C74.9492 21.355 74.2292 20.815 72.9242 20.815C71.9792 20.815 71.2142 21.265 70.6292 22.165C70.1792 22.795 69.9092 23.605 69.9092 24.28C69.9092 25.045 70.3142 25.585 71.0792 25.81C71.8892 26.035 72.2492 26.125 72.6092 26.125ZM86.0891 25.18C87.2141 25.18 88.2491 24.415 88.6541 23.38C89.1041 22.345 90.5441 18.475 91.1741 17.26C91.6691 16.18 93.2441 12.31 94.3241 9.52C94.5041 9.07 94.6391 8.485 94.6391 8.08C94.6391 6.955 93.6941 6.235 92.2091 6.235C91.0391 6.235 90.0941 6.865 89.7341 7.9C89.1941 9.43 88.2941 11.815 87.5741 13.66C87.1691 14.65 85.6391 18.16 84.4691 21.085C84.1541 21.625 83.9741 22.525 83.9741 23.29C83.9741 24.505 84.7391 25.18 86.0891 25.18ZM99.0189 25.18C100.144 25.18 101.314 24.325 101.674 23.335C102.034 22.39 104.644 16.675 105.724 14.335C106.444 15.55 108.064 18.52 110.899 23.785C111.169 24.505 112.204 25.135 113.149 25.135C114.364 25.135 115.219 24.325 115.219 23.155C115.219 22.525 115.039 21.805 114.769 21.4L112.969 18.07C115.039 15.55 116.884 12.625 118.729 10.105C118.999 9.7 119.134 9.295 119.134 8.935C119.134 7.81 118.054 6.775 116.839 6.775C116.209 6.775 115.624 7.045 115.174 7.585C114.049 8.98 112.564 11.23 110.719 13.39C109.999 12.13 108.154 8.395 107.209 7.315C106.849 6.91 106.444 6.73 105.904 6.73C105.004 6.73 104.104 7.27 103.654 8.035C103.159 8.89 101.764 12.4 100.819 14.155C100.009 15.64 97.9839 20.455 97.5789 21.13C97.2189 21.76 96.9939 22.615 96.9939 23.245C96.9939 24.415 97.7589 25.18 99.0189 25.18ZM123.877 25.18C125.002 25.18 126.037 24.415 126.442 23.38C126.892 22.345 128.332 18.475 128.962 17.26C129.457 16.18 131.032 12.31 132.112 9.52C132.292 9.07 132.427 8.485 132.427 8.08C132.427 6.955 131.482 6.235 129.997 6.235C128.827 6.235 127.882 6.865 127.522 7.9C126.982 9.43 126.082 11.815 125.362 13.66C124.957 14.65 123.427 18.16 122.257 21.085C121.942 21.625 121.762 22.525 121.762 23.29C121.762 24.505 122.527 25.18 123.877 25.18ZM137.212 25.18C138.337 25.18 139.372 24.415 139.777 23.38C140.227 22.345 141.667 18.475 142.297 17.26C142.792 16.18 144.367 12.31 145.447 9.52C145.627 9.07 145.762 8.485 145.762 8.08C145.762 6.955 144.817 6.235 143.332 6.235C142.162 6.235 141.217 6.865 140.857 7.9C140.317 9.43 139.417 11.815 138.697 13.66C138.292 14.65 136.762 18.16 135.592 21.085C135.277 21.625 135.097 22.525 135.097 23.29C135.097 24.505 135.862 25.18 137.212 25.18ZM2.80082 58H15.2658C16.5708 58 17.7408 56.92 18.4608 55.03L22.6908 44.095C22.8708 43.555 23.0058 42.925 23.0058 42.52C23.0058 40.72 21.9258 39.685 20.0358 39.64C17.5608 39.595 10.1358 39.55 5.23082 39.55C3.47582 39.55 2.30582 40.585 2.30582 42.115C2.30582 43.24 3.25082 43.96 4.87082 44.005C4.19582 45.625 2.66582 49.54 0.730819 54.355C0.505819 55.03 0.370819 55.57 0.370819 55.975C0.370819 57.19 1.36082 58 2.80082 58ZM5.72582 53.635L9.50582 44.005L17.5608 44.14L13.7808 53.635H5.72582ZM30.5205 51.025C31.3755 51.025 32.2755 50.26 32.9055 49.045C33.8955 47.02 35.2905 43.915 35.9655 42.475C36.2355 41.98 36.3705 41.35 36.3705 40.855C36.3705 39.955 35.9655 39.235 35.2905 38.92C34.6155 38.65 34.1205 38.56 33.8055 38.56C32.7255 38.56 31.8255 39.145 31.4655 40.18C30.2955 43.51 29.2605 46.12 28.7655 47.29C28.5855 47.74 28.4505 48.37 28.4505 48.865C28.4505 50.125 29.3505 51.025 30.5205 51.025ZM41.4045 58.18C42.3495 58.18 43.1595 57.55 43.6995 56.47C45.2295 53.23 49.1445 44.365 49.1445 44.14C51.4395 44.095 54.4545 44.005 56.1195 43.96L51.1695 54.58C50.9445 55.12 50.8095 55.705 50.8095 56.2C50.8095 57.415 51.6195 58.09 53.0595 58.09C54.9495 58.09 55.5345 56.47 56.2545 55.21C56.6595 54.4 58.4595 50.305 60.9345 44.59C61.2495 43.96 61.3845 43.285 61.3845 42.565C61.3845 40.585 60.3045 39.415 58.5495 39.415C56.7945 39.415 52.3395 39.505 45.5445 39.64C43.7445 39.64 42.1695 40.63 42.0795 41.845C41.9445 43.375 42.7095 44.095 44.4645 44.14C42.5295 48.325 40.5495 52.555 39.5595 54.805C39.3795 55.165 39.2895 55.615 39.2895 56.11C39.2895 57.325 40.1895 58.18 41.4045 58.18ZM68.7297 58.27C69.7647 58.27 70.3497 57.505 70.7547 55.525C71.7447 51.34 73.8147 47.245 75.8847 45.4C76.7847 44.59 78.4497 44.14 80.4747 44.14C81.4647 44.14 81.5097 44.14 81.6447 44.185C81.6447 44.365 81.6897 44.5 81.6897 44.68C81.6897 46.48 80.5197 50.35 78.9447 53.815L76.6497 53.635C75.1647 53.5 73.9497 54.58 73.9497 55.975C73.9497 57.145 74.8497 58 76.0647 58H79.7547C81.1947 58 82.7247 56.785 83.5347 55.03C85.2447 51.385 86.2347 47.56 86.2347 44.635C86.2347 41.35 84.6597 39.775 81.4647 39.775C82.4547 39.775 76.1547 39.46 73.8147 41.665C73.1847 41.08 71.9697 39.37 70.5297 39.37C69.4497 39.37 68.2797 40.405 68.2797 41.305C68.2797 42.295 69.3597 44.095 70.3497 44.77C68.5947 47.29 66.7047 52.15 66.4347 54.805C66.2097 56.65 67.2897 58.27 68.7297 58.27ZM102.129 50.35C103.299 50.35 104.424 49.63 104.964 48.595C106.539 45.445 107.214 43.42 107.349 41.305C107.439 39.46 106.674 38.245 105.369 38.245C103.794 38.245 102.714 39.325 102.669 41.035C102.624 42.52 101.769 45.4 100.824 47.245C100.509 47.83 100.374 48.37 100.374 48.775C100.374 49.72 101.094 50.35 102.129 50.35ZM101.949 58.45C108.519 58.45 113.919 53.14 114.954 45.58C115.134 44.275 115.134 44.005 115.134 43.51C115.134 41.215 114.324 39.955 112.839 39.955C110.139 39.955 110.184 42.925 110.184 44.41C110.139 47.695 107.439 52.285 104.829 53.545C104.199 53.95 102.894 54.175 101.454 54.175C98.4392 54.175 96.6392 52.555 96.6392 49.9C96.6392 48.775 96.9542 47.56 97.6292 46.3C98.2592 44.86 98.6192 44.23 99.0242 43.42C99.3392 42.745 99.6092 41.89 99.6092 41.44C99.6092 40.45 98.8442 39.82 97.5392 39.82C96.4592 39.82 95.3792 40.45 94.7492 41.485C93.1742 43.915 92.0942 47.47 92.0942 50.125C92.0942 55.21 95.9192 58.45 101.949 58.45ZM138.579 58.045C140.334 58.045 141.009 56.155 141.639 54.76C143.484 50.71 145.194 45.625 145.869 44.095H148.119C149.334 44.095 150.234 43.24 150.234 42.115C150.234 40.72 149.289 39.775 147.894 39.775L134.484 39.685C132.909 39.82 131.784 40.765 131.784 41.98C131.784 43.375 132.594 44.095 134.169 44.14C135.384 44.185 138.534 44.14 140.829 44.005L136.419 54.31C136.149 54.895 136.059 55.345 136.059 55.705C136.059 56.965 137.229 58.045 138.579 58.045ZM156.32 51.025C157.175 51.025 158.075 50.26 158.705 49.045C159.695 47.02 161.09 43.915 161.765 42.475C162.035 41.98 162.17 41.35 162.17 40.855C162.17 39.955 161.765 39.235 161.09 38.92C160.415 38.65 159.92 38.56 159.605 38.56C158.525 38.56 157.625 39.145 157.265 40.18C156.095 43.51 155.06 46.12 154.565 47.29C154.385 47.74 154.25 48.37 154.25 48.865C154.25 50.125 155.15 51.025 156.32 51.025ZM168.319 58.27C169.354 58.27 169.939 57.505 170.344 55.525C171.334 51.34 173.404 47.245 175.474 45.4C176.374 44.59 178.039 44.14 180.064 44.14C181.054 44.14 181.099 44.14 181.234 44.185C181.234 44.365 181.279 44.5 181.279 44.68C181.279 46.48 180.109 50.35 178.534 53.815L176.239 53.635C174.754 53.5 173.539 54.58 173.539 55.975C173.539 57.145 174.439 58 175.654 58H179.344C180.784 58 182.314 56.785 183.124 55.03C184.834 51.385 185.824 47.56 185.824 44.635C185.824 41.35 184.249 39.775 181.054 39.775C182.044 39.775 175.744 39.46 173.404 41.665C172.774 41.08 171.559 39.37 170.119 39.37C169.039 39.37 167.869 40.405 167.869 41.305C167.869 42.295 168.949 44.095 169.939 44.77C168.184 47.29 166.294 52.15 166.024 54.805C165.799 56.65 166.879 58.27 168.319 58.27ZM196.195 58.585C197.275 58.585 198.265 57.955 198.985 56.74C199.975 55.12 203.8 45.13 204.115 44.32C206.23 44.32 208.66 44.23 209.92 44.185L205.78 54.31C205.465 54.94 205.33 55.615 205.33 56.335C205.33 57.595 206.095 58.225 207.49 58.225C208.84 58.225 209.695 57.46 210.64 55.345C211.54 53.365 212.98 49.54 215.005 44.455C215.41 43.42 215.5 43.105 215.5 42.79C215.5 40.99 214.42 39.82 212.665 39.73C211.54 39.64 209.65 39.64 207.625 39.64C205.915 39.64 202.765 39.685 198.985 39.73C197.365 39.775 196.24 40.765 196.24 42.07C196.24 43.24 196.96 43.96 198.31 44.185C198.58 44.23 198.985 44.23 199.57 44.275C198.445 46.57 196.015 52.105 195.295 53.68L192.865 51.43C192.505 51.07 192.055 50.53 191.245 50.53C190.075 50.53 189.13 51.52 189.13 52.735C189.13 53.32 189.355 53.86 189.67 54.13L193.585 57.46C194.44 58.18 195.34 58.585 196.195 58.585ZM12.7639 97.84C13.8889 97.84 15.1039 96.985 15.3739 95.995C15.6889 94.87 17.5339 90.28 18.0289 89.02L22.7089 76.96C22.8889 76.465 22.9789 76.06 22.9789 75.7C22.9789 73.855 21.5839 72.55 19.5139 72.46C19.0189 72.415 18.4339 72.415 17.1289 72.415C15.1489 72.415 11.7739 72.505 8.66892 72.64C7.27392 72.64 5.96892 73.99 5.96892 75.43C5.96892 76.735 7.04892 77.275 9.70392 77.275C11.2339 77.275 14.7439 77.14 17.9389 76.96C16.7689 80.11 15.4639 83.215 13.9789 87.085C13.3489 88.75 11.9989 92.035 11.3239 93.745C11.0539 94.42 10.8739 95.275 10.8739 95.905C10.8739 97.12 11.5489 97.84 12.7639 97.84ZM31.4874 91.585C32.5674 91.585 33.5574 90.955 34.2774 89.74C35.2674 88.12 39.0924 78.13 39.4074 77.32C41.5224 77.32 43.9524 77.23 45.2124 77.185L41.0724 87.31C40.7574 87.94 40.6224 88.615 40.6224 89.335C40.6224 90.595 41.3874 91.225 42.7824 91.225C44.1324 91.225 44.9874 90.46 45.9324 88.345C46.8324 86.365 48.2724 82.54 50.2974 77.455C50.7024 76.42 50.7924 76.105 50.7924 75.79C50.7924 73.99 49.7124 72.82 47.9574 72.73C46.8324 72.64 44.9424 72.64 42.9174 72.64C41.2074 72.64 38.0574 72.685 34.2774 72.73C32.6574 72.775 31.5324 73.765 31.5324 75.07C31.5324 76.24 32.2524 76.96 33.6024 77.185C33.8724 77.23 34.2774 77.23 34.8624 77.275C33.7374 79.57 31.3074 85.105 30.5874 86.68L28.1574 84.43C27.7974 84.07 27.3474 83.53 26.5374 83.53C25.3674 83.53 24.4224 84.52 24.4224 85.735C24.4224 86.32 24.6474 86.86 24.9624 87.13L28.8774 90.46C29.7324 91.18 30.6324 91.585 31.4874 91.585ZM56.2213 91.18C57.3463 91.18 58.3813 90.415 58.7863 89.38C59.2363 88.345 60.6763 84.475 61.3063 83.26C61.8013 82.18 63.3763 78.31 64.4563 75.52C64.6363 75.07 64.7713 74.485 64.7713 74.08C64.7713 72.955 63.8263 72.235 62.3413 72.235C61.1713 72.235 60.2263 72.865 59.8663 73.9C59.3263 75.43 58.4263 77.815 57.7063 79.66C57.3013 80.65 55.7713 84.16 54.6013 87.085C54.2863 87.625 54.1063 88.525 54.1063 89.29C54.1063 90.505 54.8713 91.18 56.2213 91.18ZM69.151 91.18C70.276 91.18 71.446 90.325 71.806 89.335C72.166 88.39 74.776 82.675 75.856 80.335C76.576 81.55 78.196 84.52 81.031 89.785C81.301 90.505 82.336 91.135 83.281 91.135C84.496 91.135 85.351 90.325 85.351 89.155C85.351 88.525 85.171 87.805 84.901 87.4L83.101 84.07C85.171 81.55 87.016 78.625 88.861 76.105C89.131 75.7 89.266 75.295 89.266 74.935C89.266 73.81 88.186 72.775 86.971 72.775C86.341 72.775 85.756 73.045 85.306 73.585C84.181 74.98 82.696 77.23 80.851 79.39C80.131 78.13 78.286 74.395 77.341 73.315C76.981 72.91 76.576 72.73 76.036 72.73C75.136 72.73 74.236 73.27 73.786 74.035C73.291 74.89 71.896 78.4 70.951 80.155C70.141 81.64 68.116 86.455 67.711 87.13C67.351 87.76 67.126 88.615 67.126 89.245C67.126 90.415 67.891 91.18 69.151 91.18ZM105.438 91.675C110.433 91.675 115.158 90.1 117.318 87.715C119.523 85.33 122.133 78.49 122.133 75.07C122.133 73.585 121.323 72.73 119.838 72.73C118.623 72.73 117.633 73.54 117.408 74.8C116.328 80.065 115.653 83.755 113.358 85.42C112.548 86.005 111.558 86.455 110.973 86.5L109.983 75.25C109.848 73.72 108.948 72.73 107.688 72.73C106.203 72.73 105.303 74.08 105.393 76.105C105.483 77.095 106.248 84.16 106.563 87.13C105.888 87.175 104.808 87.22 104.403 87.265C102.468 87.445 101.388 88.12 101.343 89.155C101.253 91 102.378 91.675 105.438 91.675ZM127.314 91.18C128.439 91.18 129.474 90.415 129.879 89.38C130.329 88.345 131.769 84.475 132.399 83.26C132.894 82.18 134.469 78.31 135.549 75.52C135.729 75.07 135.864 74.485 135.864 74.08C135.864 72.955 134.919 72.235 133.434 72.235C132.264 72.235 131.319 72.865 130.959 73.9C130.419 75.43 129.519 77.815 128.799 79.66C128.394 80.65 126.864 84.16 125.694 87.085C125.379 87.625 125.199 88.525 125.199 89.29C125.199 90.505 125.964 91.18 127.314 91.18ZM142.393 91.27C143.428 91.27 144.013 90.505 144.418 88.525C145.408 84.34 147.478 80.245 149.548 78.4C150.448 77.59 152.113 77.14 154.138 77.14C155.128 77.14 155.173 77.14 155.308 77.185C155.308 77.365 155.353 77.5 155.353 77.68C155.353 79.48 154.183 83.35 152.608 86.815L150.313 86.635C148.828 86.5 147.613 87.58 147.613 88.975C147.613 90.145 148.513 91 149.728 91H153.418C154.858 91 156.388 89.785 157.198 88.03C158.908 84.385 159.898 80.56 159.898 77.635C159.898 74.35 158.323 72.775 155.128 72.775C156.118 72.775 149.818 72.46 147.478 74.665C146.848 74.08 145.633 72.37 144.193 72.37C143.113 72.37 141.943 73.405 141.943 74.305C141.943 75.295 143.023 77.095 144.013 77.77C142.258 80.29 140.368 85.15 140.098 87.805C139.873 89.65 140.953 91.27 142.393 91.27ZM175.793 83.35C176.963 83.35 178.088 82.63 178.628 81.595C180.203 78.445 180.878 76.42 181.013 74.305C181.103 72.46 180.338 71.245 179.033 71.245C177.458 71.245 176.378 72.325 176.333 74.035C176.288 75.52 175.433 78.4 174.488 80.245C174.173 80.83 174.038 81.37 174.038 81.775C174.038 82.72 174.758 83.35 175.793 83.35ZM175.613 91.45C182.183 91.45 187.583 86.14 188.618 78.58C188.798 77.275 188.798 77.005 188.798 76.51C188.798 74.215 187.988 72.955 186.503 72.955C183.803 72.955 183.848 75.925 183.848 77.41C183.803 80.695 181.103 85.285 178.493 86.545C177.863 86.95 176.558 87.175 175.118 87.175C172.103 87.175 170.303 85.555 170.303 82.9C170.303 81.775 170.618 80.56 171.293 79.3C171.923 77.86 172.283 77.23 172.688 76.42C173.003 75.745 173.273 74.89 173.273 74.44C173.273 73.45 172.508 72.82 171.203 72.82C170.123 72.82 169.043 73.45 168.413 74.485C166.838 76.915 165.758 80.47 165.758 83.125C165.758 88.21 169.583 91.45 175.613 91.45ZM203.572 91.135C205.282 91.135 205.912 89.38 206.587 88.165C207.082 87.265 209.422 82 211.627 76.825C211.852 76.42 211.942 75.97 211.942 75.475C211.942 73.765 210.862 72.73 209.107 72.685C208.387 72.685 207.217 72.685 205.912 72.685H200.377L202.042 68.815C202.222 68.365 202.357 67.825 202.357 67.51C202.357 66.295 201.457 65.53 200.107 65.53C199.252 65.53 198.532 65.89 198.217 66.565L195.112 73.765C194.977 74.215 194.887 74.575 194.887 74.845C194.887 76.15 195.787 77.095 197.092 77.14C198.082 77.185 202.312 77.095 206.587 77.005L201.727 87.31C201.457 87.715 201.322 88.39 201.322 89.065C201.322 90.37 202.132 91.135 203.572 91.135Z" fill="#6B53FF"/>
</svg>
