<svg width="219" height="67" viewBox="0 0 219 67" fill="none" xmlns="http://www.w3.org/2000/svg">
<path d="M21.77 11.015C21.905 10.025 21.995 8.405 20.645 7.955C19.295 7.325 17.495 7.955 17.135 9.8C16.055 15.065 15.425 18.845 13.085 20.42C11.645 21.41 10.7 21.5 10.7 21.5L9.71004 10.25C9.57504 8.72 8.63004 7.55 7.05504 7.775C5.57004 8.09 5.03004 9.35 5.12004 11.105C5.16504 11.78 6.29004 22.13 6.29004 22.13C6.29004 22.13 4.71504 22.22 4.13004 22.265C2.60004 22.4 1.20504 22.895 1.07004 24.155C0.980038 26.27 2.51004 26.54 4.13004 26.63C7.37004 26.81 13.895 26.18 17.045 22.715C20.78 18.62 21.77 11.015 21.77 11.015ZM35.7411 10.52C36.1461 9.395 36.3711 8.045 34.9761 7.505C33.5361 6.965 31.7811 7.235 31.1511 8.9C31.1511 8.9 29.8011 12.68 28.9911 14.66C28.3161 16.19 25.8861 22.085 25.8861 22.085C25.8861 22.085 24.5361 25.055 26.2011 25.865C28.1361 26.72 29.5761 25.595 30.0711 24.38C30.5211 23.345 31.9611 19.475 32.5911 18.26C33.2211 17 35.7411 10.52 35.7411 10.52ZM50.6404 21.635C49.2904 21.68 47.9404 22.445 47.9404 23.885C47.8954 25.235 48.9754 26 50.0554 26H53.7454C55.3654 26 56.8504 24.56 57.5254 23.03C57.9304 22.085 59.2354 19.385 59.7754 16.28C60.8554 11.105 60.1804 7.685 55.2754 7.775C55.2754 7.775 49.9204 7.685 47.8054 9.665C46.9054 8.81 44.8354 5.75 42.5404 8.495C41.5954 9.665 43.4404 12.14 44.3404 12.77C41.7304 16.505 40.5604 21.41 40.4254 22.805C40.2904 23.93 40.6954 26.045 42.3604 26.225C43.9804 26.45 44.3854 25.145 44.7454 23.525C45.8254 18.89 47.9854 15.065 49.8754 13.4C51.7654 11.735 55.6354 12.185 55.6354 12.185C55.9954 15.02 52.9354 21.815 52.9354 21.815L50.6404 21.635ZM79.7241 9.305C79.8141 7.91 79.3191 6.47 77.7441 6.245C76.2141 6.2 75.0891 7.28 75.0441 9.035C74.9991 10.88 73.9191 13.85 73.1991 15.245C71.3091 18.89 75.9441 19.295 77.3391 16.595C79.0041 13.4 79.5891 11.42 79.7241 9.305ZM71.3991 11.42C71.7591 10.79 72.5691 8.675 71.1741 8.09C69.4641 7.37 67.9341 8.225 67.1241 9.485C65.0091 12.77 61.5891 22.175 69.1041 25.37C77.6091 28.97 85.9791 23.345 87.3291 13.58C87.4641 12.635 88.1841 7.865 85.1241 7.955C82.5141 8.045 82.6941 10.925 82.5591 12.41C82.5591 14.12 81.1191 19.655 77.2041 21.545C75.5391 22.355 72.0291 22.4 70.8591 21.5C66.4041 18.125 71.4891 12.23 71.3991 11.42ZM99.8795 3.815C100.284 2.96 100.464 1.43 99.2045 0.8C97.9445 0.214999 96.5045 0.575 96.0545 1.565L92.9495 8.765C92.3195 10.205 93.0395 12.095 94.9295 12.14C96.5045 12.185 104.424 12.005 104.424 12.005L99.4745 22.49C99.4745 22.49 98.3495 25.28 100.419 25.955C102.894 26.72 103.659 24.605 104.424 23.165C105.234 21.725 109.644 11.645 109.644 11.645C109.644 11.645 110.724 7.775 106.944 7.685C104.829 7.64 98.2145 7.685 98.2145 7.685L99.8795 3.815ZM130.371 7.64C129.786 7.64 127.041 7.82 126.906 9.845C126.771 11.465 127.626 12.095 129.291 12.14C127.986 14.885 124.386 22.805 124.386 22.805C124.116 23.345 123.711 25.1 125.016 25.82C126.501 26.63 127.806 25.91 128.526 24.47C129.111 23.255 133.971 12.545 133.971 12.14C137.121 12.095 140.946 11.96 140.946 11.96L135.996 22.58C135.726 23.21 134.961 25.55 137.076 26C139.596 26.54 140.271 24.65 141.081 23.21C141.846 21.815 145.941 12.185 145.941 12.185C146.256 11.465 146.886 7.415 143.376 7.415C140.046 7.415 130.371 7.64 130.371 7.64ZM161.611 21.635C160.261 21.68 158.911 22.445 158.911 23.885C158.866 25.235 159.946 26 161.026 26H164.716C166.336 26 167.821 24.56 168.496 23.03C168.901 22.085 170.206 19.385 170.746 16.28C171.826 11.105 171.151 7.685 166.246 7.775C166.246 7.775 160.891 7.685 158.776 9.665C157.876 8.81 155.806 5.75 153.511 8.495C152.566 9.665 154.411 12.14 155.311 12.77C152.701 16.505 151.531 21.41 151.396 22.805C151.261 23.93 151.666 26.045 153.331 26.225C154.951 26.45 155.356 25.145 155.716 23.525C156.796 18.89 158.956 15.065 160.846 13.4C162.736 11.735 166.606 12.185 166.606 12.185C166.966 15.02 163.906 21.815 163.906 21.815L161.611 21.635ZM190.695 9.305C190.785 7.91 190.29 6.47 188.715 6.245C187.185 6.2 186.06 7.28 186.015 9.035C185.97 10.88 184.89 13.85 184.17 15.245C182.28 18.89 186.915 19.295 188.31 16.595C189.975 13.4 190.56 11.42 190.695 9.305ZM182.37 11.42C182.73 10.79 183.54 8.675 182.145 8.09C180.435 7.37 178.905 8.225 178.095 9.485C175.98 12.77 172.56 22.175 180.075 25.37C188.58 28.97 196.95 23.345 198.3 13.58C198.435 12.635 199.155 7.865 196.095 7.955C193.485 8.045 193.665 10.925 193.53 12.41C193.53 14.12 192.09 19.655 188.175 21.545C186.51 22.355 183 22.4 181.83 21.5C177.375 18.125 182.46 12.23 182.37 11.42ZM211.795 7.775C210.85 7.82 208.96 8.18 209.05 9.935C209.14 11.51 210.715 11.78 211.885 11.78C212.2 11.78 213.19 11.78 213.19 11.78C211.705 15.425 208.87 21.95 208.87 21.95C208.87 21.95 206.935 21.815 205.09 21.725C203.605 21.635 202.075 22.175 201.715 22.895C200.635 24.92 202.885 25.685 203.695 25.82C206.485 26.315 209.275 26.045 209.275 26.045C209.275 26.045 212.065 26 212.83 23.615C212.83 23.615 214.495 19.7 215.53 17.405C216.34 15.605 217.78 11.825 217.78 11.825C218.77 9.98 217.915 7.685 215.665 7.64L211.795 7.775ZM28.101 37.535C28.281 37.175 28.686 35.555 27.246 35.015C25.806 34.475 23.961 34.79 23.376 35.96C23.061 36.59 22.071 39.65 21.261 41.63C20.586 43.16 18.471 48.92 18.246 49.415C17.976 50.045 16.896 52.52 18.561 53.33C20.226 54.14 21.621 52.925 22.026 51.665C22.341 50.54 24.051 46.31 24.636 45.005C25.266 43.7 28.101 37.535 28.101 37.535ZM20.766 57.47C20.901 56.975 21.351 55.625 20.181 55.085C18.786 54.455 17.481 54.905 16.671 56.165C15.906 57.335 15.366 59.27 17.121 59.81C19.506 60.575 20.091 59.9 20.766 57.47ZM34.3212 40.685C34.3212 40.685 31.6212 40.415 31.3062 42.89C31.0812 44.69 32.5662 45.095 34.0062 45.005C37.6512 44.825 40.9362 44.825 40.9362 44.825L35.8962 55.445C35.4912 56.3 35.1312 58.415 36.9762 58.82C39.4962 59.36 40.3512 57.2 41.1162 55.76C41.9262 54.32 45.3912 46.535 46.1112 44.375C46.3362 43.7 46.8312 40.82 43.5012 40.64C40.1712 40.46 34.3212 40.685 34.3212 40.685ZM64.6062 45.32C67.4862 45.32 70.4112 45.185 70.4112 45.185L66.1362 55.715C66.1362 55.715 65.0112 58.64 67.1262 59.135C69.6462 59.675 70.5462 57.875 71.1312 56.345C72.5712 52.475 75.8562 44.69 75.8562 44.69C76.0812 44.06 76.3062 40.91 73.1562 40.73C69.8262 40.505 59.4762 40.73 59.4762 40.73C59.4762 40.73 56.7762 40.82 56.7312 42.98C56.6862 44.6 57.8562 45.095 58.8012 45.185C59.0262 45.23 59.4762 45.23 60.0612 45.275C58.9362 47.57 56.5062 53.105 55.7862 54.68L53.1312 52.205C52.9512 52.025 52.1412 51.08 50.7462 51.8C49.3062 52.565 49.4412 54.545 50.1612 55.13L54.0762 58.46C56.0112 60.125 58.0812 59.99 59.4762 57.74C60.4662 56.12 64.2912 46.13 64.6062 45.32ZM89.8325 43.52C90.2375 42.395 90.4625 41.045 89.0675 40.505C87.6275 39.965 85.8725 40.235 85.2425 41.9C85.2425 41.9 83.8925 45.68 83.0825 47.66C82.4075 49.19 79.9775 55.085 79.9775 55.085C79.9775 55.085 78.6275 58.055 80.2925 58.865C82.2275 59.72 83.6675 58.595 84.1625 57.38C84.6125 56.345 86.0525 52.475 86.6825 51.26C87.3125 50 89.8325 43.52 89.8325 43.52ZM102.122 43.475C102.482 42.935 102.707 41.045 101.312 40.37C99.8268 39.695 98.1618 39.965 97.4868 41.63C97.4868 41.63 95.7318 46.58 94.7418 48.875C94.7418 48.875 93.7518 51.35 95.5968 52.25C97.2618 53.06 98.4318 51.53 98.9268 50.495C100.142 47.93 102.122 43.475 102.122 43.475ZM130.263 57.02C131.748 53.105 133.188 48.965 134.943 44.96C135.618 43.43 135.078 40.64 131.748 40.46C128.418 40.28 120.903 40.64 120.903 40.64C120.273 40.64 118.293 41.225 118.203 43.16C118.068 44.87 119.283 45.05 120.723 45.23C122.163 45.41 130.173 44.96 130.173 44.96C129.003 48.11 127.698 51.215 126.213 55.085C125.538 56.795 123.558 61.745 123.558 61.745C123.558 61.745 122.388 64.67 123.873 65.525C125.493 66.425 127.293 65.12 127.608 63.995C127.923 62.87 129.768 58.28 130.263 57.02ZM153.824 45.32C156.704 45.32 159.629 45.185 159.629 45.185L155.354 55.715C155.354 55.715 154.229 58.64 156.344 59.135C158.864 59.675 159.764 57.875 160.349 56.345C161.789 52.475 165.074 44.69 165.074 44.69C165.299 44.06 165.524 40.91 162.374 40.73C159.044 40.505 148.694 40.73 148.694 40.73C148.694 40.73 145.994 40.82 145.949 42.98C145.904 44.6 147.074 45.095 148.019 45.185C148.244 45.23 148.694 45.23 149.279 45.275C148.154 47.57 145.724 53.105 145.004 54.68L142.349 52.205C142.169 52.025 141.359 51.08 139.964 51.8C138.524 52.565 138.659 54.545 139.379 55.13L143.294 58.46C145.229 60.125 147.299 59.99 148.694 57.74C149.684 56.12 153.509 46.13 153.824 45.32ZM179.05 43.52C179.455 42.395 179.68 41.045 178.285 40.505C176.845 39.965 175.09 40.235 174.46 41.9C174.46 41.9 173.11 45.68 172.3 47.66C171.625 49.19 169.195 55.085 169.195 55.085C169.195 55.085 167.845 58.055 169.51 58.865C171.445 59.72 172.885 58.595 173.38 57.38C173.83 56.345 175.27 52.475 175.9 51.26C176.53 50 179.05 43.52 179.05 43.52ZM204.165 44.105C205.695 41.945 202.41 39.425 200.61 41.585C199.485 42.98 198 45.23 196.155 47.39C195.435 46.13 193.59 42.395 192.645 41.315C191.655 40.145 189.765 40.865 189.09 42.035C188.595 42.89 187.2 46.4 186.255 48.155C185.445 49.64 183.42 54.455 183.015 55.13C182.61 55.85 181.755 58.145 183.42 58.955C185.085 59.72 186.705 58.415 187.11 57.335C187.38 56.615 190.395 50 191.16 48.335C192.375 50.495 196.335 57.785 196.335 57.785C196.605 58.505 197.91 59.45 199.305 59C201.375 58.37 200.565 56.03 200.205 55.4L198.405 52.07C200.475 49.55 202.32 46.625 204.165 44.105Z" fill="#6B53FF"/>
</svg>
