<svg width="262" height="349" viewBox="0 0 262 349" fill="none" xmlns="http://www.w3.org/2000/svg">
<path d="M114.968 31.4376C115.474 30.9061 116.361 31.082 116.625 31.7663L125.384 54.4185C125.613 55.0113 126.33 55.2427 126.862 54.8957L147.21 41.6363C147.825 41.2358 148.647 41.6115 148.747 42.3383L152.045 66.3998C152.131 67.0295 152.776 67.4199 153.374 67.2051L176.231 58.9956C176.921 58.7476 177.635 59.3028 177.564 60.033L175.224 84.2065C175.163 84.8392 175.7 85.3677 176.332 85.2966L200.466 82.5795C201.195 82.4975 201.761 83.2023 201.524 83.8965L193.673 106.879C193.467 107.48 193.868 108.118 194.499 108.195L218.609 111.117C219.337 111.205 219.725 112.021 219.335 112.642L206.395 133.195C206.056 133.732 206.299 134.446 206.895 134.666L229.681 143.069C230.37 143.323 230.56 144.207 230.036 144.721L212.705 161.735C212.252 162.18 212.323 162.93 212.853 163.282L233.087 176.713C233.698 177.119 233.679 178.023 233.051 178.402L212.264 190.961C211.72 191.29 211.617 192.036 212.051 192.5L228.642 210.236C229.143 210.772 228.916 211.647 228.218 211.871L205.094 219.298C204.489 219.492 204.217 220.194 204.532 220.746L216.586 241.83C216.95 242.467 216.527 243.266 215.796 243.324L191.583 245.217C190.95 245.267 190.522 245.887 190.702 246.497L197.569 269.793C197.776 270.496 197.18 271.176 196.455 271.063L172.459 267.322C171.831 267.224 171.272 267.729 171.306 268.364L172.615 292.615C172.655 293.348 171.918 293.872 171.239 293.595L148.752 284.421C148.164 284.181 147.503 284.543 147.39 285.169L143.071 309.068C142.941 309.79 142.103 310.131 141.506 309.704L121.741 295.591C121.224 295.222 120.498 295.423 120.244 296.005L110.53 318.265C110.236 318.937 109.343 319.075 108.86 318.522L92.8823 300.232C92.4641 299.753 91.7113 299.781 91.3296 300.289L76.7442 319.708C76.3035 320.295 75.4023 320.223 75.06 319.574L63.7311 298.092C63.4346 297.53 62.6957 297.383 62.207 297.79L43.5364 313.321C42.9724 313.791 42.112 313.513 41.9286 312.803L35.8592 289.287C35.7004 288.671 35.0152 288.358 34.446 288.641L12.6967 299.449C12.0397 299.775 11.2665 299.307 11.2519 298.573L10.7692 274.291C10.7566 273.656 10.1621 273.193 9.54296 273.337L-14.1124 278.838C-14.827 279.004 -15.4713 278.37 -15.3163 277.652L-10.1863 253.914C-10.052 253.293 -10.5238 252.705 -11.1595 252.703L-35.4457 252.6C-36.1793 252.597 -36.66 251.831 -36.3438 251.169L-25.8776 229.253C-25.6037 228.68 -25.9273 227.999 -26.5452 227.85L-50.153 222.149C-50.8662 221.977 -51.1573 221.121 -50.697 220.55L-35.4588 201.638C-35.0599 201.144 -35.218 200.407 -35.7848 200.119L-57.4415 189.128C-58.0958 188.796 -58.1816 187.895 -57.6019 187.446L-38.4133 172.559C-37.9111 172.169 -37.8951 171.416 -38.3802 171.005L-56.9183 155.315C-57.4783 154.841 -57.3543 153.946 -56.6865 153.642L-34.5819 143.581C-34.0034 143.318 -33.8141 142.589 -34.1915 142.077L-48.6115 122.535C-49.0471 121.945 -48.7199 121.102 -48.0001 120.96L-24.1711 116.268C-23.5475 116.146 -23.1951 115.48 -23.4444 114.895L-32.969 92.5542C-33.2568 91.8793 -32.744 91.1347 -32.0108 91.1628L-7.7422 92.0928C-7.10704 92.1171 -6.61065 91.5505 -6.71837 90.924L-10.8341 66.9889C-10.9584 66.2658 -10.2877 65.6595 -9.58086 65.8559L13.8192 72.3575C14.4316 72.5277 15.0453 72.0908 15.0849 71.4564L16.6 47.2173C16.6457 46.485 17.4382 46.0497 18.0807 46.4039L39.3506 58.1267C39.9072 58.4335 40.6051 58.1499 40.79 57.5418L47.8542 34.3054C48.0675 33.6034 48.939 33.3626 49.4826 33.8554L67.4756 50.1674C67.9466 50.5943 68.691 50.4793 69.0112 49.9302L81.2436 28.9492C81.6131 28.3154 82.5166 28.2821 82.9319 28.8869L96.6781 48.9087C97.0379 49.4327 97.7889 49.4925 98.227 49.032L114.968 31.4376Z" fill="#6B53FF"/>
<path d="M52.795 251.84C53.92 251.84 55.135 250.985 55.405 249.995C55.72 248.87 57.565 244.28 58.06 243.02L62.74 230.96C62.92 230.465 63.01 230.06 63.01 229.7C63.01 227.855 61.615 226.55 59.545 226.46C59.05 226.415 58.465 226.415 57.16 226.415C55.18 226.415 51.805 226.505 48.7 226.64C47.305 226.64 46 227.99 46 229.43C46 230.735 47.08 231.275 49.735 231.275C51.265 231.275 54.775 231.14 57.97 230.96C56.8 234.11 55.495 237.215 54.01 241.085C53.38 242.75 52.03 246.035 51.355 247.745C51.085 248.42 50.905 249.275 50.905 249.905C50.905 251.12 51.58 251.84 52.795 251.84ZM66.039 245.18C67.164 245.18 68.199 244.415 68.604 243.38C69.054 242.345 70.494 238.475 71.124 237.26C71.619 236.18 73.194 232.31 74.274 229.52C74.454 229.07 74.589 228.485 74.589 228.08C74.589 226.955 73.644 226.235 72.159 226.235C70.989 226.235 70.044 226.865 69.684 227.9C69.144 229.43 68.244 231.815 67.524 233.66C67.119 234.65 65.589 238.16 64.419 241.085C64.104 241.625 63.924 242.525 63.924 243.29C63.924 244.505 64.689 245.18 66.039 245.18ZM80.4517 245.585C81.5317 245.585 82.5217 244.955 83.2417 243.74C84.2317 242.12 88.0567 232.13 88.3717 231.32C90.4867 231.32 92.9167 231.23 94.1767 231.185L90.0367 241.31C89.7217 241.94 89.5867 242.615 89.5867 243.335C89.5867 244.595 90.3517 245.225 91.7467 245.225C93.0967 245.225 93.9517 244.46 94.8967 242.345C95.7967 240.365 97.2367 236.54 99.2617 231.455C99.6667 230.42 99.7567 230.105 99.7567 229.79C99.7567 227.99 98.6767 226.82 96.9217 226.73C95.7967 226.64 93.9067 226.64 91.8817 226.64C90.1717 226.64 87.0217 226.685 83.2417 226.73C81.6217 226.775 80.4967 227.765 80.4967 229.07C80.4967 230.24 81.2167 230.96 82.5667 231.185C82.8367 231.23 83.2417 231.23 83.8267 231.275C82.7017 233.57 80.2717 239.105 79.5517 240.68L77.1217 238.43C76.7617 238.07 76.3117 237.53 75.5017 237.53C74.3317 237.53 73.3867 238.52 73.3867 239.735C73.3867 240.32 73.6117 240.86 73.9267 241.13L77.8417 244.46C78.6967 245.18 79.5967 245.585 80.4517 245.585ZM104.466 245.27C105.501 245.27 106.086 244.505 106.491 242.525C107.481 238.34 109.551 234.245 111.621 232.4C112.521 231.59 114.186 231.14 116.211 231.14C117.201 231.14 117.246 231.14 117.381 231.185C117.381 231.365 117.426 231.5 117.426 231.68C117.426 233.48 116.256 237.35 114.681 240.815L112.386 240.635C110.901 240.5 109.686 241.58 109.686 242.975C109.686 244.145 110.586 245 111.801 245H115.491C116.931 245 118.461 243.785 119.271 242.03C120.981 238.385 121.971 234.56 121.971 231.635C121.971 228.35 120.396 226.775 117.201 226.775C118.191 226.775 111.891 226.46 109.551 228.665C108.921 228.08 107.706 226.37 106.266 226.37C105.186 226.37 104.016 227.405 104.016 228.305C104.016 229.295 105.096 231.095 106.086 231.77C104.331 234.29 102.441 239.15 102.171 241.805C101.946 243.65 103.026 245.27 104.466 245.27Z" fill="#FBFFDA"/>
</svg>
