<svg width="156" height="56" viewBox="0 0 156 56" fill="none" xmlns="http://www.w3.org/2000/svg">
<path d="M16.0985 6.32C18.9785 6.32 21.9035 6.185 21.9035 6.185L17.6285 16.715C17.6285 16.715 16.5035 19.64 18.6185 20.135C21.1385 20.675 22.0385 18.875 22.6235 17.345C24.0635 13.475 27.3485 5.69 27.3485 5.69C27.5735 5.06 27.7985 1.91 24.6485 1.73C21.3185 1.505 10.9685 1.73 10.9685 1.73C10.9685 1.73 8.26846 1.82 8.22346 3.98C8.17846 5.6 9.34846 6.095 10.2935 6.185C10.5185 6.23 10.9685 6.23 11.5535 6.275C10.4285 8.57 7.99846 14.105 7.27846 15.68L4.62346 13.205C4.44346 13.025 3.63346 12.08 2.23846 12.8C0.798456 13.565 0.933456 15.545 1.65346 16.13L5.56846 19.46C7.50346 21.125 9.57346 20.99 10.9685 18.74C11.9585 17.12 15.7835 7.13 16.0985 6.32ZM40.1548 10.64C40.0648 8.93 39.1198 8.615 37.6798 8.615C36.2848 8.66 35.3398 8.66 35.3398 8.66L37.0498 5.78C41.0098 5.735 45.7348 5.51 45.7348 5.51C44.2498 11.54 41.5498 15.95 41.5498 15.95C41.5498 15.95 36.2398 15.77 33.9898 15.41C32.3698 15.14 30.8398 14.915 29.9398 16.31C28.9948 17.705 29.4898 19.865 32.7748 20.09C41.1448 20.675 43.8448 21.845 46.1398 17.66C46.8148 16.4 49.3798 10.46 50.3698 5.78C50.5948 4.835 50.5048 1.46 47.1748 1.28C43.8448 1.1 36.4198 1.505 36.4198 1.505C35.6548 1.505 33.7648 2.045 32.7748 4.025C32.0098 5.555 31.0198 7.355 30.2998 8.975C30.0298 9.605 29.6248 12.35 32.6398 12.575C34.0798 12.71 40.2898 13.295 40.1548 10.64ZM66.7551 6.32C69.6351 6.32 72.5601 6.185 72.5601 6.185L68.2851 16.715C68.2851 16.715 67.1601 19.64 69.2751 20.135C71.7951 20.675 72.6951 18.875 73.2801 17.345C74.7201 13.475 78.0051 5.69 78.0051 5.69C78.2301 5.06 78.4551 1.91 75.3051 1.73C71.9751 1.505 61.6251 1.73 61.6251 1.73C61.6251 1.73 58.9251 1.82 58.8801 3.98C58.8351 5.6 60.0051 6.095 60.9501 6.185C61.1751 6.23 61.6251 6.23 62.2101 6.275C61.0851 8.57 58.6551 14.105 57.9351 15.68L55.2801 13.205C55.1001 13.025 54.2901 12.08 52.8951 12.8C51.4551 13.565 51.5901 15.545 52.3101 16.13L56.2251 19.46C58.1601 21.125 60.2301 20.99 61.6251 18.74C62.6151 17.12 66.4401 7.13 66.7551 6.32ZM94.4565 6.32C97.3365 6.32 100.261 6.185 100.261 6.185L95.9865 16.715C95.9865 16.715 94.8615 19.64 96.9765 20.135C99.4965 20.675 100.396 18.875 100.981 17.345C102.421 13.475 105.706 5.69 105.706 5.69C105.931 5.06 106.156 1.91 103.006 1.73C99.6765 1.505 89.3265 1.73 89.3265 1.73C89.3265 1.73 86.6265 1.82 86.5815 3.98C86.5365 5.6 87.7065 6.095 88.6515 6.185C88.8765 6.23 89.3265 6.23 89.9115 6.275C88.7865 8.57 86.3565 14.105 85.6365 15.68L82.9815 13.205C82.8015 13.025 81.9915 12.08 80.5965 12.8C79.1565 13.565 79.2915 15.545 80.0115 16.13L83.9265 19.46C85.8615 21.125 87.9315 20.99 89.3265 18.74C90.3165 17.12 94.1415 7.13 94.4565 6.32ZM123.238 3.305C123.328 1.91 122.833 0.469999 121.258 0.245C119.728 0.199999 118.603 1.28 118.558 3.035C118.513 4.88 117.433 7.85 116.713 9.245C114.823 12.89 119.458 13.295 120.853 10.595C122.518 7.4 123.103 5.42 123.238 3.305ZM114.913 5.42C115.273 4.79 116.083 2.675 114.688 2.09C112.978 1.37 111.448 2.225 110.638 3.485C108.523 6.77 105.103 16.175 112.618 19.37C121.123 22.97 129.493 17.345 130.843 7.58C130.978 6.635 131.698 1.865 128.638 1.955C126.028 2.045 126.208 4.925 126.073 6.41C126.073 8.12 124.633 13.655 120.718 15.545C119.053 16.355 115.543 16.4 114.373 15.5C109.918 12.125 115.003 6.23 114.913 5.42ZM138.803 1.685C138.803 1.685 136.193 1.865 136.103 3.89C136.058 5.465 137.048 6.095 138.488 6.14C140.063 6.185 148.883 6.005 148.883 6.005L144.158 16.49C144.158 16.49 143.033 19.28 145.103 19.955C147.578 20.72 148.343 18.605 149.108 17.165C149.918 15.725 154.103 5.645 154.103 5.645C154.103 5.645 155.183 1.775 151.403 1.685C148.073 1.595 138.803 1.685 138.803 1.685ZM140.378 11.9C140.783 11.045 140.963 9.515 139.703 8.885C138.443 8.3 137.003 8.66 136.553 9.65L133.448 16.85C133.178 17.435 132.728 19.55 134.213 20.045C135.788 20.585 136.688 20 137.408 18.56C138.308 16.76 140.378 11.9 140.378 11.9ZM29.7695 42.58C27.5195 42.355 24.1895 42.49 21.7595 42.58C20.4545 42.625 19.4195 43.39 19.5095 44.875C19.6445 46.36 21.2195 46.495 22.0295 46.54C22.6595 46.585 24.0545 46.585 25.4045 46.54C27.1145 46.45 29.4545 46.72 29.9945 46.675C31.0295 46.585 31.9295 45.73 31.9745 44.515C32.0195 43.165 30.1295 42.625 29.7695 42.58ZM53.694 54.73C54.414 54.73 55.809 54.235 55.674 52.705C55.539 50.5 53.559 50.5 51.714 50.5C53.244 47.26 56.124 40.555 56.124 40.555C56.124 40.555 57.204 36.685 53.424 36.595C50.094 36.505 41.634 36.64 41.634 36.64C41.634 36.64 39.024 36.775 38.934 38.8C38.889 40.375 39.879 41.005 41.319 41.05C42.894 41.095 50.904 40.915 50.904 40.915L46.404 50.545C44.514 50.5 37.809 50.725 37.809 50.725C37.809 50.725 34.929 50.77 34.524 52.57C34.074 54.82 36.279 55.36 37.404 55.27C38.574 55.18 43.029 55 44.694 55C46.089 55 53.694 54.73 53.694 54.73ZM71.0823 36.685C71.0823 36.685 68.3823 36.415 68.0673 38.89C67.8423 40.69 69.3273 41.095 70.7673 41.005C74.4123 40.825 77.6973 40.825 77.6973 40.825L72.6573 51.445C72.2523 52.3 71.8923 54.415 73.7373 54.82C76.2573 55.36 77.1123 53.2 77.8773 51.76C78.6873 50.32 82.1523 42.535 82.8723 40.375C83.0973 39.7 83.5923 36.82 80.2623 36.64C76.9323 36.46 71.0823 36.685 71.0823 36.685ZM103.707 54.73C104.427 54.73 105.822 54.235 105.687 52.705C105.552 50.5 103.572 50.5 101.727 50.5C103.257 47.26 106.137 40.555 106.137 40.555C106.137 40.555 107.217 36.685 103.437 36.595C100.107 36.505 91.6473 36.64 91.6473 36.64C91.6473 36.64 89.0373 36.775 88.9473 38.8C88.9023 40.375 89.8923 41.005 91.3323 41.05C92.9073 41.095 100.917 40.915 100.917 40.915L96.4173 50.545C94.5273 50.5 87.8223 50.725 87.8223 50.725C87.8223 50.725 84.9423 50.77 84.5373 52.57C84.0873 54.82 86.2923 55.36 87.4173 55.27C88.5873 55.18 93.0423 55 94.7073 55C96.1023 55 103.707 54.73 103.707 54.73ZM114.27 36.955C114.27 36.955 111.93 37.18 111.75 38.935C111.615 40.645 112.335 41.14 113.775 41.32C115.17 41.455 123.45 40.915 123.45 40.915C121.92 47.71 119.985 50.905 119.985 50.905C118.365 50.995 115.125 50.59 113.73 50.455C112.11 50.32 110.4 49.51 109.185 50.59C107.655 51.94 108.105 54.145 111.57 54.595C115.215 55.09 120.525 55.45 120.525 55.45C123.405 55.675 124.575 53.83 124.89 52.705C124.89 52.705 127.32 45.55 128.31 40.87C128.49 39.925 128.445 36.64 125.115 36.46C121.785 36.28 114.27 36.955 114.27 36.955Z" fill="#FC653C"/>
</svg>
