<svg width="262" height="349" viewBox="0 0 262 349" fill="none" xmlns="http://www.w3.org/2000/svg">
<path d="M201.968 31.4376C202.474 30.9061 203.361 31.082 203.625 31.7663L212.384 54.4185C212.613 55.0113 213.33 55.2427 213.862 54.8957L234.21 41.6363C234.825 41.2358 235.647 41.6114 235.747 42.3383L239.045 66.3998C239.131 67.0295 239.776 67.4199 240.374 67.2051L263.231 58.9956C263.921 58.7476 264.635 59.3028 264.564 60.033L262.224 84.2065C262.163 84.8392 262.7 85.3677 263.332 85.2966L287.466 82.5795C288.195 82.4975 288.761 83.2023 288.524 83.8965L280.673 106.879C280.467 107.48 280.868 108.118 281.499 108.195L305.609 111.117C306.337 111.205 306.725 112.021 306.335 112.642L293.395 133.195C293.056 133.732 293.299 134.446 293.895 134.666L316.681 143.069C317.37 143.323 317.56 144.207 317.036 144.721L299.705 161.735C299.252 162.18 299.323 162.93 299.853 163.282L320.087 176.713C320.698 177.119 320.679 178.023 320.051 178.402L299.264 190.961C298.72 191.29 298.617 192.036 299.051 192.5L315.642 210.236C316.143 210.772 315.916 211.647 315.218 211.871L292.094 219.298C291.489 219.492 291.217 220.194 291.532 220.746L303.586 241.83C303.95 242.467 303.527 243.266 302.796 243.324L278.583 245.217C277.95 245.267 277.522 245.887 277.702 246.497L284.569 269.793C284.776 270.496 284.18 271.176 283.455 271.063L259.459 267.322C258.831 267.224 258.272 267.729 258.306 268.364L259.615 292.615C259.655 293.348 258.918 293.872 258.239 293.595L235.752 284.421C235.164 284.181 234.503 284.543 234.39 285.169L230.071 309.068C229.941 309.79 229.103 310.131 228.506 309.704L208.741 295.591C208.224 295.222 207.498 295.423 207.244 296.005L197.53 318.265C197.236 318.937 196.343 319.075 195.86 318.522L179.882 300.232C179.464 299.753 178.711 299.781 178.33 300.289L163.744 319.708C163.304 320.295 162.402 320.223 162.06 319.574L150.731 298.092C150.435 297.53 149.696 297.383 149.207 297.79L130.536 313.321C129.972 313.791 129.112 313.513 128.929 312.803L122.859 289.287C122.7 288.671 122.015 288.358 121.446 288.641L99.6967 299.449C99.0397 299.775 98.2665 299.306 98.2519 298.573L97.7692 274.291C97.7566 273.656 97.1621 273.193 96.543 273.337L72.8876 278.838C72.173 279.004 71.5287 278.37 71.6837 277.652L76.8137 253.914C76.948 253.293 76.4762 252.705 75.8405 252.703L51.5543 252.6C50.8207 252.597 50.34 251.831 50.6562 251.169L61.1224 229.253C61.3963 228.68 61.0727 227.999 60.4548 227.85L36.847 222.149C36.1338 221.977 35.8427 221.121 36.303 220.55L51.5412 201.638C51.9401 201.144 51.782 200.407 51.2152 200.119L29.5585 189.128C28.9042 188.796 28.8184 187.895 29.3981 187.446L48.5867 172.559C49.0889 172.169 49.1049 171.416 48.6198 171.005L30.0817 155.315C29.5217 154.841 29.6457 153.946 30.3135 153.642L52.4181 143.581C52.9966 143.318 53.1859 142.589 52.8085 142.077L38.3885 122.535C37.9529 121.945 38.2801 121.102 38.9999 120.96L62.8289 116.268C63.4525 116.146 63.8049 115.48 63.5556 114.895L54.031 92.5542C53.7432 91.8793 54.256 91.1347 54.9892 91.1628L79.2578 92.0928C79.893 92.1171 80.3893 91.5505 80.2816 90.924L76.1659 66.9889C76.0416 66.2658 76.7123 65.6595 77.4191 65.8559L100.819 72.3576C101.432 72.5277 102.045 72.0908 102.085 71.4564L103.6 47.2173C103.646 46.4851 104.438 46.0497 105.081 46.4039L126.351 58.1267C126.907 58.4335 127.605 58.1499 127.79 57.5418L134.854 34.3054C135.068 33.6034 135.939 33.3626 136.483 33.8554L154.476 50.1674C154.947 50.5943 155.691 50.4793 156.011 49.9302L168.244 28.9492C168.613 28.3154 169.517 28.2821 169.932 28.8869L183.678 48.9087C184.038 49.4327 184.789 49.4925 185.227 49.032L201.968 31.4376Z" fill="#6B53FF"/>
</svg>
