<svg width="156" height="93" viewBox="0 0 156 93" fill="none" xmlns="http://www.w3.org/2000/svg">
<path d="M28.781 6.32C31.661 6.32 34.586 6.185 34.586 6.185L30.311 16.715C30.311 16.715 29.186 19.64 31.301 20.135C33.821 20.675 34.721 18.875 35.306 17.345C36.746 13.475 40.031 5.69 40.031 5.69C40.256 5.06 40.481 1.91 37.331 1.73C34.001 1.505 23.651 1.73 23.651 1.73C23.651 1.73 20.951 1.82 20.906 3.98C20.861 5.6 22.031 6.095 22.976 6.185C23.201 6.23 23.651 6.23 24.236 6.275C23.111 8.57 20.681 14.105 19.961 15.68L17.306 13.205C17.126 13.025 16.316 12.08 14.921 12.8C13.481 13.565 13.616 15.545 14.336 16.13L18.251 19.46C20.186 21.125 22.256 20.99 23.651 18.74C24.641 17.12 28.466 7.13 28.781 6.32ZM51.9823 4.52C52.3873 3.395 52.6123 2.045 51.2173 1.505C49.7773 0.965 48.0223 1.235 47.3923 2.9C47.3923 2.9 46.0423 6.68 45.2323 8.66C44.5573 10.19 42.1273 16.085 42.1273 16.085C42.1273 16.085 40.7773 19.055 42.4423 19.865C44.3773 20.72 45.8173 19.595 46.3123 18.38C46.7623 17.345 48.2023 13.475 48.8323 12.26C49.4623 11 51.9823 4.52 51.9823 4.52ZM74.0816 5.015C74.2166 4.025 74.3066 2.405 72.9566 1.955C71.6066 1.325 69.8066 1.955 69.4466 3.8C68.3666 9.065 67.7366 12.845 65.3966 14.42C63.9566 15.41 63.0116 15.5 63.0116 15.5L62.0216 4.25C61.8866 2.72 60.9416 1.55 59.3666 1.775C57.8816 2.09 57.3416 3.35 57.4316 5.105C57.4766 5.78 58.6016 16.13 58.6016 16.13C58.6016 16.13 57.0266 16.22 56.4416 16.265C54.9116 16.4 53.5166 16.895 53.3816 18.155C53.2916 20.27 54.8216 20.54 56.4416 20.63C59.6816 20.81 66.2066 20.18 69.3566 16.715C73.0916 12.62 74.0816 5.015 74.0816 5.015ZM94.8927 19.73C95.6127 19.73 97.0077 19.235 96.8727 17.705C96.7377 15.5 94.7577 15.5 92.9127 15.5C94.4427 12.26 97.3227 5.555 97.3227 5.555C97.3227 5.555 98.4027 1.685 94.6227 1.595C91.2927 1.505 82.8327 1.64 82.8327 1.64C82.8327 1.64 80.2227 1.775 80.1327 3.8C80.0877 5.375 81.0777 6.005 82.5177 6.05C84.0927 6.095 92.1027 5.915 92.1027 5.915L87.6027 15.545C85.7127 15.5 79.0077 15.725 79.0077 15.725C79.0077 15.725 76.1277 15.77 75.7227 17.57C75.2727 19.82 77.4777 20.36 78.6027 20.27C79.7727 20.18 84.2277 20 85.8927 20C87.2877 20 94.8927 19.73 94.8927 19.73ZM113.915 20.135C116.21 19.955 116.21 17.435 115.445 16.445L113.51 13.52C113.51 13.52 118.19 7.355 119.045 5.825C119.495 5.105 120.305 3.35 118.865 2.315C117.56 1.46 116.345 2.09 115.58 3.08C114.14 5.015 112.52 7.4 111.035 9.2L106.985 2.99C106.4 2.09 105.455 1.19 104.06 1.82C102.665 2.45 102.35 4.205 103.34 5.69L110.27 16.085L101.855 16.355C100.82 16.4 99.245 16.85 99.38 18.56C99.515 20.225 100.865 20.72 102.44 20.63C104.285 20.54 109.685 20.45 113.915 20.135ZM127.36 1.685C127.36 1.685 124.75 1.865 124.66 3.89C124.615 5.465 125.605 6.095 127.045 6.14C128.62 6.185 137.44 6.005 137.44 6.005L132.715 16.49C132.715 16.49 131.59 19.28 133.66 19.955C136.135 20.72 136.9 18.605 137.665 17.165C138.475 15.725 142.66 5.645 142.66 5.645C142.66 5.645 143.74 1.775 139.96 1.685C136.63 1.595 127.36 1.685 127.36 1.685ZM128.935 11.9C129.34 11.045 129.52 9.515 128.26 8.885C127 8.3 125.56 8.66 125.11 9.65L122.005 16.85C121.735 17.435 121.285 19.55 122.77 20.045C124.345 20.585 125.245 20 125.965 18.56C126.865 16.76 128.935 11.9 128.935 11.9ZM11.8146 39.52C12.2196 38.395 12.4446 37.045 11.0496 36.505C9.60957 35.965 7.85457 36.235 7.22457 37.9C7.22457 37.9 5.87457 41.68 5.06457 43.66C4.38957 45.19 1.95957 51.085 1.95957 51.085C1.95957 51.085 0.609569 54.055 2.27457 54.865C4.20957 55.72 5.64957 54.595 6.14457 53.38C6.59457 52.345 8.03457 48.475 8.66457 47.26C9.29457 46 11.8146 39.52 11.8146 39.52ZM29.1438 38.305C29.2338 36.91 28.7388 35.47 27.1638 35.245C25.6338 35.2 24.5088 36.28 24.4638 38.035C24.4188 39.88 23.3388 42.85 22.6188 44.245C20.7288 47.89 25.3638 48.295 26.7588 45.595C28.4238 42.4 29.0088 40.42 29.1438 38.305ZM20.8188 40.42C21.1788 39.79 21.9888 37.675 20.5938 37.09C18.8838 36.37 17.3538 37.225 16.5438 38.485C14.4288 41.77 11.0088 51.175 18.5238 54.37C27.0288 57.97 35.3988 52.345 36.7488 42.58C36.8838 41.635 37.6038 36.865 34.5438 36.955C31.9338 37.045 32.1138 39.925 31.9788 41.41C31.9788 43.12 30.5388 48.655 26.6238 50.545C24.9588 51.355 21.4488 51.4 20.2788 50.5C15.8238 47.125 20.9088 41.23 20.8188 40.42ZM45.3392 36.64C44.7542 36.64 42.0092 36.82 41.8742 38.845C41.7392 40.465 42.5942 41.095 44.2592 41.14C42.9542 43.885 39.3542 51.805 39.3542 51.805C39.0842 52.345 38.6792 54.1 39.9842 54.82C41.4692 55.63 42.7742 54.91 43.4942 53.47C44.0792 52.255 48.9392 41.545 48.9392 41.14C52.0892 41.095 55.9142 40.96 55.9142 40.96L50.9642 51.58C50.6942 52.21 49.9292 54.55 52.0442 55C54.5642 55.54 55.2392 53.65 56.0492 52.21C56.8142 50.815 60.9092 41.185 60.9092 41.185C61.2242 40.465 61.8542 36.415 58.3442 36.415C55.0142 36.415 45.3392 36.64 45.3392 36.64ZM67.2194 36.685C67.2194 36.685 64.5194 36.415 64.2044 38.89C63.9794 40.69 65.4644 41.095 66.9044 41.005C70.5494 40.825 73.8344 40.825 73.8344 40.825L68.7944 51.445C68.3894 52.3 68.0294 54.415 69.8744 54.82C72.3944 55.36 73.2494 53.2 74.0144 51.76C74.8244 50.32 78.2894 42.535 79.0094 40.375C79.2344 39.7 79.7294 36.82 76.3994 36.64C73.0694 36.46 67.2194 36.685 67.2194 36.685ZM95.4794 41.32C98.3594 41.32 101.284 41.185 101.284 41.185L97.0094 51.715C97.0094 51.715 95.8844 54.64 97.9994 55.135C100.519 55.675 101.419 53.875 102.004 52.345C103.444 48.475 106.729 40.69 106.729 40.69C106.954 40.06 107.179 36.91 104.029 36.73C100.699 36.505 90.3494 36.73 90.3494 36.73C90.3494 36.73 87.6494 36.82 87.6044 38.98C87.5594 40.6 88.7294 41.095 89.6744 41.185C89.8994 41.23 90.3494 41.23 90.9344 41.275C89.8094 43.57 87.3794 49.105 86.6594 50.68L84.0044 48.205C83.8244 48.025 83.0144 47.08 81.6194 47.8C80.1794 48.565 80.3144 50.545 81.0344 51.13L84.9494 54.46C86.8844 56.125 88.9544 55.99 90.3494 53.74C91.3394 52.12 95.1644 42.13 95.4794 41.32ZM114.586 36.685C114.586 36.685 111.976 36.865 111.886 38.89C111.841 40.465 112.831 41.095 114.271 41.14C115.846 41.185 124.666 41.005 124.666 41.005L119.941 51.49C119.941 51.49 118.816 54.28 120.886 54.955C123.361 55.72 124.126 53.605 124.891 52.165C125.701 50.725 129.886 40.645 129.886 40.645C129.886 40.645 130.966 36.775 127.186 36.685C123.856 36.595 114.586 36.685 114.586 36.685ZM116.161 46.9C116.566 46.045 116.746 44.515 115.486 43.885C114.226 43.3 112.786 43.66 112.336 44.65L109.231 51.85C108.961 52.435 108.511 54.55 109.996 55.045C111.571 55.585 112.471 55 113.191 53.56C114.091 51.76 116.161 46.9 116.161 46.9ZM147.26 38.305C147.35 36.91 146.855 35.47 145.28 35.245C143.75 35.2 142.625 36.28 142.58 38.035C142.535 39.88 141.455 42.85 140.735 44.245C138.845 47.89 143.48 48.295 144.875 45.595C146.54 42.4 147.125 40.42 147.26 38.305ZM138.935 40.42C139.295 39.79 140.105 37.675 138.71 37.09C137 36.37 135.47 37.225 134.66 38.485C132.545 41.77 129.125 51.175 136.64 54.37C145.145 57.97 153.515 52.345 154.865 42.58C155 41.635 155.72 36.865 152.66 36.955C150.05 37.045 150.23 39.925 150.095 41.41C150.095 43.12 148.655 48.655 144.74 50.545C143.075 51.355 139.565 51.4 138.395 50.5C133.94 47.125 139.025 41.23 138.935 40.42ZM41.1857 71.685C41.1857 71.685 38.5757 71.865 38.4857 73.89C38.4407 75.465 39.4307 76.095 40.8707 76.14C42.4457 76.185 51.2657 76.005 51.2657 76.005L46.5407 86.49C46.5407 86.49 45.4157 89.28 47.4857 89.955C49.9607 90.72 50.7257 88.605 51.4907 87.165C52.3007 85.725 56.4857 75.645 56.4857 75.645C56.4857 75.645 57.5657 71.775 53.7857 71.685C50.4557 71.595 41.1857 71.685 41.1857 71.685ZM42.7607 81.9C43.1657 81.045 43.3457 79.515 42.0857 78.885C40.8257 78.3 39.3857 78.66 38.9357 79.65L35.8307 86.85C35.5607 87.435 35.1107 89.55 36.5957 90.045C38.1707 90.585 39.0707 90 39.7907 88.56C40.6907 86.76 42.7607 81.9 42.7607 81.9ZM67.6949 71.775C66.7499 71.82 64.8599 72.18 64.9499 73.935C65.0399 75.51 66.6149 75.78 67.7849 75.78C68.0999 75.78 69.0899 75.78 69.0899 75.78C67.6049 79.425 64.7699 85.95 64.7699 85.95C64.7699 85.95 62.8349 85.815 60.9899 85.725C59.5049 85.635 57.9749 86.175 57.6149 86.895C56.5349 88.92 58.7849 89.685 59.5949 89.82C62.3849 90.315 65.1749 90.045 65.1749 90.045C65.1749 90.045 67.9649 90 68.7299 87.615C68.7299 87.615 70.3949 83.7 71.4299 81.405C72.2399 79.605 73.6799 75.825 73.6799 75.825C74.6699 73.98 73.8149 71.685 71.5649 71.64L67.6949 71.775ZM90.7947 73.305C90.8847 71.91 90.3897 70.47 88.8147 70.245C87.2847 70.2 86.1597 71.28 86.1147 73.035C86.0697 74.88 84.9897 77.85 84.2697 79.245C82.3797 82.89 87.0147 83.295 88.4097 80.595C90.0747 77.4 90.6597 75.42 90.7947 73.305ZM82.4697 75.42C82.8297 74.79 83.6397 72.675 82.2447 72.09C80.5347 71.37 79.0047 72.225 78.1947 73.485C76.0797 76.77 72.6597 86.175 80.1747 89.37C88.6797 92.97 97.0497 87.345 98.3997 77.58C98.5347 76.635 99.2547 71.865 96.1947 71.955C93.5847 72.045 93.7647 74.925 93.6297 76.41C93.6297 78.12 92.1897 83.655 88.2747 85.545C86.6097 86.355 83.0997 86.4 81.9297 85.5C77.4747 82.125 82.5597 76.23 82.4697 75.42ZM106.36 71.685C106.36 71.685 103.75 71.865 103.66 73.89C103.615 75.465 104.605 76.095 106.045 76.14C107.62 76.185 116.44 76.005 116.44 76.005L111.715 86.49C111.715 86.49 110.59 89.28 112.66 89.955C115.135 90.72 115.9 88.605 116.665 87.165C117.475 85.725 121.66 75.645 121.66 75.645C121.66 75.645 122.74 71.775 118.96 71.685C115.63 71.595 106.36 71.685 106.36 71.685ZM107.935 81.9C108.34 81.045 108.52 79.515 107.26 78.885C106 78.3 104.56 78.66 104.11 79.65L101.005 86.85C100.735 87.435 100.285 89.55 101.77 90.045C103.345 90.585 104.245 90 104.965 88.56C105.865 86.76 107.935 81.9 107.935 81.9Z" fill="#FC653C"/>
</svg>
