<svg width="181" height="180" viewBox="0 0 181 180" fill="none" xmlns="http://www.w3.org/2000/svg">
<path d="M144.395 125.394C124.521 150.564 97.0679 158.956 71.5015 150.84C68.8128 149.984 66.2238 148.785 63.6051 147.713C62.3012 147.176 61.4934 146.485 62.8409 145.099C63.4195 144.507 64.0778 143.687 63.3987 142.845C62.8201 142.133 61.9801 142.761 61.2486 142.792C57.5199 142.92 54.0053 142.343 50.9711 139.853C36.0564 127.602 27.7716 111.96 26.9445 92.709C26.1441 74.0513 32.5154 57.954 45.8993 44.9254C60.8306 30.3858 79.0298 24.7807 99.6873 27.3572C125.857 30.6166 148.405 52.0195 153.456 77.881C157.202 97.0432 152.77 114.203 144.395 125.394Z" fill="#FC653C"/>
<path d="M147.617 90.3434C147.617 120.723 122.244 145.474 90.7914 145.474C59.3387 145.474 33.9658 120.723 33.9658 90.3434C33.9658 59.9635 59.3387 35.2129 90.7914 35.2129C122.244 35.2129 147.617 59.9635 147.617 90.3434Z" stroke="#6B53FF" stroke-width="5"/>
<path d="M72.633 123.094L79.2809 123.078C79.9769 123.076 80.5995 122.498 80.981 121.489L83.2224 115.652C83.3177 115.364 83.3888 115.027 83.3883 114.811C83.3859 113.851 82.8085 113.301 81.8005 113.279C80.4804 113.259 76.5203 113.245 73.9044 113.251C72.9684 113.253 72.3457 113.807 72.3478 114.623C72.3493 115.223 72.8542 115.606 73.7183 115.628C73.3605 116.492 72.5497 118.582 71.5241 121.153C71.405 121.513 71.3337 121.802 71.3343 122.018C71.3359 122.666 71.865 123.096 72.633 123.094ZM74.1871 120.762L76.1903 115.621L80.4865 115.683L78.4831 120.752L74.1871 120.762ZM87.2874 119.338C87.7434 119.336 88.2224 118.927 88.5568 118.278C89.0821 117.197 89.8219 115.539 90.18 114.77C90.3234 114.506 90.3945 114.17 90.3939 113.906C90.3927 113.426 90.1757 113.042 89.8153 112.875C89.4549 112.732 89.1908 112.685 89.0228 112.685C88.4468 112.687 87.9676 113 87.777 113.552C87.1574 115.33 86.6089 116.723 86.3464 117.348C86.251 117.588 86.1799 117.924 86.1805 118.188C86.1822 118.86 86.6634 119.339 87.2874 119.338ZM93.5763 123.186C94.1283 123.185 94.4392 122.776 94.6526 121.719C95.175 119.486 96.2736 117.299 97.3751 116.312C97.854 115.879 98.7414 115.637 99.8214 115.634C100.349 115.633 100.373 115.633 100.445 115.657C100.446 115.753 100.47 115.825 100.47 115.921C100.473 116.881 99.8537 118.946 99.0183 120.796L97.7941 120.703C97.0019 120.633 96.3553 121.211 96.3572 121.955C96.3588 122.579 96.8399 123.034 97.4879 123.032L99.4559 123.027C100.224 123.025 101.038 122.375 101.468 121.438C102.375 119.492 102.898 117.451 102.894 115.891C102.89 114.139 102.048 113.301 100.344 113.305C100.872 113.304 97.5112 113.144 96.2661 114.323C95.9293 114.012 95.2791 113.102 94.5111 113.104C93.9351 113.105 93.3124 113.659 93.3136 114.139C93.315 114.667 93.8934 115.625 94.4223 115.984C93.4896 117.33 92.4881 119.925 92.3476 121.341C92.2301 122.325 92.8083 123.188 93.5763 123.186ZM107.084 119.288C107.54 119.287 108.019 118.878 108.353 118.229C108.878 117.148 109.618 115.49 109.976 114.721C110.12 114.457 110.191 114.12 110.19 113.856C110.189 113.376 109.972 112.993 109.611 112.826C109.251 112.683 108.987 112.635 108.819 112.636C108.243 112.637 107.764 112.95 107.573 113.503C106.954 115.28 106.405 116.674 106.143 117.298C106.047 117.539 105.976 117.875 105.977 118.139C105.978 118.811 106.46 119.29 107.084 119.288Z" fill="#6B53FF"/>
</svg>
