<svg width="181" height="180" viewBox="0 0 181 180" fill="none" xmlns="http://www.w3.org/2000/svg">
<path d="M144.397 125.392C124.523 150.562 97.0699 158.954 71.5035 150.838C68.8148 149.982 66.2258 148.783 63.607 147.711C62.3032 147.174 61.4953 146.483 62.8428 145.097C63.4214 144.505 64.0797 143.685 63.4006 142.843C62.822 142.131 61.9821 142.759 61.2505 142.79C57.5218 142.918 54.0072 142.341 50.973 139.851C36.0583 127.6 27.7735 111.958 26.9464 92.7071C26.1461 74.0493 32.5173 57.9521 45.9013 44.9234C60.8325 30.3838 79.0318 24.7787 99.6892 27.3553C125.859 30.6147 148.407 52.0175 153.458 77.879C157.204 97.0413 152.772 114.201 144.397 125.392Z" fill="#FC653C"/>
<path d="M147.616 90.3415C147.616 120.721 122.243 145.472 90.7904 145.472C59.3377 145.472 33.9648 120.721 33.9648 90.3415C33.9648 59.9615 59.3377 35.2109 90.7904 35.2109C122.243 35.2109 147.616 59.9615 147.616 90.3415Z" stroke="#6B53FF" stroke-width="5"/>
<path d="M71.5016 121.153C70.858 122.882 72.0825 123.095 72.6105 123.094L79.2585 123.077C80.1225 123.075 80.6723 122.21 80.9585 121.489L83.2715 115.483C83.367 115.267 83.7941 113.322 81.778 113.279C79.9779 113.235 73.8819 113.251 73.8819 113.251C73.4499 113.252 72.4902 113.374 72.3488 114.43C72.2309 115.271 72.9278 115.605 73.6958 115.627C73.0518 117.213 71.5016 121.153 71.5016 121.153ZM74.1647 120.762L76.1678 115.621C77.7759 115.641 80.464 115.682 80.464 115.682L78.4607 120.751L74.1647 120.762ZM89.9839 114.77C90.1752 114.482 90.2927 113.474 89.5478 113.115C88.7549 112.757 87.8673 112.904 87.5095 113.793C87.5095 113.793 86.5801 116.435 86.0551 117.66C86.0551 117.66 85.5304 118.982 86.5156 119.459C87.4047 119.889 88.0267 119.071 88.2893 118.519C88.9339 117.149 89.9839 114.77 89.9839 114.77ZM98.0311 120.702C97.3112 120.728 96.5922 121.138 96.5941 121.906C96.5719 122.626 97.1489 123.032 97.7249 123.031L99.6929 123.026C100.557 123.024 101.347 122.254 101.705 121.437C101.92 120.933 102.612 119.491 102.896 117.834C103.465 115.073 103.1 113.25 100.485 113.304C100.485 113.304 97.6285 113.263 96.5032 114.322C96.022 113.867 94.9139 112.238 93.6936 113.705C93.1912 114.33 94.1785 115.648 94.6593 115.983C93.2723 117.978 92.6548 120.596 92.5847 121.34C92.5142 121.94 92.733 123.068 93.6212 123.161C94.4855 123.279 94.6998 122.583 94.8896 121.718C95.4595 119.245 96.6064 117.202 97.6121 116.311C98.6179 115.421 100.682 115.656 100.682 115.656C100.878 117.167 99.2553 120.795 99.2553 120.795L98.0311 120.702ZM109.639 114.721C109.831 114.433 109.948 113.424 109.203 113.066C108.41 112.708 107.523 112.855 107.165 113.743C107.165 113.743 106.236 116.386 105.711 117.611C105.711 117.611 105.186 118.932 106.171 119.41C107.06 119.84 107.682 119.022 107.945 118.469C108.589 117.1 109.639 114.721 109.639 114.721Z" fill="#FBFFDA"/>
</svg>
