<svg width="181" height="180" viewBox="0 0 181 180" fill="none" xmlns="http://www.w3.org/2000/svg">
<path d="M144.205 125.146C124.332 150.316 96.8785 158.708 71.312 150.592C68.6234 149.736 66.0344 148.537 63.4156 147.465C62.1118 146.928 61.3039 146.237 62.6514 144.851C63.23 144.259 63.8883 143.439 63.2092 142.597C62.6306 141.885 61.7907 142.513 61.0591 142.544C57.3304 142.672 53.8158 142.095 50.7816 139.605C35.8669 127.354 27.5821 111.712 26.755 92.461C25.9547 73.8032 32.3259 57.706 45.7099 44.6774C60.6411 30.1377 78.8404 24.5326 99.4978 27.1092C125.668 30.3686 148.215 51.7714 153.267 77.6329C157.013 96.7952 152.581 113.955 144.205 125.146Z" fill="#FC653C"/>
<path d="M147.413 90.0876C147.413 120.467 122.04 145.218 90.5873 145.218C59.1346 145.218 33.7617 120.467 33.7617 90.0876C33.7617 59.7076 59.1346 34.957 90.5873 34.957C122.04 34.957 147.413 59.7076 147.413 90.0876Z" stroke="#6B53FF" stroke-width="5"/>
<path d="M73.9288 115.478C75.4648 115.474 77.0246 115.398 77.0246 115.398L74.7586 121.02C74.7586 121.02 74.1625 122.582 75.2912 122.843C76.6359 123.127 77.1135 122.166 77.4235 121.349C78.1863 119.283 79.9279 115.127 79.9279 115.127C80.0471 114.791 80.1629 113.111 78.4826 113.019C76.7063 112.903 71.1866 113.037 71.1866 113.037C71.1866 113.037 69.7468 113.089 69.7257 114.241C69.7038 115.105 70.3285 115.367 70.8326 115.414C70.9526 115.438 71.1926 115.437 71.5047 115.46C70.9078 116.686 69.6192 119.641 69.2373 120.482L67.818 119.165C67.7217 119.07 67.2885 118.567 66.5454 118.953C65.7784 119.363 65.8531 120.418 66.2379 120.729L68.3303 122.5C69.3645 123.386 70.4683 123.311 71.2093 122.109C71.7352 121.244 73.7618 115.911 73.9288 115.478ZM87.2604 114.485C87.4749 113.884 87.5931 113.164 86.8484 112.878C86.0796 112.592 85.144 112.738 84.8102 113.627C84.8102 113.627 84.0953 115.645 83.6659 116.702C83.308 117.519 82.0198 120.666 82.0198 120.666C82.0198 120.666 81.3038 122.252 82.1929 122.681C83.226 123.135 83.9925 122.533 84.2549 121.884C84.4935 121.332 85.2563 119.266 85.5907 118.617C85.925 117.944 87.2604 114.485 87.2604 114.485ZM100.007 114.717C100.078 114.189 100.124 113.325 99.4032 113.086C98.6823 112.752 97.7232 113.091 97.5336 114.075C96.9647 116.885 96.6337 118.901 95.3878 119.744C94.6211 120.274 94.1173 120.324 94.1173 120.324L93.5743 114.325C93.5002 113.509 92.9947 112.886 92.155 113.009C91.3634 113.179 91.0771 113.851 91.1274 114.787C91.1523 115.147 91.7661 120.666 91.7661 120.666C91.7661 120.666 90.9262 120.716 90.6143 120.74C89.7985 120.814 89.0551 121.08 88.9848 121.752C88.9396 122.881 89.756 123.023 90.6201 123.068C92.3483 123.16 95.8275 122.815 97.5029 120.963C99.4894 118.774 100.007 114.717 100.007 114.717ZM110.312 113.779C110.358 113.035 110.092 112.268 109.252 112.15C108.436 112.128 107.837 112.705 107.816 113.641C107.794 114.625 107.222 116.211 106.84 116.956C105.837 118.902 108.31 119.112 109.05 117.67C109.934 115.964 110.243 114.907 110.312 113.779ZM105.875 114.918C106.066 114.582 106.495 113.453 105.751 113.143C104.838 112.761 104.023 113.219 103.592 113.892C102.469 115.647 100.657 120.667 104.67 122.361C109.21 124.27 113.667 121.259 114.374 116.049C114.445 115.545 114.822 113 113.19 113.052C111.799 113.103 111.898 114.639 111.828 115.431C111.831 116.343 111.07 119.297 108.985 120.31C108.098 120.745 106.226 120.773 105.6 120.295C103.22 118.501 105.924 115.35 105.875 114.918Z" fill="#FBFFDA"/>
</svg>
