<svg width="181" height="180" viewBox="0 0 181 180" fill="none" xmlns="http://www.w3.org/2000/svg">
<path d="M144.204 125.147C124.331 150.317 96.8775 158.709 71.3111 150.593C68.6224 149.737 66.0334 148.538 63.4146 147.466C62.1108 146.929 61.3029 146.238 62.6505 144.852C63.2291 144.26 63.8873 143.44 63.2083 142.598C62.6297 141.886 61.7897 142.514 61.0581 142.545C57.3295 142.673 53.8148 142.096 50.7807 139.606C35.8659 127.355 27.5812 111.713 26.7541 92.462C25.9537 73.8042 32.325 57.7069 45.7089 44.6783C60.6402 30.1387 78.8394 24.5336 99.4968 27.1101C125.667 30.3696 148.214 51.7724 153.266 77.6339C157.012 96.7962 152.58 113.956 144.204 125.147Z" fill="#FC653C"/>
<path d="M147.415 90.089C147.415 120.469 122.042 145.22 90.5892 145.22C59.1365 145.22 33.7637 120.469 33.7637 90.089C33.7637 59.7091 59.1365 34.9585 90.5892 34.9585C122.042 34.9585 147.415 59.7091 147.415 90.089Z" stroke="#6B53FF" stroke-width="5"/>
<path d="M69.2677 123.1C69.8437 123.098 70.3709 122.761 70.7532 122.112C71.2791 121.247 73.3057 115.914 73.4727 115.481C74.6007 115.478 75.8965 115.427 76.5685 115.401L74.374 120.807C74.2068 121.143 74.1357 121.504 74.1367 121.888C74.1384 122.56 74.5472 122.895 75.2912 122.893C76.0112 122.891 76.4662 122.482 76.9674 121.352C77.4447 120.295 78.2076 118.253 79.2808 115.539C79.4954 114.986 79.543 114.818 79.5426 114.65C79.5402 113.69 78.9627 113.067 78.0265 113.022C77.4264 112.975 76.4184 112.978 75.3384 112.981C74.4264 112.983 72.7465 113.011 70.7306 113.04C69.8666 113.066 69.2679 113.596 69.2697 114.292C69.2712 114.916 69.6562 115.299 70.3765 115.417C70.5206 115.441 70.7366 115.44 71.0486 115.463C70.4517 116.689 69.1631 119.644 68.7812 120.485L67.4822 119.288C67.2897 119.097 67.049 118.809 66.617 118.81C65.993 118.812 65.4903 119.341 65.4919 119.989C65.4927 120.301 65.6134 120.589 65.7818 120.732L67.8742 122.503C68.3312 122.886 68.8117 123.101 69.2677 123.1ZM82.3385 122.851C82.9385 122.85 83.4895 122.44 83.7041 121.888C83.9427 121.335 84.7055 119.269 85.0399 118.62C85.3025 118.044 86.1373 115.978 86.7096 114.488C86.805 114.248 86.8762 113.936 86.8757 113.72C86.8742 113.12 86.3692 112.737 85.5772 112.739C84.9532 112.74 84.4501 113.078 84.2594 113.63C83.9735 114.447 83.4967 115.72 83.1151 116.705C82.9005 117.234 82.0891 119.108 81.469 120.669C81.3018 120.958 81.207 121.438 81.208 121.846C81.2096 122.494 81.6185 122.853 82.3385 122.851ZM90.0956 123.096C92.7596 123.089 95.2775 122.243 96.4263 120.968C97.5992 119.693 98.982 116.041 98.9775 114.217C98.9755 113.425 98.5424 112.971 97.7504 112.973C97.1024 112.974 96.5754 113.407 96.4571 114.08C95.8881 116.889 95.5331 118.858 94.3113 119.749C93.8801 120.062 93.3527 120.304 93.0407 120.328L92.4977 114.33C92.4237 113.514 91.9424 112.987 91.2704 112.989C90.4784 112.991 90.0002 113.712 90.0509 114.792C90.1002 115.32 90.5176 119.087 90.6896 120.67C90.3296 120.695 89.7537 120.721 89.5378 120.745C88.506 120.844 87.9309 121.205 87.9083 121.757C87.8627 122.741 88.4636 123.1 90.0956 123.096ZM107.029 118.613C107.653 118.612 108.252 118.226 108.539 117.674C109.375 115.991 109.732 114.911 109.801 113.782C109.847 112.798 109.437 112.151 108.741 112.153C107.901 112.155 107.327 112.733 107.305 113.645C107.283 114.437 106.831 115.974 106.329 116.959C106.162 117.271 106.091 117.56 106.091 117.776C106.092 118.28 106.477 118.615 107.029 118.613ZM106.944 122.934C110.448 122.925 113.321 120.086 113.863 116.052C113.957 115.356 113.957 115.212 113.956 114.948C113.953 113.724 113.519 113.053 112.727 113.055C111.287 113.059 111.315 114.643 111.317 115.435C111.298 117.187 109.864 119.638 108.473 120.314C108.138 120.531 107.442 120.652 106.674 120.654C105.066 120.658 104.104 119.797 104.101 118.381C104.099 117.781 104.266 117.132 104.624 116.459C104.958 115.69 105.149 115.354 105.364 114.921C105.531 114.561 105.674 114.105 105.673 113.865C105.672 113.337 105.263 113.002 104.567 113.003C103.991 113.005 103.416 113.342 103.081 113.895C102.245 115.193 101.673 117.091 101.677 118.507C101.684 121.219 103.728 122.942 106.944 122.934Z" fill="#6B53FF"/>
</svg>
