<svg width="134" height="175" viewBox="0 0 134 175" fill="none" xmlns="http://www.w3.org/2000/svg">
<path d="M41.1434 21.4256C43.2074 21.4365 44.0808 19.6651 45.0491 18.0862C45.5819 17.177 47.7662 12.5805 50.5336 6.64304C50.6797 6.25981 50.7305 5.73207 50.733 5.25208C50.7444 3.09211 49.3113 1.78852 46.8636 1.72758C46.1918 1.67603 46.1438 1.67578 41.7759 1.6527C37.072 1.62785 34.768 1.61567 33.3758 1.65632C31.3595 1.69366 29.6717 3.17276 29.6626 4.90074C29.6542 6.48472 30.9926 7.54781 33.0083 7.60646C34.6403 7.61508 39.8247 7.54647 42.8489 7.51445L38.3366 16.6587C38.094 17.1375 37.9462 17.8567 37.9427 18.5287C37.933 20.3527 39.0794 21.4147 41.1434 21.4256ZM29.4788 21.508C30.8228 21.5151 31.9791 20.7052 32.6102 19.3645L35.1828 13.954C35.4258 13.3793 35.6216 12.6603 35.6244 12.1323C35.6323 10.6444 34.5331 9.72654 32.6132 9.7164C31.1252 9.70854 29.9206 10.5662 29.048 12.1936C28.3202 13.6778 27.3978 15.6409 26.8627 16.9821C26.5709 17.7006 26.5214 17.9883 26.5188 18.4683C26.51 20.1483 27.8468 21.4994 29.4788 21.508ZM57.8412 21.3699C59.2812 21.3775 60.3895 20.5673 61.3103 18.8922C63.2496 15.2544 64.6138 11.4215 66.2656 7.68618L67.7056 7.69379C69.4336 7.70292 70.7841 6.46204 70.793 4.78206C70.8021 3.05409 69.512 1.94326 67.496 1.9326L58.6167 1.78969C56.4089 1.73002 54.8184 2.96963 54.8092 4.69761C54.8004 6.37758 56.282 7.58543 58.394 7.59659L59.018 7.59989L54.7943 16.6017C54.5518 17.0804 54.4048 17.6557 54.4017 18.2316C54.3926 19.9596 55.9212 21.3597 57.8412 21.3699ZM76.1337 14.4584C77.4777 14.4655 78.7782 13.6084 79.5538 12.1725C81.4931 8.53465 82.8028 5.94954 82.9968 5.56656C83.2393 5.08783 83.3861 4.5606 83.3887 4.08061C83.3975 2.40063 81.8679 1.19253 79.7559 1.18137C78.2199 1.17326 77.0642 1.88716 76.5293 3.18035C75.6547 5.19176 74.2937 8.40061 73.5653 9.98079C73.3223 10.5555 73.1753 11.1307 73.1727 11.6107C73.1644 13.1947 74.4537 14.4495 76.1337 14.4584ZM86.58 21.6657C87.924 21.6728 89.5613 20.6735 90.1921 19.3808L93.8792 12.0081C95.211 14.3192 98.1605 19.3269 98.4935 19.9046C98.9202 20.9149 100.308 21.6903 101.652 21.6974C103.428 21.7067 104.682 20.6573 104.689 19.2174C104.695 18.1614 104.268 17.1511 102.508 14.0698C104.586 11.5367 106.664 8.90766 108.356 6.66056C108.742 6.1826 108.937 5.65562 108.94 5.03163C108.948 3.49565 107.372 2.0953 105.644 2.08617C104.732 2.08135 103.866 2.46078 103.238 3.17747C102.224 4.37213 100.87 6.189 99.2764 8.00461C98.3728 6.41581 97.2804 4.20201 96.0393 2.89944C95.5144 2.32065 94.8439 2.02911 94.0279 2.02479C92.8279 2.01845 91.4801 2.73134 90.8991 3.68829C90.3668 4.50149 88.7165 7.94881 87.8434 9.67222C87.0673 11.2041 84.7867 15.8482 84.3512 16.5179C83.9636 17.1878 83.6703 18.1943 83.6663 18.9623C83.6574 20.6423 84.756 21.6561 86.58 21.6657ZM54.0355 66.5984C55.8115 66.6078 57.4028 65.2242 58.134 63.116C62.6616 51.0917 64.6095 45.822 64.8065 44.863C64.9541 44.1918 64.9551 43.9998 64.9571 43.6158C64.9703 41.1198 63.4907 39.528 60.9475 39.3705C60.2758 39.319 59.5078 39.3149 58.6918 39.3106C56.7718 39.3005 53.2193 39.3777 49.9064 39.5522C47.8904 39.5415 45.9158 40.7791 44.9462 42.598C44.1221 44.1297 43.105 45.8523 42.3284 47.4803C42.1826 47.8155 42.0836 48.391 42.081 48.871C42.0709 50.7909 43.3603 52.0458 45.5195 52.2012C46.2872 52.2532 47.7262 52.4529 49.2622 52.461C52.8141 52.4797 54.5472 51.5289 54.3171 49.6556C54.088 47.5904 53.0368 46.6728 50.9726 46.7099L49.9646 46.7046L50.7872 45.4609C53.5234 45.4274 56.2599 45.3458 57.7481 45.3057C56.232 50.6258 53.8978 56.3255 51.8067 61.4505C51.4651 62.5047 51.2688 63.3197 51.266 63.8477C51.2566 65.6237 52.2116 66.5887 54.0355 66.5984ZM71.8549 52.4363C73.1988 52.4434 74.4994 51.5863 75.275 50.1504C77.2142 46.5126 78.5239 43.9275 78.7179 43.5445C78.9605 43.0658 79.1073 42.5385 79.1098 42.0585C79.1187 40.3786 77.589 39.1705 75.4771 39.1593C73.9411 39.1512 72.7853 39.8651 72.2505 41.1583C71.3758 43.1697 70.0148 46.3785 69.2865 47.9587C69.0434 48.5334 68.8964 49.1087 68.8939 49.5887C68.8855 51.1726 70.1749 52.4275 71.8549 52.4363ZM93.7066 59.9919C96.3458 60.1499 98.4161 58.9608 99.2918 56.7574C100.605 53.5003 102.119 48.6602 103.002 45.0648C103.151 44.1056 103.102 44.2973 103.102 44.2013C103.116 41.6574 101.445 39.9205 98.8536 39.7628C98.5658 39.7133 98.5658 39.7133 97.3179 39.7067C95.3019 39.6961 91.1247 39.914 87.1392 40.1809C85.0742 40.362 83.5791 41.6981 83.5703 43.3781C83.5619 44.9621 85.0443 46.0259 87.3003 46.0379C89.8922 46.0516 94.1169 45.9299 95.9419 45.7475C95.2075 48.4797 93.9427 51.641 92.7783 53.9869C90.2824 53.9737 85.3425 53.1796 83.6153 53.0265C81.6961 52.8723 80.009 54.2075 79.9999 55.9354C79.9912 57.5674 81.6169 58.776 84.1593 59.0774C86.1738 59.3761 90.9714 59.8335 93.7066 59.9919ZM3.57574 97.2282C5.11172 97.2363 6.55651 96.3319 7.18761 94.9912C7.67267 94.0338 12.9667 82.3016 13.3076 81.3914C13.5506 80.8167 13.6976 80.2414 13.7002 79.7614C13.7085 78.1775 12.3704 77.0664 10.4504 77.0562C8.81844 77.0476 7.42189 77.9042 6.88705 79.1974C5.91439 81.5923 5.03898 83.7477 4.55341 84.8012C4.01933 85.9504 2.27157 89.6852 1.20291 92.0796C0.814094 92.9895 0.618039 93.7565 0.614488 94.4285C0.605611 96.1085 1.79976 97.2188 3.57574 97.2282ZM19.9303 97.2666C23.8182 97.2872 25.406 96.5755 26.4259 94.3249C26.6199 93.9419 28.2707 90.3986 29.3378 88.2922C30.1627 86.6165 31.1833 84.2219 31.8147 82.8332C32.1535 82.307 32.301 81.6358 32.3051 80.8678C32.3155 78.8998 30.8826 77.5482 28.8184 77.5853L24.6897 77.7075C22.4812 77.7918 20.9391 78.9357 20.9308 80.5197C20.9221 82.1516 22.5008 83.168 24.9488 83.1809C24.0259 85.2401 22.3271 88.7832 21.0164 91.5603C20.2487 91.5082 18.905 91.4531 17.5615 91.35C14.8263 91.1916 12.7557 92.4286 12.7463 94.2046C12.7392 95.5486 13.9336 96.6109 15.8521 96.9091C16.8108 97.1541 18.1063 97.257 19.9303 97.2666ZM37.0939 97.4053C38.3899 97.4121 39.5457 96.6982 40.321 95.3103C43.1354 89.5651 45.5137 84.5856 45.9508 83.6279L51.5195 83.5133C50.4524 85.6197 48.9514 88.0598 47.8358 90.262C46.8172 92.2726 46.3293 93.758 46.3235 94.862C46.3146 96.542 47.462 97.4121 49.622 97.4235C51.8299 97.4352 52.6543 95.8555 53.6712 94.1808C54.0579 93.6549 57.649 86.2818 58.9119 83.4564C59.1549 82.8817 59.3033 82.0664 59.3068 81.3944C59.3195 78.9945 57.8874 77.4989 55.4874 77.4862C53.6154 77.4763 48.863 77.5472 41.6143 77.6529C39.0221 77.6872 37.0465 79.1168 37.0366 80.9888C37.03 82.2368 37.8412 83.153 39.1837 83.4481L34.3813 92.9749C34.091 93.4054 33.9925 93.8849 33.9892 94.5089C33.9808 96.0928 35.3659 97.3962 37.0939 97.4053ZM65.4771 97.5073C69.3651 97.5278 70.9529 96.8162 71.9728 94.5656C72.1668 94.1826 73.8175 90.6392 74.8847 88.5329C75.7095 86.8572 76.7302 84.4625 77.3616 83.0739C77.7003 82.5476 77.8479 81.8764 77.8519 81.1084C77.8623 79.1405 76.4295 77.7889 74.3652 77.826L70.2365 77.9481C68.0281 78.0325 66.486 79.1763 66.4776 80.7603C66.469 82.3923 68.0477 83.4087 70.4956 83.4216C69.5727 85.4807 67.874 89.0238 66.5633 91.8009C65.7956 91.7489 64.4518 91.6938 63.1084 91.5907C60.3732 91.4322 58.3026 92.6693 58.2932 94.4453C58.2861 95.7893 59.4805 96.8516 61.399 97.1497C62.3577 97.3948 63.6532 97.4976 65.4771 97.5073ZM81.6316 97.6406C82.9756 97.6477 84.6129 96.6484 85.2438 95.3557L88.9308 87.9831C90.2626 90.2941 93.2122 95.3018 93.5451 95.8796C93.9718 96.8898 95.3597 97.6652 96.7037 97.6723C98.4797 97.6817 99.7332 96.6323 99.7408 95.1923C99.7464 94.1363 99.3198 93.126 97.56 90.0447C99.6374 87.5116 101.715 84.8826 103.407 82.6355C103.794 82.1575 103.989 81.6305 103.992 81.0065C104 79.4706 102.423 78.0702 100.695 78.0611C99.7834 78.0563 98.9174 78.4357 98.2896 79.1524C97.2752 80.347 95.9216 82.1639 94.328 83.9795C93.4244 82.3907 92.3321 80.1769 91.0909 78.8744C90.566 78.2956 89.8955 78.004 89.0795 77.9997C87.8795 77.9934 86.5318 78.7063 85.9507 79.6632C85.4184 80.4764 83.7682 83.9237 82.895 85.6471C82.1189 87.1791 79.8384 91.8231 79.4028 92.4928C79.0153 93.1627 78.722 94.1692 78.7179 94.9372C78.709 96.6172 79.8077 97.631 81.6316 97.6406ZM118.251 90.106C119.835 90.1144 121.28 89.306 122.007 87.9658C123.945 84.472 124.628 82.4116 124.641 80.0116C124.651 78.0437 123.459 76.5973 121.779 76.5885C119.571 76.5768 118.076 77.9609 118.016 80.0726C117.961 81.4644 117.034 84.2435 116.066 85.8704C115.678 86.5404 115.483 87.2113 115.48 87.7873C115.472 89.1313 116.619 90.0974 118.251 90.106ZM117.969 98.1206C125.361 98.1597 131.438 92.6717 132.728 84.8064C132.875 84.2312 132.926 83.5595 132.931 82.6475C132.946 79.8635 131.802 78.3215 129.69 78.3103C127.146 78.2968 126.034 79.875 126.014 83.4749C125.999 86.4029 123.24 90.6604 120.69 91.7989C119.921 92.1309 118.72 92.3165 117.472 92.3099C114.688 92.2952 113.206 91.0874 113.218 88.8314C113.224 87.6314 113.76 86.2422 114.922 84.2323C115.842 82.7492 116.329 81.5517 116.333 80.6877C116.341 79.1518 115.099 78.0412 113.371 78.0321C111.931 78.0245 110.535 78.8331 109.664 80.0765C107.923 82.5633 106.655 86.3967 106.64 89.1327C106.621 92.8286 108.479 95.4785 112.071 96.9375C113.987 97.7156 115.953 98.11 117.969 98.1206ZM12.8065 135.085L26.1023 135.156C27.7343 135.164 29.1324 134.02 30.2963 131.77C31.2659 129.951 32.4311 127.461 33.5488 124.875C34.6182 122.337 35.2536 120.18 35.2597 119.028C35.2713 116.82 33.9335 115.661 31.2937 115.599C28.654 115.537 20.7344 115.447 15.5025 115.419C13.2945 115.408 11.5109 116.838 11.5015 118.614C11.4949 119.862 12.4019 120.827 13.8881 121.171C12.8194 123.565 10.9726 127.876 9.85516 130.414C9.51511 131.18 9.36781 131.803 9.36477 132.379C9.35691 133.867 10.8865 135.075 12.8065 135.085ZM17.2054 129.253L20.6069 121.399C21.8549 121.405 24.3026 121.466 27.3743 121.53L23.9733 129.288L17.2054 129.253ZM41.7696 128.278C43.1136 128.286 44.4142 127.428 45.1898 125.992C47.129 122.355 48.4387 119.77 48.6327 119.387C48.8753 118.908 49.022 118.381 49.0246 117.901C49.0335 116.221 47.5038 115.013 45.3918 115.001C43.8559 114.993 42.7001 115.707 42.1652 117C41.2906 119.012 39.9296 122.221 39.2013 123.801C38.9582 124.376 38.8112 124.951 38.8086 125.431C38.8003 127.015 40.0897 128.27 41.7696 128.278ZM61.1765 135.245C63.4804 135.257 64.4498 133.486 65.4669 131.764C66.3385 130.328 70.1231 122.668 70.9014 120.704C71.0957 120.273 71.1452 119.986 71.1496 119.17C71.1602 117.154 69.7748 115.898 67.4234 115.79C66.1276 115.735 65.0239 115.681 64.0639 115.676C61.088 115.66 57.9672 115.788 57.5832 115.786C55.2313 115.773 53.4479 117.156 53.4383 118.98C53.4297 120.612 55.0081 121.676 57.2648 121.544C58.6573 121.456 60.7695 121.419 63.2655 121.432C62.1018 123.634 60.5529 126.074 59.4368 128.372C58.5151 130.191 58.0273 131.676 58.0217 132.732C58.0128 134.412 59.0645 135.234 61.1765 135.245ZM75.2255 135.703C78.7782 135.578 82.1869 135.452 82.9549 135.456C84.0589 135.462 89.0996 135.345 92.6041 135.267C94.2365 135.18 95.4904 134.082 95.4975 132.738C95.5081 130.722 94.3612 129.756 91.77 129.599C93.1287 126.822 94.8269 123.375 95.604 121.651C96.0406 120.789 96.2367 120.022 96.2397 119.446C96.2514 117.238 94.8182 115.935 92.3705 115.874C91.7948 115.823 91.2668 115.82 88.9148 115.807C84.8349 115.786 82.8187 115.823 79.7464 115.855C77.5862 115.892 75.9954 117.179 75.9863 118.907C75.9776 120.539 77.3635 121.698 79.3792 121.757C81.7312 121.769 86.0994 121.745 88.3079 121.66L84.2821 129.559C82.7941 129.551 79.0497 129.627 75.6412 129.705C73.001 129.739 71.1704 130.978 71.161 132.754C71.1514 134.578 72.9205 135.883 75.2255 135.703ZM102.709 135.753C104.005 135.759 105.161 135.045 105.936 133.658C108.751 127.912 111.129 122.933 111.566 121.975L117.135 121.861C116.068 123.967 114.567 126.407 113.451 128.609C112.433 130.62 111.945 132.105 111.939 133.209C111.93 134.889 113.077 135.759 115.237 135.771C117.445 135.782 118.27 134.203 119.287 132.528C119.673 132.002 123.264 124.629 124.527 121.804C124.77 121.229 124.919 120.414 124.922 119.742C124.935 117.342 123.503 115.846 121.103 115.833C119.231 115.824 114.478 115.894 107.23 116C104.638 116.034 102.662 117.464 102.652 119.336C102.646 120.584 103.457 121.5 104.799 121.795L99.9967 131.322C99.7065 131.753 99.6079 132.232 99.6046 132.856C99.5963 134.44 100.981 135.743 102.709 135.753ZM41.4366 173.141C43.7406 173.153 44.7099 171.383 45.727 169.66C46.5986 168.225 50.3832 160.564 51.1616 158.6C51.3558 158.17 51.4054 157.882 51.4097 157.066C51.4203 155.05 50.0349 153.794 47.6835 153.686C46.3877 153.631 45.284 153.577 44.324 153.572C41.3481 153.557 38.2274 153.684 37.8434 153.682C35.4914 153.67 33.7081 155.052 33.6984 156.876C33.6898 158.508 35.2682 159.573 37.5249 159.44C38.9174 159.352 41.0296 159.315 43.5256 159.328C42.362 161.53 40.813 163.97 39.6969 166.268C38.7753 168.087 38.2874 169.573 38.2818 170.629C38.2729 172.309 39.3246 173.13 41.4366 173.141ZM55.4856 173.6C59.0383 173.474 62.447 173.348 63.215 173.352C64.319 173.358 69.3597 173.241 72.8642 173.163C74.4966 173.076 75.7505 171.979 75.7576 170.635C75.7682 168.619 74.6213 167.653 72.0301 167.495C73.3888 164.718 75.087 161.271 75.8642 159.547C76.3007 158.685 76.4968 157.918 76.4998 157.342C76.5115 155.134 75.0783 153.831 72.6306 153.77C72.0549 153.719 71.5269 153.716 69.1749 153.704C65.095 153.682 63.0788 153.719 60.0066 153.751C57.8463 153.788 56.2555 155.075 56.2464 156.803C56.2378 158.435 57.6236 159.595 59.6394 159.653C61.9913 159.666 66.3595 159.641 68.568 159.556L64.5422 167.455C63.0542 167.447 59.3098 167.524 55.9013 167.602C53.2611 167.636 51.4305 168.874 51.4211 170.65C51.4115 172.474 53.1806 173.779 55.4856 173.6ZM92.6158 173.988C95.255 174.146 97.3253 172.957 98.201 170.753C99.5142 167.496 101.028 162.656 101.911 159.061C102.06 158.101 102.011 158.293 102.011 158.197C102.025 155.653 100.354 153.916 97.7628 153.759C97.475 153.709 97.475 153.709 96.2271 153.703C94.2111 153.692 90.0339 153.91 86.0484 154.177C83.9834 154.358 82.4884 155.694 82.4795 157.374C82.4711 158.958 83.9535 160.022 86.2095 160.034C88.8014 160.047 93.0261 159.926 94.8511 159.743C94.1167 162.476 92.852 165.637 91.6876 167.983C89.1916 167.97 84.2517 167.175 82.5245 167.022C80.6053 166.868 78.9182 168.203 78.9091 169.931C78.9005 171.563 80.5261 172.772 83.0685 173.073C85.083 173.372 89.8806 173.829 92.6158 173.988Z" fill="#6B53FF"/>
</svg>
