<svg width="181" height="180" viewBox="0 0 181 180" fill="none" xmlns="http://www.w3.org/2000/svg">
<path d="M144.205 125.146C124.332 150.316 96.8785 158.708 71.312 150.592C68.6234 149.736 66.0344 148.537 63.4156 147.465C62.1118 146.928 61.3039 146.237 62.6514 144.851C63.23 144.259 63.8883 143.439 63.2092 142.597C62.6306 141.885 61.7907 142.513 61.0591 142.544C57.3304 142.672 53.8158 142.095 50.7816 139.605C35.8669 127.354 27.5821 111.712 26.755 92.461C25.9547 73.8032 32.3259 57.706 45.7099 44.6774C60.6411 30.1377 78.8404 24.5326 99.4978 27.1092C125.668 30.3686 148.215 51.7714 153.267 77.6329C157.013 96.7952 152.581 113.955 144.205 125.146Z" fill="#FC653C"/>
<path d="M147.428 90.0954C147.428 120.475 122.056 145.226 90.6029 145.226C59.1502 145.226 33.7773 120.475 33.7773 90.0954C33.7773 59.7154 59.1502 34.9648 90.6029 34.9648C122.056 34.9648 147.428 59.7154 147.428 90.0954Z" stroke="#6B53FF" stroke-width="5"/>
<path d="M74.5381 116.465C76.0741 116.461 77.6339 116.385 77.6339 116.385L75.368 122.007C75.368 122.007 74.7719 123.568 75.9005 123.829C77.2453 124.114 77.7229 123.153 78.0328 122.336C78.7957 120.27 80.5373 116.114 80.5373 116.114C80.6564 115.778 80.7722 114.097 79.092 114.005C77.3157 113.89 71.796 114.024 71.796 114.024C71.796 114.024 70.3561 114.075 70.335 115.227C70.3132 116.091 70.9378 116.354 71.442 116.401C71.562 116.424 71.802 116.424 72.1141 116.447C71.5171 117.672 70.2285 120.628 69.8466 121.469L68.4273 120.152C68.3311 120.056 67.8978 119.553 67.1548 119.939C66.3878 120.349 66.4625 121.405 66.8472 121.716L68.9397 123.487C69.9739 124.372 71.0777 124.298 71.8187 123.096C72.3445 122.23 74.3712 116.897 74.5381 116.465ZM87.8698 115.472C88.0843 114.871 88.2025 114.151 87.4577 113.865C86.689 113.578 85.7534 113.725 85.4196 114.614C85.4196 114.614 84.7046 116.631 84.2753 117.689C83.9173 118.505 82.6292 121.653 82.6292 121.653C82.6292 121.653 81.9131 123.238 82.8022 123.668C83.8354 124.122 84.6019 123.52 84.8642 122.871C85.1029 122.318 85.8657 120.253 86.2001 119.604C86.5344 118.931 87.8698 115.472 87.8698 115.472ZM92.2122 113.949C91.7802 113.95 90.9165 114.072 90.7752 115.128C90.6573 115.969 91.2821 116.303 92.0502 116.325C92.8902 116.347 98.146 116.238 98.146 116.238L96.0224 121.235C95.8315 121.644 95.4262 122.725 96.5071 123.082C97.8281 123.487 98.2333 122.358 98.6633 121.589C99.0694 120.82 100.953 116.039 100.953 116.039C101.049 115.823 101.476 113.878 99.46 113.835C97.6598 113.791 92.2122 113.949 92.2122 113.949ZM94.1467 119.728C94.2896 119.295 94.3831 118.311 93.7344 118.001C93.0616 117.691 92.3424 118.004 92.0557 118.557C91.8647 118.942 89.9102 124.346 89.9102 124.346C89.6956 124.899 89.5781 125.907 90.3227 126.145C91.1874 126.407 91.7147 126.142 92.0247 125.349C92.4302 124.34 94.1467 119.728 94.1467 119.728ZM109.297 121.946C110.276 119.784 111.181 117.069 111.539 116.252L112.739 116.249C113.123 116.272 113.867 116.055 113.865 115.239C113.887 114.422 113.309 113.944 112.613 113.946L105.461 113.916C105.461 113.916 104.07 114.015 104.024 115.095C104.002 115.935 104.531 116.27 105.299 116.292C106.139 116.314 108.851 116.211 108.851 116.211L106.513 121.713C105.94 122.818 106.733 123.56 107.454 123.679C108.558 123.844 108.939 122.739 109.297 121.946Z" fill="#FBFFDA"/>
</svg>
