<svg width="181" height="180" viewBox="0 0 181 180" fill="none" xmlns="http://www.w3.org/2000/svg">
<path d="M144.206 125.147C124.333 150.317 96.8794 158.709 71.313 150.593C68.6244 149.737 66.0354 148.538 63.4166 147.466C62.1128 146.929 61.3049 146.238 62.6524 144.852C63.231 144.26 63.8893 143.44 63.2102 142.598C62.6316 141.886 61.7916 142.514 61.0601 142.545C57.3314 142.673 53.8168 142.096 50.7826 139.606C35.8679 127.355 27.5831 111.713 26.756 92.462C25.9557 73.8042 32.3269 57.7069 45.7109 44.6783C60.6421 30.1387 78.8413 24.5336 99.4988 27.1101C125.669 30.3696 148.216 51.7724 153.268 77.6339C157.014 96.7962 152.582 113.956 144.206 125.147Z" fill="#FC653C"/>
<path d="M147.428 90.0954C147.428 120.475 122.056 145.226 90.6029 145.226C59.1502 145.226 33.7773 120.475 33.7773 90.0954C33.7773 59.7154 59.1502 34.9648 90.6029 34.9648C122.056 34.9648 147.428 59.7154 147.428 90.0954Z" stroke="#6B53FF" stroke-width="5"/>
<path d="M70.0197 124.084C70.5956 124.083 71.1228 123.745 71.5052 123.096C72.031 122.231 74.0577 116.898 74.2246 116.466C75.3526 116.463 76.6485 116.412 77.3204 116.386L75.1259 121.791C74.9588 122.128 74.8877 122.488 74.8886 122.872C74.8903 123.544 75.2992 123.879 76.0432 123.877C76.7632 123.875 77.2181 123.466 77.7193 122.337C78.1967 121.28 78.9596 119.238 80.0328 116.523C80.2474 115.971 80.295 115.802 80.2946 115.634C80.2922 114.674 79.7146 114.052 78.7785 114.006C78.1784 113.96 77.1704 113.962 76.0904 113.965C75.1784 113.967 73.4984 113.995 71.4825 114.025C70.6186 114.051 70.0199 114.58 70.0216 115.276C70.0232 115.9 70.4081 116.283 71.1284 116.401C71.2725 116.425 71.4885 116.424 71.8006 116.448C71.2036 117.673 69.915 120.628 69.5331 121.469L68.2341 120.273C68.0416 120.081 67.8009 119.794 67.3689 119.795C66.7449 119.796 66.2422 120.326 66.2439 120.974C66.2446 121.286 66.3654 121.573 66.5337 121.717L68.6262 123.488C69.0831 123.871 69.5637 124.085 70.0197 124.084ZM83.0904 123.836C83.6904 123.834 84.2414 123.425 84.456 122.872C84.6947 122.32 85.4575 120.254 85.7919 119.605C86.0544 119.028 86.8893 116.962 87.4615 115.473C87.5569 115.232 87.6282 114.92 87.6276 114.704C87.6261 114.104 87.1212 113.721 86.3292 113.723C85.7052 113.725 85.202 114.062 85.0114 114.615C84.7254 115.431 84.2486 116.705 83.8671 117.69C83.6524 118.218 82.8411 120.092 82.221 121.654C82.0537 121.942 81.9589 122.422 81.9599 122.83C81.9615 123.478 82.3704 123.837 83.0904 123.836ZM97.0111 123.177C97.9231 123.174 98.2808 122.238 98.6391 121.589C98.9735 120.916 100.166 117.961 100.858 116.207C100.953 115.919 101.024 115.583 101.024 115.367C101.021 114.407 100.444 113.856 99.4358 113.835L98.4758 113.837C97.2278 113.84 94.5639 113.895 92.188 113.949C91.396 113.951 90.8452 114.408 90.751 115.128C90.7511 115.2 90.7273 115.272 90.7274 115.32C90.7289 115.92 91.2099 116.303 92.026 116.325C92.554 116.348 95.3379 116.293 98.1218 116.238L95.9982 121.235C95.8552 121.62 95.76 121.956 95.7605 122.148C95.762 122.748 96.2911 123.179 97.0111 123.177ZM90.8747 126.24C91.4027 126.239 91.762 125.95 92.0005 125.349C92.525 123.956 93.6459 121.097 94.0746 119.8C94.1699 119.512 94.2173 119.248 94.2167 119.032C94.2149 118.288 93.8298 117.881 93.1579 117.882C92.6779 117.884 92.2465 118.149 92.0315 118.557C91.8645 118.942 90.601 122.329 89.886 124.347C89.7671 124.779 89.7197 125.019 89.7201 125.187C89.7219 125.907 90.1067 126.242 90.8747 126.24ZM107.664 123.702C108.6 123.7 108.957 122.691 109.292 121.946C110.27 119.784 111.175 117.069 111.533 116.252L112.733 116.249C113.381 116.248 113.86 115.791 113.859 115.191C113.857 114.447 113.352 113.944 112.608 113.946L105.455 113.916C104.616 113.99 104.017 114.495 104.019 115.143C104.02 115.887 104.453 116.27 105.293 116.292C105.941 116.314 107.621 116.286 108.845 116.211L106.507 121.713C106.364 122.025 106.316 122.265 106.317 122.457C106.319 123.129 106.944 123.704 107.664 123.702Z" fill="#6B53FF"/>
</svg>
