<svg width="181" height="180" viewBox="0 0 181 180" fill="none" xmlns="http://www.w3.org/2000/svg">
<path d="M144.397 124.954C124.523 150.124 97.0699 158.517 71.5035 150.4C68.8148 149.545 66.2258 148.345 63.607 147.274C62.3032 146.737 61.4953 146.046 62.8428 144.66C63.4214 144.068 64.0797 143.247 63.4006 142.406C62.822 141.693 61.9821 142.322 61.2505 142.352C57.5218 142.481 54.0072 141.903 50.973 139.413C36.0583 127.163 27.7735 111.52 26.9464 92.2696C26.1461 73.6118 32.5173 57.5146 45.9013 44.4859C60.8325 29.9463 79.0318 24.3412 99.6892 26.9178C125.859 30.1772 148.407 51.58 153.458 77.4415C157.204 96.6038 152.772 113.764 144.397 124.954Z" fill="#FC653C"/>
<path d="M57.0684 120.63C56.4247 122.36 57.6493 122.573 58.1773 122.571L64.8252 122.555C65.6892 122.553 66.2391 121.687 66.5253 120.966L68.8383 114.961C68.9337 114.744 69.3609 112.799 67.3448 112.756C65.5446 112.713 59.4487 112.728 59.4487 112.728C59.0167 112.729 58.057 112.852 57.9156 113.908C57.7977 114.748 58.4945 115.083 59.2626 115.105C58.6186 116.69 57.0684 120.63 57.0684 120.63ZM59.7314 120.239L61.7346 115.098C63.3426 115.118 66.0308 115.16 66.0308 115.16L64.0274 120.229L59.7314 120.239ZM75.5507 114.248C75.742 113.959 75.8595 112.951 75.1146 112.593C74.3217 112.235 73.434 112.381 73.0762 113.27C73.0762 113.27 72.1468 115.912 71.6219 117.138C71.6219 117.138 71.0972 118.459 72.0824 118.937C72.9715 119.366 73.5934 118.549 73.8561 117.996C74.5006 116.626 75.5507 114.248 75.5507 114.248ZM85.9574 113.598C86.0036 112.854 85.7376 112.086 84.8973 111.968C84.0813 111.947 83.4827 112.524 83.4611 113.46C83.4395 114.444 82.8675 116.03 82.4853 116.775C81.4822 118.721 83.9547 118.931 84.6951 117.489C85.5789 115.783 85.8882 114.726 85.9574 113.598ZM81.5202 114.737C81.7114 114.4 82.1406 113.271 81.3958 112.961C80.4829 112.58 79.668 113.038 79.2377 113.711C78.1141 115.465 76.3026 120.486 80.3149 122.18C84.8556 124.089 89.3121 121.077 90.0191 115.868C90.0898 115.364 90.4675 112.819 88.8356 112.871C87.4437 112.922 87.5436 114.458 87.4736 115.25C87.4758 116.162 86.7152 119.116 84.6297 120.129C83.7428 120.563 81.8709 120.592 81.2457 120.114C78.8652 118.32 81.5693 115.169 81.5202 114.737ZM98.3329 120.743C99.3115 118.58 100.217 115.866 100.575 115.049L101.775 115.046C102.159 115.069 102.902 114.851 102.9 114.035C102.922 113.219 102.345 112.741 101.649 112.743L94.4968 112.712C94.4968 112.712 93.105 112.812 93.0597 113.892C93.0378 114.732 93.5667 115.067 94.3347 115.089C95.1748 115.111 97.8865 115.008 97.8865 115.008L95.5483 120.51C94.9751 121.615 95.7689 122.357 96.4892 122.476C97.5936 122.641 97.9749 121.536 98.3329 120.743ZM110.185 114.185C110.4 113.585 110.518 112.864 109.773 112.578C109.005 112.292 108.069 112.439 107.735 113.327C107.735 113.327 107.02 115.345 106.591 116.402C106.233 117.219 104.945 120.366 104.945 120.366C104.945 120.366 104.229 121.952 105.118 122.382C106.151 122.835 106.918 122.233 107.18 121.585C107.419 121.032 108.181 118.966 108.516 118.317C108.85 117.645 110.185 114.185 110.185 114.185ZM115.56 112.636C115.248 112.637 113.784 112.736 113.715 113.816C113.645 114.681 114.102 115.015 114.99 115.037C114.298 116.503 112.388 120.732 112.388 120.732C112.245 121.02 112.031 121.957 112.728 122.339C113.521 122.769 114.216 122.383 114.598 121.614C114.909 120.965 117.486 115.247 117.486 115.031C119.166 115.003 121.206 114.926 121.206 114.926L118.58 120.596C118.437 120.933 118.032 122.182 119.16 122.419C120.505 122.704 120.863 121.695 121.293 120.926C121.699 120.181 123.87 115.039 123.87 115.039C124.037 114.655 124.368 112.494 122.496 112.498C120.72 112.503 115.56 112.636 115.56 112.636Z" fill="#FBFFDA"/>
<path d="M147.616 89.904C147.616 120.284 122.243 145.035 90.7904 145.035C59.3377 145.035 33.9648 120.284 33.9648 89.904C33.9648 59.524 59.3377 34.7734 90.7904 34.7734C122.243 34.7734 147.616 59.524 147.616 89.904Z" stroke="#6B53FF" stroke-width="5"/>
</svg>
