<svg width="181" height="180" viewBox="0 0 181 180" fill="none" xmlns="http://www.w3.org/2000/svg">
<path d="M144.395 124.957C124.521 150.127 97.0679 158.519 71.5015 150.403C68.8128 149.548 66.2238 148.348 63.6051 147.276C62.3012 146.74 61.4934 146.049 62.8409 144.663C63.4195 144.071 64.0778 143.25 63.3987 142.409C62.8201 141.696 61.9801 142.325 61.2486 142.355C57.5199 142.484 54.0053 141.906 50.9711 139.416C36.0564 127.166 27.7716 111.523 26.9445 92.2725C26.1441 73.6147 32.5154 57.5175 45.8993 44.4889C60.8306 29.9493 79.0298 24.3441 99.6873 26.9207C125.857 30.1801 148.405 51.5829 153.456 77.4445C157.202 96.6067 152.77 113.767 144.395 124.957Z" fill="#FC653C"/>
<path d="M58.4575 122.572L65.1055 122.555C65.8015 122.554 66.4241 121.976 66.8056 120.967L69.047 115.13C69.1422 114.841 69.2134 114.505 69.2129 114.289C69.2105 113.329 68.6331 112.779 67.625 112.757C66.305 112.736 62.3449 112.722 59.7289 112.729C58.7929 112.731 58.1703 113.285 58.1724 114.101C58.1739 114.701 58.6788 115.084 59.5429 115.105C59.185 115.97 58.3743 118.06 57.3487 120.631C57.2296 120.991 57.1583 121.279 57.1588 121.495C57.1605 122.143 57.6895 122.574 58.4575 122.572ZM60.0117 120.24L62.0149 115.099L66.311 115.16L64.3077 120.229L60.0117 120.24ZM73.112 118.815C73.568 118.814 74.047 118.405 74.3814 117.756C74.9067 116.675 75.6465 115.017 76.0046 114.248C76.1479 113.984 76.2191 113.648 76.2184 113.384C76.2172 112.904 76.0003 112.52 75.6399 112.353C75.2795 112.21 75.0154 112.163 74.8474 112.163C74.2714 112.165 73.7922 112.478 73.6015 113.03C72.982 114.808 72.4335 116.201 72.171 116.826C72.0756 117.066 72.0045 117.402 72.0051 117.666C72.0068 118.338 72.488 118.817 73.112 118.815ZM83.9743 118.428C84.5983 118.427 85.1973 118.041 85.4839 117.489C86.3197 115.806 86.677 114.726 86.7462 113.597C86.7917 112.613 86.3821 111.966 85.6861 111.968C84.8461 111.97 84.2716 112.548 84.2498 113.46C84.2278 114.252 83.7757 115.789 83.2741 116.774C83.1069 117.086 83.0356 117.375 83.0362 117.591C83.0374 118.095 83.4223 118.43 83.9743 118.428ZM83.8891 122.749C87.393 122.74 90.266 119.901 90.8079 115.867C90.9021 115.171 90.9018 115.027 90.9011 114.763C90.8981 113.539 90.4644 112.868 89.6724 112.87C88.2324 112.874 88.2603 114.458 88.2623 115.25C88.2427 117.002 86.8088 119.453 85.4185 120.129C85.0831 120.346 84.3874 120.467 83.6194 120.469C82.0114 120.473 81.0492 119.612 81.0457 118.196C81.0442 117.596 81.2105 116.947 81.5689 116.274C81.9029 115.505 82.0941 115.169 82.309 114.736C82.4761 114.376 82.619 113.92 82.6184 113.68C82.6171 113.152 82.2082 112.817 81.5122 112.818C80.9362 112.82 80.3611 113.157 80.0264 113.71C79.1897 115.008 78.6184 116.906 78.622 118.322C78.6287 121.034 80.6731 122.757 83.8891 122.749ZM97.5285 122.498C98.4645 122.496 98.822 121.487 99.1562 120.742C100.135 118.58 101.04 115.866 101.398 115.049L102.598 115.046C103.246 115.044 103.725 114.587 103.723 113.987C103.721 113.243 103.216 112.74 102.472 112.742L95.3201 112.712C94.4803 112.786 93.8815 113.291 93.8831 113.939C93.885 114.683 94.318 115.066 95.158 115.088C95.8061 115.111 97.486 115.082 98.7098 115.007L96.3716 120.509C96.2283 120.822 96.1809 121.062 96.1814 121.254C96.1831 121.926 96.8085 122.5 97.5285 122.498ZM105.532 122.55C106.132 122.549 106.683 122.14 106.898 121.587C107.136 121.034 107.899 118.968 108.234 118.32C108.496 117.743 109.331 115.677 109.903 114.187C109.999 113.947 110.07 113.635 110.069 113.419C110.068 112.819 109.563 112.436 108.771 112.438C108.147 112.44 107.644 112.777 107.453 113.33C107.167 114.146 106.69 115.419 106.309 116.404C106.094 116.933 105.283 118.807 104.663 120.369C104.495 120.657 104.401 121.137 104.402 121.545C104.403 122.193 104.812 122.552 105.532 122.55ZM113.094 122.531C113.598 122.53 114.03 122.193 114.316 121.616C115.128 119.886 117.204 115.153 117.204 115.033C118.428 115.006 120.035 114.954 120.923 114.928L118.298 120.598C118.178 120.887 118.107 121.199 118.108 121.463C118.109 122.111 118.542 122.47 119.31 122.468C120.318 122.465 120.628 121.601 121.01 120.928C121.225 120.495 122.18 118.309 123.492 115.257C123.659 114.921 123.73 114.561 123.73 114.177C123.727 113.121 123.149 112.498 122.213 112.501C121.277 112.503 118.901 112.557 115.278 112.638C114.318 112.64 113.479 113.171 113.433 113.819C113.363 114.635 113.772 115.018 114.708 115.039C113.681 117.274 112.631 119.533 112.106 120.734C112.01 120.926 111.963 121.166 111.964 121.43C111.965 122.078 112.446 122.533 113.094 122.531Z" fill="#6B53FF"/>
<path d="M147.617 89.9054C147.617 120.285 122.244 145.036 90.7914 145.036C59.3387 145.036 33.9658 120.285 33.9658 89.9054C33.9658 59.5255 59.3387 34.7749 90.7914 34.7749C122.244 34.7749 147.617 59.5255 147.617 89.9054Z" stroke="#6B53FF" stroke-width="5"/>
</svg>
