<svg width="186" height="185" viewBox="0 0 186 185" fill="none" xmlns="http://www.w3.org/2000/svg">
<path d="M148.046 128.639C127.602 154.68 99.3599 163.362 73.0587 154.965C70.2927 154.079 67.6293 152.839 64.9353 151.73C63.594 151.174 62.7629 150.459 64.1491 149.025C64.7443 148.413 65.4215 147.564 64.7229 146.694C64.1277 145.956 63.2636 146.606 62.511 146.638C58.6752 146.771 55.0596 146.173 51.9382 143.597C36.5947 130.922 28.0716 114.738 27.2205 94.8213C26.3969 75.5177 32.951 58.8634 46.7194 45.384C62.0795 30.3413 80.8016 24.5424 102.053 27.2084C128.975 30.581 152.17 52.725 157.367 79.4818C161.222 99.3073 156.662 117.061 148.046 128.639Z" fill="#FC653C"/>
<path d="M149.427 91.5641C149.427 121.944 124.055 146.695 92.6019 146.695C61.1492 146.695 35.7764 121.944 35.7764 91.5641C35.7764 61.1842 61.1492 36.4336 92.6019 36.4336C124.055 36.4336 149.427 61.1842 149.427 91.5641Z" stroke="#6B53FF" stroke-width="5"/>
</svg>
