<svg width="181" height="154" viewBox="0 0 181 154" fill="none" xmlns="http://www.w3.org/2000/svg">
<path d="M144.397 125.032C124.523 150.202 97.0699 158.595 71.5035 150.478C68.8148 149.623 66.2258 148.424 63.607 147.352C62.3032 146.815 61.4953 146.124 62.8428 144.738C63.4214 144.146 64.0797 143.326 63.4006 142.484C62.822 141.771 61.9821 142.4 61.2505 142.43C57.5218 142.559 54.0072 141.981 50.973 139.491C36.0583 127.241 27.7735 111.598 26.9464 92.3477C26.1461 73.6899 32.5173 57.5927 45.9013 44.5641C60.8325 30.0245 79.0318 24.4193 99.6892 26.9959C125.859 30.2553 148.407 51.6581 153.458 77.5197C157.204 96.6819 152.772 113.842 144.397 125.032Z" fill="#FC653C"/>
<path d="M72.0383 116.381C73.5743 116.377 75.1341 116.302 75.1341 116.302L72.8682 121.923C72.8682 121.923 72.2721 123.485 73.4007 123.746C74.7454 124.031 75.223 123.069 75.533 122.253C76.2958 120.187 78.0374 116.03 78.0374 116.03C78.1566 115.694 78.2724 114.014 76.5922 113.922C74.8159 113.806 69.2962 113.94 69.2962 113.94C69.2962 113.94 67.8563 113.992 67.8352 115.144C67.8133 116.008 68.438 116.27 68.9421 116.317C69.0622 116.341 69.3022 116.34 69.6142 116.363C69.0173 117.589 67.7287 120.544 67.3468 121.385L65.9275 120.069C65.8313 119.973 65.398 119.47 64.655 119.856C63.888 120.266 63.9626 121.321 64.3474 121.633L66.4398 123.403C67.474 124.289 68.5779 124.214 69.3189 123.012C69.8447 122.147 71.8714 116.814 72.0383 116.381ZM85.3699 115.388C85.5844 114.787 85.7026 114.067 84.9579 113.781C84.1892 113.495 83.2535 113.641 82.9198 114.53C82.9198 114.53 82.2048 116.548 81.7754 117.605C81.4175 118.422 80.1294 121.569 80.1294 121.569C80.1294 121.569 79.4133 123.155 80.3024 123.585C81.3355 124.038 82.102 123.436 82.3644 122.787C82.603 122.235 83.3659 120.169 83.7002 119.52C84.0346 118.847 85.3699 115.388 85.3699 115.388ZM91.8041 115.348C91.9954 115.059 92.1128 114.051 91.3679 113.693C90.575 113.335 89.6874 113.481 89.3296 114.37C89.3296 114.37 88.4002 117.012 87.8753 118.238C87.8753 118.238 87.3506 119.559 88.3358 120.037C89.2249 120.466 89.8468 119.649 90.1095 119.096C90.754 117.726 91.8041 115.348 91.8041 115.348ZM98.9208 113.89C98.4168 113.915 97.4093 114.11 97.4597 115.046C97.5098 115.886 98.3501 116.027 98.9741 116.026C99.1421 116.026 99.6701 116.024 99.6701 116.024C98.883 117.97 97.3797 121.454 97.3797 121.454C97.3797 121.454 96.3475 121.385 95.3634 121.339C94.5713 121.293 93.756 121.583 93.565 121.967C92.9917 123.049 94.1927 123.454 94.6248 123.525C96.1135 123.785 97.6011 123.637 97.6011 123.637C97.6011 123.637 99.0891 123.61 99.4939 122.337C99.4939 122.337 100.377 120.246 100.926 119.021C101.355 118.06 102.118 116.042 102.118 116.042C102.644 115.057 102.185 113.834 100.985 113.813L98.9208 113.89ZM112.203 114.673C112.249 113.929 111.983 113.161 111.143 113.044C110.327 113.022 109.728 113.599 109.706 114.535C109.685 115.519 109.113 117.105 108.731 117.85C107.727 119.796 110.2 120.006 110.94 118.564C111.824 116.858 112.133 115.801 112.203 114.673ZM107.765 115.812C107.957 115.475 108.386 114.346 107.641 114.036C106.728 113.655 105.913 114.113 105.483 114.786C104.359 116.54 102.548 121.561 106.56 123.255C111.101 125.164 115.557 122.152 116.264 116.943C116.335 116.439 116.713 113.894 115.081 113.946C113.689 113.997 113.789 115.533 113.719 116.325C113.721 117.237 112.96 120.191 110.875 121.204C109.988 121.638 108.116 121.667 107.491 121.189C105.11 119.395 107.815 116.244 107.765 115.812Z" fill="#FBFFDA"/>
<path d="M147.616 89.9821C147.616 120.362 122.243 145.113 90.7904 145.113C59.3377 145.113 33.9648 120.362 33.9648 89.9821C33.9648 59.6022 59.3377 34.8516 90.7904 34.8516C122.243 34.8516 147.616 59.6022 147.616 89.9821Z" stroke="#6B53FF" stroke-width="5"/>
</svg>
