<svg width="181" height="154" viewBox="0 0 181 154" fill="none" xmlns="http://www.w3.org/2000/svg">
<path d="M144.396 125.034C124.522 150.204 97.0689 158.596 71.5025 150.48C68.8138 149.624 66.2248 148.425 63.606 147.353C62.3022 146.816 61.4943 146.125 62.8419 144.739C63.4205 144.148 64.0787 143.327 63.3997 142.486C62.8211 141.773 61.9811 142.401 61.2495 142.432C57.5209 142.56 54.0062 141.983 50.9721 139.493C36.0574 127.242 27.7726 111.6 26.9455 92.3492C26.1451 73.6914 32.5164 57.5941 45.9003 44.5655C60.8316 30.0259 79.0308 24.4208 99.6882 26.9974C125.858 30.2568 148.406 51.6596 153.457 77.5211C157.203 96.6834 152.771 113.843 144.396 125.034Z" fill="#FC653C"/>
<path d="M67.7288 124C68.3048 123.999 68.832 123.661 69.2143 123.012C69.7402 122.147 71.7668 116.814 71.9338 116.382C73.0618 116.379 74.3576 116.327 75.0296 116.302L72.8351 121.707C72.6679 122.044 72.5968 122.404 72.5978 122.788C72.5995 123.46 73.0083 123.795 73.7523 123.793C74.4723 123.791 74.9273 123.382 75.4285 122.253C75.9058 121.196 76.6687 119.154 77.7419 116.439C77.9565 115.886 78.0041 115.718 78.0037 115.55C78.0013 114.59 77.4237 113.968 76.4876 113.922C75.8875 113.876 74.8795 113.878 73.7995 113.881C72.8875 113.883 71.2076 113.911 69.1917 113.94C68.3277 113.967 67.729 114.496 67.7308 115.192C67.7323 115.816 68.1173 116.199 68.8376 116.317C68.9817 116.341 69.1977 116.34 69.5097 116.364C68.9128 117.589 67.6242 120.544 67.2423 121.385L65.9433 120.189C65.7508 119.997 65.5101 119.71 65.0781 119.711C64.4541 119.712 63.9514 120.242 63.953 120.89C63.9538 121.202 64.0745 121.489 64.2429 121.633L66.3353 123.404C66.7923 123.786 67.2728 124.001 67.7288 124ZM80.7996 123.751C81.3996 123.75 81.9506 123.341 82.1652 122.788C82.4038 122.235 83.1666 120.169 83.501 119.521C83.7636 118.944 84.5984 116.878 85.1707 115.388C85.2661 115.148 85.3373 114.836 85.3368 114.62C85.3353 114.02 84.8303 113.637 84.0383 113.639C83.4143 113.641 82.9112 113.978 82.7205 114.531C82.4346 115.347 81.9578 116.62 81.5762 117.605C81.3615 118.134 80.5502 120.008 79.9301 121.57C79.7629 121.858 79.6681 122.338 79.6691 122.746C79.6707 123.394 80.0796 123.753 80.7996 123.751ZM89.1203 119.915C89.5763 119.913 90.0553 119.504 90.3896 118.855C90.9149 117.774 91.6548 116.116 92.0129 115.347C92.1562 115.083 92.2274 114.747 92.2267 114.483C92.2255 114.003 92.0085 113.619 91.6481 113.452C91.2878 113.309 91.0236 113.262 90.8556 113.262C90.2797 113.264 89.8004 113.577 89.6098 114.129C88.9903 115.907 88.4417 117.3 88.1793 117.925C88.0839 118.165 88.0127 118.501 88.0134 118.765C88.0151 119.437 88.4963 119.916 89.1203 119.915ZM94.9944 123.692C95.9064 123.69 96.4102 123.616 96.8658 123.447C97.3692 123.23 97.7043 122.869 97.895 122.341C98.3005 121.332 98.9447 119.842 99.3267 119.025C99.5415 118.545 99.9231 117.584 100.376 116.478C100.663 115.782 100.734 115.518 100.733 115.206C100.731 114.39 100.154 113.791 99.3857 113.817L97.3219 113.894C96.4579 113.92 95.859 114.354 95.8606 114.978C95.8623 115.65 96.3912 116.032 97.3752 116.03L98.0712 116.028C97.5942 117.205 96.7114 119.296 95.7808 121.458C95.0126 121.388 94.1485 121.342 93.5965 121.343C92.4925 121.346 91.8216 121.78 91.8234 122.5C91.8254 123.292 92.9064 123.697 94.9944 123.692ZM108.568 119.506C109.192 119.504 109.791 119.119 110.078 118.566C110.914 116.884 111.271 115.803 111.34 114.675C111.386 113.691 110.976 113.044 110.28 113.046C109.44 113.048 108.865 113.625 108.844 114.537C108.822 115.329 108.37 116.866 107.868 117.852C107.701 118.164 107.629 118.452 107.63 118.668C107.631 119.172 108.016 119.507 108.568 119.506ZM108.483 123.826C111.987 123.817 114.86 120.978 115.402 116.945C115.496 116.249 115.496 116.105 115.495 115.841C115.492 114.617 115.058 113.946 114.266 113.948C112.826 113.951 112.854 115.535 112.856 116.327C112.837 118.079 111.403 120.531 110.012 121.206C109.677 121.423 108.981 121.545 108.213 121.547C106.605 121.551 105.643 120.689 105.64 119.273C105.638 118.673 105.804 118.025 106.163 117.352C106.497 116.583 106.688 116.247 106.903 115.814C107.07 115.454 107.213 114.997 107.212 114.757C107.211 114.229 106.802 113.894 106.106 113.896C105.53 113.898 104.955 114.235 104.62 114.788C103.784 116.086 103.212 117.983 103.216 119.399C103.223 122.111 105.267 123.834 108.483 123.826Z" fill="#6B53FF"/>
<path d="M147.618 89.9826C147.618 120.363 122.245 145.113 90.7924 145.113C59.3397 145.113 33.9668 120.363 33.9668 89.9826C33.9668 59.6027 59.3397 34.8521 90.7924 34.8521C122.245 34.8521 147.618 59.6027 147.618 89.9826Z" stroke="#6B53FF" stroke-width="5"/>
</svg>
