<svg width="181" height="180" viewBox="0 0 181 180" fill="none" xmlns="http://www.w3.org/2000/svg">
<path d="M144.205 125.146C124.332 150.316 96.8785 158.708 71.312 150.592C68.6234 149.736 66.0344 148.537 63.4156 147.465C62.1118 146.928 61.3039 146.237 62.6514 144.851C63.23 144.259 63.8883 143.439 63.2092 142.597C62.6306 141.885 61.7907 142.513 61.0591 142.544C57.3304 142.672 53.8158 142.095 50.7816 139.605C35.8669 127.354 27.5821 111.712 26.755 92.461C25.9547 73.8032 32.3259 57.706 45.7099 44.6774C60.6411 30.1377 78.8404 24.5326 99.4978 27.1092C125.668 30.3686 148.215 51.7714 153.267 77.6329C157.013 96.7952 152.581 113.955 144.205 125.146Z" fill="#FC653C"/>
<path d="M147.413 90.0876C147.413 120.467 122.04 145.218 90.5873 145.218C59.1346 145.218 33.7617 120.467 33.7617 90.0876C33.7617 59.7076 59.1346 34.957 90.5873 34.957C122.04 34.957 147.413 59.7076 147.413 90.0876Z" stroke="#6B53FF" stroke-width="5"/>
<path d="M67.7288 123.102C68.3048 123.1 68.832 122.763 69.2143 122.114C69.7402 121.249 71.7668 115.916 71.9338 115.483C73.0618 115.48 74.3576 115.429 75.0296 115.403L72.8351 120.809C72.6679 121.145 72.5968 121.505 72.5978 121.889C72.5995 122.561 73.0083 122.896 73.7523 122.895C74.4723 122.893 74.9273 122.484 75.4285 121.354C75.9058 120.297 76.6687 118.255 77.7419 115.541C77.9565 114.988 78.0041 114.82 78.0037 114.652C78.0013 113.692 77.4237 113.069 76.4876 113.024C75.8875 112.977 74.8795 112.98 73.7995 112.982C72.8875 112.985 71.2076 113.013 69.1917 113.042C68.3277 113.068 67.729 113.598 67.7308 114.294C67.7323 114.918 68.1173 115.301 68.8376 115.419C68.9817 115.442 69.1977 115.442 69.5097 115.465C68.9128 116.691 67.6242 119.646 67.2423 120.487L65.9433 119.29C65.7508 119.099 65.5101 118.811 65.0781 118.812C64.4541 118.814 63.9514 119.343 63.953 119.991C63.9538 120.303 64.0745 120.591 64.2429 120.734L66.3353 122.505C66.7923 122.888 67.2728 123.103 67.7288 123.102ZM80.7996 122.853C81.3996 122.851 81.9506 122.442 82.1652 121.89C82.4038 121.337 83.1666 119.271 83.501 118.622C83.7636 118.046 84.5984 115.979 85.1707 114.49C85.2661 114.25 85.3373 113.938 85.3368 113.722C85.3353 113.122 84.8303 112.739 84.0383 112.741C83.4143 112.742 82.9112 113.08 82.7205 113.632C82.4346 114.449 81.9578 115.722 81.5762 116.707C81.3616 117.236 80.5502 119.11 79.9301 120.671C79.7629 120.96 79.6681 121.44 79.6691 121.848C79.6707 122.496 80.0796 122.855 80.7996 122.853ZM89.1203 119.016C89.5763 119.015 90.0553 118.606 90.3896 117.957C90.9149 116.876 91.6548 115.218 92.0129 114.449C92.1562 114.185 92.2274 113.848 92.2267 113.584C92.2255 113.104 92.0086 112.721 91.6481 112.554C91.2878 112.411 91.0237 112.363 90.8557 112.364C90.2797 112.365 89.8004 112.678 89.6098 113.231C88.9903 115.008 88.4417 116.402 88.1793 117.026C88.0839 117.267 88.0127 117.603 88.0134 117.867C88.0151 118.539 88.4963 119.018 89.1203 119.016ZM94.9944 122.793C95.9064 122.791 96.4102 122.718 96.8658 122.549C97.3692 122.332 97.7043 121.971 97.895 121.442C98.3005 120.433 98.9448 118.944 99.3267 118.127C99.5415 117.646 99.9231 116.685 100.376 115.58C100.663 114.883 100.734 114.619 100.733 114.307C100.731 113.491 100.154 112.893 99.3857 112.918L97.3219 112.996C96.4579 113.022 95.859 113.455 95.8606 114.079C95.8623 114.751 96.3912 115.134 97.3752 115.131L98.0712 115.13C97.5942 116.307 96.7114 118.397 95.7808 120.559C95.0126 120.489 94.1485 120.444 93.5965 120.445C92.4925 120.448 91.8216 120.881 91.8234 121.601C91.8254 122.393 92.9064 122.799 94.9944 122.793ZM108.568 118.608C109.192 118.606 109.791 118.22 110.078 117.668C110.914 115.986 111.271 114.905 111.34 113.777C111.386 112.792 110.976 112.145 110.28 112.147C109.44 112.149 108.865 112.727 108.844 113.639C108.822 114.431 108.37 115.968 107.868 116.953C107.701 117.266 107.629 117.554 107.63 117.77C107.631 118.274 108.016 118.609 108.568 118.608ZM108.483 122.928C111.987 122.919 114.86 120.08 115.402 116.046C115.496 115.35 115.496 115.206 115.495 114.942C115.492 113.718 115.058 113.047 114.266 113.049C112.826 113.053 112.854 114.637 112.856 115.429C112.837 117.181 111.403 119.632 110.012 120.308C109.677 120.525 108.981 120.646 108.213 120.648C106.605 120.652 105.643 119.791 105.64 118.375C105.638 117.775 105.804 117.126 106.163 116.454C106.497 115.685 106.688 115.348 106.903 114.916C107.07 114.555 107.213 114.099 107.212 113.859C107.211 113.331 106.802 112.996 106.106 112.998C105.53 112.999 104.955 113.337 104.62 113.889C103.784 115.187 103.212 117.085 103.216 118.501C103.223 121.213 105.267 122.936 108.483 122.928Z" fill="#FBFFDA"/>
</svg>
