<svg width="180" height="179" viewBox="0 0 180 179" fill="none" xmlns="http://www.w3.org/2000/svg">
<path d="M143.646 124.572C123.772 149.742 96.3189 158.135 70.7525 150.018C68.0638 149.163 65.4748 147.964 62.856 146.892C61.5522 146.355 60.7443 145.664 62.0919 144.278C62.6705 143.686 63.3287 142.866 62.6497 142.024C62.0711 141.311 61.2311 141.94 60.4995 141.971C56.7709 142.099 53.2562 141.522 50.2221 139.031C35.3074 126.781 27.0226 111.138 26.1955 91.8877C25.3951 73.23 31.7664 57.1327 45.1503 44.1041C60.0816 29.5645 78.2808 23.9594 98.9382 26.5359C125.108 29.7953 147.656 51.1982 152.707 77.0597C156.453 96.2219 152.021 113.382 143.646 124.572Z" fill="#FC653C"/>
<path d="M146.868 89.5212C146.868 119.901 121.495 144.652 90.0424 144.652C58.5897 144.652 33.2168 119.901 33.2168 89.5212C33.2168 59.1412 58.5897 34.3906 90.0424 34.3906C121.495 34.3906 146.868 59.1412 146.868 89.5212Z" stroke="#6B53FF" stroke-width="5"/>
<path d="M67.1702 123.516C67.7462 123.514 68.2734 123.177 68.6557 122.528C69.1816 121.663 71.2083 116.33 71.3752 115.897C72.5032 115.894 73.799 115.843 74.471 115.817L72.2765 121.223C72.1093 121.559 72.0382 121.92 72.0392 122.304C72.0409 122.976 72.4497 123.31 73.1937 123.309C73.9137 123.307 74.3687 122.898 74.8699 121.768C75.3472 120.711 76.1101 118.669 77.1833 115.955C77.398 115.402 77.4455 115.234 77.4451 115.066C77.4427 114.106 76.8652 113.483 75.929 113.438C75.3289 113.391 74.3209 113.394 73.2409 113.396C72.3289 113.399 70.649 113.427 68.6331 113.456C67.7691 113.482 67.1704 114.012 67.1722 114.708C67.1737 115.332 67.5587 115.715 68.279 115.833C68.4231 115.857 68.6391 115.856 68.9511 115.879C68.3542 117.105 67.0656 120.06 66.6837 120.901L65.3847 119.704C65.1922 119.513 64.9515 119.225 64.5195 119.226C63.8955 119.228 63.3928 119.757 63.3944 120.405C63.3952 120.717 63.5159 121.005 63.6843 121.148L65.7767 122.919C66.2337 123.302 66.7142 123.517 67.1702 123.516ZM80.241 123.267C80.841 123.266 81.392 122.856 81.6066 122.304C81.8452 121.751 82.6081 119.685 82.9424 119.036C83.205 118.46 84.0398 116.394 84.6121 114.904C84.7075 114.664 84.7787 114.352 84.7782 114.136C84.7767 113.536 84.2717 113.153 83.4797 113.155C82.8557 113.156 82.3526 113.494 82.162 114.046C81.876 114.863 81.3992 116.136 81.0176 117.121C80.803 117.65 79.9916 119.524 79.3715 121.085C79.2043 121.374 79.1095 121.854 79.1105 122.262C79.1121 122.91 79.521 123.269 80.241 123.267ZM88.5617 119.43C89.0177 119.429 89.4967 119.02 89.831 118.371C90.3563 117.29 91.0962 115.632 91.4543 114.863C91.5976 114.599 91.6688 114.262 91.6681 113.998C91.6669 113.518 91.45 113.135 91.0895 112.968C90.7292 112.825 90.4651 112.777 90.2971 112.778C89.7211 112.779 89.2418 113.092 89.0512 113.645C88.4317 115.423 87.8831 116.816 87.6207 117.441C87.5253 117.681 87.4541 118.017 87.4548 118.281C87.4565 118.953 87.9377 119.432 88.5617 119.43ZM94.4358 123.208C95.3478 123.205 95.8516 123.132 96.3072 122.963C96.8106 122.746 97.1457 122.385 97.3364 121.856C97.7419 120.847 98.3862 119.358 98.7681 118.541C98.9829 118.06 99.3645 117.099 99.8178 115.994C100.104 115.297 100.175 115.033 100.175 114.721C100.173 113.905 99.595 113.307 98.8271 113.333L96.7633 113.41C95.8993 113.436 95.3004 113.869 95.302 114.493C95.3037 115.165 95.8326 115.548 96.8166 115.546L97.5126 115.544C97.0356 116.721 96.1528 118.811 95.2222 120.974C94.454 120.903 93.5899 120.858 93.0379 120.859C91.9339 120.862 91.263 121.295 91.2648 122.015C91.2668 122.807 92.3478 123.213 94.4358 123.208ZM108.01 119.022C108.634 119.02 109.233 118.635 109.519 118.082C110.355 116.4 110.712 115.319 110.781 114.191C110.827 113.207 110.417 112.56 109.721 112.561C108.881 112.563 108.307 113.141 108.285 114.053C108.263 114.845 107.811 116.382 107.309 117.367C107.142 117.68 107.071 117.968 107.071 118.184C107.073 118.688 107.458 119.023 108.01 119.022ZM107.924 123.342C111.428 123.333 114.301 120.494 114.843 116.46C114.937 115.764 114.937 115.62 114.936 115.356C114.933 114.132 114.5 113.461 113.708 113.463C112.268 113.467 112.296 115.051 112.298 115.843C112.278 117.595 110.844 120.047 109.454 120.722C109.118 120.939 108.423 121.061 107.655 121.062C106.047 121.066 105.084 120.205 105.081 118.789C105.079 118.189 105.246 117.54 105.604 116.868C105.938 116.099 106.129 115.762 106.344 115.33C106.511 114.969 106.654 114.513 106.654 114.273C106.652 113.745 106.244 113.41 105.548 113.412C104.972 113.413 104.396 113.751 104.062 114.303C103.225 115.602 102.654 117.499 102.657 118.915C102.664 121.627 104.708 123.35 107.924 123.342Z" fill="#6B53FF"/>
</svg>
