<svg width="218" height="201" viewBox="0 0 218 201" fill="none" xmlns="http://www.w3.org/2000/svg">
<path d="M304.634 84.6232C262.419 138.395 204.102 156.323 149.793 138.982C144.082 137.155 138.583 134.593 133.02 132.303C130.25 131.156 128.534 129.68 131.396 126.719C132.625 125.454 134.024 123.702 132.581 121.904C131.352 120.381 129.568 121.724 128.014 121.789C120.093 122.064 112.628 120.83 106.182 115.51C74.4998 89.3379 56.9007 55.9201 55.1432 14.7939C53.4426 -25.0656 66.976 -59.4548 95.406 -87.2881C127.123 -118.349 165.782 -130.323 209.662 -124.818C265.253 -117.854 313.149 -72.1297 323.881 -16.8803C331.839 24.0571 322.424 60.7167 304.634 84.6232Z" fill="#FF6D46"/>
<path d="M309.151 8.06653C309.151 71.7605 255.97 123.567 190.151 123.567C124.333 123.567 71.1514 71.7605 71.1514 8.06653C71.1514 -55.6274 124.333 -107.433 190.151 -107.433C255.97 -107.433 309.151 -55.6274 309.151 8.06653Z" stroke="#6249FF" stroke-width="7"/>
<path d="M269.651 8.06653C269.651 18.441 267.582 28.7138 263.562 38.2985C259.541 47.8832 253.649 56.5921 246.22 63.928C238.791 71.2638 229.972 77.0829 220.266 81.053C210.56 85.0231 200.157 87.0665 189.651 87.0665C179.146 87.0665 168.743 85.0231 159.037 81.053C149.331 77.0829 140.512 71.2638 133.083 63.928C125.654 56.5921 119.761 47.8832 115.741 38.2985C111.721 28.7138 109.651 18.441 109.651 8.06653" stroke="#6249FF" stroke-width="7" stroke-linecap="round"/>
</svg>
