<svg width="306" height="239" viewBox="0 0 306 239" fill="none" xmlns="http://www.w3.org/2000/svg">
<path d="M304.634 265.623C262.419 319.395 204.102 337.323 149.793 319.982C144.082 318.155 138.583 315.593 133.02 313.303C130.25 312.156 128.534 310.68 131.396 307.719C132.625 306.454 134.024 304.702 132.581 302.904C131.352 301.381 129.568 302.724 128.014 302.789C120.093 303.064 112.628 301.83 106.182 296.51C74.4998 270.338 56.9007 236.92 55.1432 195.794C53.4426 155.934 66.976 121.545 95.406 93.7119C127.123 62.6506 165.782 50.6766 209.662 56.1816C265.253 63.1457 313.149 108.87 323.881 164.12C331.839 205.057 322.424 241.717 304.634 265.623Z" fill="#FF6D46"/>
<path d="M309.151 189.067C309.151 252.761 255.97 304.567 190.151 304.567C124.333 304.567 71.1514 252.761 71.1514 189.067C71.1514 125.373 124.333 73.5667 190.151 73.5667C255.97 73.5667 309.151 125.373 309.151 189.067Z" stroke="#6249FF" stroke-width="7"/>
<ellipse cx="217.651" cy="158.066" rx="9" ry="19" fill="#6249FF"/>
<ellipse cx="157.651" cy="158.066" rx="9" ry="19" fill="#6249FF"/>
<path d="M269.651 189.066C269.651 199.441 267.582 209.714 263.562 219.298C259.541 228.883 253.649 237.592 246.22 244.928C238.791 252.264 229.972 258.083 220.266 262.053C210.56 266.023 200.157 268.066 189.651 268.066C179.146 268.066 168.743 266.023 159.037 262.053C149.331 258.083 140.512 252.264 133.083 244.928C125.654 237.592 119.761 228.883 115.741 219.298C111.721 209.714 109.651 199.441 109.651 189.066" stroke="#6249FF" stroke-width="7" stroke-linecap="round"/>
</svg>
