<svg width="65" height="729" viewBox="0 0 65 729" fill="none" xmlns="http://www.w3.org/2000/svg">
<path d="M25.063 491.462C3.85218 518.48 -25.449 527.488 -52.7364 518.775C-55.6061 517.857 -58.3693 516.569 -61.1644 515.419C-62.556 514.843 -63.4183 514.101 -61.98 512.613C-61.3625 511.978 -60.6599 511.097 -61.3847 510.194C-62.0023 509.429 -62.8988 510.103 -63.6796 510.136C-67.6592 510.274 -71.4104 509.654 -74.6489 506.981C-90.5677 493.831 -99.4103 477.04 -100.293 456.377C-101.148 436.349 -94.348 419.07 -80.0634 405.085C-64.1273 389.479 -44.7032 383.462 -22.6552 386.228C5.27649 389.727 29.3417 412.702 34.7337 440.462C38.7323 461.031 34.0019 479.45 25.063 491.462Z" fill="#FC653C"/>
<path d="M26.5895 452.996C26.5895 484.57 0.220657 510.288 -32.4606 510.288C-65.1419 510.288 -91.5107 484.57 -91.5107 452.996C-91.5107 421.423 -65.1419 395.705 -32.4606 395.705C0.220657 395.705 26.5895 421.423 26.5895 452.996Z" stroke="#6B53FF" stroke-width="5"/>
<path d="M7.48573 452.996C7.48573 458.208 6.44603 463.37 4.426 468.186C2.40596 473.002 -0.554859 477.377 -4.2874 481.063C-8.01995 484.749 -12.4511 487.673 -17.3279 489.668C-22.2047 491.662 -27.4316 492.689 -32.7103 492.689C-37.9889 492.689 -43.2158 491.662 -48.0926 489.668C-52.9694 487.673 -57.4006 484.749 -61.1331 481.063C-64.8657 477.377 -67.8265 473.002 -69.8465 468.186C-71.8666 463.37 -72.9063 458.208 -72.9062 452.996" stroke="#6B53FF" stroke-width="5" stroke-linecap="round"/>
<line x1="4.79883" y1="451.736" x2="10.5248" y2="451.736" stroke="#6B53FF" stroke-width="5" stroke-linecap="round"/>
<path d="M26.063 133.462C4.85218 160.48 -24.449 169.488 -51.7364 160.775C-54.6061 159.857 -57.3693 158.569 -60.1644 157.419C-61.556 156.843 -62.4183 156.101 -60.98 154.613C-60.3625 153.978 -59.6599 153.097 -60.3847 152.194C-61.0023 151.429 -61.8988 152.103 -62.6796 152.136C-66.6592 152.274 -70.4104 151.654 -73.6489 148.981C-89.5677 135.831 -98.4103 119.04 -99.2934 98.3765C-100.148 78.3491 -93.348 61.0702 -79.0634 47.0854C-63.1273 31.4787 -43.7032 25.4623 -21.6552 28.2283C6.27649 31.7274 30.3417 54.7017 35.7337 82.4618C39.7323 103.031 35.0019 121.45 26.063 133.462Z" fill="#FC653C"/>
<path d="M27.5895 94.9961C27.5895 126.57 1.22066 152.288 -31.4606 152.288C-64.1419 152.288 -90.5107 126.57 -90.5107 94.9961C-90.5107 63.4227 -64.1419 37.7046 -31.4606 37.7046C1.22066 37.7046 27.5895 63.4227 27.5895 94.9961Z" stroke="#6B53FF" stroke-width="5"/>
<path d="M8.48573 94.9956C8.48573 100.208 7.44603 105.37 5.426 110.186C3.40596 115.002 0.445141 119.377 -3.2874 123.063C-7.01995 126.749 -11.4511 129.673 -16.3279 131.668C-21.2047 133.662 -26.4316 134.689 -31.7103 134.689C-36.9889 134.689 -42.2158 133.662 -47.0926 131.668C-51.9694 129.673 -56.4006 126.749 -60.1331 123.063C-63.8657 119.377 -66.8265 115.002 -68.8465 110.186C-70.8666 105.37 -71.9063 100.208 -71.9062 94.9956" stroke="#6B53FF" stroke-width="5" stroke-linecap="round"/>
<line x1="5.79883" y1="93.7363" x2="11.5248" y2="93.7363" stroke="#6B53FF" stroke-width="5" stroke-linecap="round"/>
<path d="M26.063 312.462C4.85218 339.48 -24.449 348.488 -51.7364 339.775C-54.6061 338.857 -57.3693 337.569 -60.1644 336.419C-61.556 335.843 -62.4183 335.101 -60.98 333.613C-60.3625 332.978 -59.6599 332.097 -60.3847 331.194C-61.0023 330.429 -61.8988 331.103 -62.6796 331.136C-66.6592 331.274 -70.4104 330.654 -73.6489 327.981C-89.5677 314.831 -98.4103 298.04 -99.2934 277.377C-100.148 257.349 -93.348 240.07 -79.0634 226.085C-63.1273 210.479 -43.7032 204.462 -21.6552 207.228C6.27649 210.727 30.3417 233.702 35.7337 261.462C39.7323 282.031 35.0019 300.45 26.063 312.462Z" fill="#FC653C"/>
<path d="M27.5895 273.996C27.5895 305.57 1.22066 331.288 -31.4606 331.288C-64.1419 331.288 -90.5107 305.57 -90.5107 273.996C-90.5107 242.423 -64.1419 216.705 -31.4606 216.705C1.22066 216.705 27.5895 242.423 27.5895 273.996Z" stroke="#6B53FF" stroke-width="5"/>
<path d="M8.48573 273.996C8.48573 279.208 7.44603 284.37 5.426 289.186C3.40596 294.002 0.445141 298.377 -3.2874 302.063C-7.01995 305.749 -11.4511 308.673 -16.3279 310.668C-21.2047 312.662 -26.4316 313.689 -31.7103 313.689C-36.9889 313.689 -42.2158 312.662 -47.0926 310.668C-51.9694 308.673 -56.4006 305.749 -60.1331 302.063C-63.8657 298.377 -66.8265 294.002 -68.8465 289.186C-70.8666 284.37 -71.9063 279.208 -71.9062 273.996" stroke="#6B53FF" stroke-width="5" stroke-linecap="round"/>
<line x1="5.79883" y1="272.736" x2="11.5248" y2="272.736" stroke="#6B53FF" stroke-width="5" stroke-linecap="round"/>
<path d="M24.063 670.462C2.85218 697.48 -26.449 706.488 -53.7364 697.775C-56.6061 696.857 -59.3693 695.569 -62.1644 694.419C-63.556 693.843 -64.4183 693.101 -62.98 691.613C-62.3625 690.978 -61.6599 690.097 -62.3847 689.194C-63.0023 688.429 -63.8988 689.103 -64.6796 689.136C-68.6592 689.274 -72.4104 688.654 -75.6489 685.981C-91.5677 672.831 -100.41 656.04 -101.293 635.377C-102.148 615.349 -95.348 598.07 -81.0634 584.085C-65.1273 568.479 -45.7032 562.462 -23.6552 565.228C4.27649 568.727 28.3417 591.702 33.7337 619.462C37.7323 640.031 33.0019 658.45 24.063 670.462Z" fill="#FC653C"/>
<path d="M25.5895 631.996C25.5895 663.57 -0.779343 689.288 -33.4606 689.288C-66.1419 689.288 -92.5107 663.57 -92.5107 631.996C-92.5107 600.423 -66.1419 574.705 -33.4606 574.705C-0.779343 574.705 25.5895 600.423 25.5895 631.996Z" stroke="#6B53FF" stroke-width="5"/>
<path d="M6.48573 631.996C6.48573 637.208 5.44603 642.37 3.426 647.186C1.40596 652.002 -1.55486 656.377 -5.2874 660.063C-9.01995 663.749 -13.4511 666.673 -18.3279 668.668C-23.2047 670.662 -28.4316 671.689 -33.7103 671.689C-38.9889 671.689 -44.2158 670.662 -49.0926 668.668C-53.9694 666.673 -58.4006 663.749 -62.1331 660.063C-65.8657 656.377 -68.8265 652.002 -70.8465 647.186C-72.8666 642.37 -73.9063 637.208 -73.9062 631.996" stroke="#6B53FF" stroke-width="5" stroke-linecap="round"/>
<line x1="3.79883" y1="630.736" x2="9.52476" y2="630.736" stroke="#6B53FF" stroke-width="5" stroke-linecap="round"/>
</svg>
