<svg width="180" height="179" viewBox="0 0 180 179" fill="none" xmlns="http://www.w3.org/2000/svg">
<path d="M143.646 124.572C123.772 149.742 96.3189 158.135 70.7525 150.018C68.0638 149.163 65.4748 147.964 62.856 146.892C61.5522 146.355 60.7443 145.664 62.0919 144.278C62.6705 143.686 63.3287 142.866 62.6497 142.024C62.0711 141.311 61.2311 141.94 60.4995 141.971C56.7709 142.099 53.2562 141.522 50.2221 139.031C35.3074 126.781 27.0226 111.138 26.1955 91.8877C25.3951 73.23 31.7664 57.1327 45.1503 44.1041C60.0816 29.5645 78.2808 23.9594 98.9382 26.5359C125.108 29.7953 147.656 51.1982 152.707 77.0597C156.453 96.2219 152.021 113.382 143.646 124.572Z" fill="#FC653C"/>
<path d="M146.427 88.5641C146.427 118.944 121.055 143.695 89.6019 143.695C58.1492 143.695 32.7764 118.944 32.7764 88.5641C32.7764 58.1842 58.1492 33.4336 89.6019 33.4336C121.055 33.4336 146.427 58.1842 146.427 88.5641Z" stroke="#6B53FF" stroke-width="5"/>
<ellipse cx="104.359" cy="74.4196" rx="4.52205" ry="9.54655" fill="#6B53FF"/>
<ellipse cx="74.2105" cy="74.4196" rx="4.52205" ry="9.54655" fill="#6B53FF"/>
<path d="M130.486 89.9951C130.486 95.2077 129.446 100.369 127.426 105.185C125.406 110.001 122.445 114.377 118.713 118.063C114.98 121.749 110.549 124.672 105.672 126.667C100.795 128.662 95.5684 129.689 90.2897 129.689C85.0111 129.689 79.7842 128.662 74.9074 126.667C70.0306 124.672 65.5994 121.749 61.8669 118.063C58.1343 114.377 55.1735 110.001 53.1535 105.185C51.1334 100.369 50.0937 95.2077 50.0938 89.9951" stroke="#6B53FF" stroke-width="5" stroke-linecap="round"/>
</svg>
