<svg width="80" height="844" viewBox="0 0 80 844" fill="none" xmlns="http://www.w3.org/2000/svg">
<path d="M158.063 109.462C136.852 136.48 107.551 145.488 80.2636 136.775C77.3939 135.857 74.6307 134.569 71.8356 133.419C70.444 132.843 69.5817 132.101 71.02 130.613C71.6375 129.978 72.3401 129.097 71.6153 128.194C70.9977 127.429 70.1012 128.103 69.3204 128.136C65.3408 128.274 61.5896 127.654 58.3511 124.981C42.4323 111.831 33.5897 95.0403 32.7066 74.3765C31.8521 54.3491 38.652 37.0702 52.9366 23.0854C68.8727 7.47865 88.2968 1.46232 110.345 4.22832C138.276 7.72739 162.342 30.7017 167.734 58.4618C171.732 79.0308 167.002 97.4504 158.063 109.462Z" fill="#FC653C"/>
<path d="M159.589 70.9961C159.589 102.57 133.221 128.288 100.539 128.288C67.8581 128.288 41.4893 102.57 41.4893 70.9961C41.4893 39.4227 67.8581 13.7046 100.539 13.7046C133.221 13.7046 159.589 39.4227 159.589 70.9961Z" stroke="#6B53FF" stroke-width="5"/>
<ellipse cx="84.2105" cy="55.4201" rx="4.52205" ry="9.54655" fill="#6B53FF"/>
<path d="M140.486 70.9956C140.486 76.2082 139.446 81.3698 137.426 86.1857C135.406 91.0015 132.445 95.3773 128.713 99.0632C124.98 102.749 120.549 105.673 115.672 107.668C110.795 109.662 105.568 110.689 100.29 110.689C95.0111 110.689 89.7842 109.662 84.9074 107.668C80.0306 105.673 75.5994 102.749 71.8669 99.0632C68.1343 95.3773 65.1735 91.0015 63.1535 86.1857C61.1334 81.3698 60.0937 76.2082 60.0938 70.9956" stroke="#6B53FF" stroke-width="5" stroke-linecap="round"/>
<line x1="57.3545" y1="69.7363" x2="63.0804" y2="69.7363" stroke="#6B53FF" stroke-width="5" stroke-linecap="round"/>
<path d="M155.063 293.462C133.852 320.48 104.551 329.488 77.2636 320.775C74.3939 319.857 71.6307 318.569 68.8356 317.419C67.444 316.843 66.5817 316.101 68.02 314.613C68.6375 313.978 69.3401 313.097 68.6153 312.194C67.9977 311.429 67.1012 312.103 66.3204 312.136C62.3408 312.274 58.5896 311.654 55.3511 308.981C39.4323 295.831 30.5897 279.04 29.7066 258.377C28.8521 238.349 35.652 221.07 49.9366 207.085C65.8727 191.479 85.2968 185.462 107.345 188.228C135.276 191.727 159.342 214.702 164.734 242.462C168.732 263.031 164.002 281.45 155.063 293.462Z" fill="#FC653C"/>
<path d="M156.589 254.996C156.589 286.57 130.221 312.288 97.5394 312.288C64.8581 312.288 38.4893 286.57 38.4893 254.996C38.4893 223.423 64.8581 197.705 97.5394 197.705C130.221 197.705 156.589 223.423 156.589 254.996Z" stroke="#6B53FF" stroke-width="5"/>
<ellipse cx="81.2105" cy="239.42" rx="4.52205" ry="9.54655" fill="#6B53FF"/>
<path d="M137.486 254.996C137.486 260.208 136.446 265.37 134.426 270.186C132.406 275.002 129.445 279.377 125.713 283.063C121.98 286.749 117.549 289.673 112.672 291.668C107.795 293.662 102.568 294.689 97.2897 294.689C92.0111 294.689 86.7842 293.662 81.9074 291.668C77.0306 289.673 72.5994 286.749 68.8669 283.063C65.1343 279.377 62.1735 275.002 60.1535 270.186C58.1334 265.37 57.0937 260.208 57.0938 254.996" stroke="#6B53FF" stroke-width="5" stroke-linecap="round"/>
<line x1="54.3545" y1="253.736" x2="60.0804" y2="253.736" stroke="#6B53FF" stroke-width="5" stroke-linecap="round"/>
<path d="M155.063 475.462C133.852 502.48 104.551 511.488 77.2636 502.775C74.3939 501.857 71.6307 500.569 68.8356 499.419C67.444 498.843 66.5817 498.101 68.02 496.613C68.6375 495.978 69.3401 495.097 68.6153 494.194C67.9977 493.429 67.1012 494.103 66.3204 494.136C62.3408 494.274 58.5896 493.654 55.3511 490.981C39.4323 477.831 30.5897 461.04 29.7066 440.377C28.8521 420.349 35.652 403.07 49.9366 389.085C65.8727 373.479 85.2968 367.462 107.345 370.228C135.276 373.727 159.342 396.702 164.734 424.462C168.732 445.031 164.002 463.45 155.063 475.462Z" fill="#FC653C"/>
<path d="M156.589 436.996C156.589 468.57 130.221 494.288 97.5394 494.288C64.8581 494.288 38.4893 468.57 38.4893 436.996C38.4893 405.423 64.8581 379.705 97.5394 379.705C130.221 379.705 156.589 405.423 156.589 436.996Z" stroke="#6B53FF" stroke-width="5"/>
<ellipse cx="81.2105" cy="421.42" rx="4.52205" ry="9.54655" fill="#6B53FF"/>
<path d="M137.486 436.996C137.486 442.208 136.446 447.37 134.426 452.186C132.406 457.002 129.445 461.377 125.713 465.063C121.98 468.749 117.549 471.673 112.672 473.668C107.795 475.662 102.568 476.689 97.2897 476.689C92.0111 476.689 86.7842 475.662 81.9074 473.668C77.0306 471.673 72.5994 468.749 68.8669 465.063C65.1343 461.377 62.1735 457.002 60.1535 452.186C58.1334 447.37 57.0937 442.208 57.0938 436.996" stroke="#6B53FF" stroke-width="5" stroke-linecap="round"/>
<line x1="54.3545" y1="435.736" x2="60.0804" y2="435.736" stroke="#6B53FF" stroke-width="5" stroke-linecap="round"/>
<path d="M154.063 655.462C132.852 682.48 103.551 691.488 76.2636 682.775C73.3939 681.857 70.6307 680.569 67.8356 679.419C66.444 678.843 65.5817 678.101 67.02 676.613C67.6375 675.978 68.3401 675.097 67.6153 674.194C66.9977 673.429 66.1012 674.103 65.3204 674.136C61.3408 674.274 57.5896 673.654 54.3511 670.981C38.4323 657.831 29.5897 641.04 28.7066 620.377C27.8521 600.349 34.652 583.07 48.9366 569.085C64.8727 553.479 84.2968 547.462 106.345 550.228C134.276 553.727 158.342 576.702 163.734 604.462C167.732 625.031 163.002 643.45 154.063 655.462Z" fill="#FC653C"/>
<path d="M155.589 616.996C155.589 648.57 129.221 674.288 96.5394 674.288C63.8581 674.288 37.4893 648.57 37.4893 616.996C37.4893 585.423 63.8581 559.705 96.5394 559.705C129.221 559.705 155.589 585.423 155.589 616.996Z" stroke="#6B53FF" stroke-width="5"/>
<ellipse cx="80.2105" cy="601.42" rx="4.52205" ry="9.54655" fill="#6B53FF"/>
<path d="M136.486 616.996C136.486 622.208 135.446 627.37 133.426 632.186C131.406 637.002 128.445 641.377 124.713 645.063C120.98 648.749 116.549 651.673 111.672 653.668C106.795 655.662 101.568 656.689 96.2897 656.689C91.0111 656.689 85.7842 655.662 80.9074 653.668C76.0306 651.673 71.5994 648.749 67.8669 645.063C64.1343 641.377 61.1735 637.002 59.1535 632.186C57.1334 627.37 56.0937 622.208 56.0938 616.996" stroke="#6B53FF" stroke-width="5" stroke-linecap="round"/>
<line x1="53.3545" y1="615.736" x2="59.0804" y2="615.736" stroke="#6B53FF" stroke-width="5" stroke-linecap="round"/>
<path d="M153.063 830.462C131.852 857.48 102.551 866.488 75.2636 857.775C72.3939 856.857 69.6307 855.569 66.8356 854.419C65.444 853.843 64.5817 853.101 66.02 851.613C66.6375 850.978 67.3401 850.097 66.6153 849.194C65.9977 848.429 65.1012 849.103 64.3204 849.136C60.3408 849.274 56.5896 848.654 53.3511 845.981C37.4323 832.831 28.5897 816.04 27.7066 795.377C26.8521 775.349 33.652 758.07 47.9366 744.085C63.8727 728.479 83.2968 722.462 105.345 725.228C133.276 728.727 157.342 751.702 162.734 779.462C166.732 800.031 162.002 818.45 153.063 830.462Z" fill="#FC653C"/>
<path d="M154.589 791.996C154.589 823.57 128.221 849.288 95.5394 849.288C62.8581 849.288 36.4893 823.57 36.4893 791.996C36.4893 760.423 62.8581 734.705 95.5394 734.705C128.221 734.705 154.589 760.423 154.589 791.996Z" stroke="#6B53FF" stroke-width="5"/>
<ellipse cx="79.2105" cy="776.42" rx="4.52205" ry="9.54655" fill="#6B53FF"/>
<path d="M135.486 791.996C135.486 797.208 134.446 802.37 132.426 807.186C130.406 812.002 127.445 816.377 123.713 820.063C119.98 823.749 115.549 826.673 110.672 828.668C105.795 830.662 100.568 831.689 95.2897 831.689C90.0111 831.689 84.7842 830.662 79.9074 828.668C75.0306 826.673 70.5994 823.749 66.8669 820.063C63.1343 816.377 60.1735 812.002 58.1535 807.186C56.1334 802.37 55.0937 797.208 55.0938 791.996" stroke="#6B53FF" stroke-width="5" stroke-linecap="round"/>
<line x1="52.3545" y1="790.736" x2="58.0804" y2="790.736" stroke="#6B53FF" stroke-width="5" stroke-linecap="round"/>
</svg>
