<svg width="192" height="165" viewBox="0 0 192 165" fill="none" xmlns="http://www.w3.org/2000/svg">
<path d="M153.477 106.882C132.266 133.9 102.965 142.908 75.6777 134.195C72.808 133.277 70.0447 131.989 67.2497 130.839C65.8581 130.263 64.9958 129.521 66.434 128.033C67.0516 127.398 67.7541 126.517 67.0293 125.614C66.4118 124.849 65.5153 125.523 64.7345 125.556C60.7548 125.694 57.0036 125.074 53.7652 122.401C37.8464 109.251 29.0037 92.4603 28.1207 71.7964C27.2662 51.769 34.066 34.4902 48.3507 20.5053C64.2868 4.89858 83.7109 -1.11776 105.759 1.64824C133.691 5.14731 157.756 28.1216 163.148 55.8817C167.146 76.4507 162.416 94.8703 153.477 106.882Z" fill="#FC653C"/>
<path d="M155.004 68.416C155.004 99.9895 128.635 125.708 95.9534 125.708C63.2722 125.708 36.9033 99.9895 36.9033 68.416C36.9033 36.8426 63.2722 11.1245 95.9534 11.1245C128.635 11.1245 155.004 36.8426 155.004 68.416Z" stroke="#6B53FF" stroke-width="5"/>
<ellipse cx="109.773" cy="52.84" rx="4.52205" ry="9.54655" fill="#6B53FF"/>
<ellipse cx="79.6246" cy="52.84" rx="4.52205" ry="9.54655" fill="#6B53FF"/>
<path d="M135.9 68.4155C135.9 73.6282 134.86 78.7897 132.84 83.6056C130.82 88.4214 127.859 92.7972 124.127 96.4831C120.394 100.169 115.963 103.093 111.086 105.088C106.209 107.082 100.982 108.109 95.7038 108.109C90.4252 108.109 85.1983 107.082 80.3215 105.088C75.4447 103.093 71.0135 100.169 67.2809 96.4831C63.5484 92.7972 60.5876 88.4214 58.5675 83.6056C56.5475 78.7897 55.5078 73.6282 55.5078 68.4155" stroke="#6B53FF" stroke-width="5" stroke-linecap="round"/>
<line x1="52.7686" y1="67.1562" x2="58.4945" y2="67.1562" stroke="#6B53FF" stroke-width="5" stroke-linecap="round"/>
<line x1="133.213" y1="67.1562" x2="138.939" y2="67.1562" stroke="#6B53FF" stroke-width="5" stroke-linecap="round"/>
</svg>
