<svg width="192" height="165" viewBox="0 0 192 165" fill="none" xmlns="http://www.w3.org/2000/svg">
<path d="M153.478 106.884C132.267 133.902 102.966 142.91 75.6786 134.197C72.809 133.279 70.0457 131.991 67.2506 130.841C65.8591 130.265 64.9968 129.523 66.435 128.035C67.0525 127.4 67.7551 126.519 67.0303 125.616C66.4127 124.851 65.5162 125.525 64.7355 125.558C60.7558 125.696 57.0046 125.076 53.7662 122.403C37.8474 109.253 29.0047 92.4622 28.1217 71.7984C27.2672 51.771 34.067 34.4921 48.3517 20.5073C64.2877 4.90052 83.7119 -1.11581 105.76 1.6502C133.692 5.14926 157.757 28.1236 163.149 55.8837C167.147 76.4526 162.417 94.8723 153.478 106.884Z" fill="#FC653C"/>
<path d="M155.003 68.4165C155.003 99.99 128.634 125.708 95.9525 125.708C63.2712 125.708 36.9023 99.99 36.9023 68.4165C36.9023 36.8431 63.2712 11.125 95.9525 11.125C128.634 11.125 155.003 36.8431 155.003 68.4165Z" stroke="#6B53FF" stroke-width="5"/>
<ellipse cx="109.772" cy="52.8434" rx="4.52205" ry="9.54655" fill="#6B53FF"/>
<ellipse cx="79.6236" cy="52.8434" rx="4.52205" ry="9.54655" fill="#6B53FF"/>
<path d="M135.9 68.418C135.9 73.6306 134.86 78.7922 132.84 83.608C130.82 88.4239 127.859 92.7997 124.127 96.4855C120.394 100.171 115.963 103.095 111.086 105.09C106.209 107.085 100.982 108.112 95.7038 108.112C90.4252 108.112 85.1983 107.085 80.3215 105.09C75.4447 103.095 71.0135 100.171 67.2809 96.4855C63.5484 92.7997 60.5876 88.4239 58.5675 83.608C56.5475 78.7922 55.5078 73.6306 55.5078 68.418" stroke="#6B53FF" stroke-width="5" stroke-linecap="round"/>
<line x1="52.7695" y1="67.1602" x2="58.4955" y2="67.1602" stroke="#6B53FF" stroke-width="5" stroke-linecap="round"/>
<line x1="133.211" y1="67.1602" x2="138.937" y2="67.1602" stroke="#6B53FF" stroke-width="5" stroke-linecap="round"/>
</svg>
