<svg width="181" height="179" viewBox="0 0 181 179" fill="none" xmlns="http://www.w3.org/2000/svg">
<path d="M144.204 124.573C124.331 149.743 96.8775 158.135 71.3111 150.019C68.6224 149.163 66.0334 147.964 63.4146 146.892C62.1108 146.356 61.3029 145.664 62.6505 144.278C63.2291 143.687 63.8873 142.866 63.2083 142.025C62.6297 141.312 61.7897 141.94 61.0581 141.971C57.3295 142.099 53.8148 141.522 50.7807 139.032C35.8659 126.781 27.5812 111.139 26.7541 91.8882C25.9537 73.2305 32.325 57.1332 45.7089 44.1046C60.6402 29.565 78.8394 23.9599 99.4968 26.5364C125.667 29.7958 148.214 51.1987 153.266 77.0602C157.012 96.2224 152.58 113.382 144.204 124.573Z" fill="#FC653C"/>
<path d="M70.6769 122.241L77.3249 122.225C78.0209 122.223 78.6434 121.645 79.0249 120.636L81.2663 114.799C81.3616 114.511 81.4328 114.174 81.4322 113.958C81.4298 112.998 80.8525 112.448 79.8444 112.426C78.5243 112.406 74.5643 112.391 71.9483 112.398C71.0123 112.4 70.3897 112.954 70.3917 113.77C70.3932 114.37 70.8982 114.753 71.7622 114.775C71.4044 115.639 70.5936 117.729 69.5681 120.3C69.449 120.66 69.3777 120.948 69.3782 121.164C69.3798 121.812 69.9089 122.243 70.6769 122.241ZM72.2311 119.909L74.2342 114.768L78.5304 114.83L76.5271 119.899L72.2311 119.909ZM85.3314 118.485C85.7874 118.483 86.2664 118.074 86.6007 117.425C87.126 116.344 87.8659 114.686 88.224 113.917C88.3673 113.653 88.4385 113.317 88.4378 113.053C88.4366 112.573 88.2196 112.189 87.8592 112.022C87.4989 111.879 87.2347 111.832 87.0668 111.832C86.4908 111.834 86.0115 112.147 85.8209 112.699C85.2014 114.477 84.6528 115.87 84.3904 116.495C84.295 116.735 84.2238 117.071 84.2245 117.335C84.2262 118.007 84.7074 118.486 85.3314 118.485ZM91.2055 122.262C92.1175 122.26 92.6213 122.186 93.0769 122.017C93.5803 121.8 93.9154 121.439 94.1061 120.911C94.5116 119.902 95.1559 118.412 95.5378 117.595C95.7526 117.115 96.1342 116.154 96.5875 115.048C96.8737 114.352 96.9451 114.088 96.9443 113.776C96.9422 112.96 96.3647 112.361 95.5968 112.387L93.533 112.464C92.669 112.49 92.0701 112.924 92.0717 113.548C92.0734 114.22 92.6023 114.602 93.5863 114.6L94.2823 114.598C93.8053 115.775 92.9225 117.866 91.9919 120.028C91.2237 119.958 90.3596 119.912 89.8076 119.913C88.7036 119.916 88.0327 120.35 88.0345 121.07C88.0365 121.862 89.1175 122.267 91.2055 122.262ZM104.779 118.076C105.403 118.074 106.002 117.689 106.289 117.136C107.125 115.454 107.482 114.373 107.551 113.245C107.597 112.261 107.187 111.614 106.491 111.616C105.651 111.618 105.077 112.195 105.055 113.107C105.033 113.899 104.581 115.436 104.079 116.422C103.912 116.734 103.841 117.022 103.841 117.238C103.842 117.742 104.227 118.077 104.779 118.076ZM104.694 122.396C108.198 122.387 111.071 119.548 111.613 115.515C111.707 114.819 111.707 114.675 111.706 114.411C111.703 113.187 111.269 112.516 110.477 112.518C109.037 112.521 109.065 114.105 109.067 114.897C109.048 116.649 107.614 119.101 106.223 119.776C105.888 119.993 105.192 120.115 104.424 120.117C102.816 120.121 101.854 119.259 101.851 117.843C101.849 117.243 102.016 116.595 102.374 115.922C102.708 115.153 102.899 114.817 103.114 114.384C103.281 114.024 103.424 113.567 103.423 113.327C103.422 112.799 103.013 112.464 102.317 112.466C101.741 112.468 101.166 112.805 100.831 113.358C99.9947 114.656 99.4234 116.553 99.427 117.969C99.4337 120.681 101.478 122.404 104.694 122.396Z" fill="#6B53FF"/>
<path d="M147.427 89.5221C147.427 119.902 122.054 144.653 90.601 144.653C59.1483 144.653 33.7754 119.902 33.7754 89.5221C33.7754 59.1422 59.1483 34.3916 90.601 34.3916C122.054 34.3916 147.427 59.1422 147.427 89.5221Z" stroke="#6B53FF" stroke-width="5"/>
</svg>
