<svg width="181" height="179" viewBox="0 0 181 179" fill="none" xmlns="http://www.w3.org/2000/svg">
<path d="M144.205 124.571C124.332 149.741 96.8785 158.134 71.312 150.017C68.6234 149.162 66.0344 147.963 63.4156 146.891C62.1118 146.354 61.3039 145.663 62.6514 144.277C63.23 143.685 63.8883 142.865 63.2092 142.023C62.6306 141.31 61.7907 141.939 61.0591 141.97C57.3304 142.098 53.8158 141.521 50.7816 139.03C35.8669 126.78 27.5821 111.137 26.755 91.8868C25.9547 73.229 32.3259 57.1317 45.7099 44.1031C60.6411 29.5635 78.8404 23.9584 99.4978 26.535C125.668 29.7944 148.215 51.1972 153.267 77.0587C157.013 96.221 152.581 113.381 144.205 124.571Z" fill="#FC653C"/>
<path d="M69.1227 120.299C68.4791 122.029 69.7036 122.242 70.2316 122.24L76.8796 122.224C77.7436 122.222 78.2934 121.356 78.5796 120.636L80.8926 114.63C80.9881 114.413 81.4152 112.468 79.3991 112.425C77.599 112.382 71.503 112.397 71.503 112.397C71.071 112.398 70.1113 112.521 69.9699 113.577C69.852 114.417 70.5489 114.752 71.3169 114.774C70.6729 116.359 69.1227 120.299 69.1227 120.299ZM71.7858 119.909L73.7889 114.767C75.397 114.787 78.0851 114.829 78.0851 114.829L76.0818 119.898L71.7858 119.909ZM87.605 113.917C87.7963 113.628 87.9138 112.62 87.1689 112.262C86.376 111.904 85.4884 112.05 85.1306 112.939C85.1306 112.939 84.2012 115.581 83.6762 116.807C83.6762 116.807 83.1515 118.128 84.1367 118.606C85.0258 119.035 85.6478 118.218 85.9104 117.665C86.555 116.296 87.605 113.917 87.605 113.917ZM94.7217 112.459C94.2178 112.484 93.2103 112.679 93.2606 113.615C93.3107 114.455 94.1511 114.597 94.7751 114.595C94.9431 114.595 95.4711 114.593 95.4711 114.593C94.6839 116.539 93.1806 120.023 93.1806 120.023C93.1806 120.023 92.1485 119.954 91.1643 119.908C90.3722 119.862 89.5569 120.152 89.3659 120.537C88.7926 121.618 89.9936 122.023 90.4258 122.094C91.9145 122.354 93.4021 122.206 93.4021 122.206C93.4021 122.206 94.89 122.179 95.2948 120.906C95.2948 120.906 96.1776 118.816 96.7266 117.59C97.1562 116.629 97.9191 114.611 97.9191 114.611C98.4447 113.626 97.9856 112.403 96.7855 112.382L94.7217 112.459ZM108.004 113.242C108.05 112.498 107.784 111.73 106.944 111.613C106.127 111.591 105.529 112.168 105.507 113.104C105.486 114.088 104.914 115.674 104.532 116.419C103.528 118.365 106.001 118.575 106.741 117.133C107.625 115.427 107.934 114.37 108.004 113.242ZM103.566 114.381C103.758 114.045 104.187 112.915 103.442 112.605C102.529 112.224 101.714 112.682 101.284 113.355C100.16 115.11 98.3488 120.13 102.361 121.824C106.902 123.733 111.358 120.722 112.065 115.512C112.136 115.008 112.514 112.463 110.882 112.515C109.49 112.566 109.59 114.102 109.52 114.894C109.522 115.806 108.761 118.76 106.676 119.773C105.789 120.208 103.917 120.236 103.292 119.758C100.911 117.964 103.616 114.813 103.566 114.381Z" fill="#FBFFDA"/>
<path d="M147.428 89.5212C147.428 119.901 122.056 144.652 90.6029 144.652C59.1502 144.652 33.7773 119.901 33.7773 89.5212C33.7773 59.1412 59.1502 34.3906 90.6029 34.3906C122.056 34.3906 147.428 59.1412 147.428 89.5212Z" stroke="#6B53FF" stroke-width="5"/>
</svg>
