<svg width="147" height="118" viewBox="0 0 147 118" fill="none" xmlns="http://www.w3.org/2000/svg">
<path d="M27.9721 -171.56C28.4778 -172.092 29.3647 -171.916 29.6293 -171.232L38.3877 -148.58C38.6169 -147.987 39.3338 -147.755 39.8663 -148.102L60.2139 -161.362C60.8285 -161.762 61.6509 -161.387 61.7505 -160.66L65.0489 -136.598C65.1352 -135.969 65.7794 -135.578 66.3776 -135.793L89.2345 -144.002C89.925 -144.25 90.6386 -143.695 90.5679 -142.965L88.2284 -118.791C88.1671 -118.159 88.704 -117.63 89.3356 -117.701L113.47 -120.419C114.199 -120.501 114.765 -119.796 114.528 -119.102L106.677 -96.1191C106.471 -95.5176 106.872 -94.8796 107.503 -94.8031L131.613 -91.8813C132.341 -91.793 132.729 -90.9766 132.338 -90.3557L119.399 -69.8035C119.06 -69.2656 119.303 -68.5524 119.899 -68.3324L142.685 -59.9292C143.374 -59.6753 143.563 -58.7913 143.04 -58.2773L125.709 -41.2632C125.256 -40.8179 125.327 -40.068 125.857 -39.7164L146.091 -26.2848C146.702 -25.879 146.683 -24.9751 146.055 -24.5957L125.268 -12.0369C124.724 -11.7082 124.62 -10.962 125.055 -10.4978L141.646 7.23809C142.147 7.77386 141.92 8.649 141.221 8.87334L118.098 16.2998C117.493 16.4942 117.22 17.1964 117.536 17.7482L129.59 38.8323C129.954 39.4692 129.531 40.2683 128.8 40.3256L104.587 42.2193C103.953 42.2688 103.526 42.8893 103.706 43.4989L110.572 66.7945C110.78 67.4982 110.184 68.1783 109.459 68.0653L85.4627 64.3241C84.8346 64.2262 84.2758 64.7314 84.3101 65.3661L85.6193 89.6173C85.6588 90.3499 84.9223 90.8742 84.243 90.5971L61.756 81.4228C61.1675 81.1827 60.5072 81.5454 60.3942 82.1709L56.0754 106.07C55.9449 106.792 55.1073 107.133 54.5102 106.706L34.7451 92.5934C34.2278 92.2241 33.5017 92.4247 33.2475 93.0073L23.5335 115.266C23.2401 115.939 22.3465 116.077 21.8639 115.524L5.88619 97.2338C5.46803 96.7551 4.71522 96.7829 4.33349 97.2911L-10.2519 116.71C-10.6925 117.297 -11.5938 117.225 -11.9361 116.576L-23.265 95.0938C-23.5615 94.5315 -24.3004 94.385 -24.7891 94.7915L-43.4597 110.323C-44.0237 110.793 -44.8841 110.515 -45.0675 109.805L-51.1369 86.2887C-51.2957 85.6732 -51.9809 85.3602 -52.5501 85.6431L-74.2994 96.4506C-74.9564 96.7771 -75.7296 96.3085 -75.7442 95.5749L-76.2268 71.2933C-76.2395 70.6578 -76.834 70.1952 -77.4531 70.3391L-101.109 75.8396C-101.823 76.0058 -102.467 75.3715 -102.312 74.6544L-97.1824 50.9159C-97.0481 50.2946 -97.5199 49.7074 -98.1556 49.7047L-122.442 49.6016C-123.175 49.5985 -123.656 48.8327 -123.34 48.1707L-112.874 26.2551C-112.6 25.6816 -112.923 25.0013 -113.541 24.8521L-137.149 19.151C-137.862 18.9788 -138.153 18.1228 -137.693 17.5515L-122.455 -1.35956C-122.056 -1.85449 -122.214 -2.59104 -122.781 -2.87871L-144.438 -13.8705C-145.092 -14.2025 -145.178 -15.1026 -144.598 -15.5523L-125.409 -30.4395C-124.907 -30.8291 -124.891 -31.5822 -125.376 -31.9929L-143.914 -47.6828C-144.474 -48.1567 -144.35 -49.0523 -143.683 -49.3562L-121.578 -59.4169C-120.999 -59.6802 -120.81 -60.4094 -121.188 -60.9208L-135.608 -80.4629C-136.043 -81.0533 -135.716 -81.8961 -134.996 -82.0378L-111.167 -86.7296C-110.544 -86.8524 -110.191 -87.5183 -110.44 -88.103L-119.965 -110.444C-120.253 -111.119 -119.74 -111.863 -119.007 -111.835L-94.7383 -110.905C-94.1031 -110.881 -93.6067 -111.448 -93.7145 -112.074L-97.8302 -136.009C-97.9545 -136.732 -97.2838 -137.339 -96.577 -137.142L-73.1769 -130.64C-72.5645 -130.47 -71.9508 -130.907 -71.9112 -131.542L-70.3961 -155.781C-70.3504 -156.513 -69.5579 -156.948 -68.9154 -156.594L-47.6455 -144.871C-47.0889 -144.565 -46.391 -144.848 -46.2061 -145.456L-39.1419 -168.693C-38.9285 -169.395 -38.0571 -169.635 -37.5135 -169.143L-19.5205 -152.831C-19.0495 -152.404 -18.3051 -152.519 -17.9849 -153.068L-5.75251 -174.049C-5.38299 -174.683 -4.47946 -174.716 -4.06421 -174.111L9.68205 -154.089C10.0418 -153.565 10.7928 -153.506 11.2309 -153.966L27.9721 -171.56Z" fill="#ECFF7B"/>
</svg>
