<svg width="292" height="293" viewBox="0 0 292 293" fill="none" xmlns="http://www.w3.org/2000/svg">
<path d="M172.972 3.43953C173.478 2.90804 174.365 3.08395 174.629 3.76823L183.388 26.4204C183.617 27.0133 184.334 27.2447 184.866 26.8976L205.214 13.6382C205.829 13.2377 206.651 13.6134 206.751 14.3403L210.049 38.4017C210.135 39.0314 210.779 39.4219 211.378 39.207L234.235 30.9975C234.925 30.7495 235.639 31.3047 235.568 32.035L233.228 56.2085C233.167 56.8412 233.704 57.3697 234.336 57.2986L258.47 54.5815C259.199 54.4994 259.765 55.2042 259.528 55.8985L251.677 78.8809C251.471 79.4824 251.872 80.1204 252.503 80.1969L276.613 83.1187C277.341 83.207 277.729 84.0234 277.338 84.6443L264.399 105.197C264.06 105.734 264.303 106.448 264.899 106.668L287.685 115.071C288.374 115.325 288.563 116.209 288.04 116.723L270.709 133.737C270.256 134.182 270.327 134.932 270.857 135.284L291.091 148.715C291.702 149.121 291.683 150.025 291.055 150.404L270.268 162.963C269.724 163.292 269.62 164.038 270.055 164.502L286.646 182.238C287.147 182.774 286.92 183.649 286.221 183.873L263.098 191.3C262.493 191.494 262.22 192.196 262.536 192.748L274.59 213.832C274.954 214.469 274.531 215.268 273.8 215.326L249.587 217.219C248.953 217.269 248.526 217.889 248.706 218.499L255.572 241.794C255.78 242.498 255.184 243.178 254.459 243.065L230.463 239.324C229.835 239.226 229.276 239.731 229.31 240.366L230.619 264.617C230.659 265.35 229.922 265.874 229.243 265.597L206.756 256.423C206.167 256.183 205.507 256.545 205.394 257.171L201.075 281.07C200.945 281.792 200.107 282.133 199.51 281.706L179.745 267.593C179.228 267.224 178.502 267.425 178.247 268.007L168.534 290.266C168.24 290.939 167.347 291.077 166.864 290.524L150.886 272.234C150.468 271.755 149.715 271.783 149.333 272.291L134.748 291.71C134.307 292.297 133.406 292.225 133.064 291.576L121.735 270.094C121.439 269.532 120.7 269.385 120.211 269.791L101.54 285.323C100.976 285.793 100.116 285.515 99.9325 284.805L93.8631 261.289C93.7043 260.673 93.0191 260.36 92.4499 260.643L70.7006 271.451C70.0436 271.777 69.2704 271.308 69.2558 270.575L68.7732 246.293C68.7605 245.658 68.166 245.195 67.5469 245.339L43.8915 250.84C43.1769 251.006 42.5326 250.371 42.6876 249.654L47.8176 225.916C47.9519 225.295 47.4801 224.707 46.8444 224.705L22.5582 224.602C21.8246 224.598 21.3439 223.833 21.6601 223.171L32.1263 201.255C32.4003 200.682 32.0766 200.001 31.4587 199.852L7.85087 194.151C7.13773 193.979 6.84663 193.123 7.30695 192.552L22.5452 173.64C22.944 173.146 22.7859 172.409 22.2191 172.121L0.562362 161.13C-0.0918473 160.797 -0.177683 159.897 0.40197 159.448L19.5906 144.561C20.0928 144.171 20.1088 143.418 19.6237 143.007L1.0856 127.317C0.525604 126.843 0.649648 125.948 1.31739 125.644L23.422 115.583C24.0005 115.32 24.1898 114.591 23.8124 114.079L9.39238 94.5371C8.95678 93.9467 9.28402 93.1039 10.0038 92.9622L33.8328 88.2704C34.4564 88.1476 34.8088 87.4817 34.5595 86.897L25.0349 64.5562C24.7472 63.8813 25.2599 63.1366 25.9931 63.1647L50.2617 64.0947C50.8969 64.1191 51.3933 63.5524 51.2855 62.926L47.1698 38.9908C47.0455 38.2678 47.7162 37.6614 48.423 37.8578L71.8231 44.3595C72.4355 44.5297 73.0492 44.0928 73.0888 43.4584L74.6039 19.2192C74.6496 18.487 75.4421 18.0517 76.0846 18.4058L97.3545 30.1286C97.9111 30.4354 98.609 30.1519 98.7939 29.5437L105.858 6.30731C106.071 5.60538 106.943 5.36456 107.486 5.85731L125.48 22.1693C125.95 22.5962 126.695 22.4812 127.015 21.9321L139.247 0.951165C139.617 0.31737 140.521 0.284011 140.936 0.888832L154.682 20.9106C155.042 21.4346 155.793 21.4944 156.231 21.034L172.972 3.43953Z" fill="#FFA289"/>
</svg>
