<svg width="144" height="78" viewBox="0 0 144 78" fill="none" xmlns="http://www.w3.org/2000/svg">
<path d="M145.248 2.55881C145.753 2.02732 146.64 2.20322 146.905 2.88751L154.089 21.4673C154.318 22.0602 155.035 22.2915 155.567 21.9445L172.257 11.0689C172.872 10.6684 173.694 11.0441 173.794 11.7709L176.499 31.5066C176.585 32.1363 177.229 32.5268 177.828 32.3119L196.575 25.5783C197.266 25.3303 197.979 25.8856 197.909 26.6158L195.99 46.4434C195.929 47.0761 196.465 47.6046 197.097 47.5335L216.892 45.3049C217.621 45.2228 218.188 45.9276 217.95 46.6219L211.511 65.4725C211.305 66.074 211.706 66.7121 212.337 66.7885L232.112 69.1851C232.841 69.2734 233.229 70.0898 232.838 70.7106L222.225 87.568C221.886 88.1059 222.129 88.8191 222.725 89.0391L241.415 95.9316C242.103 96.1854 242.293 97.0695 241.769 97.5834L227.554 111.539C227.101 111.984 227.172 112.734 227.702 113.086L244.298 124.102C244.91 124.508 244.89 125.412 244.263 125.792L227.212 136.093C226.668 136.421 226.565 137.167 226.999 137.632L240.608 152.179C241.109 152.715 240.882 153.59 240.183 153.814L221.217 159.906C220.612 160.1 220.339 160.802 220.655 161.354L230.542 178.648C230.906 179.284 230.483 180.084 229.751 180.141L209.892 181.694C209.258 181.744 208.831 182.364 209.011 182.974L214.643 202.081C214.85 202.785 214.254 203.465 213.53 203.352L193.847 200.284C193.219 200.186 192.66 200.691 192.694 201.326L193.768 221.217C193.808 221.949 193.071 222.474 192.392 222.197L173.948 214.672C173.359 214.432 172.699 214.794 172.586 215.42L169.043 235.023C168.913 235.745 168.075 236.085 167.478 235.659L151.267 224.083C150.749 223.714 150.023 223.914 149.769 224.497L141.801 242.754C141.508 243.427 140.614 243.565 140.132 243.012L127.026 228.01C126.608 227.531 125.855 227.559 125.474 228.067L113.51 243.995C113.07 244.582 112.169 244.51 111.826 243.861L102.534 226.241C102.238 225.679 101.499 225.532 101.01 225.938L85.696 238.678C85.132 239.147 84.2716 238.87 84.0882 238.159L79.11 218.871C78.9511 218.256 78.2659 217.943 77.6967 218.225L59.8575 227.09C59.2005 227.416 58.4273 226.948 58.4127 226.214L58.0168 206.298C58.0042 205.662 57.4096 205.2 56.7905 205.344L37.3879 209.855C36.6733 210.022 36.029 209.387 36.1839 208.67L40.3917 189.199C40.526 188.578 40.0542 187.991 39.4186 187.988L19.4985 187.904C18.7648 187.9 18.2842 187.135 18.6003 186.473L27.185 168.497C27.4589 167.924 27.1352 167.243 26.5173 167.094L7.1537 162.418C6.44055 162.246 6.14946 161.39 6.60978 160.818L19.1085 145.307C19.5073 144.812 19.3492 144.076 18.7824 143.788L1.01911 134.772C0.364899 134.44 0.27906 133.54 0.858712 133.09L16.5977 120.88C17.0999 120.49 17.1159 119.737 16.6307 119.326L1.42538 106.457C0.865383 105.983 0.989429 105.088 1.65717 104.784L19.7879 96.5317C20.3664 96.2684 20.5557 95.5392 20.1783 95.0278L8.35063 78.9989C7.91503 78.4086 8.24227 77.5657 8.9621 77.424L28.5071 73.5757C29.1308 73.4529 29.4831 72.787 29.2338 72.2023L21.4215 53.8779C21.1338 53.203 21.6466 52.4584 22.3797 52.4864L42.2854 53.2493C42.9205 53.2736 43.4169 52.7069 43.3092 52.0805L39.9334 32.4484C39.809 31.7253 40.4797 31.119 41.1866 31.3154L60.3798 36.6482C60.9922 36.8184 61.6059 36.3815 61.6456 35.7471L62.8882 15.8656C62.934 15.1334 63.7264 14.6981 64.369 15.0522L81.815 24.6675C82.3716 24.9743 83.0695 24.6907 83.2544 24.0826L89.0486 5.02361C89.262 4.32168 90.1335 4.08085 90.677 4.57361L105.435 17.9531C105.906 18.38 106.651 18.265 106.971 17.7159L117.004 0.506842C117.374 -0.126952 118.277 -0.160312 118.692 0.444509L129.967 16.8668C130.327 17.3908 131.078 17.4506 131.516 16.9901L145.248 2.55881Z" fill="#ECFF7C"/>
</svg>
